
<svg version="1.1" xmlns="http://www.w3.org/2000/svg" width="32" height="32" viewBox="0 0 32 32">
<title>100</title>
<path fill="#bb1a34" d="M1.536 18.667c-0.548 0-0.847-0.228-1.002-0.419-0.152-0.188-0.309-0.52-0.2-1.036l2.425-11.294-1.535 0.086c-0.46 0-0.793-0.149-1.002-0.408-0.196-0.242-0.266-0.552-0.196-0.871 0.133-0.624 0.785-1.143 1.482-1.181l3.563-0.202c0.069-0.004 0.133-0.007 0.193-0.007 0.131 0 0.476 0 0.696 0.272 0.224 0.277 0.148 0.63 0.124 0.746l-2.777 12.94c-0.166 0.786-0.817 1.324-1.659 1.371l-0.111 0.004zM11.085 16.889c-1.279 0-2.342-0.479-3.075-1.386-1.034-1.279-1.304-3.245-0.78-5.686 0.917-4.277 3.74-7.276 7.024-7.462 1.413-0.079 2.583 0.402 3.372 1.377 1.034 1.279 1.304 3.245 0.78 5.686-0.917 4.276-3.74 7.275-7.026 7.461-0.1 0.007-0.198 0.010-0.295 0.010zM14.12 4.67l-0.122 0.004c-1.724 0.099-3.16 2.048-3.84 5.214-0.425 1.98-0.339 3.466 0.242 4.184 0.264 0.327 0.637 0.493 1.11 0.493l0.124-0.004c1.724-0.097 3.159-2.045 3.838-5.212 0.425-1.98 0.34-3.467-0.24-4.185-0.263-0.328-0.638-0.494-1.113-0.494zM24.423 15.432c-1.279 0-2.344-0.479-3.077-1.387-1.034-1.279-1.304-3.245-0.78-5.686 0.918-4.278 3.741-7.276 7.025-7.461 1.425-0.080 2.58 0.403 3.369 1.377 1.034 1.279 1.304 3.245 0.78 5.685-0.916 4.275-3.739 7.274-7.024 7.463-0.1 0.007-0.196 0.009-0.292 0.009zM27.455 3.212l-0.121 0.004c-1.725 0.099-3.161 2.048-3.84 5.213-0.425 1.981-0.339 3.468 0.242 4.185 0.264 0.327 0.639 0.493 1.112 0.493l0.124-0.004c1.724-0.097 3.159-2.046 3.838-5.212 0.426-1.98 0.34-3.466-0.24-4.184-0.265-0.329-0.64-0.495-1.116-0.495zM9.778 31.112c-0.72 0-1.397-0.441-1.665-1.155-0.345-0.919 0.121-1.944 1.040-2.289 0.3-0.112 7.466-2.763 18.254-3.662 0.979-0.085 1.837 0.646 1.919 1.624s-0.646 1.837-1.624 1.919c-10.302 0.859-17.232 3.423-17.301 3.449-0.204 0.076-0.416 0.114-0.623 0.114zM1.779 25.778c-0.715 0-1.389-0.434-1.66-1.14-0.352-0.916 0.105-1.945 1.021-2.296 0.482-0.186 12.014-4.556 28.988-5.45 0.989-0.061 1.818 0.701 1.869 1.682s-0.701 1.818-1.682 1.869c-16.376 0.862-27.788 5.174-27.901 5.218-0.209 0.079-0.424 0.117-0.636 0.117z"></path>
</svg>
