
<svg version="1.1" xmlns="http://www.w3.org/2000/svg" width="32" height="32" viewBox="0 0 32 32">
<title>cat-in-love</title>
<path fill="#ffcc4d" d="M32 17.778c0 8.889-9.778 14.222-16 14.222s-16-5.386-16-14.222c0-8.836 3.556-17.778 16-17.778s16 8.889 16 17.778z"></path>
<path fill="#ffcc4d" d="M31.111 0.889c0.889 0.889 0 9.778 0 9.778l-7.111-8.889s6.222-1.778 7.111-0.889zM0.889 0.889c-0.889 0.889 0 9.778 0 9.778l7.111-8.889s-6.222-1.778-7.111-0.889z"></path>
<path fill="#292f33" d="M27.915 21.071c-0.109-0.15-0.3-0.218-0.482-0.165-0.061 0.018-6.222 1.76-11.434 1.76-5.207 0-11.372-1.743-11.433-1.76-0.186-0.055-0.383 0.019-0.491 0.178s-0.1 0.37 0.018 0.522c0.26 0.335 6.419 8.172 11.907 8.172 6.387 0 11.703-7.863 11.926-8.198 0.102-0.155 0.098-0.357-0.012-0.508z"></path>
<path fill="#f5f8fa" d="M7.111 22.222s4.444 1.778 8.889 1.778 8.889-1.778 8.889-1.778 0 2.667-0.889 2.667-1.778-0.889-1.778-0.889-3.556 1.778-6.222 1.778-6.222-1.778-6.222-1.778-0.889 0.889-1.778 0.889-0.889-2.667-0.889-2.667z"></path>
<path fill="#67757f" d="M16 17.333c2.667 0 2.667 0.444 2.667 1.333s-1.333 2.667-2.667 2.667-2.667-1.778-2.667-2.667-0.001-1.333 2.667-1.333z"></path>
<path fill="#9aaab4" d="M23.111 18.222c-0.186 0-0.359-0.118-0.422-0.304-0.077-0.233 0.049-0.484 0.281-0.563l8-2.667c0.235-0.077 0.484 0.048 0.563 0.281s-0.049 0.484-0.281 0.562l-8 2.667c-0.047 0.017-0.093 0.024-0.14 0.024zM22.221 20c-0.207 0-0.392-0.146-0.435-0.357-0.049-0.241 0.108-0.475 0.348-0.523l8.889-1.778c0.231-0.048 0.474 0.107 0.523 0.348s-0.108 0.475-0.349 0.523l-8.889 1.778c-0.028 0.006-0.058 0.009-0.087 0.009zM8.889 18.222c-0.046 0-0.094-0.007-0.14-0.022l-8-2.667c-0.233-0.077-0.358-0.329-0.281-0.562s0.327-0.359 0.562-0.281l8 2.667c0.233 0.078 0.358 0.33 0.281 0.563-0.062 0.184-0.235 0.302-0.421 0.302zM9.778 20c-0.028 0-0.058-0.003-0.088-0.009l-8.889-1.778c-0.241-0.048-0.396-0.282-0.348-0.523s0.278-0.399 0.523-0.348l8.889 1.778c0.241 0.048 0.396 0.282 0.348 0.523-0.041 0.212-0.227 0.357-0.435 0.357z"></path>
<path fill="#dd2e44" d="M14.423 4.548c-0.764-2.161-3.133-3.295-5.294-2.533-1.313 0.462-2.241 1.521-2.603 2.759-1.059-0.737-2.445-0.978-3.756-0.516-2.161 0.762-3.296 3.133-2.533 5.294 0.108 0.307 0.252 0.589 0.42 0.852 1.734 3.184 6.745 5.422 9.78 5.45 2.344-1.926 4.84-6.812 4.193-10.38-0.034-0.309-0.1-0.62-0.206-0.926zM17.577 4.548c0.764-2.161 3.133-3.295 5.294-2.533 1.313 0.462 2.241 1.521 2.604 2.759 1.059-0.737 2.445-0.978 3.756-0.516 2.16 0.762 3.295 3.133 2.533 5.294-0.109 0.307-0.252 0.589-0.42 0.852-1.734 3.184-6.745 5.422-9.78 5.45-2.344-1.926-4.84-6.812-4.193-10.38 0.034-0.309 0.1-0.62 0.206-0.926z"></path>
</svg>
