
<svg version="1.1" xmlns="http://www.w3.org/2000/svg" width="32" height="32" viewBox="0 0 32 32">
<title>clapping</title>
<path fill="#ef9645" d="M28.713 21.642c-0.618-0.898-0.273-2.196-0.427-3.628-0.158-2.338-1.163-4.603-3.111-6.414l-6.636-6.171s-1.308-1.217-2.525 0.092c-1.216 1.308 0.092 2.524 0.092 2.524l5.234 4.868s-0.609 0.654-3.299-1.847l-9.084-8.45s-1.309-1.216-2.526 0.092c-1.216 1.308 0.092 2.524 0.092 2.524l8.59 7.99c-0.019-0.018-0.65 0.615-0.661 0.604l-9.191-8.548s-1.308-1.217-2.525 0.092c-1.217 1.308 0.092 2.524 0.092 2.524l9.192 8.55c0.011 0.011-0.581 0.679-0.564 0.696l-7.929-7.376s-1.308-1.217-2.525 0.092c-1.217 1.308 0.092 2.525 0.092 2.525l8.43 7.84c0.077 0.072-0.444 0.807-0.348 0.897l-6.075-5.65s-1.308-1.217-2.525 0.092c-1.217 1.308 0.092 2.525 0.092 2.525l9.908 9.212c1.654 1.539 3.353 2.317 5.401 2.603 0.417 0.058 0.95 0.058 1.169 0.085 0.691 0.087 1.297 0.332 2.108 0.83 1.044 0.64 2.612 0.907 3.512-0.056l5.905-6.317c0.9-0.962 0.739-1.792 0.044-2.801z"></path>
<path fill="#fa743e" d="M1.739 31.134c-0.228 0-0.455-0.087-0.628-0.26-0.348-0.348-0.348-0.909 0-1.257l3.156-3.155c0.348-0.348 0.909-0.348 1.257 0s0.348 0.909 0 1.257l-3.156 3.156c-0.173 0.173-0.401 0.26-0.628 0.26zM7.735 31.954c-0.097 0-0.196-0.016-0.294-0.050-0.463-0.162-0.708-0.668-0.545-1.132l0.863-2.465c0.162-0.463 0.669-0.707 1.132-0.546 0.463 0.163 0.708 0.669 0.545 1.132l-0.863 2.465c-0.128 0.366-0.471 0.596-0.838 0.596zM0.92 25.139c-0.366 0-0.709-0.228-0.838-0.593-0.164-0.463 0.079-0.971 0.542-1.134l2.218-0.783c0.465-0.16 0.971 0.081 1.134 0.542 0.164 0.463-0.079 0.971-0.542 1.134l-2.218 0.783c-0.099 0.035-0.198 0.051-0.296 0.051zM27.107 5.79c-0.228 0-0.455-0.087-0.628-0.26-0.348-0.348-0.348-0.91 0-1.258l3.157-3.156c0.348-0.347 0.909-0.347 1.257 0s0.348 0.91 0 1.258l-3.157 3.156c-0.173 0.174-0.401 0.26-0.628 0.26zM23.405 4.282c-0.097 0-0.196-0.017-0.293-0.051-0.463-0.162-0.708-0.668-0.546-1.132l0.862-2.465c0.163-0.463 0.668-0.708 1.132-0.546s0.708 0.668 0.546 1.132l-0.862 2.465c-0.128 0.367-0.472 0.596-0.839 0.596zM28.866 9.414c-0.366 0-0.709-0.228-0.838-0.593-0.164-0.463 0.080-0.971 0.542-1.134l2.217-0.783c0.464-0.164 0.971 0.080 1.134 0.542s-0.080 0.971-0.542 1.134l-2.217 0.783c-0.099 0.035-0.198 0.051-0.296 0.051z"></path>
<path fill="#ffdb5e" d="M31.458 21.175c-0.588-0.917-0.199-2.204-0.304-3.641-0.080-2.341-1.007-4.639-2.893-6.516l-6.425-6.39s-1.266-1.26-2.527 0.007c-1.26 1.266 0.007 2.526 0.007 2.526l5.067 5.041s-0.631 0.633-3.235-1.957c-2.605-2.591-8.795-8.751-8.795-8.751s-1.267-1.26-2.527 0.007c-1.26 1.266 0.006 2.525 0.006 2.525l8.316 8.276c-0.018-0.018-0.67 0.593-0.682 0.581l-8.898-8.853s-1.267-1.26-2.527 0.006c-1.26 1.267 0.006 2.526 0.006 2.526l8.899 8.855c0.011 0.011-0.604 0.659-0.587 0.676l-7.676-7.638s-1.267-1.26-2.527 0.007 0.006 2.527 0.006 2.527l8.161 8.12c0.075 0.074-0.471 0.792-0.378 0.885l-5.881-5.852s-1.267-1.26-2.527 0.007 0.006 2.527 0.006 2.527l9.591 9.54c1.602 1.594 3.273 2.428 5.31 2.783 0.415 0.072 0.948 0.090 1.165 0.124 0.687 0.11 1.284 0.376 2.080 0.901 1.022 0.675 2.58 0.994 3.512 0.062l6.115-6.114c0.932-0.933 0.8-1.769 0.14-2.8z"></path>
</svg>
