
<svg version="1.1" xmlns="http://www.w3.org/2000/svg" width="32" height="32" viewBox="0 0 32 32">
<title>congratulations</title>
<path fill="#dd2e44" d="M10.334 6.656c-0.1 0.1-0.175 0.22-0.238 0.351l-0.007-0.007-9.97 22.459 0.010 0.010c-0.185 0.358 0.124 1.087 0.758 1.722s1.363 0.943 1.721 0.758l0.009 0.009 22.452-9.979c0.131-0.062 0.251-0.138 0.351-0.239 1.388-1.388-0.863-5.891-5.028-10.056-4.166-4.165-8.668-6.416-10.058-5.028z"></path>
<path fill="#ea596e" d="M11.556 10.667l-11.186 18.228-0.251 0.564 0.010 0.010c-0.185 0.358 0.124 1.087 0.758 1.722 0.206 0.206 0.42 0.363 0.63 0.495l13.594-16.574-3.556-4.444z"></path>
<path fill="#a0041e" d="M20.455 11.614c4.151 4.153 6.456 8.58 5.146 9.888-1.309 1.31-5.736-0.994-9.89-5.145-4.152-4.153-6.456-8.581-5.147-9.891s5.737 0.995 9.891 5.148z"></path>
<path fill="#aa8dd8" d="M16.524 12.097c-0.177 0.143-0.408 0.218-0.652 0.191-0.772-0.084-1.42-0.352-1.875-0.776-0.481-0.449-0.718-1.052-0.653-1.655 0.114-1.060 1.177-2.032 2.989-1.836 0.705 0.076 1.020-0.151 1.030-0.26 0.012-0.108-0.246-0.396-0.951-0.473-0.772-0.084-1.42-0.352-1.876-0.776-0.481-0.449-0.719-1.052-0.653-1.655 0.116-1.060 1.178-2.032 2.988-1.836 0.514 0.055 0.785-0.051 0.9-0.119 0.092-0.056 0.128-0.109 0.132-0.14 0.011-0.108-0.244-0.396-0.951-0.473-0.488-0.053-0.842-0.491-0.788-0.98 0.052-0.488 0.489-0.841 0.979-0.788 1.811 0.195 2.643 1.371 2.528 2.431s-1.178 2.032-2.99 1.837c-0.514-0.056-0.782 0.051-0.898 0.119-0.092 0.055-0.129 0.109-0.132 0.14-0.012 0.108 0.245 0.396 0.952 0.473 1.811 0.196 2.643 1.371 2.528 2.431s-1.177 2.032-2.988 1.836c-0.514-0.055-0.784 0.052-0.9 0.119-0.092 0.057-0.128 0.11-0.132 0.14-0.012 0.108 0.245 0.396 0.951 0.473 0.487 0.053 0.842 0.492 0.788 0.98-0.025 0.244-0.148 0.454-0.325 0.596z"></path>
<path fill="#77b255" d="M27.254 20.317c1.754-0.495 2.964 0.287 3.252 1.314s-0.336 2.324-2.089 2.818c-0.684 0.192-0.89 0.519-0.862 0.623 0.030 0.105 0.378 0.277 1.060 0.084 1.753-0.493 2.963 0.289 3.251 1.315 0.29 1.027-0.336 2.324-2.090 2.818-0.684 0.192-0.89 0.52-0.86 0.624s0.376 0.276 1.060 0.084c0.471-0.132 0.964 0.142 1.096 0.614s-0.143 0.964-0.616 1.097c-1.752 0.493-2.963-0.287-3.252-1.315-0.288-1.026 0.337-2.323 2.092-2.817 0.684-0.193 0.89-0.519 0.86-0.624-0.028-0.104-0.375-0.277-1.058-0.085-1.755 0.494-2.964-0.286-3.252-1.315-0.289-1.026 0.336-2.323 2.090-2.818 0.683-0.191 0.888-0.52 0.86-0.623-0.030-0.105-0.376-0.277-1.060-0.085-0.473 0.133-0.963-0.142-1.096-0.614s0.143-0.962 0.616-1.095z"></path>
<path fill="#aa8dd8" d="M20.445 17.92c-0.261 0-0.519-0.115-0.695-0.333-0.307-0.384-0.244-0.943 0.139-1.25 0.194-0.156 4.816-3.786 11.348-2.852 0.486 0.069 0.824 0.519 0.755 1.005s-0.516 0.827-1.006 0.754c-5.772-0.82-9.944 2.448-9.985 2.481-0.165 0.132-0.361 0.195-0.556 0.195z"></path>
<path fill="#77b255" d="M5.115 14.222c-0.084 0-0.171-0.012-0.256-0.037-0.47-0.141-0.737-0.636-0.596-1.107 1.007-3.354 1.92-8.706 0.798-10.101-0.125-0.158-0.315-0.314-0.748-0.281-0.834 0.064-0.755 1.823-0.754 1.841 0.037 0.49-0.331 0.916-0.82 0.953-0.497 0.030-0.916-0.331-0.953-0.82-0.092-1.226 0.29-3.587 2.393-3.746 0.939-0.071 1.718 0.255 2.268 0.94 2.108 2.623-0.032 10.228-0.482 11.726-0.116 0.385-0.469 0.633-0.852 0.633z"></path>
<path fill="#5c913b" d="M24 8.444c0 0.736-0.597 1.333-1.333 1.333s-1.333-0.597-1.333-1.333c0-0.736 0.597-1.333 1.333-1.333s1.333 0.597 1.333 1.333z"></path>
<path fill="#9266cc" d="M3.556 16c0 0.982-0.796 1.778-1.778 1.778s-1.778-0.796-1.778-1.778c0-0.982 0.796-1.778 1.778-1.778s1.778 0.796 1.778 1.778z"></path>
<path fill="#5c913b" d="M30.222 17.333c0 0.736-0.597 1.333-1.333 1.333s-1.333-0.597-1.333-1.333c0-0.736 0.597-1.333 1.333-1.333s1.333 0.597 1.333 1.333z"></path>
<path fill="#5c913b" d="M22.222 28c0 0.736-0.597 1.333-1.333 1.333s-1.333-0.597-1.333-1.333c0-0.736 0.597-1.333 1.333-1.333s1.333 0.597 1.333 1.333z"></path>
<path fill="#ffcc4d" d="M26.667 3.556c0 0.982-0.796 1.778-1.778 1.778s-1.778-0.796-1.778-1.778c0-0.982 0.796-1.778 1.778-1.778s1.778 0.796 1.778 1.778z"></path>
<path fill="#ffcc4d" d="M30.222 7.556c0 0.736-0.597 1.333-1.333 1.333s-1.333-0.597-1.333-1.333c0-0.736 0.597-1.333 1.333-1.333s1.333 0.597 1.333 1.333z"></path>
<path fill="#ffcc4d" d="M27.556 11.111c0 0.736-0.597 1.333-1.333 1.333s-1.333-0.597-1.333-1.333c0-0.736 0.597-1.333 1.333-1.333s1.333 0.597 1.333 1.333z"></path>
<path fill="#ffcc4d" d="M8 20.889c0 0.736-0.597 1.333-1.333 1.333s-1.333-0.597-1.333-1.333c0-0.736 0.597-1.333 1.333-1.333s1.333 0.597 1.333 1.333z"></path>
</svg>
