
<svg version="1.1" xmlns="http://www.w3.org/2000/svg" width="32" height="32" viewBox="0 0 32 32">
<title>cool</title>
<path fill="#ffcc4d" d="M32 16c0 8.836-7.164 16-16 16s-16-7.164-16-16 7.164-16 16-16 16 7.164 16 16z"></path>
<path fill="#292f33" d="M1.102 9.794c0.213 0.212 1.278 0.851 1.491 1.489s0.64 4.252 1.918 5.316c1.318 1.095 6.291 0.688 7.243 0.213 2.131-1.062 2.392-4.028 2.769-5.53 0.212-0.851 1.491-0.851 1.491-0.851s1.278 0 1.492 0.85c0.377 1.503 0.64 4.468 2.769 5.53 0.953 0.476 5.925 0.884 7.245-0.212 1.276-1.064 1.702-4.679 1.916-5.317 0.212-0.637 1.278-1.276 1.491-1.488 0.214-0.212 0.214-1.063 0-1.276-0.426-0.425-5.452-0.804-10.865-0.212-1.080 0.118-1.491 0.425-4.048 0.425-2.556 0-2.968-0.308-4.047-0.425-5.409-0.592-10.436-0.213-10.863 0.212-0.212 0.212-0.212 1.064 0 1.276z"></path>
<path fill="#664500" d="M24.298 21.004c-0.158-0.143-0.395-0.152-0.564-0.026-0.035 0.026-3.486 2.578-7.733 2.578-4.236 0-7.7-2.552-7.733-2.578-0.17-0.126-0.406-0.116-0.564 0.026s-0.193 0.377-0.084 0.558c0.115 0.191 2.86 4.66 8.381 4.66s8.268-4.469 8.381-4.66c0.109-0.182 0.075-0.416-0.084-0.558z"></path>
</svg>
