
<svg version="1.1" xmlns="http://www.w3.org/2000/svg" width="32" height="32" viewBox="0 0 32 32">
<title>crossed-fingers</title>
<path fill="#ef9645" d="M22.544 16.456l-0.331-0.463-0.143-0.117-3.556 0.014-3.643-10.596c-0.545 0.467-0.781 1.229-0.521 1.944l1.53 4.202-0.004 0.129 1.528 4.348-3.042-0.014-0.198 0.276c-0.074 0.028-0.551 0.278-0.687 0.391l-0.143 0.122s-1 0.475-1 2.14c0.039 0.603 0.348 1.364 0.639 1.577-0.319 0.508-0.885 0.814-1.417 0.814-0.981 0-1.694-0.685-1.694-1.667l0.262-6.379c-0.726 0.324-1.235 1.050-1.235 1.896v0.853l-0.097 0.004v3.699c-0.14 1.704-1.756 1.62-1.756 1.62-0.941 0-1.703-0.679-1.703-1.62v1.704c0 0.084 0.013 0.164 0.025 0.245 0.458 0.396 1.046 0.727 1.698 0.727 0 0 1.43 0.084 2.289-1.125 0.109 0.163 0.892 1.139 2.211 1.139 1.5 0 2.246-1.249 2.245-1.25 0.179 0.102 0.421 0.333 1.31 0.333h2.042c-1.805 1.541-2.556 4.025-2.556 6.153 0 0.245 0.268 0.5 0.514 0.5s0.514-0.254 0.514-0.5c0-2.265 0.799-4.126 2.044-5.236 1.012-0.903 2.332-0.916 2.332-0.916 0.245 0 0.514-0.268 0.514-0.514s-0.268-0.514-0.514-0.514h-4.889c-0.981 0-1.694-0.726-1.694-1.708s0.713-1.694 1.694-1.694l7.111-0.014c0.681 0 1.349 0.563 1.372 0.59-0.254-0.448-0.612-0.823-1.050-1.092zM18.074 4.769l0.557-1.036h0.12l1.807 4.981-0.001 0.26-0.457 1.214h-0.064l-1.963-5.328z"></path>
<path fill="#ffdc5d" d="M15.111 16c-0.625 0-0.948 0.18-0.948 0.18l1.716-4.739 1.659 4.559h-2.428zM7.036 14.222h0.149c0.941 0 1.703 0.763 1.703 1.704v3.703c0 0.941-0.762 1.704-1.703 1.704h-0.149c-0.941 0-1.703-0.763-1.703-1.704v-3.703c0-0.941 0.762-1.704 1.703-1.704zM13.186 16.853l-0.050 0.055c-0.421 0.47-0.692 1.076-0.692 1.758 0 0.056 0.012 0.109 0.016 0.164 0.039 0.603 0.274 1.148 0.647 1.577-0.063 0.115-0.145 0.216-0.23 0.314-0.325 0.371-0.791 0.612-1.322 0.612-0.981 0-1.778-0.796-1.778-1.778v-5.333c0-0.392 0.131-0.751 0.346-1.045 0.324-0.442 0.842-0.732 1.432-0.732 0.981 0 1.778 0.796 1.778 1.778v2.469c-0.054 0.049-0.097 0.109-0.148 0.162z"></path>
<path fill="#ffdc5d" d="M7.166 22.222c0.91 0 1.711-0.468 2.178-1.175 0.109 0.163 0.241 0.308 0.383 0.442 0.044 0.041 0.091 0.076 0.138 0.114 0.106 0.088 0.216 0.168 0.335 0.239 0.059 0.035 0.117 0.066 0.179 0.096 0.124 0.061 0.253 0.111 0.387 0.153 0.060 0.019 0.116 0.041 0.178 0.055 0.198 0.046 0.402 0.076 0.612 0.076s0.41-0.032 0.605-0.079c0.068-0.016 0.132-0.037 0.198-0.059 0.122-0.039 0.239-0.088 0.352-0.143 0.073-0.036 0.145-0.068 0.213-0.11 0.146-0.089 0.283-0.189 0.409-0.303 0.038-0.035 0.063-0.080 0.1-0.116 0.135-0.135 0.269-0.271 0.372-0.434l-0.003-0.003c0.177 0.102 0.42 0.357 1.308 0.357h2.255c-0.329 0.248-0.629 0.554-0.91 0.889-1.092 1.304-1.789 3.205-1.789 5.333 0 0.245 0.199 0.444 0.444 0.444s0.444-0.199 0.444-0.444c0-2.265 0.85-4.244 2.113-5.333 0.651-0.561 1.408-0.889 2.22-0.889h0.111c0.245 0 0.444-0.199 0.444-0.444s-0.199-0.444-0.444-0.444h-4.889c-0.981 0-1.778-0.796-1.778-1.778s0.796-1.778 1.778-1.778h7.111c0.028 0 0.055 0.007 0.084 0.009 0.065 0.003 0.129 0.009 0.192 0.020 0.055 0.009 0.108 0.019 0.162 0.033 0.056 0.015 0.111 0.031 0.166 0.052s0.108 0.042 0.161 0.067c0.051 0.024 0.099 0.052 0.147 0.080 0.050 0.029 0.097 0.060 0.143 0.095 0.046 0.034 0.091 0.071 0.133 0.11 0.041 0.036 0.080 0.075 0.117 0.116 0.024 0.026 0.045 0.053 0.067 0.081l0.046 0.056c0.034 0.045 0.065 0.091 0.094 0.139 0.030 0.050 0.057 0.1 0.083 0.152 0.027 0.055 0.050 0.111 0.071 0.169 0.011 0.028 0.026 0.053 0.035 0.083l0.966 3.185c0.092 0.298 0.426 1.663 0.365 1.948 0 4.275-4.174 8.719-9.254 8.719-5.811 0-10.528-4.65-10.654-10.43l0.012 0.009c0.458 0.396 1.045 0.644 1.698 0.644h0.11zM18.868 3.295c0.396-0.803 1.334-1.2 2.194-0.887 0.923 0.335 1.398 1.356 1.062 2.278l-1.566 4.288-1.926-5.241 0.236-0.438zM22.223 16l-2.123-5.811-1.84-5.056c-0.048-0.132-0.114-0.252-0.188-0.364-0.442-0.675-1.301-0.986-2.092-0.698-0.571 0.208-0.968 0.677-1.111 1.223-0.088 0.337-0.080 0.703 0.049 1.055l3.51 9.651h3.794z"></path>
</svg>
