
<svg version="1.1" xmlns="http://www.w3.org/2000/svg" width="32" height="32" viewBox="0 0 32 32">
<title>eight</title>
<path fill="#008eff" d="M32 28.444c0 1.964-1.592 3.556-3.556 3.556h-24.889c-1.964 0-3.556-1.592-3.556-3.556v-24.889c0-1.964 1.592-3.556 3.556-3.556h24.889c1.964 0 3.556 1.592 3.556 3.556v24.889z"></path>
<path fill="#fff" d="M9.194 19.825c0-2.204 1.212-3.83 2.948-4.768-1.295-0.937-2.094-2.204-2.094-3.941 0-3.225 2.674-5.292 5.953-5.292 3.196 0 5.981 2.039 5.981 5.292 0 1.543-0.772 3.087-2.124 3.941 1.875 0.938 2.949 2.646 2.949 4.768 0 3.831-3.115 6.284-6.808 6.284-3.802 0-6.806-2.591-6.806-6.284zM13.493 19.548c0 1.406 0.827 2.757 2.508 2.757 1.572 0 2.508-1.351 2.508-2.757 0-1.736-0.992-2.756-2.508-2.756-1.597 0-2.508 1.212-2.508 2.756zM14.017 11.556c0 1.24 0.717 2.094 1.984 2.094s2.012-0.854 2.012-2.094c0-1.185-0.717-2.095-2.012-2.095s-1.984 0.91-1.984 2.095z"></path>
</svg>
