
<svg version="1.1" xmlns="http://www.w3.org/2000/svg" width="32" height="32" viewBox="0 0 32 32">
<title>eyes</title>
<path fill="#fff" d="M14.916 16c0 6.52-3.165 11.805-7.069 11.805s-7.069-5.285-7.069-11.805c0-6.52 3.165-11.805 7.069-11.805s7.069 5.285 7.069 11.805z"></path>
<path fill="#000" d="M7.847 28.472c-4.338 0-7.736-5.478-7.736-12.472s3.398-12.472 7.736-12.472 7.736 5.478 7.736 12.472-3.398 12.472-7.736 12.472zM7.847 4.861c-3.531 0-6.403 4.996-6.403 11.139s2.872 11.139 6.403 11.139 6.403-4.996 6.403-11.139-2.872-11.139-6.403-11.139z"></path>
<path fill="#000" d="M10.27 16c0 2.435-1.974 4.409-4.409 4.409s-4.409-1.974-4.409-4.409c0-2.435 1.974-4.409 4.409-4.409s4.409 1.974 4.409 4.409z"></path>
<path fill="#000" d="M9.030 16c0 1.75-1.419 3.169-3.169 3.169s-3.169-1.419-3.169-3.169c0-1.75 1.419-3.169 3.169-3.169s3.169 1.419 3.169 3.169z"></path>
<path fill="#000" d="M8.3 13.727c0 0.7-0.567 1.268-1.268 1.268s-1.268-0.568-1.268-1.268c0-0.7 0.567-1.268 1.268-1.268s1.268 0.568 1.268 1.268z"></path>
<path fill="#fff" d="M31.277 16c0 6.52-3.165 11.805-7.069 11.805s-7.069-5.285-7.069-11.805c0-6.52 3.165-11.805 7.069-11.805s7.069 5.285 7.069 11.805z"></path>
<path fill="#000" d="M24.208 28.472c-4.338 0-7.736-5.478-7.736-12.472s3.398-12.472 7.736-12.472 7.737 5.478 7.737 12.472-3.399 12.472-7.737 12.472zM24.208 4.861c-3.531 0-6.403 4.997-6.403 11.139s2.872 11.139 6.403 11.139 6.404-4.996 6.404-11.139-2.873-11.139-6.404-11.139z"></path>
<path fill="#000" d="M26.631 16c0 2.435-1.974 4.409-4.409 4.409s-4.409-1.974-4.409-4.409c0-2.435 1.974-4.409 4.409-4.409s4.409 1.974 4.409 4.409z"></path>
<path fill="#000" d="M25.391 16c0 1.75-1.419 3.169-3.169 3.169s-3.169-1.419-3.169-3.169c0-1.75 1.419-3.169 3.169-3.169s3.169 1.419 3.169 3.169z"></path>
<path fill="#000" d="M24.66 13.727c0 0.7-0.567 1.268-1.268 1.268s-1.268-0.568-1.268-1.268c0-0.7 0.567-1.268 1.268-1.268s1.268 0.568 1.268 1.268z"></path>
</svg>
