
<svg version="1.1" xmlns="http://www.w3.org/2000/svg" width="32" height="32" viewBox="0 0 32 32">
<title>fist</title>
<path fill="#ffdc5d" d="M29.282 9.995c-0.036-0.541-0.252-1.049-0.599-1.461l-0.317-1.828c-0.334-1.783-1.984-3.010-3.788-2.817l-20.791 3.321c-1.673 0.18-2.978 1.532-3.098 3.21l1.565 9.908c0.271 1.928 1.912 3.367 3.859 3.389 0.602 0.007 1.1 0.015 1.3 0.024l8.429 0.412c-0.323 0.429-0.731 0.96-0.731 1.527v0.046c0 1.405 1.574 2.72 2.98 2.72h6.473c0.676 0 1.323-0.356 1.8-0.834l3.932-3.975c0.518-0.519 0.788-1.259 0.74-1.991l-1.755-11.651z"></path>
<path fill="#ef9645" d="M7.304 23.665c-0.421 0-0.796-0.3-0.874-0.73l-1.831-10.073c-0.088-0.483 0.233-0.946 0.716-1.034 0.485-0.086 0.946 0.233 1.034 0.716l1.831 10.073c0.088 0.483-0.233 0.945-0.716 1.033-0.054 0.011-0.108 0.015-0.16 0.015zM12.798 23.665c-0.46 0-0.849-0.354-0.885-0.82l-0.916-11.905c-0.038-0.49 0.329-0.916 0.818-0.955s0.916 0.33 0.955 0.818l0.916 11.904c0.038 0.49-0.329 0.917-0.818 0.955-0.023 0.003-0.047 0.004-0.069 0.004zM19.204 24.648c-0.452 0-0.673-0.001-0.845-0.944l-0.039-0.003c0.001-0.049 0.006-0.096 0.015-0.143-0.155-0.949-0.275-2.728-0.499-6.060-0.209-3.102-0.432-6.713-0.432-7.542 0-0.491 0.397-0.889 0.889-0.889s0.889 0.398 0.889 0.889c0 1.363 0.707 11.844 0.872 13.462 0.028 0.086 0.044 0.178 0.044 0.274 0 0.236-0.096 0.495-0.262 0.661s-0.395 0.294-0.631 0.294z"></path>
<path fill="#ef9645" d="M22.38 25.497h-5.918c-0.491 0-0.889-0.397-0.889-0.889s0.398-0.889 0.889-0.889h5.918c1.296 0 2.35-1.054 2.35-2.35v-11.412c0-0.491 0.397-0.889 0.889-0.889s0.889 0.398 0.889 0.889v11.412c-0.001 2.276-1.852 4.128-4.128 4.128z"></path>
</svg>
