
<svg version="1.1" xmlns="http://www.w3.org/2000/svg" width="32" height="32" viewBox="0 0 32 32">
<title>five</title>
<path fill="#008eff" d="M32 28.444c0 1.964-1.592 3.556-3.556 3.556h-24.889c-1.964 0-3.556-1.592-3.556-3.556v-24.889c0-1.964 1.592-3.556 3.556-3.556h24.889c1.964 0 3.556 1.592 3.556 3.556v24.889z"></path>
<path fill="#fff" d="M14.568 12.879c0.661-0.138 1.379-0.276 2.068-0.276 3.335 0 5.705 2.646 5.705 5.87 0 4.603-2.534 7.635-7.303 7.635-1.956 0-6.063-1.268-6.063-3.693 0-1.020 0.854-1.873 1.874-1.873 1.102 0 2.426 1.764 4.272 1.764 1.929 0 2.923-1.875 2.923-3.611 0-1.653-0.938-2.783-2.646-2.783-1.599 0-1.847 0.909-3.252 0.909-1.075 0-1.626-0.827-1.626-1.295 0-0.358 0.055-0.634 0.083-0.937l0.688-5.817c0.303-2.149 0.827-2.618 2.149-2.618h6.642c1.269 0 2.012 0.744 2.012 1.736 0 1.902-1.432 2.068-1.929 2.068h-5.181l-0.414 2.921z"></path>
</svg>
