
<svg version="1.1" xmlns="http://www.w3.org/2000/svg" width="32" height="32" viewBox="0 0 32 32">
<title>four</title>
<path fill="#008eff" d="M32 28.444c0 1.964-1.592 3.556-3.556 3.556h-24.889c-1.964 0-3.556-1.592-3.556-3.556v-24.889c0-1.964 1.592-3.556 3.556-3.556h24.889c1.964 0 3.556 1.592 3.556 3.556v24.889z"></path>
<path fill="#fff" d="M9.572 21.451c-1.35 0-1.929-0.908-1.929-1.626 0-0.606 0.22-0.938 0.386-1.212l6.174-11.19c0.606-1.102 1.378-1.598 2.811-1.598 1.599 0 3.17 1.020 3.17 3.528v8.461h0.468c1.075 0 1.929 0.717 1.929 1.82s-0.854 1.819-1.929 1.819h-0.468v2.343c0 1.461-0.579 2.149-1.984 2.149s-1.985-0.688-1.985-2.149v-2.343h-6.643zM16.215 10.124h-0.055l-3.721 7.689h3.776v-7.689z"></path>
</svg>
