
<svg version="1.1" xmlns="http://www.w3.org/2000/svg" width="32" height="32" viewBox="0 0 32 32">
<title>grimacing</title>
<path fill="#ffcc4d" d="M32 16c0 8.836-7.164 16-16 16s-16-7.164-16-16c0-8.836 7.164-16 16-16s16 7.164 16 16z"></path>
<path fill="#664500" d="M12.889 12c0 1.718-0.995 3.111-2.222 3.111s-2.222-1.393-2.222-3.111c0-1.718 0.995-3.111 2.222-3.111s2.222 1.393 2.222 3.111z"></path>
<path fill="#664500" d="M23.556 12c0 1.718-0.995 3.111-2.222 3.111s-2.222-1.393-2.222-3.111c0-1.718 0.995-3.111 2.222-3.111s2.222 1.393 2.222 3.111z"></path>
<path fill="#fff" d="M22.222 18.667c1.964 0 3.556 1.592 3.556 3.556s-1.592 3.556-3.556 3.556h-12.444c-1.964 0-3.556-1.592-3.556-3.556s1.592-3.556 3.556-3.556h12.444z"></path>
<path fill="#664500" d="M22.222 17.778h-12.444c-2.451 0-4.444 1.994-4.444 4.444s1.994 4.444 4.444 4.444h12.444c2.451 0 4.444-1.994 4.444-4.444s-1.994-4.444-4.444-4.444zM22.222 19.556c1.318 0 2.409 0.964 2.621 2.222h-3.066v-2.222h0.444zM20.889 19.556v2.222h-2.667v-2.222h2.667zM17.333 19.556v2.222h-2.667v-2.222h2.667zM13.778 19.556v2.222h-2.667v-2.222h2.667zM9.778 19.556h0.444v2.222h-3.066c0.212-1.259 1.303-2.222 2.621-2.222zM9.778 24.889c-1.318 0-2.409-0.964-2.621-2.222h3.066v2.222h-0.444zM11.111 24.889v-2.222h2.667v2.222h-2.667zM14.667 24.889v-2.222h2.667v2.222h-2.667zM18.222 24.889v-2.222h2.667v2.222h-2.667zM22.222 24.889h-0.444v-2.222h3.066c-0.212 1.259-1.303 2.222-2.621 2.222z"></path>
</svg>
