
<svg version="1.1" xmlns="http://www.w3.org/2000/svg" width="32" height="32" viewBox="0 0 32 32">
<title>grinning</title>
<path fill="#ffcc4d" d="M32 16c0 8.837-7.163 16-16 16s-16-7.163-16-16c0-8.837 7.163-16 16-16s16 7.163 16 16z"></path>
<path fill="#664500" d="M16 18.667c-3.22 0-5.357-0.375-8-0.889-0.604-0.116-1.778 0-1.778 1.778 0 3.556 4.084 8 9.778 8s9.778-4.444 9.778-8c0-1.778-1.174-1.895-1.778-1.778-2.643 0.514-4.78 0.889-8 0.889z"></path>
<path fill="#fff" d="M8 19.556s2.667 0.889 8 0.889 8-0.889 8-0.889-1.778 3.556-8 3.556-8-3.556-8-3.556z"></path>
<path fill="#664500" d="M12.889 12c0 1.718-0.995 3.111-2.222 3.111s-2.222-1.393-2.222-3.111c0-1.718 0.995-3.111 2.222-3.111s2.222 1.393 2.222 3.111z"></path>
<path fill="#664500" d="M23.556 12c0 1.718-0.995 3.111-2.222 3.111s-2.222-1.393-2.222-3.111c0-1.718 0.995-3.111 2.222-3.111s2.222 1.393 2.222 3.111z"></path>
</svg>
