
<svg version="1.1" xmlns="http://www.w3.org/2000/svg" width="32" height="32" viewBox="0 0 32 32">
<title>joy</title>
<path fill="#ffcc4d" d="M32 16c0 8.836-7.164 16-16 16s-16-7.164-16-16c0-8.836 7.164-16 16-16s16 7.164 16 16z"></path>
<path fill="#664500" d="M25.295 15.82c-0.053-0.12-1.332-2.931-3.962-2.931s-3.908 2.811-3.962 2.931c-0.082 0.184-0.028 0.399 0.129 0.525 0.156 0.126 0.379 0.131 0.542 0.012 0.011-0.008 1.122-0.802 3.291-0.802 2.156 0 3.266 0.783 3.291 0.801 0.078 0.059 0.172 0.088 0.265 0.088 0.098 0 0.196-0.033 0.277-0.097 0.157-0.126 0.212-0.343 0.129-0.528zM14.628 15.82c-0.053-0.12-1.332-2.931-3.962-2.931s-3.908 2.811-3.962 2.931c-0.082 0.184-0.028 0.399 0.128 0.525s0.38 0.131 0.542 0.012c0.012-0.008 1.122-0.802 3.292-0.802 2.156 0 3.266 0.783 3.291 0.801 0.078 0.059 0.172 0.088 0.265 0.088 0.098 0 0.196-0.033 0.277-0.097 0.158-0.126 0.211-0.343 0.129-0.528zM27.556 14.222c-0.352 0-0.686-0.212-0.826-0.559-1.58-3.951-5.532-4.783-5.572-4.792-0.481-0.096-0.794-0.564-0.697-1.046s0.564-0.792 1.046-0.697c0.201 0.040 4.939 1.038 6.873 5.874 0.182 0.456-0.040 0.973-0.496 1.156-0.107 0.044-0.219 0.065-0.329 0.065zM4.444 14.222c-0.11 0-0.221-0.020-0.33-0.064-0.456-0.182-0.677-0.7-0.495-1.156 1.934-4.836 6.672-5.834 6.873-5.874 0.483-0.094 0.949 0.216 1.046 0.697s-0.215 0.948-0.694 1.045c-0.164 0.034-4.005 0.871-5.574 4.792-0.14 0.348-0.474 0.559-0.826 0.559zM16 19.556c-3.22 0-5.357-0.375-8-0.889-0.604-0.116-1.778 0-1.778 1.778 0 3.556 4.084 8 9.778 8s9.778-4.444 9.778-8c0-1.778-1.174-1.895-1.778-1.778-2.643 0.514-4.78 0.889-8 0.889z"></path>
<path fill="#fff" d="M8 20.444s2.667 0.889 8 0.889 8-0.889 8-0.889-1.778 3.556-8 3.556-8-3.556-8-3.556z"></path>
<path fill="#5dadec" d="M9.642 25.092c-0.604 2.38-3.022 3.818-5.402 3.213s-3.818-3.021-3.214-5.401 5.633-7.74 6.495-7.522c0.862 0.22 2.724 7.331 2.121 9.709zM22.34 25.092c0.604 2.38 3.022 3.818 5.402 3.213s3.819-3.021 3.214-5.401-5.634-7.74-6.496-7.522c-0.86 0.22-2.724 7.331-2.12 9.709z"></path>
</svg>
