
<svg version="1.1" xmlns="http://www.w3.org/2000/svg" width="32" height="32" viewBox="0 0 32 32">
<title>mind-blown</title>
<path fill="#ffcb4c" d="M31.111 16.55c0-3.372-2.733-6.106-6.106-6.106-0.87 0-2.446 0.514-2.446 0.514l-11.668 1.23s-2.415-1.405-3.896-1.405c-3.373 0-6.107 2.733-6.107 6.106 0 0.211 0.011 0.419 0.031 0.624 0.33 8.054 6.946 14.487 15.080 14.487 8.346 0 15.111-6.765 15.111-15.111 0-0.046-0.008-0.090-0.011-0.136 0.003-0.068 0.011-0.134 0.011-0.203z"></path>
<path fill="#65471b" d="M19.851 25.456c0 2.43-1.724 4.4-3.851 4.4s-3.851-1.97-3.851-4.4c0-2.43 1.724-4.4 3.851-4.4s3.851 1.97 3.851 4.4z"></path>
<path fill="#65471b" d="M12.444 18.316c0 1.309-0.796 2.371-1.778 2.371s-1.778-1.061-1.778-2.371 0.796-2.371 1.778-2.371c0.981 0 1.778 1.061 1.778 2.371zM23.111 18.316c0 1.309-0.796 2.371-1.778 2.371s-1.778-1.061-1.778-2.371c0-1.308 0.796-2.371 1.778-2.371s1.778 1.062 1.778 2.371z"></path>
<path fill="#f19020" d="M5.57 12.167c0.222-0.167 0.989-0.455 1.525 0.045 0.905 0.844 1.124-1.284 3.98 0.269 1.306 0.71 7.99 0.853 8.621 0.54 2.393-1.188 4.238-1.954 4.953-1.549 0.555 0.314-0.865 0.849 0.173 0.971 1.060 0.124 1.121-0.436 1.957-0.219 1.471 0.381-0.972 2.066-0.972 2.066-3.873 3.178-17.27 0.803-19.635-0.69-0.977-0.617-0.946-1.176-0.603-1.433z"></path>
<path fill="#d93047" d="M26.389 8.102l-10.389-1.158-10.722 1.158c3.25 3.26 4.306 7.037 4.306 7.037l3.944 0.793 8.445 0.012c-0.001 0 1.36-5.14 4.416-7.843z"></path>
<path fill="#c02334" d="M26.050 8.387c1.139-1.123-4.244-1.619-8.522-1.619s-7.43 0.935-7.43 0.935-4.526 0.697-3.907 1.384c0.878 0.972 1.956 2.803 1.956 2.803s4.228 2.138 7.423-0.556c2.222 1.333 5.333 0.861 6.722-1.43 0 0 1.082 0.403 2.179 0.472 0 0 0.847-1.267 1.58-1.988z"></path>
<path fill="#ffcb4c" d="M26.319 13.908c-1.555 1.122-1.859-0.225-3.276-0.225-0.991 0-1.094 0.539-2.479 1.18-0.851 0.395-2.068-0.679-2.823-0.679-1.022 0-1.971 1.38-3.306 0.649-0.747-0.409-1.322-1.119-2.332-1.092-1.738 0.046-1.701 0.848-3.246 0.59-3.982-0.666-3.871-2.11-3.871-2.11l-0.585 3.763h8.34l3.371 1.598 3.963-1.598h4.883s0.57-0.158 0.972-0.304c1.408-0.508 1.576-2.628 0.389-1.772z"></path>
<path fill="#e8596e" d="M27.667 3.311c-0.213 0-0.415 0.040-0.61 0.097-0.612-0.751-1.532-1.241-2.576-1.241-0.077 0-0.15 0.018-0.227 0.023-0.652-0.735-1.595-1.208-2.655-1.208-1.338 0-2.489 0.746-3.099 1.836-0.308-0.709-1.012-1.206-1.835-1.206-0.638 0-1.199 0.304-1.565 0.769-0.452-1.307-1.678-2.251-3.138-2.251-1.176 0-2.204 0.612-2.798 1.532-0.164-0.026-0.327-0.052-0.498-0.052-1.273 0-2.365 0.722-2.927 1.771-0.18-0.034-0.364-0.056-0.555-0.056-1.657 0-3 1.343-3 3s1.343 3 3 3c0.523 0 1.009-0.141 1.435-0.378 0.334 0.251 0.745 0.405 1.196 0.405 0.129 0 0.253-0.014 0.375-0.038 0.76 1.226 2.104 2.047 3.652 2.047 1.519 0 2.85-0.787 3.62-1.971 0.64 0.784 1.602 1.295 2.692 1.295 1.613 0 2.957-1.1 3.356-2.588 0.030 0.001 0.058 0.009 0.088 0.009 0.252 0 0.497-0.028 0.734-0.077 0.581 0.494 1.325 0.804 2.148 0.804 1.044 0 1.964-0.49 2.575-1.241 0.195 0.057 0.396 0.097 0.61 0.097 1.209 0 2.189-0.98 2.189-2.189s-0.981-2.189-2.19-2.189z"></path>
<path fill="#f3aab9" d="M26.592 5.126c0 1.041-0.844 1.885-1.885 1.885s-1.885-0.844-1.885-1.885c0-1.041 0.844-1.885 1.885-1.885s1.885 0.844 1.885 1.885z"></path>
<path fill="#f3aab9" d="M17.668 5.247c0-1.060-0.86-1.921-1.92-1.921-0.327 0-0.631 0.090-0.9 0.234-0.223-0.534-0.75-0.91-1.366-0.91-0.504 0-0.948 0.253-1.216 0.638-0.596-0.554-1.388-0.9-2.265-0.9-1.56 0-2.859 1.076-3.222 2.523-0.324-0.326-0.773-0.529-1.27-0.529-0.988 0-1.788 0.801-1.788 1.788s0.801 1.788 1.788 1.788c0.625 0 1.172-0.321 1.492-0.806 0.46 0.961 1.359 1.665 2.444 1.848 0.347 0.596 0.984 1 1.723 1 0.955 0 1.75-0.67 1.949-1.564 0.288 0.16 0.614 0.26 0.966 0.26 0.951 0 1.744-0.666 1.947-1.556 0.926-0.138 1.639-0.928 1.639-1.892z"></path>
</svg>
