
<svg version="1.1" xmlns="http://www.w3.org/2000/svg" width="32" height="32" viewBox="0 0 32 32">
<title>nerd</title>
<path fill="#ffcc4d" d="M32 16c0 8.837-7.163 16-16 16s-16-7.163-16-16c0-8.837 7.163-16 16-16s16 7.163 16 16z"></path>
<path fill="#664500" d="M24.298 21.004c-0.158-0.143-0.395-0.152-0.564-0.026-0.035 0.026-3.486 2.578-7.733 2.578-4.236 0-7.7-2.552-7.733-2.578-0.17-0.126-0.406-0.116-0.564 0.026s-0.193 0.377-0.084 0.558c0.115 0.191 2.86 4.66 8.381 4.66s8.268-4.469 8.381-4.66c0.109-0.182 0.075-0.416-0.084-0.558z"></path>
<path fill="#65471b" d="M16 23.636c-0.132 0-0.259-0.010-0.389-0.014v4.014h0.778v-4.015c-0.129 0.004-0.257 0.015-0.388 0.015z"></path>
<path fill="#fff" d="M19.556 23.111c0.014-0.004-1.289 0.336-2.174 0.432-0.325 0.037-0.655 0.068-0.993 0.079v4.015h1.389c0.978 0 1.778-0.8 1.778-1.778v-2.748zM12.444 23.111c-0.014-0.004 1.289 0.336 2.174 0.432 0.325 0.037 0.655 0.068 0.993 0.079v4.015h-1.389c-0.978 0-1.778-0.8-1.778-1.778v-2.748z"></path>
<path fill="#65471b" d="M24.298 21.004c-0.158-0.143-0.395-0.152-0.564-0.026-0.027 0.020-2.008 1.483-4.81 2.196-0.394 0.1-1.657 0.382-2.921 0.383-1.266 0-2.532-0.283-2.926-0.383-2.802-0.713-4.783-2.176-4.81-2.196-0.169-0.126-0.406-0.117-0.564 0.026s-0.193 0.376-0.084 0.558c0.086 0.144 1.676 2.726 4.826 3.983v-1.626c-0.014-0.004 1.289 0.336 2.174 0.432 0.325 0.037 0.655 0.068 0.993 0.079 0.13 0.004 0.257 0.014 0.388 0.014s0.259-0.010 0.389-0.014c0.338-0.012 0.668-0.041 0.993-0.079 0.885-0.096 2.188-0.436 2.174-0.432v1.626c3.15-1.257 4.74-3.839 4.826-3.983 0.108-0.182 0.074-0.416-0.084-0.558zM23.666 12.466c0 1.524-0.834 2.759-1.863 2.759s-1.863-1.236-1.863-2.759 0.834-2.759 1.863-2.759c1.029 0 1.863 1.236 1.863 2.759zM8.406 12.466c0 1.524 0.834 2.759 1.863 2.759s1.863-1.236 1.863-2.759-0.834-2.759-1.863-2.759c-1.029 0-1.863 1.236-1.863 2.759z"></path>
<path fill="#292f33" d="M30.94 8.557c-0.152-0.148-1.126 0.244-2.112-0.259-2.034-1.036-7.173-2.036-10.519 0.334-0.358 0.253-1.855 0.296-2.274 0.278-0.419 0.019-1.916-0.024-2.274-0.278-3.345-2.371-8.484-1.371-10.518-0.334-0.986 0.502-1.96 0.111-2.112 0.259-0.22 0.212-0.22 1.063 0.001 1.276 0.219 0.212 1.313 0.458 1.531 1.095 0.22 0.638 0.221 4.407 1.967 5.71 1.635 1.22 5.448 1.587 7.865 0.212 2.108-1.199 2.035-3.724 2.421-5.228 0.138-0.536 0.526-0.806 1.12-0.806s0.982 0.27 1.12 0.806c0.387 1.503 0.312 4.028 2.421 5.228 2.417 1.374 6.23 1.007 7.864-0.212 1.747-1.302 1.748-5.072 1.967-5.71s1.312-0.884 1.531-1.095c0.22-0.213 0.221-1.064 0.001-1.276zM12.99 11.802c-0.068 0.982-0.244 2.868-1.42 3.538-0.721 0.411-1.66 0.66-2.644 0.66h-0.001c-1.089 0-2.598-0.308-3.188-0.748-0.738-0.55-1.019-2.815-1.124-3.662-0.068-0.54-0.249-1.858 0.345-2.060 0.942-0.321 2.257-0.572 3.602-0.572 0.616 0 2.685 0.038 3.693 0.659 0.893 0.548 0.775 1.645 0.737 2.186zM27.46 11.577c-0.106 0.848-0.387 3.124-1.124 3.675-0.59 0.44-2.1 0.748-3.188 0.748h-0.001c-0.984 0-1.923-0.25-2.644-0.66-1.176-0.668-1.351-2.543-1.42-3.525-0.037-0.54-0.156-1.645 0.737-2.194 1.009-0.62 3.077-0.663 3.693-0.663 1.345 0 2.659 0.246 3.602 0.567 0.594 0.203 0.413 1.513 0.346 2.052z"></path>
</svg>
