
<svg version="1.1" xmlns="http://www.w3.org/2000/svg" width="32" height="32" viewBox="0 0 32 32">
<title>nine</title>
<path fill="#008eff" d="M32 28.444c0 1.964-1.592 3.556-3.556 3.556h-24.889c-1.964 0-3.556-1.592-3.556-3.556v-24.889c0-1.964 1.592-3.556 3.556-3.556h24.889c1.964 0 3.556 1.592 3.556 3.556v24.889z"></path>
<path fill="#fff" d="M22.919 12.659c0 4.162-4.216 10.004-7 12.596-0.22 0.22-0.551 0.441-0.882 0.661-0.303 0.193-0.606 0.193-0.827 0.193-0.772 0-1.957-1.020-1.957-2.012 0-0.386 0.248-0.716 0.579-1.13 1.102-1.351 2.894-3.115 3.804-4.41l-0.055-0.055c-0.496 0.22-1.13 0.331-1.736 0.331-3.308 0-5.76-2.922-5.76-6.173 0-3.583 2.838-6.835 6.917-6.835 4.244 0 6.917 3.169 6.917 6.835zM18.62 12.659c0-1.543-0.965-2.867-2.619-2.867-1.571 0-2.618 1.268-2.618 2.867 0 1.461 0.882 2.867 2.618 2.867 1.572 0 2.619-1.241 2.619-2.867z"></path>
</svg>
