
<svg version="1.1" xmlns="http://www.w3.org/2000/svg" width="32" height="32" viewBox="0 0 32 32">
<title>ok</title>
<path fill="#ef9645" d="M22.22 25.333c-1.053 0-1.988-0.752-2.184-1.825l-3.556-19.556c-0.22-1.207 0.581-2.364 1.788-2.584 1.207-0.223 2.364 0.581 2.584 1.788l3.556 19.556c0.22 1.207-0.581 2.364-1.789 2.584-0.133 0.025-0.267 0.036-0.399 0.036z"></path>
<path fill="#ffdc5d" d="M25.222 22.013c0.212-0.662 0.116-1.414-0.333-2.013-0.052-0.069-0.391-0.52-0.904-1.191 0.004-0.046 0.015-0.1 0.015-0.142 0-0.407-1.7-2.332-3.324-4.076-1.411-1.747-2.899-3.512-3.993-4.606l-1.132-1.132-1.433 0.716c-5.083 2.541-7.686 3.427-7.708 3.435-1.164 0.388-1.794 1.646-1.405 2.811s1.646 1.791 2.811 1.406c0.104-0.035 2.37-0.799 6.8-2.943 0.972 1.093 2.114 2.484 3.177 3.819l0.626 1.044c0.15 0.251 0.13 0.568-0.054 0.796l-3.123 3.904c-0.084 0.106-0.197 0.184-0.324 0.227l-2.25 0.75c-0.143 0.048-0.299 0.048-0.442 0l-4.204-1.401c-0.601-1.851-0.474-3.646-0.472-3.666 0.107-1.223-0.799-2.3-2.021-2.406-1.22-0.114-2.3 0.797-2.406 2.020-0.020 0.232-0.453 5.71 2.945 9.417 1.963 2.14 4.708 3.227 8.158 3.227 0.587 0 1.14 0.008 1.663 0.016 0.47 0.007 0.926 0.014 1.366 0.014 2.457 0 4.448-0.205 5.989-1.725 1.466-1.445 2.092-3.729 2.092-7.637-0.001-0.234-0.046-0.452-0.112-0.661z"></path>
<path fill="#ef9645" d="M24.001 18.667c-0.341 0-0.666-0.196-0.813-0.528l-3.556-8c-0.199-0.449 0.003-0.974 0.452-1.173 0.45-0.201 0.974 0.003 1.173 0.451l3.556 8c0.199 0.449-0.003 0.974-0.452 1.173-0.117 0.053-0.239 0.077-0.36 0.077z"></path>
<path fill="#ffdc5d" d="M22.014 30.56l-1.361-4.231s-0.059 0.010-0.156 0.059c0.015-0.008 1.619-0.884 2.188-5.336 0.689-5.4-0.688-8.533-0.702-8.564l-0.083-0.205-3.111-8.981c-0.402-1.16 0.212-2.426 1.372-2.828 1.158-0.401 2.426 0.213 2.828 1.372l3.084 8.9c0.335 0.788 1.809 4.698 1.020 10.868-0.926 7.256-4.394 8.725-5.079 8.946z"></path>
</svg>
