
<svg version="1.1" xmlns="http://www.w3.org/2000/svg" width="32" height="32" viewBox="0 0 32 32">
<title>okay</title>
<path fill="#008eff" d="M32 28.444c0 1.964-1.592 3.556-3.556 3.556h-24.889c-1.964 0-3.556-1.592-3.556-3.556v-24.889c0-1.964 1.592-3.556 3.556-3.556h24.889c1.964 0 3.556 1.592 3.556 3.556v24.889z"></path>
<path fill="#fff" d="M1.718 15.516c0-4.437 2.987-7.852 7.339-7.852 4.289 0 7.34 3.52 7.34 7.852 0 4.417-2.965 7.852-7.34 7.852-4.331 0-7.339-3.435-7.339-7.852zM13.068 15.516c0-2.581-1.344-4.907-4.012-4.907s-4.011 2.325-4.011 4.907c0 2.604 1.301 4.908 4.011 4.908s4.012-2.304 4.012-4.908zM17.717 9.371c0-0.875 0.641-1.579 1.601-1.579 0.916 0 1.6 0.597 1.6 1.579v4.609l5.249-5.59c0.235-0.256 0.639-0.597 1.236-0.597 0.811 0 1.58 0.619 1.58 1.536 0 0.555-0.342 1.003-1.045 1.707l-4.033 3.968 4.929 5.142c0.512 0.512 0.896 0.98 0.896 1.621 0 1.003-0.79 1.471-1.665 1.471-0.618 0-1.022-0.362-1.621-1.003l-5.525-5.974v5.441c0 0.832-0.64 1.536-1.6 1.536-0.917 0-1.601-0.597-1.601-1.536v-12.331z"></path>
</svg>
