
<svg version="1.1" xmlns="http://www.w3.org/2000/svg" width="32" height="32" viewBox="0 0 32 32">
<title>one</title>
<path fill="#008eff" d="M32 28.444c0 1.964-1.592 3.556-3.556 3.556h-24.889c-1.964 0-3.556-1.592-3.556-3.556v-24.889c0-1.964 1.592-3.556 3.556-3.556h24.889c1.964 0 3.556 1.592 3.556 3.556v24.889z"></path>
<path fill="#fff" d="M14.633 9.933h-1.626c-1.323 0-1.874-0.964-1.874-1.901 0-0.964 0.689-1.902 1.874-1.902h3.913c1.186 0 1.847 0.854 1.847 1.956v15.683c0 1.379-0.882 2.149-2.068 2.149s-2.067-0.771-2.067-2.149v-13.836z"></path>
</svg>
