
<svg version="1.1" xmlns="http://www.w3.org/2000/svg" width="32" height="32" viewBox="0 0 32 32">
<title>question</title>
<path fill="#be1931" d="M15.111 24c-1.473 0-2.667-1.194-2.667-2.667v-3.556c0-1.473 1.194-2.667 2.667-2.667 0.536-0.005 5.333-0.889 5.333-4.444 0-1.778-1.778-3.556-4.444-3.556-2.17 0-3.556 1.778-3.556 2.667 0 1.473-1.194 2.667-2.667 2.667s-2.667-1.194-2.667-2.667c0-4.336 4.071-8 8.889-8 7.111 0 9.778 5.317 9.778 9.778 0 3.684-2.024 6.5-5.7 7.929-0.8 0.312-1.591 0.522-2.3 0.664v1.185c0 1.473-1.194 2.667-2.667 2.667z"></path>
<path fill="#be1931" d="M17.778 28.444c0 1.473-1.194 2.667-2.667 2.667s-2.667-1.194-2.667-2.667c0-1.473 1.194-2.667 2.667-2.667s2.667 1.194 2.667 2.667z"></path>
</svg>
