
<svg version="1.1" xmlns="http://www.w3.org/2000/svg" width="32" height="32" viewBox="0 0 32 32">
<title>raised-hand</title>
<path fill="#ffdc5d" d="M28.778 14.417c-1.228-0.543-2.981 0.185-4.222 1.945-0.815 1.156-1.055 2.801-2.125 2.972-0.409 0.066-0.631-0.183-0.747-0.541-0.122-0.604-0.095-1.539 0.131-2.845l2.436-10.947c0.194-0.836-0.26-1.646-1.354-1.91s-1.916 0.272-2.11 1.108l-2.174 9.925c-0.438 2.192-1.251 1.794-1.054-0.689v-0.001l0.623-11.637c0.051-0.9-0.641-1.635-1.663-1.674s-1.759 0.574-1.812 1.473l-0.594 11.919c-0.127 2.406-0.988 1.5-1.175-0.244l-1.381-9.643c-0.141-0.909-0.994-1.538-2.016-1.374s-1.64 1.010-1.499 1.919l1.329 8.812c0.527 3.364-0.162 4.296-1.296 0.643l-1.417-5.356c-0.231-0.86-1.078-1.393-2.142-1.094s-1.523 1.155-1.292 2.014l1.385 5.034c0.579 3.624 0.579 5.054 0.579 7.549s1.148 10.223 9.925 10.223 10.583-8.916 10.667-9.481c0 0 0.109-1.316 1.028-2.547 1.306-1.75 2.222-2.805 2.778-3.436 0.282-0.319 0.556-1.517-0.805-2.119z"></path>
<path fill="#ef9645" d="M22.143 19.325c-0.267-0.108-0.492-0.388-0.519-0.995-1.682 0.23-3.956 0.701-5.707 2.413-2.272 2.221-2.66 4.622-2.641 6.228 0.015 1.295 0.722 1.908 0.929-0.011 0.26-2.424 2.028-7.238 7.938-7.636z"></path>
</svg>
