
<svg version="1.1" xmlns="http://www.w3.org/2000/svg" width="32" height="32" viewBox="0 0 32 32">
<title>relieved</title>
<path fill="#ffcc4d" d="M32 16c0 8.836-7.164 16-16 16s-16-7.164-16-16 7.164-16 16-16 16 7.164 16 16z"></path>
<path fill="#664500" d="M25.166 13.877c-0.156-0.126-0.379-0.131-0.542-0.012-0.011 0.008-1.121 0.802-3.291 0.802s-3.28-0.794-3.289-0.8c-0.163-0.122-0.387-0.118-0.543 0.008-0.158 0.126-0.212 0.343-0.13 0.528 0.053 0.12 1.333 2.931 3.962 2.931s3.908-2.811 3.962-2.931c0.082-0.184 0.028-0.399-0.129-0.525zM13.957 13.865c-0.011 0.008-1.12 0.802-3.291 0.802s-3.28-0.794-3.289-0.8c-0.163-0.122-0.386-0.118-0.543 0.008s-0.212 0.343-0.13 0.528c0.053 0.12 1.333 2.931 3.962 2.931s3.908-2.811 3.962-2.931c0.082-0.184 0.028-0.399-0.129-0.525s-0.38-0.131-0.542-0.012zM25.779 11.556c-0.271 0-0.537-0.123-0.712-0.356-2.304-3.072-6.188-2.336-6.226-2.329-0.486 0.096-0.949-0.216-1.046-0.697s0.216-0.949 0.697-1.046c0.205-0.042 5.028-0.953 7.996 3.004 0.295 0.393 0.215 0.95-0.178 1.244-0.159 0.121-0.346 0.179-0.532 0.179zM6.221 11.556c-0.185 0-0.372-0.058-0.532-0.178-0.393-0.294-0.472-0.852-0.178-1.244 2.968-3.959 7.792-3.045 7.996-3.004 0.482 0.096 0.794 0.564 0.697 1.046-0.096 0.48-0.564 0.792-1.044 0.698-0.165-0.031-3.943-0.718-6.228 2.327-0.174 0.233-0.442 0.356-0.712 0.356zM20.67 20.957c-0.167-0.099-0.384-0.076-0.531 0.053-0.009 0.007-0.9 0.767-4.14 0.767-3.236 0-4.13-0.759-4.13-0.759-0.141-0.142-0.359-0.169-0.533-0.073-0.173 0.099-0.26 0.301-0.212 0.495 0.009 0.039 1.017 3.892 4.875 3.892s4.866-3.853 4.876-3.892c0.047-0.189-0.039-0.383-0.205-0.484z"></path>
</svg>
