
<svg version="1.1" xmlns="http://www.w3.org/2000/svg" width="32" height="32" viewBox="0 0 32 32">
<title>rock</title>
<path fill="#ef9645" d="M22.222 15.222l-7.111 0.019c-0.981 0-1.667 0.667-1.667 1.648s0.685 1.648 1.667 1.648l4.681 0.019s0.781-0.092 0.781 0.556c0 0.245-0.328 0.556-0.574 0.556 0 0-4-0.185-4.333 6.111-0.013 0.245-0.31 0.556-0.556 0.556s-0.555-0.31-0.555-0.556c0-2.676 1.241-5.278 2.548-6.065-0.81 0-1.521-0.046-1.993-0.046-0.889 0-1.278-0.297-1.278-0.296-0.13 0.205-0.5 1.13-2.389 1.13-2.111 0-2.685-2.1-2.685-2.685v-4.463l0.131-0.019c0-0.721 0.431-1.34 1.049-1.618l-0.085 5.915c0 0.981 0.722 1.852 1.704 1.852 0.671 0 1.123-0.303 1.426-0.852-0.407-0.468-0.602-1.007-0.602-1.676 0-0.788 0.283-1.596 0.824-2.084l0.037-2.407 0.092-0.020c0-0.721 0.431-1.34 1.049-1.618l-0.049 2.507-0.019 0.908c0.28-0.099 0.501-0.13 0.815-0.13l2.556 0.019v-2.593l0.092 0.019v-8c0-0.721 0.431-1.34 1.049-1.618l-0.030 12.142h3.241l0.185 0.142c0.82 0 1.532 1.778 1.532 1.778l0.002 0.013c-0.217-0.372-0.673-0.791-1.533-0.791z"></path>
<path fill="#ffdc5d" d="M13.333 14.914c-0.541 0.488-0.889 1.188-0.889 1.975 0 0.669 0.255 1.274 0.662 1.741-0.303 0.548-0.88 0.925-1.551 0.925-0.981 0-1.778-0.796-1.778-1.778v-5.333c0-0.26 0.060-0.506 0.16-0.729 0.278-0.618 0.897-1.049 1.618-1.049 0.981 0 1.778 0.796 1.778 1.778v2.469z"></path>
<path fill="#ffdc5d" d="M5.333 5.333c0-0.981 0.796-1.778 1.778-1.778s1.778 0.796 1.778 1.778v12.444c0 0.585 0.193 1.122 0.514 1.558 0.024 0.033 0.054 0.060 0.079 0.092 0.092 0.115 0.187 0.227 0.295 0.324 0.029 0.024 0.058 0.049 0.089 0.073 0.106 0.088 0.216 0.168 0.335 0.239 0.059 0.035 0.117 0.066 0.179 0.096 0.124 0.061 0.253 0.111 0.387 0.153 0.060 0.019 0.116 0.041 0.178 0.055 0.197 0.046 0.401 0.076 0.612 0.076s0.41-0.032 0.605-0.079c0.068-0.016 0.132-0.037 0.198-0.059 0.122-0.039 0.239-0.088 0.352-0.143 0.073-0.036 0.145-0.068 0.213-0.11 0.146-0.089 0.283-0.189 0.409-0.303 0.18-0.164 0.341-0.344 0.471-0.549l-0.003-0.003c0.178 0.102 0.42 0.357 1.309 0.357h2.255c-1.608 1.213-2.7 3.547-2.7 6.222 0 0.245 0.199 0.444 0.444 0.444s0.444-0.199 0.444-0.444c0-3.43 1.944-6.222 4.333-6.222h0.111c0.245 0 0.444-0.199 0.444-0.444s-0.199-0.444-0.444-0.444h-4.889c-0.981 0-1.778-0.796-1.778-1.778s0.796-1.778 1.778-1.778h7.111c0.86 0 1.316 0.53 1.533 0.902 0.112 0.193 0.164 0.346 0.167 0.356l0.966 3.187c0.092 0.298 0.426 1.663 0.365 1.948 0 4.275-4.174 8.719-9.254 8.719-5.811 0-10.667-4.667-10.667-10.667 0.007 0.006 0-14.222 0-14.222z"></path>
<path fill="#ffdc5d" d="M17.778 14.222h-2.667c-0.313 0-0.609 0.064-0.889 0.164v-2.83c0-0.26 0.060-0.506 0.16-0.729 0.278-0.618 0.897-1.049 1.618-1.049 0.981 0 1.778 0.796 1.778 1.778v2.667zM18.667 14.222v-11.556c0-0.26 0.060-0.506 0.16-0.729 0.278-0.618 0.897-1.049 1.618-1.049 0.981 0 1.778 0.796 1.778 1.778v11.556h-3.556z"></path>
</svg>
