
<svg version="1.1" xmlns="http://www.w3.org/2000/svg" width="32" height="32" viewBox="0 0 32 32">
<title>rocket</title>
<path fill="#a0041e" d="M0.889 15.111l7.111-6.222 14.222 0.889 0.889 14.222-6.222 7.111s0.001-5.332-5.333-10.667-10.667-5.333-10.667-5.333z"></path>
<path fill="#ffac33" d="M0.865 31.111s-0.032-7.092 2.653-9.778 9.815-2.5 9.815-2.5-0.001 6.945-2.668 9.612c-2.667 2.667-9.801 2.667-9.801 2.667z"></path>
<path fill="#ffcc4d" d="M11.555 24c0 1.964-1.592 3.556-3.556 3.556s-3.556-1.592-3.556-3.556c0-1.964 1.592-3.556 3.556-3.556s3.556 1.592 3.556 3.556z"></path>
<path fill="#55acee" d="M31.999 0s-8.889 0-19.556 8.889c-5.333 4.444-5.333 12.444-3.556 14.222s9.778 1.778 14.222-3.556c8.889-10.667 8.889-19.556 8.889-19.556z"></path>
<path fill="#000" d="M23.999 4.444c-1.443 0-2.678 0.863-3.236 2.098 0.446-0.202 0.938-0.32 1.459-0.32 1.964 0 3.556 1.592 3.556 3.556 0 0.521-0.118 1.012-0.319 1.458 1.235-0.557 2.097-1.793 2.097-3.236 0-1.964-1.592-3.556-3.556-3.556z"></path>
<path fill="#a0041e" d="M7.111 24.889s0-3.556 0.889-4.444 11.556-9.777 12.444-8.889-8.001 11.556-8.89 12.444-4.444 0.889-4.444 0.889z"></path>
</svg>
