
<svg version="1.1" xmlns="http://www.w3.org/2000/svg" width="32" height="32" viewBox="0 0 32 32">
<title>saint</title>
<path fill="#ffcc4d" d="M32 16c0 8.837-7.163 16-16 16s-16-7.163-16-16c0-8.837 7.163-16 16-16s16 7.163 16 16z"></path>
<path fill="#664500" d="M24.298 20.115c-0.158-0.143-0.395-0.152-0.564-0.026-0.035 0.026-3.486 2.578-7.733 2.578-4.236 0-7.7-2.552-7.733-2.578-0.17-0.126-0.406-0.116-0.564 0.026s-0.193 0.377-0.084 0.558c0.115 0.191 2.86 4.66 8.381 4.66s8.268-4.469 8.381-4.66c0.109-0.182 0.075-0.416-0.084-0.558zM23.111 16.889c-0.372 0-0.719-0.236-0.843-0.608-0.18-0.532-0.906-2.059-1.824-2.059-0.944 0-1.679 1.624-1.824 2.059-0.156 0.465-0.654 0.718-1.124 0.562-0.465-0.155-0.717-0.658-0.562-1.124 0.112-0.334 1.159-3.274 3.51-3.274s3.398 2.94 3.509 3.275c0.156 0.466-0.096 0.97-0.562 1.124-0.093 0.030-0.188 0.045-0.281 0.045zM14.222 16.889c-0.372 0-0.719-0.236-0.844-0.608-0.18-0.532-0.904-2.059-1.823-2.059-0.944 0-1.678 1.624-1.823 2.059-0.156 0.465-0.656 0.718-1.124 0.562-0.466-0.155-0.717-0.658-0.562-1.124 0.111-0.334 1.158-3.274 3.509-3.274s3.398 2.94 3.51 3.275c0.156 0.466-0.096 0.97-0.562 1.124-0.094 0.030-0.189 0.045-0.282 0.045z"></path>
<path fill="#ffac33" d="M29.489 7.392s-8.037 0.143-13.489 0.143c-3.471 0-13.516-0.105-13.516-0.105l-0.463 0.779c2.705 1.65 8.057 2.593 13.98 2.593 5.863 0 11.179-0.924 13.913-2.542l0.069-0.042s-0.332-0.59-0.493-0.826z"></path>
<path fill="#5dadec" d="M21.135 0.307c-1.077-0.084-2.198-0.141-3.354-0.169-0.588-0.014-1.18-0.023-1.781-0.023-0.597 0-1.188 0.009-1.772 0.022-1.157 0.028-2.279 0.085-3.357 0.169-6.124 0.476-10.721 1.873-10.721 4.394 0 3.189 7.346 5.13 15.85 5.13s15.85-1.94 15.85-5.13c0-2.52-4.594-3.916-10.715-4.393zM16 6.563c-6.099 0-11.476-0.74-11.476-2.432 0-0.476 0.439-0.909 1.19-1.288 1.025-0.516 2.647-0.928 4.612-1.199 1.699-0.233 3.643-0.364 5.673-0.364 2.036 0 3.987 0.132 5.689 0.367 1.993 0.276 3.632 0.696 4.651 1.224 0.717 0.372 1.136 0.795 1.136 1.26 0 1.692-5.377 2.432-11.476 2.432z"></path>
<path fill="#3b94d9" d="M21.689 1.647c1.993 0.276 3.632 0.696 4.651 1.224l0.055 0.015c-2.031-1.488-4.062-2.276-5.26-2.58-1.077-0.084-2.198-0.141-3.354-0.169l0.016 0.006 3.892 1.503zM5.715 2.844c1.025-0.516 2.647-0.928 4.612-1.199l3.901-1.508c-1.157 0.028-2.279 0.085-3.357 0.169-1.197 0.304-3.229 1.091-5.261 2.58l0.105-0.042z"></path>
<path fill="#ffcc4d" d="M25.308 3c-0.587-0.394-1.196-0.809-1.779-1.12-2.244-1.2-4.807-1.88-7.53-1.88-2.604 0-5.062 0.622-7.236 1.725-0.968 0.492-1.672 0.888-1.929 1.275h18.473z"></path>
</svg>
