
<svg version="1.1" xmlns="http://www.w3.org/2000/svg" width="32" height="32" viewBox="0 0 32 32">
<title>scared</title>
<path fill="#ffcc4d" d="M16 0c-8.836 0-16 7.164-16 16 0 5.379 2.663 10.126 6.732 13.027 0.092-5.723-1.988-12.138-5.484-12.138-0.412 0-0.747 0.059-1.025 0.163 0.269-0.673 0.853-1.052 1.946-1.052 3.796 0 5.925 7.561 5.415 13.589 2.448 1.519 5.324 2.411 8.416 2.411s5.97-0.892 8.418-2.412c-0.513-6.051 1.616-13.588 5.414-13.588 1.096 0 1.682 0.379 1.948 1.052-0.279-0.104-0.614-0.163-1.028-0.163-3.5 0-5.58 6.399-5.484 12.138 4.070-2.9 6.732-7.648 6.732-13.027 0-8.836-7.164-16-16-16z"></path>
<path fill="#bdddf4" d="M16 0c-8.836 0-16 7.164-16 16 0 1.060 0.109 2.094 0.306 3.097 0.208-0.767 0.533-1.503 0.94-2.208-0.412 0-0.745 0.059-1.022 0.163 0.235-0.586 0.731-0.932 1.572-1.015 2.66-3.715 8.015-6.259 14.204-6.259s11.545 2.543 14.204 6.258c0.844 0.084 1.342 0.428 1.575 1.016-0.277-0.104-0.612-0.163-1.025-0.163 0.407 0.705 0.732 1.441 0.94 2.208 0.196-1.003 0.305-2.037 0.305-3.097 0-8.836-7.164-16-16-16z"></path>
<path fill="#f5f8fa" d="M6.531 10.587c-0.841 2.823 0.095 5.594 2.092 6.188s4.297-1.211 5.137-4.034c0.841-2.822-0.094-5.594-2.090-6.188s-4.297 1.212-5.139 4.034zM25.468 10.587c0.841 2.823-0.095 5.594-2.091 6.188s-4.297-1.211-5.137-4.034c-0.841-2.822 0.095-5.594 2.090-6.188s4.296 1.212 5.138 4.034z"></path>
<path fill="#664500" d="M16 16c-2.451 0-4.444 1.994-4.444 4.444v5.333c0 2.451 1.994 4.444 4.444 4.444s4.444-1.994 4.444-4.444v-5.333c0-2.451-1.994-4.444-4.444-4.444z"></path>
<path fill="#fcab40" d="M1.248 16.889c-0.412 0-0.747 0.059-1.025 0.163 0.064-0.159 0.148-0.299 0.25-0.423-1.655 2.036 2.060 8.74 0.254 15.372h5.742c1.058-6.187-1.098-15.111-5.221-15.111zM31.78 17.052c-0.279-0.104-0.614-0.163-1.028-0.163-4.125 0-6.28 8.891-5.22 15.111h5.742c-1.694-6.262 1.472-12.524 0.507-14.948z"></path>
</svg>
