
<svg version="1.1" xmlns="http://www.w3.org/2000/svg" width="32" height="32" viewBox="0 0 32 32">
<title>scared-cat</title>
<path fill="#ffcc4d" d="M31.079 10.627l0.032 0.040s0.889-8.889 0-9.778c-0.809-0.809-6.019 0.587-6.953 0.845-2.156-1.097-4.838-1.734-8.158-1.734-3.315 0-5.993 0.639-8.148 1.737-0.907-0.252-6.152-1.66-6.964-0.848-0.889 0.889 0 9.778 0 9.778l0.042-0.052c-0.657 2.269-0.931 4.72-0.931 7.164 0 4.894 3.001 8.727 6.735 11.175 0.072-5.704-2.006-12.064-5.487-12.064-0.412 0-0.747 0.059-1.025 0.163 0.269-0.673 0.853-1.052 1.946-1.052 3.774 0 5.9 7.476 5.424 13.487 2.796 1.633 5.892 2.513 8.407 2.513s5.613-0.872 8.41-2.5c-0.485-6.036 1.643-13.5 5.422-13.5 1.096 0 1.682 0.379 1.948 1.052-0.279-0.104-0.614-0.163-1.028-0.163-3.488 0-5.568 6.356-5.485 12.082 3.732-2.44 6.733-6.27 6.733-11.193 0-2.445-0.272-4.891-0.921-7.151z"></path>
<path fill="#292f33" d="M16 18.667c-1.964 0-3.556 1.592-3.556 3.556v5.333c0 1.964 1.592 3.556 3.556 3.556s3.556-1.592 3.556-3.556v-5.333c0-1.964-1.592-3.556-3.556-3.556z"></path>
<path fill="#67757f" d="M16 13.333c2.667 0 2.667 0.444 2.667 1.333s-1.333 2.667-2.667 2.667-2.667-1.778-2.667-2.667-0.001-1.333 2.667-1.333z"></path>
<path fill="#9aaab4" d="M26.599 18.228l-4.463 0.892c-0.241 0.048-0.397 0.282-0.348 0.523 0.043 0.212 0.228 0.357 0.435 0.357 0.029 0 0.059-0.003 0.088-0.009l3.731-0.747c0.173-0.364 0.36-0.704 0.558-1.017zM29.832 16l0.014 0.001 1.406-0.468c0.233-0.077 0.358-0.329 0.281-0.562s-0.328-0.358-0.563-0.281l-8 2.667c-0.233 0.078-0.358 0.33-0.281 0.563 0.062 0.185 0.236 0.303 0.421 0.303 0.047 0 0.093-0.007 0.14-0.022l4.828-1.609c0.535-0.377 1.121-0.591 1.753-0.591zM9.865 19.12l-4.469-0.894c0.198 0.315 0.385 0.654 0.559 1.019l3.736 0.748c0.029 0.006 0.059 0.009 0.088 0.009 0.207 0 0.393-0.146 0.436-0.357 0.047-0.242-0.108-0.476-0.349-0.524zM9.029 17.356l-8-2.667c-0.235-0.078-0.484 0.048-0.562 0.281s0.048 0.484 0.281 0.562l1.407 0.469c0.005 0.001 0.009-0.001 0.013-0.001 0.629 0 1.212 0.213 1.745 0.588l4.834 1.612c0.047 0.016 0.095 0.023 0.141 0.023 0.187 0 0.359-0.118 0.421-0.304 0.077-0.233-0.048-0.484-0.281-0.563z"></path>
<path fill="#f5f8fa" d="M6.531 9.48c-0.841 2.823 0.095 5.594 2.091 6.188s4.297-1.211 5.137-4.034c0.842-2.822-0.094-5.594-2.089-6.188s-4.297 1.212-5.139 4.034zM25.468 9.48c0.841 2.823-0.095 5.594-2.091 6.188s-4.297-1.211-5.137-4.034c-0.841-2.822 0.095-5.594 2.090-6.188s4.296 1.212 5.138 4.034z"></path>
<path fill="#fcab40" d="M31.78 17.052c-0.279-0.104-0.614-0.163-1.028-0.163-4.125 0-6.28 8.891-5.22 15.111h5.742c-1.694-6.262 1.472-12.524 0.507-14.948zM1.248 16.889c-0.412 0-0.747 0.059-1.025 0.163 0.064-0.159 0.148-0.299 0.25-0.423-1.655 2.036 2.060 8.74 0.254 15.372h5.742c1.058-6.187-1.098-15.111-5.221-15.111z"></path>
</svg>
