
<svg version="1.1" xmlns="http://www.w3.org/2000/svg" width="32" height="32" viewBox="0 0 32 32">
<title>seven</title>
<path fill="#008eff" d="M32 28.444c0 1.964-1.592 3.556-3.556 3.556h-24.889c-1.964 0-3.556-1.592-3.556-3.556v-24.889c0-1.964 1.592-3.556 3.556-3.556h24.889c1.964 0 3.556 1.592 3.556 3.556v24.889z"></path>
<path fill="#fff" d="M18.095 9.958h-7.055c-1.488 0-2.039-0.964-2.039-1.901 0-0.964 0.524-1.902 2.039-1.902h9.977c1.406 0 1.985 1.268 1.985 1.984 0 0.551-0.303 1.13-0.634 1.819l-6.836 13.891c-0.772 1.543-1.075 2.093-2.315 2.093-1.516 0-2.288-1.157-2.288-1.956 0-0.331 0.083-0.578 0.276-0.964l6.889-13.062z"></path>
</svg>
