
<svg version="1.1" xmlns="http://www.w3.org/2000/svg" width="32" height="32" viewBox="0 0 32 32">
<title>sick</title>
<path fill="#ffcc4d" d="M32 16c0 8.837-7.163 16-16 16s-16-7.163-16-16c0-8.837 7.163-16 16-16s16 7.163 16 16z"></path>
<path fill="#664500" d="M13.333 14.667c0 1.718-0.995 3.111-2.222 3.111s-2.222-1.393-2.222-3.111c0-1.718 0.995-3.111 2.222-3.111s2.222 1.393 2.222 3.111z"></path>
<path fill="#664500" d="M23.111 14.667c0 1.718-0.995 3.111-2.222 3.111s-2.222-1.393-2.222-3.111c0-1.718 0.995-3.111 2.222-3.111s2.222 1.393 2.222 3.111z"></path>
<path fill="#664500" d="M25.778 10.667c-4.937 0-6.935-3.882-7.018-4.047-0.22-0.439-0.042-0.973 0.397-1.193 0.437-0.22 0.971-0.043 1.191 0.394 0.067 0.13 1.619 3.068 5.429 3.068 0.492 0 0.889 0.398 0.889 0.889s-0.397 0.889-0.889 0.889zM6.222 10.661c-0.491 0-0.889-0.398-0.889-0.889s0.398-0.889 0.889-0.889c4.518 0 5.33-2.773 5.363-2.892 0.129-0.469 0.613-0.754 1.084-0.63s0.756 0.598 0.638 1.071c-0.044 0.172-1.125 4.228-7.084 4.228z"></path>
<path fill="#ffac33" d="M31.972 15.172l-3.56 0.723-14.388 9.34 6.327 0.856 10.387-6.41c0.625-0.383 0.884-0.742 1.065-1.553s0.17-2.956 0.17-2.956z"></path>
<path fill="#664500" d="M20.876 26.115c-0.010-0.039-1.018-2.559-4.876-2.559s-4.866 2.52-4.876 2.559c-0.047 0.189 0.039 0.383 0.206 0.484s0.385 0.076 0.53-0.053c0.008-0.007 0.9-0.767 4.14-0.767 3.191 0 4.104 0.738 4.139 0.767 0.084 0.080 0.195 0.122 0.306 0.122 0.075 0 0.15-0.019 0.219-0.057 0.174-0.1 0.261-0.301 0.212-0.495z"></path>
<path fill="#ccd6dd" d="M31.532 13.981c-0.737-0.981-2.131-1.18-3.112-0.444l-15.294 11.474c0.574-0.215 1.342-0.395 2.324-0.464 0.228-0.016 2.364-0.557 2.364-0.557l1.149 0.921s0.81 0.326 1.064 0.479l11.061-8.298c0.98-0.735 1.179-2.129 0.443-3.11z"></path>
<path fill="#da2f47" d="M25.499 18.551c-0.398-0.53-0.7-1.018-1.229-0.62l-8.82 6.616c0.228-0.016 0.444-0.037 0.696-0.039 1.209-0.008 2.133 0.173 2.818 0.402l6.745-5.060c0.53-0.397 0.188-0.768-0.21-1.299z"></path>
<path fill="#67757f" d="M16.532 22.425l1.097 1.42 0.659-0.529-1.064-1.411zM18.508 20.948l1.098 1.42 0.659-0.529-1.064-1.411zM20.45 19.509l1.097 1.42 0.659-0.529-1.064-1.411zM22.388 18.034l1.098 1.42 0.659-0.528-1.064-1.411zM24.378 16.575l1.098 1.42 0.658-0.529-1.063-1.411zM26.28 15.137l1.098 1.42 0.658-0.529-1.063-1.411z"></path>
<path fill="#452e04" d="M20.028 25.389l0.716 0.464s-0.175-0.322-0.468-0.645l-0.248 0.181z"></path>
</svg>
