
<svg version="1.1" xmlns="http://www.w3.org/2000/svg" width="32" height="32" viewBox="0 0 32 32">
<title>six</title>
<path fill="#008eff" d="M32 28.444c0 1.964-1.592 3.556-3.556 3.556h-24.889c-1.964 0-3.556-1.592-3.556-3.556v-24.889c0-1.964 1.592-3.556 3.556-3.556h24.889c1.964 0 3.556 1.592 3.556 3.556v24.889z"></path>
<path fill="#fff" d="M9.084 19.274c0-4.162 4.217-10.004 7-12.596 0.22-0.22 0.551-0.441 0.882-0.661 0.303-0.193 0.607-0.193 0.828-0.193 0.771 0 1.956 1.020 1.956 2.012 0 0.386-0.248 0.716-0.579 1.13-1.102 1.35-2.893 3.114-3.804 4.41l0.055 0.055c0.496-0.22 1.13-0.331 1.737-0.331 3.308 0 5.759 2.922 5.759 6.173 0 3.582-2.839 6.836-6.918 6.836-4.243-0.001-6.916-3.17-6.916-6.836zM13.383 19.274c0 1.543 0.964 2.867 2.618 2.867 1.572 0 2.619-1.268 2.619-2.867 0-1.46-0.882-2.867-2.619-2.867-1.571 0-2.618 1.241-2.618 2.867z"></path>
</svg>
