
<svg version="1.1" xmlns="http://www.w3.org/2000/svg" width="32" height="32" viewBox="0 0 32 32">
<title>sleepy</title>
<path fill="#ffcc4d" d="M32 16c0 8.837-7.163 16-16 16s-16-7.163-16-16c0-8.837 7.163-16 16-16s16 7.163 16 16z"></path>
<path fill="#664500" d="M18.667 23.111c0 1.473-1.194 2.667-2.667 2.667s-2.667-1.194-2.667-2.667c0-1.473 1.194-2.667 2.667-2.667s2.667 1.194 2.667 2.667z"></path>
<path fill="#664500" d="M15.388 14.766c-0.156-0.127-0.38-0.131-0.542-0.012-0.011 0.008-1.12 0.802-3.291 0.802s-3.28-0.794-3.289-0.8c-0.163-0.122-0.387-0.118-0.543 0.008-0.158 0.126-0.212 0.343-0.13 0.528 0.053 0.12 1.333 2.931 3.962 2.931s3.908-2.811 3.962-2.931c0.082-0.184 0.028-0.399-0.129-0.525zM24.277 14.766c-0.156-0.127-0.379-0.132-0.542-0.012-0.011 0.008-1.121 0.802-3.291 0.802s-3.28-0.794-3.289-0.8c-0.163-0.122-0.386-0.118-0.543 0.008s-0.212 0.343-0.13 0.528c0.053 0.12 1.333 2.931 3.962 2.931s3.908-2.811 3.962-2.931c0.082-0.184 0.028-0.399-0.129-0.525z"></path>
<path fill="#ffac33" d="M30.604 11.141c0.004-0.039 0.020-0.068 0.020-0.109 0-0.67-0.487-1.056-1.089-1.056h-3.184l3.804-5.327c0.183-0.252 0.251-0.403 0.251-0.721 0-0.653-0.569-0.755-0.787-0.755h-4.755l-0.028-0.612s-1.252 0.739-1.336 0.789-0.449 0.331-0.449 0.877c0 0.67 0.485 1.055 1.089 1.055h2.799l-3.788 5.327c-0.084 0.134-0.217 0.385-0.217 0.653 0 0.553 0.452 0.821 0.988 0.821h5.613c0.229 0 0.458-0.068 0.605-0.156l1.336-0.789h-0.873z"></path>
<path fill="#2a6797" d="M28.241 4.519h-2.799c-0.604 0-1.089-0.385-1.089-1.055s0.485-1.056 1.089-1.056h5.479c0.218 0 0.787 0.1 0.787 0.754 0 0.318-0.068 0.469-0.251 0.721l-3.804 5.327h3.184c0.602 0 1.089 0.385 1.089 1.055s-0.487 1.055-1.089 1.055h-5.613c-0.536 0-0.988-0.268-0.988-0.821 0-0.268 0.133-0.519 0.217-0.653l3.788-5.326z"></path>
<path fill="#ffac33" d="M22.121 6.649c0.003-0.029 0.016-0.052 0.016-0.082 0-0.501-0.364-0.79-0.815-0.79h-2.384l2.847-3.988c0.139-0.188 0.188-0.301 0.188-0.539 0-0.489-0.426-0.564-0.589-0.564h-3.559l-0.021-0.458s-0.938 0.553-1 0.591c-0.062 0.038-0.336 0.248-0.336 0.657 0 0.501 0.364 0.79 0.815 0.79h2.095l-2.836 3.988c-0.062 0.1-0.163 0.288-0.163 0.489 0 0.414 0.338 0.614 0.74 0.614h4.203c0.172 0 0.342-0.051 0.453-0.117l1-0.591h-0.654z"></path>
<path fill="#2a6797" d="M20.352 1.692h-2.095c-0.452 0-0.815-0.288-0.815-0.79s0.364-0.79 0.815-0.79h4.102c0.164 0 0.589 0.076 0.589 0.564 0 0.238-0.051 0.351-0.188 0.54l-2.847 3.988h2.384c0.449 0 0.813 0.288 0.813 0.79s-0.364 0.79-0.815 0.79h-4.203c-0.402 0-0.74-0.201-0.74-0.614 0-0.201 0.1-0.388 0.163-0.489l2.836-3.989z"></path>
<path fill="#ffac33" d="M15.77 9.267c0.003-0.025 0.013-0.044 0.013-0.070 0-0.429-0.312-0.676-0.698-0.676h-2.040l2.437-3.413c0.117-0.161 0.161-0.258 0.161-0.461 0-0.419-0.364-0.484-0.504-0.484h-3.046l-0.019-0.392-0.856 0.506c-0.053 0.033-0.288 0.212-0.288 0.563 0 0.429 0.311 0.676 0.698 0.676h1.793l-2.427 3.413c-0.053 0.086-0.14 0.247-0.14 0.419 0 0.355 0.29 0.526 0.633 0.526h3.597c0.147 0 0.293-0.044 0.388-0.1l0.856-0.506h-0.559z"></path>
<path fill="#2a6797" d="M14.255 5.024h-1.793c-0.387 0-0.698-0.247-0.698-0.676s0.311-0.676 0.698-0.676h3.511c0.14 0 0.504 0.065 0.504 0.484 0 0.204-0.043 0.3-0.161 0.461l-2.437 3.413h2.040c0.386 0 0.698 0.247 0.698 0.676s-0.312 0.676-0.698 0.676h-3.597c-0.343 0-0.633-0.172-0.633-0.526 0-0.172 0.085-0.332 0.14-0.419l2.427-3.413z"></path>
</svg>
