
<svg version="1.1" xmlns="http://www.w3.org/2000/svg" width="32" height="32" viewBox="0 0 32 32">
<title>strong</title>
<path fill="#ffdc5d" d="M11.049 19.556s-0.637-3.236 0.265-9.665c1.244 0.404 2.501 0.776 2.908 0.776 0.889 0 3.556-0.889 3.556-1.778s-0.889-1.778-0.889-1.778l1.778-0.889c0.889-0.889 0-6.222-3.556-6.222-6.222 0-8.507 6.222-8.507 6.222l0.006 0.010h-0.006s-5.333 9.768-5.333 17.778c0.058 0-0.889 4.444 0 5.333s4.444 0.889 4.444 0.889c8.889 3.546 25.396 0.879 25.396-7.121 0-11.556-17.396-8.889-20.062-3.556z"></path>
<path fill="#ef9645" d="M17.328 28.668c-2.825 0-5.149-1.14-5.281-1.206-0.438-0.22-0.616-0.752-0.397-1.191s0.751-0.618 1.191-0.4c0.037 0.019 3.77 1.832 7.073 0.57 1.827-0.698 3.222-2.228 4.15-4.548 0.182-0.458 0.703-0.678 1.156-0.496 0.456 0.182 0.678 0.7 0.496 1.156-1.123 2.804-2.865 4.674-5.18 5.554-1.081 0.41-2.179 0.562-3.208 0.562z"></path>
</svg>
