
<svg version="1.1" xmlns="http://www.w3.org/2000/svg" width="32" height="32" viewBox="0 0 32 32">
<title>surprised</title>
<path fill="#ffcc4d" d="M32 16c0 8.836-7.164 16-16 16s-16-7.164-16-16 7.164-16 16-16 16 7.164 16 16z"></path>
<path fill="#664500" d="M19.556 22.222c0 2.455-1.592 4.444-3.556 4.444s-3.556-1.99-3.556-4.444c0-2.455 1.592-4.444 3.556-4.444s3.556 1.99 3.556 4.444z"></path>
<path fill="#664500" d="M12.889 12c0 1.718-0.995 3.111-2.222 3.111s-2.222-1.393-2.222-3.111c0-1.718 0.995-3.111 2.222-3.111s2.222 1.393 2.222 3.111z"></path>
<path fill="#664500" d="M23.556 12c0 1.718-0.995 3.111-2.222 3.111s-2.222-1.393-2.222-3.111c0-1.718 0.995-3.111 2.222-3.111s2.222 1.393 2.222 3.111z"></path>
</svg>
