
<svg version="1.1" xmlns="http://www.w3.org/2000/svg" width="32" height="32" viewBox="0 0 32 32">
<title>teddybear</title>
<path fill="#c1694f" d="M22.222 19.556h-0.225c0.142-0.709 0.225-1.452 0.225-2.222 0-4.664-2.786-8.444-6.222-8.444s-6.222 3.78-6.222 8.444c0 0.771 0.083 1.513 0.225 2.222h-0.225c-1.778 2.667-1.335 7.161 0.108 8 6.114 3.556 2.558-1.778 6.114-1.778s0 5.333 6.114 1.778c1.444-0.839 1.886-5.333 0.108-8z"></path>
<path fill="#c1694f" d="M21.037 18.185c-0.157-1.372 0.282-3.166 0.227-4.667-1.233 0.964-3.533 1.593-5.264 1.593s-4.009-0.629-5.242-1.593c-0.055 1.5 0.362 3.294 0.204 4.667-0.407 3.556 2.092 6.386 5.037 6.386s5.444-2.83 5.037-6.386z"></path>
<path fill="#c1694f" d="M10.998 12.444s-4.444 0.889-5.333 6.222 3.039 5.85 4.444 4.444c1.778-1.778 0-3.556 0-3.556s0.889-4.444 0.889-7.111zM21.002 12.444s4.444 0.889 5.333 6.222-3.039 5.85-4.444 4.444c-1.778-1.778 0-3.556 0-3.556s-0.889-4.444-0.889-7.111z"></path>
<path fill="#a0041e" d="M11.556 11.556c-1.778 0-0.889 0.889-0.889 1.778s0.889 2.667 2.667 1.778c0 0-0.889 1.778-0.889 4.444 0 0 1.778 0 2.667 1.778 0 0 0.889-6.222 0.889-8s-3.556-1.778-4.444-1.778zM20.444 11.556c1.778 0 0.889 0.889 0.889 1.778s-0.889 2.667-2.667 1.778c0 0 0.889 1.778 0.889 4.444 0 0-1.778 0-2.667 1.778 0 0-0.889-6.222-0.889-8s3.556-1.778 4.444-1.778z"></path>
<path fill="#c1694f" d="M13.333 3.556c0 1.964-1.592 3.556-3.556 3.556s-3.556-1.592-3.556-3.556c0-1.964 1.592-3.556 3.556-3.556s3.556 1.592 3.556 3.556z"></path>
<path fill="#662113" d="M11.556 3.556c0 0.982-0.796 1.778-1.778 1.778s-1.778-0.796-1.778-1.778c0-0.982 0.796-1.778 1.778-1.778s1.778 0.796 1.778 1.778z"></path>
<path fill="#c1694f" d="M25.778 3.556c0 1.964-1.592 3.556-3.556 3.556s-3.556-1.592-3.556-3.556c0-1.964 1.592-3.556 3.556-3.556s3.556 1.592 3.556 3.556z"></path>
<path fill="#662113" d="M24 3.556c0 0.982-0.796 1.778-1.778 1.778s-1.778-0.796-1.778-1.778c0-0.982 0.796-1.778 1.778-1.778s1.778 0.796 1.778 1.778z"></path>
<path fill="#c1694f" d="M23.111 7.556c0 3.682-3.184 6.667-7.111 6.667s-7.111-2.985-7.111-6.667c0-3.682 3.184-6.667 7.111-6.667s7.111 2.985 7.111 6.667z"></path>
<path fill="#292f33" d="M14.222 7.111c0 0.491-0.398 0.889-0.889 0.889s-0.889-0.398-0.889-0.889c0-0.491 0.398-0.889 0.889-0.889s0.889 0.398 0.889 0.889z"></path>
<path fill="#292f33" d="M19.556 7.111c0 0.491-0.398 0.889-0.889 0.889s-0.889-0.398-0.889-0.889c0-0.491 0.398-0.889 0.889-0.889s0.889 0.398 0.889 0.889z"></path>
<path fill="#d99e82" d="M16.052 8.5c-6.052 0-4.1 4.944-0.131 4.944s6.182-4.944 0.131-4.944z"></path>
<path fill="#292f33" d="M14.877 9.836l0.468 0.81c0.292 0.504 1.020 0.504 1.31 0l0.468-0.81c0.292-0.504-0.073-1.135-0.655-1.135h-0.935c-0.582 0-0.946 0.63-0.655 1.135z"></path>
<path fill="#934035" d="M10.013 24.002c-0.148 0-0.291-0.073-0.375-0.205-0.132-0.207-0.071-0.482 0.136-0.613 0.036-0.022 0.913-0.612 0.886-1.797-0.020-0.881-0.829-1.459-0.837-1.463-0.108-0.076-0.178-0.196-0.189-0.327-0.182-2.098 0.578-4.186 0.611-4.275 0.085-0.229 0.339-0.348 0.571-0.263 0.23 0.085 0.348 0.34 0.263 0.571-0.007 0.019-0.676 1.866-0.572 3.702 0.333 0.286 1.019 0.999 1.044 2.035 0.039 1.698-1.243 2.534-1.297 2.569-0.076 0.045-0.158 0.068-0.239 0.068zM21.988 24.002c-0.082 0-0.165-0.022-0.239-0.069-0.055-0.035-1.337-0.87-1.298-2.569 0.024-1.036 0.71-1.748 1.044-2.035 0.105-1.842-0.565-3.683-0.572-3.701-0.085-0.23 0.032-0.486 0.263-0.572 0.228-0.084 0.485 0.033 0.571 0.263 0.033 0.088 0.794 2.176 0.612 4.275-0.012 0.132-0.082 0.252-0.191 0.328-0.007 0.004-0.816 0.581-0.836 1.463-0.028 1.203 0.876 1.792 0.886 1.797 0.206 0.132 0.268 0.406 0.136 0.613-0.085 0.133-0.228 0.206-0.375 0.206zM21.924 19.556v0z"></path>
<path fill="#c1694f" d="M12.714 24.282c1.736 1.736 1.876 4.409 0.314 5.971s-4.235 1.421-5.971-0.314c-1.736-1.736-1.876-4.409-0.314-5.971s4.235-1.421 5.971 0.314z"></path>
<path fill="#d99e82" d="M11.866 29.535c-0.937 0.937-2.583 0.811-3.677-0.283s-1.22-2.74-0.283-3.677c0.937-0.937 2.583-0.811 3.677 0.283s1.22 2.74 0.283 3.677z"></path>
<path fill="#d99e82" d="M11.457 29.127c-0.694 0.694-1.961 0.554-2.828-0.315s-1.009-2.134-0.315-2.828 1.961-0.554 2.828 0.315 1.009 2.134 0.315 2.828z"></path>
<path fill="#c1694f" d="M25.256 23.968c1.562 1.562 1.421 4.235-0.314 5.971s-4.409 1.876-5.971 0.314c-1.562-1.562-1.421-4.235 0.314-5.971s4.409-1.876 5.971-0.314z"></path>
<path fill="#d99e82" d="M20.134 29.535c0.937 0.937 2.583 0.811 3.677-0.283s1.22-2.74 0.283-3.677c-0.937-0.937-2.583-0.811-3.677 0.283s-1.22 2.74-0.283 3.677z"></path>
<path fill="#d99e82" d="M23.685 25.984c0.694 0.694 0.554 1.961-0.314 2.828s-2.134 1.009-2.828 0.314c-0.694-0.694-0.554-1.961 0.314-2.828s2.134-1.009 2.828-0.314z"></path>
<path fill="#292f33" d="M16.077 12.567c-1.138 0-1.999-0.842-2.012-0.854-0.087-0.087-0.087-0.227 0-0.314s0.227-0.087 0.314-0.001c0.067 0.066 1.644 1.597 3.242 0 0.087-0.087 0.228-0.087 0.315 0s0.087 0.228 0 0.315c-0.641 0.641-1.284 0.854-1.858 0.854z"></path>
<path fill="#934035" d="M14.178 26.424c-0.164 0-0.322-0.092-0.399-0.249-2.021-4.12-6.040-2.8-6.21-2.743-0.233 0.081-0.484-0.044-0.564-0.276s0.043-0.484 0.275-0.564c0.049-0.018 4.927-1.64 7.298 3.193 0.108 0.22 0.018 0.486-0.204 0.595-0.063 0.030-0.131 0.045-0.196 0.045zM17.823 26.424c-0.058 0-0.117-0.012-0.173-0.036-0.227-0.096-0.332-0.356-0.236-0.582 2.004-4.712 7.236-3.236 7.287-3.22 0.236 0.068 0.37 0.315 0.301 0.55-0.068 0.237-0.322 0.368-0.55 0.303-0.184-0.054-4.53-1.262-6.22 2.715-0.072 0.168-0.236 0.27-0.409 0.27z"></path>
</svg>
