
<svg version="1.1" xmlns="http://www.w3.org/2000/svg" width="32" height="32" viewBox="0 0 32 32">
<title>thank-you</title>
<path fill="#50a5e6" d="M26.667 19.556c-2.667 0-5.945 6.306-6.222 8.889-0.374 3.48 1.778 3.556 1.778 3.556h9.778v-8.889s-3.056-3.556-5.333-3.556z"></path>
<path fill="#1c6399" d="M27.109 20.822c0.696 0.402 0.097 2.744-1.338 5.23s-3.164 4.176-3.86 3.774c-0.696-0.402-0.097-2.744 1.338-5.23s3.164-4.176 3.86-3.774z"></path>
<path fill="#f9ca55" d="M17.854 0c1.050 0 1.9 0.851 1.9 1.9 0 0.701 0.594 9.621 0.594 9.621l-4.395 4.478v-14.1c0-1.050 0.851-1.9 1.9-1.9z"></path>
<path fill="#ffdc5d" d="M16.778 3.843c0-0.977 0.757-1.768 1.692-1.768s1.692 0.792 1.692 1.768c0 0 0.476 5.282 1.060 8.329 0.78 1.659 1.217 4.162 1.121 5.554 0.048 0.354 5 4.45 5 4.45-0.25 1.612-2.008 5.471-4.23 7.252l-3.13-2.599c-2.564-0.359-3.963-2.961-3.963-3.79 0-2.652 0.759-19.196 0.759-19.196z"></path>
<path fill="#50a5e6" d="M5.333 19.556c2.667 0 5.945 6.306 6.222 8.889 0.374 3.48-1.778 3.556-1.778 3.556h-9.778v-8.889s3.056-3.556 5.333-3.556z"></path>
<path fill="#1c6399" d="M8.75 24.595c1.435 2.486 2.035 4.828 1.338 5.23s-2.425-1.288-3.86-3.774c-1.435-2.486-2.035-4.828-1.338-5.23s2.425 1.288 3.86 3.774z"></path>
<path fill="#f9ca55" d="M14.276 0.010c-1.125-0.113-2.074 0.768-2.074 1.869 0 0.693-0.164 9.172-0.164 9.172l3.868 4.948 0.055-14.013c0-0.983-0.707-1.879-1.685-1.977z"></path>
<path fill="#ffdc5d" d="M15.222 3.843c0-0.977-0.757-1.768-1.692-1.768s-1.692 0.792-1.692 1.768c0 0-0.476 5.282-1.060 8.329-0.78 1.659-1.217 4.162-1.121 5.554-0.048 0.354-5 4.45-5 4.45 0.25 1.612 2.008 5.471 4.23 7.252l3.13-2.599c2.564-0.359 3.963-2.961 3.963-3.79 0-2.652-0.759-19.196-0.759-19.196z"></path>
<path fill="#f9ca55" d="M15.963 22.954c-0.368 0-0.667-0.299-0.667-0.667v-19.805c0-0.368 0.299-0.667 0.667-0.667s0.667 0.299 0.667 0.667v19.806c0.001 0.367-0.298 0.666-0.667 0.666z"></path>
</svg>
