
<svg version="1.1" xmlns="http://www.w3.org/2000/svg" width="32" height="32" viewBox="0 0 32 32">
<title>thanks</title>
<path fill="#59a869" d="M28.268 31.761c-2.474 0-22.261 0-24.734 0-1.951 0-3.533-1.582-3.533-3.533 0-2.474 0-22.261 0-24.734 0-1.951 1.582-3.533 3.533-3.533 2.474 0 22.261 0 24.734 0 1.951 0 3.533 1.582 3.533 3.533 0 1.649 0 9.894 0 24.734-1.055 2.355-2.233 3.533-3.533 3.533z"></path>
<path fill="#fff" d="M5.97 10.891h3.156v-1.796h-8.453v1.796h3.253v11.633h2.045v-11.633zM12.264 13.162h0.082l5.498 9.363h1.843v-13.43h-1.99v9.504h-0.073l-5.498-9.504h-1.853v13.43h1.99v-9.363zM25.879 17.406h0.058l2.959 5.119h2.159l-3.768-6.663v-0.056l3.842-6.71h-2.085l-2.967 5.193h-0.066l-2.934-5.193h-2.201l3.653 6.636v0.065l-3.694 6.728h2.044l3-5.119z"></path>
</svg>
