
<svg version="1.1" xmlns="http://www.w3.org/2000/svg" width="32" height="32" viewBox="0 0 32 32">
<title>three</title>
<path fill="#008eff" d="M32 28.444c0 1.964-1.592 3.556-3.556 3.556h-24.889c-1.964 0-3.556-1.592-3.556-3.556v-24.889c0-1.964 1.592-3.556 3.556-3.556h24.889c1.964 0 3.556 1.592 3.556 3.556v24.889z"></path>
<path fill="#fff" d="M21.43 10.868c0 1.737-0.743 3.252-2.26 4.217 1.984 0.91 3.362 2.756 3.362 4.933 0 3.308-3.031 6.092-6.945 6.092-4.079 0-6.614-3.004-6.614-5.181 0-1.075 1.131-1.846 2.123-1.846 1.874 0 1.433 3.225 4.548 3.225 1.433 0 2.591-1.102 2.591-2.564 0-3.859-4.686-1.020-4.686-4.272 0-2.893 3.913-0.937 3.913-3.996 0-1.048-0.743-1.847-1.984-1.847-2.618 0-2.26 2.7-4.134 2.7-1.13 0-1.791-1.020-1.791-2.039 0-2.149 2.948-4.465 6.008-4.465 3.97 0 5.87 2.894 5.87 5.044z"></path>
</svg>
