
<svg version="1.1" xmlns="http://www.w3.org/2000/svg" width="32" height="32" viewBox="0 0 32 32">
<title>thumbs-down</title>
<path fill="#ffdb5e" d="M31.072 16.075c0 0.447-0.107 0.867-0.285 1.248-1.192 3.845-6.772 3.564-14.71 3.752-1.327 0.031-0.568 1.598-0.102 5.038 0.303 2.237-1.14 5.673-3.564 5.673-3.998 0-0.152-3.154-3.687-10.953-1.889-4.167-6.111-1.833-6.111-6.019v-9.527c0-1.629 0.16-3.196 2.452-3.453 2.221-0.251 1.722-1.834 4.926-1.834h16.039c1.634 0 2.963 1.33 2.963 2.964 0 0.677-0.237 1.294-0.62 1.794 0.907 0.508 1.529 1.466 1.529 2.577 0 0.676-0.236 1.292-0.619 1.791 0.909 0.507 1.533 1.466 1.533 2.579 0 0.808-0.327 1.54-0.854 2.076 0.673 0.543 1.112 1.364 1.112 2.294z"></path>
<path fill="#ee9547" d="M20.462 13.112h7.648c1.040 0 2.016 0.556 2.548 1.452 0.219 0.369 0.097 0.846-0.273 1.066s-0.846 0.096-1.066-0.273c-0.252-0.426-0.716-0.689-1.21-0.689h-7.831c-0.776 0-1.407 0.631-1.407 1.407s0.631 1.407 1.407 1.407h5.233c0.429 0 0.778 0.348 0.778 0.778s-0.348 0.778-0.778 0.778h-5.234c-1.634 0-2.963-1.329-2.963-2.963 0-0.911 0.422-1.717 1.071-2.261-0.547-0.538-0.887-1.284-0.887-2.109 0-0.914 0.425-1.723 1.077-2.266-0.543-0.537-0.88-1.281-0.88-2.104 0-0.996 0.497-1.874 1.252-2.412-0.466-0.524-0.757-1.205-0.757-1.959 0-1.634 1.329-2.963 2.963-2.963h4.875c1.040 0 2.017 0.556 2.548 1.451 0.22 0.369 0.098 0.846-0.271 1.066-0.37 0.218-0.847 0.098-1.066-0.271-0.253-0.426-0.718-0.69-1.212-0.69h-4.875c-0.776 0-1.407 0.631-1.407 1.407s0.631 1.407 1.407 1.407h5.783c1.040 0 2.018 0.556 2.548 1.452 0.22 0.37 0.098 0.847-0.271 1.066-0.372 0.223-0.848 0.098-1.066-0.271-0.257-0.433-0.71-0.691-1.212-0.691h-6.278c-0.776 0-1.407 0.632-1.407 1.408s0.631 1.407 1.407 1.407h7.192c1.040 0 2.017 0.556 2.548 1.451 0.22 0.369 0.098 0.846-0.271 1.066-0.371 0.219-0.847 0.098-1.066-0.271-0.257-0.432-0.71-0.69-1.212-0.69h-7.388c-0.776 0-1.407 0.631-1.407 1.407s0.63 1.408 1.407 1.408z"></path>
</svg>
