
<svg version="1.1" xmlns="http://www.w3.org/2000/svg" width="32" height="32" viewBox="0 0 32 32">
<title>tired</title>
<path fill="#ffcc4d" d="M32 16c0 8.836-7.164 16-16 16s-16-7.164-16-16c0-8.836 7.164-16 16-16s16 7.164 16 16z"></path>
<path fill="#bdddf4" d="M16 9.778c7.777 0 14.252 4.008 15.694 9.319 0.197-1.003 0.306-2.037 0.306-3.097 0-8.836-7.164-16-16-16s-16 7.164-16 16c0 1.060 0.109 2.094 0.306 3.097 1.443-5.311 7.918-9.319 15.694-9.319z"></path>
<path fill="#664500" d="M12.444 14.667c0 1.718-0.995 3.111-2.222 3.111s-2.222-1.393-2.222-3.111c0-1.718 0.995-3.111 2.222-3.111s2.222 1.393 2.222 3.111z"></path>
<path fill="#664500" d="M24 14.667c0 1.718-0.995 3.111-2.222 3.111s-2.222-1.393-2.222-3.111c0-1.718 0.995-3.111 2.222-3.111s2.222 1.393 2.222 3.111z"></path>
<path fill="#664500" d="M5.332 10.667c-0.185 0-0.372-0.058-0.532-0.178-0.393-0.294-0.472-0.852-0.178-1.244 2.9-3.867 6.77-3.911 6.933-3.911 0.491 0 0.889 0.398 0.889 0.889s-0.396 0.887-0.885 0.889c-0.138 0.002-3.172 0.076-5.515 3.2-0.174 0.233-0.442 0.356-0.712 0.356zM26.668 10.667c-0.271 0-0.537-0.123-0.712-0.356-2.347-3.13-5.388-3.198-5.516-3.2-0.489-0.005-0.884-0.405-0.881-0.893 0.003-0.49 0.397-0.884 0.886-0.884 0.164 0 4.033 0.044 6.933 3.911 0.295 0.393 0.215 0.95-0.178 1.244-0.16 0.12-0.347 0.178-0.532 0.178zM20.876 24.781c-0.010-0.039-1.018-3.892-4.876-3.892s-4.866 3.853-4.876 3.892c-0.047 0.189 0.038 0.383 0.205 0.484s0.385 0.076 0.53-0.053c0.010-0.007 0.902-0.767 4.14-0.767 3.19 0 4.104 0.738 4.139 0.767 0.084 0.080 0.195 0.122 0.306 0.122 0.075 0 0.15-0.019 0.219-0.057 0.174-0.1 0.261-0.301 0.212-0.495z"></path>
</svg>
