
<svg version="1.1" xmlns="http://www.w3.org/2000/svg" width="32" height="32" viewBox="0 0 32 32">
<title>tongue-out</title>
<path fill="#ffcb4c" d="M32 16c0 8.836-7.164 16-16 16s-16-7.164-16-16c0-8.836 7.164-16 16-16s16 7.164 16 16z"></path>
<path fill="#65471b" d="M12.444 12.889c0 1.718-0.995 3.111-2.222 3.111s-2.222-1.393-2.222-3.111c0-1.718 0.995-3.111 2.222-3.111s2.222 1.393 2.222 3.111z"></path>
<path fill="#65471b" d="M24 12.889c0 1.718-0.995 3.111-2.222 3.111s-2.222-1.393-2.222-3.111c0-1.718 0.995-3.111 2.222-3.111s2.222 1.393 2.222 3.111z"></path>
<path fill="#65471b" d="M6.222 18.9c0 3.524 4.085 8 9.778 8s9.778-4.444 9.778-8c0 0-9.185 2.45-19.556 0z"></path>
<path fill="#e8596e" d="M16.484 20.981l-0.97-0.004c-2.859-0.066-4.848-0.53-4.848-0.53v6.188c0 2.667 1.778 5.333 5.333 5.333s5.333-2.667 5.333-5.333v-6.151c-1.708 0.35-3.366 0.482-4.849 0.498z"></path>
<path fill="#dd2f45" d="M16 28.305c0.268 0 0.484-0.217 0.484-0.484v-6.839l-0.97-0.004v6.844c0.001 0.268 0.218 0.484 0.485 0.484z"></path>
</svg>
