
<svg version="1.1" xmlns="http://www.w3.org/2000/svg" width="32" height="32" viewBox="0 0 32 32">
<title>two</title>
<path fill="#008eff" d="M32 28.444c0 1.964-1.592 3.556-3.556 3.556h-24.889c-1.964 0-3.556-1.592-3.556-3.556v-24.889c0-1.964 1.592-3.556 3.556-3.556h24.889c1.964 0 3.556 1.592 3.556 3.556v24.889z"></path>
<path fill="#fff" d="M20.521 22.14c1.213 0 2.151 0.551 2.151 1.819s-0.938 1.82-1.985 1.82h-9.205c-1.212 0-2.149-0.551-2.149-1.82 0-0.578 0.358-1.075 0.634-1.405 2.287-2.728 4.768-5.209 6.863-8.241 0.496-0.716 0.964-1.572 0.964-2.564 0-1.13-0.854-2.122-1.985-2.122-3.17 0-1.653 4.465-4.3 4.465-1.323 0-2.012-0.937-2.012-2.012 0-3.472 3.087-6.256 6.477-6.256s6.118 2.233 6.118 5.732c0 3.83-4.271 7.635-6.614 10.583h5.043z"></path>
</svg>
