
<svg version="1.1" xmlns="http://www.w3.org/2000/svg" width="32" height="32" viewBox="0 0 32 32">
<title>waiting</title>
<path fill="#ffe8b6" d="M18.667 16c0-1.779 2.885-2.995 4.444-5.333 1.778-2.667 1.778-8.889 1.778-8.889h-17.778s0 6.222 1.778 8.889c1.559 2.339 4.444 3.555 4.444 5.333s-2.885 2.995-4.444 5.333c-1.778 2.667-1.778 8.889-1.778 8.889h17.778s0-6.222-1.778-8.889c-1.559-2.339-4.444-3.555-4.444-5.333z"></path>
<path fill="#ffac33" d="M16 1.778h-7.111s0 3.556 0.889 6.222c1.159 3.477 5.333 4.444 5.333 8s0 11.556 0.889 11.556 0.889-8 0.889-11.556 4.175-4.523 5.333-8c0.889-2.667 0.889-6.222 0.889-6.222h-7.111z"></path>
<path fill="#3b88c3" d="M26.667 30.222c0 0.981-0.796 1.778-1.778 1.778h-17.778c-0.981 0-1.778-0.796-1.778-1.778s0.796-1.778 1.778-1.778h17.778c0.981 0 1.778 0.796 1.778 1.778zM26.667 1.778c0 0.981-0.796 1.778-1.778 1.778h-17.778c-0.981 0-1.778-0.796-1.778-1.778s0.796-1.778 1.778-1.778h17.778c0.981 0 1.778 0.796 1.778 1.778z"></path>
</svg>
