
<svg version="1.1" xmlns="http://www.w3.org/2000/svg" width="32" height="32" viewBox="0 0 32 32">
<title>wave</title>
<path fill="#ef9645" d="M4.321 8.131c0.836-0.584 2.095-0.472 2.845 0.148l-0.86-1.251c-0.692-0.988-0.444-2.056 0.544-2.749 0.988-0.691 2.352-0.452 3.045 0.538l7.848 11.184 0.062-0.028-7.166-10.528c-0.699-0.997-0.568-2.261 0.429-2.961 0.997-0.697 2.373-0.456 3.072 0.543l9.262 13.084c0.7 0.998 0.356 2.365-0.641 3.064-0.17 0.119-0.353 0.201-0.54 0.266v8.115h-8.889v-2.767c-0.13-0.115-0.86-0.678-0.963-0.826l-8.593-12.74c-0.705-1.004-0.461-2.388 0.543-3.092z"></path>
<path fill="#ffdc5d" d="M2.396 15.41s-1.006-1.467 0.461-2.472c1.466-1.005 2.471 0.46 2.471 0.46l4.668 6.807c0.161-0.268 0.337-0.533 0.533-0.795l-6.478-9.446s-1.005-1.466 0.461-2.471c1.466-1.005 2.471 0.46 2.471 0.46l6.093 8.886c0.227-0.185 0.459-0.371 0.698-0.553l-7.064-10.303s-1.005-1.466 0.461-2.471c1.466-1.005 2.471 0.46 2.471 0.46l7.064 10.301c0.26-0.159 0.516-0.297 0.774-0.443l-6.603-9.628s-1.005-1.466 0.46-2.471c1.466-1.005 2.471 0.46 2.471 0.46l8.043 11.73c-4.398 3.017-4.817 8.692-2.304 12.357 0.502 0.733 1.236 0.231 1.236 0.231-3.016-4.399-2.095-9.342 2.304-12.358l-1.297-6.491s-0.484-1.71 1.225-2.196c1.71-0.484 2.196 1.226 2.196 1.226l1.498 4.448c0.594 1.764 1.226 3.521 2.062 5.183 2.362 4.693 0.951 10.526-3.502 13.581-4.858 3.331-11.499 2.092-14.83-2.764-0.176-0.258-0.324-0.509-0.464-0.76l-0.039 0.027-7.54-10.997z"></path>
<path fill="#5dadec" d="M10.667 28.482c-3.556 0-7.148-3.593-7.148-7.148 0-0.492-0.36-0.889-0.852-0.889s-0.926 0.397-0.926 0.889c0 5.333 3.593 8.926 8.926 8.926 0.492 0 0.889-0.435 0.889-0.926s-0.397-0.852-0.889-0.852z"></path>
<path fill="#5dadec" d="M6.222 30.222c-2.667 0-4.444-1.778-4.444-4.444 0-0.492-0.397-0.889-0.889-0.889s-0.889 0.397-0.889 0.889c0 3.556 2.667 6.222 6.222 6.222 0.492 0 0.889-0.397 0.889-0.889s-0.397-0.889-0.889-0.889zM21.333 1.778c-0.491 0-0.889 0.398-0.889 0.889s0.398 0.889 0.889 0.889c3.556 0 7.111 3.19 7.111 7.111 0 0.491 0.398 0.889 0.889 0.889s0.889-0.398 0.889-0.889c0-4.901-3.556-8.889-8.889-8.889z"></path>
<path fill="#5dadec" d="M25.778 0.037c-0.491 0-0.889 0.361-0.889 0.852s0.398 0.926 0.889 0.926c2.667 0 4.407 1.978 4.407 4.407 0 0.491 0.435 0.889 0.926 0.889s0.852-0.398 0.852-0.889c0-3.411-2.629-6.185-6.185-6.185z"></path>
</svg>
