
<svg version="1.1" xmlns="http://www.w3.org/2000/svg" width="32" height="32" viewBox="0 0 32 32">
<title>wink</title>
<path fill="#ffcc4d" d="M32 16c0 8.836-7.164 16-16 16s-16-7.164-16-16c0-8.836 7.164-16 16-16s16 7.164 16 16z"></path>
<path fill="#664500" d="M12.444 14.667c0 1.718-0.995 3.111-2.222 3.111s-2.222-1.393-2.222-3.111c0-1.718 0.995-3.111 2.222-3.111s2.222 1.393 2.222 3.111z"></path>
<path fill="#664500" d="M25.295 15.82c-0.053-0.12-1.332-2.931-3.962-2.931s-3.908 2.811-3.962 2.931c-0.082 0.184-0.028 0.399 0.129 0.525 0.156 0.126 0.379 0.131 0.542 0.012 0.011-0.008 1.122-0.802 3.291-0.802 2.156 0 3.266 0.783 3.291 0.801 0.078 0.059 0.172 0.088 0.265 0.088 0.098 0 0.196-0.033 0.277-0.097 0.157-0.126 0.212-0.343 0.129-0.528zM5.332 11.074c-0.185 0-0.372-0.058-0.532-0.178-0.393-0.294-0.472-0.852-0.178-1.244 2.9-3.867 6.77-3.911 6.933-3.911 0.491 0 0.889 0.398 0.889 0.889s-0.396 0.887-0.885 0.889c-0.139 0.002-3.172 0.076-5.516 3.2-0.173 0.233-0.441 0.356-0.711 0.356zM25.779 12.963c-0.271 0-0.537-0.123-0.712-0.356-2.304-3.073-6.188-2.335-6.226-2.329-0.486 0.096-0.949-0.216-1.046-0.697s0.216-0.949 0.697-1.046c0.205-0.042 5.028-0.953 7.996 3.004 0.295 0.393 0.215 0.95-0.178 1.244-0.159 0.122-0.346 0.179-0.532 0.179zM20.67 20.957c-0.167-0.098-0.384-0.077-0.531 0.053-0.009 0.007-0.9 0.767-4.14 0.767-3.236 0-4.13-0.759-4.13-0.759-0.141-0.142-0.359-0.169-0.533-0.073-0.173 0.099-0.26 0.301-0.212 0.495 0.009 0.039 1.017 3.892 4.875 3.892s4.866-3.853 4.876-3.892c0.047-0.189-0.039-0.383-0.205-0.484z"></path>
</svg>
