
<svg version="1.1" xmlns="http://www.w3.org/2000/svg" width="32" height="32" viewBox="0 0 32 32">
<title>worry</title>
<path fill="#ffcc4d" d="M32 16c0 8.836-7.164 16-16 16s-16-7.164-16-16c0-8.836 7.164-16 16-16s16 7.164 16 16z"></path>
<path fill="#664500" d="M15.388 15.655c-0.156-0.127-0.38-0.131-0.542-0.012-0.011 0.008-1.12 0.802-3.291 0.802s-3.28-0.794-3.289-0.8c-0.163-0.122-0.387-0.118-0.543 0.008-0.158 0.126-0.212 0.343-0.13 0.528 0.053 0.12 1.333 2.931 3.962 2.931s3.908-2.811 3.962-2.931c0.082-0.184 0.028-0.399-0.129-0.525zM24.277 15.655c-0.156-0.127-0.379-0.132-0.542-0.012-0.011 0.008-1.121 0.802-3.291 0.802s-3.28-0.794-3.289-0.8c-0.163-0.122-0.386-0.118-0.543 0.008s-0.212 0.343-0.13 0.528c0.053 0.12 1.333 2.931 3.962 2.931s3.908-2.811 3.962-2.931c0.082-0.184 0.028-0.399-0.129-0.525zM19.556 24.889h-7.111c-0.491 0-0.889-0.397-0.889-0.889s0.398-0.889 0.889-0.889h7.111c0.492 0 0.889 0.397 0.889 0.889s-0.397 0.889-0.889 0.889zM5.333 12.444c-0.491 0-0.889-0.398-0.889-0.889s0.396-0.887 0.885-0.889c0.139-0.002 3.172-0.076 5.516-3.2 0.294-0.391 0.851-0.473 1.244-0.178s0.472 0.852 0.178 1.244c-2.9 3.867-6.771 3.911-6.934 3.911zM26.667 12.444c-0.164 0-4.033-0.044-6.933-3.911-0.295-0.393-0.215-0.95 0.178-1.244 0.392-0.296 0.948-0.215 1.244 0.178 2.348 3.13 5.388 3.199 5.516 3.2 0.489 0.005 0.884 0.405 0.881 0.893-0.002 0.49-0.396 0.884-0.885 0.884z"></path>
</svg>
