
<svg version="1.1" xmlns="http://www.w3.org/2000/svg" width="32" height="32" viewBox="0 0 32 32">
<title>yes</title>
<path fill="#59a869" d="M32 28.444c0 1.964-1.592 3.556-3.556 3.556h-24.889c-1.964 0-3.556-1.592-3.556-3.556v-24.889c0-1.964 1.592-3.556 3.556-3.556h24.889c1.964 0 3.556 1.592 3.556 3.556v24.889z"></path>
<path fill="#fff" d="M26.027 5.655c-1.028-0.668-2.404-0.375-3.074 0.654l-9.676 14.915-4.47-4.133c-0.901-0.834-2.308-0.778-3.14 0.123s-0.778 2.308 0.124 3.14l6.408 5.925c0.427 0.396 0.969 0.591 1.508 0.591 0.598 0 1.364-0.251 1.866-1.012 0.295-0.45 11.111-17.129 11.111-17.129 0.668-1.030 0.374-2.406-0.655-3.074z"></path>
</svg>
