
<svg version="1.1" xmlns="http://www.w3.org/2000/svg" width="32" height="32" viewBox="0 0 32 32">
<title>zero</title>
<path fill="#008eff" d="M32 28.444c0 1.964-1.592 3.556-3.556 3.556h-24.889c-1.964 0-3.556-1.592-3.556-3.556v-24.889c0-1.964 1.592-3.556 3.556-3.556h24.889c1.964 0 3.556 1.592 3.556 3.556v24.889z"></path>
<path fill="#fff" d="M8.698 15.966c0-4.492 1.737-10.142 7.303-10.142 5.568 0 7.304 5.65 7.304 10.142s-1.736 10.142-7.304 10.142c-5.566 0-7.303-5.65-7.303-10.142zM19.005 15.966c0-2.094-0.193-6.394-3.004-6.394s-3.004 4.3-3.004 6.394c0 1.956 0.193 6.394 3.004 6.394s3.004-4.437 3.004-6.394z"></path>
</svg>
