<svg xmlns="http://www.w3.org/2000/svg" width="16" height="16" viewBox="0 0 16 16" fill="currentColor">
  <path fill-rule="evenodd" d="M13.3034,6.2716 C13.9274,8.2086 13.4954,10.4166 11.9604,11.9526 C10.9034,13.0096 9.4964,13.5916 8.0004,13.5916 C6.5044,13.5916 5.0984,13.0096 4.0404,11.9526 C1.8574,9.7676 1.8574,6.2156 4.0404,4.0326 C5.0984,2.9736 6.5044,2.3916 8.0004,2.3916 C8.5474,2.3916 9.0744,2.4956 9.5844,2.6456 L9.5844,1.1806 C9.0634,1.0596 8.5324,0.9926 8.0004,0.9926 C6.2094,0.9926 4.4174,1.6756 3.0504,3.0426 C0.3164,5.7756 0.3164,10.2086 3.0504,12.9416 C4.4174,14.3076 6.2094,14.9926 8.0004,14.9926 C9.7924,14.9926 11.5834,14.3076 12.9504,12.9416 C14.7594,11.1336 15.3644,8.5836 14.7794,6.2716 L13.3034,6.2716 Z M14.058522,1.93933808 L14.058522,0.0006 L12.9351942,0.0006 L12.9351942,1.93933808 L10.9964,1.93933808 L10.9964,3.0655303 L12.9351942,3.0655303 L12.9351942,5.0006 L14.058522,5.0006 L14.058522,3.0655303 L15.9964,3.0655303 L15.9964,1.93933808 L14.058522,1.93933808 Z M3.9564,8.9686 C4.1304,9.6916 4.4854,10.3786 5.0494,10.9436 C5.8644,11.7576 6.9324,12.1656 8.0004,12.1656 C9.0694,12.1656 10.1364,11.7576 10.9514,10.9436 C11.5154,10.3786 11.8704,9.6916 12.0444,8.9686 L10.7744,8.9686 C10.6324,9.3736 10.4094,9.7556 10.0874,10.0796 C9.5304,10.6366 8.7884,10.9436 8.0004,10.9436 C7.2124,10.9436 6.4714,10.6366 5.9134,10.0796 C5.5904,9.7556 5.3684,9.3736 5.2274,8.9686 L3.9564,8.9686 Z M8.7054,5.9686 C8.7054,6.5216 9.1534,6.9686 9.7054,6.9686 C10.2584,6.9686 10.7054,6.5216 10.7054,5.9686 C10.7054,5.4166 10.2584,4.9686 9.7054,4.9686 C9.1534,4.9686 8.7054,5.4166 8.7054,5.9686 L8.7054,5.9686 Z M7.2884,5.9686 C7.2884,5.4166 6.8414,4.9686 6.2884,4.9686 C5.7364,4.9686 5.2884,5.4166 5.2884,5.9686 C5.2884,6.5216 5.7364,6.9686 6.2884,6.9686 C6.8414,6.9686 7.2884,6.5216 7.2884,5.9686 L7.2884,5.9686 Z"/>
</svg>
