<svg xmlns="http://www.w3.org/2000/svg" width="16" height="16" viewBox="0 0 16 16">
  <path fill-rule="evenodd" d="M12.5376291,5.86834423 C12.7973102,6.41522472 12.9568583,7.01669523 12.9926879,7.6504696 L13.0004,7.924 L13.0004,12.6 L15.0004,12.6 L15.0004,14 L10.0004,14 C10.0004,15.105 9.1044,16 8.0004,16 C6.94562727,16 6.08219752,15.1845145 6.00588319,14.1493158 L6.0004,14 L4.40514388,14 L5.80514388,12.6 L11.5994,12.6 L11.5994,7.924 C11.5994,7.58498266 11.5508651,7.25694129 11.4602772,6.94626386 L12.5376291,5.86834423 Z M14.5764931,0.434157441 L15.5664426,1.42410693 L1.42430693,15.5662426 L0.434357441,14.5762931 L14.5764931,0.434157441 Z M8.7004,0 L8.7004,3.07 C9.19743942,3.14006633 9.67176492,3.28190528 10.1117261,3.48450841 L9.06071667,4.53589394 C8.72541176,4.43391921 8.36931312,4.379 8.0004,4.379 C6.07846452,4.379 4.50491613,5.86807388 4.40539681,7.73598701 L4.4004,7.924 L4.40014388,9.197 L3.00014388,10.597 L3.0004,7.924 C3.0004,5.52690909 4.76818696,3.53509275 7.08101307,3.10564788 L7.2994,3.07 L7.2994,0 L8.7004,0 Z"/>
</svg>
