<svg xmlns="http://www.w3.org/2000/svg" width="16" height="16" viewBox="0 0 16 16" fill="currentColor">
  <path d="M10.25,1.4 C10.4432997,1.4 10.6,1.55670034 10.6,1.75 L10.6,11.75 L6.6,9.75 L6,9.43 L5.37,9.75 L1.37,11.75 L1.37,1.75 C1.37,1.55670034 1.52670034,1.4 1.72,1.4 L10.22,1.4 L10.25,1.4 Z M10.22,1.11022302e-16 L1.75,1.11022302e-16 C0.785773673,0.00546316996 0.00546316996,0.785773673 0,1.75 L0,14 L6,11 L12,14 L12,1.75 C11.9945368,0.785773673 11.2142263,0.00546316996 10.25,0 L10.22,1.11022302e-16 Z" transform="translate(2 1)"/>
</svg>
