<svg width="24" height="24" viewBox="0 0 24 24" fill="none" xmlns="http://www.w3.org/2000/svg"><path fill-rule="evenodd" clip-rule="evenodd" d="M15.0023 14.4921C15.3792 14.4921 15.7422 14.6339 16.0192 14.8894L20.5023 19.0239V6.00537C20.5023 4.62466 19.383 3.50537 18.0023 3.50537H5.99634C4.61563 3.50537 3.49634 4.62466 3.49634 6.00537L3.49634 11.9921C3.49634 13.3728 4.61563 14.4921 5.99634 14.4921H15.0023ZM22.0023 6.00537C22.0023 3.79623 20.2115 2.00537 18.0023 2.00537H5.99634C3.7872 2.00537 1.99634 3.79623 1.99634 6.00537L1.99634 11.9921C1.99634 14.2012 3.7872 15.9921 5.99634 15.9921H15.0023L21.1633 21.674C21.4837 21.9694 22.0023 21.7422 22.0023 21.3065V6.00537Z" fill="currentColor"/></svg>
