<svg width="24" height="24" viewBox="0 0 24 24" fill="none" xmlns="http://www.w3.org/2000/svg"><path fill-rule="evenodd" clip-rule="evenodd" d="M12 9.03711C10.3636 9.03711 9.03705 10.3637 9.03705 12.0001C9.03705 13.6365 10.3636 14.9631 12 14.9631C13.6364 14.9631 14.963 13.6365 14.963 12.0001C14.963 10.3637 13.6364 9.03711 12 9.03711ZM7.5998 11.2501C7.95646 9.14235 9.79078 7.53711 12 7.53711C14.2093 7.53711 16.0436 9.14235 16.4002 11.2501H21.2825C21.6967 11.2501 22.0325 11.5859 22.0325 12.0001C22.0325 12.4143 21.6967 12.7501 21.2825 12.7501H16.4002C16.0436 14.8578 14.2093 16.4631 12 16.4631C9.79078 16.4631 7.95646 14.8578 7.5998 12.7501H2.71777C2.30356 12.7501 1.96777 12.4143 1.96777 12.0001C1.96777 11.5859 2.30356 11.2501 2.71777 11.2501H7.5998Z" fill="currentColor"/></svg>
