<svg width="12" height="12" viewBox="0 0 12 12" fill="none" xmlns="http://www.w3.org/2000/svg"><circle cx="6.00014" cy="6.00014" r="2.07143" stroke="currentColor" stroke-linecap="round" stroke-linejoin="round"/><circle cx="6.00003" cy="6.00003" r="4.64286" stroke="currentColor" stroke-linecap="round" stroke-linejoin="round"/><path d="M4.18149 4.90843C4.18149 4.90843 4.10744 5.01335 3.01647 4.28604C1.92551 3.55873 1.99956 3.45381 1.99956 3.45381L3.4532 2.00017C3.4532 2.00017 3.55809 1.93966 4.2854 3.03063C5.01271 4.12159 4.90782 4.1821 4.90782 4.1821L4.18149 4.90843Z" fill="currentColor"/><path d="M7.81705 7.09132C7.81705 7.09132 7.8911 6.9864 8.98206 7.71371C10.073 8.44102 9.99898 8.54594 9.99898 8.54594L8.54534 9.99959C8.54534 9.99959 8.44044 10.0601 7.71313 8.96913C6.98582 7.87816 7.09072 7.81766 7.09072 7.81766L7.81705 7.09132Z" fill="currentColor"/><path d="M7.09059 4.18222C7.09059 4.18222 6.98567 4.10817 7.71298 3.0172C8.44029 1.92624 8.54521 2.00029 8.54521 2.00029L9.99885 3.45393C9.99885 3.45393 10.0594 3.55883 8.9684 4.28613C7.87743 5.01344 7.81692 4.90855 7.81692 4.90855L7.09059 4.18222Z" fill="currentColor"/><path d="M4.9077 7.81778C4.9077 7.81778 5.01262 7.89183 4.28531 8.9828C3.558 10.0738 3.45308 9.99971 3.45308 9.99971L1.99944 8.54607C1.99944 8.54607 1.93893 8.44117 3.02989 7.71387C4.12086 6.98656 4.18137 7.09145 4.18137 7.09145L4.9077 7.81778Z" fill="currentColor"/></svg>
