<svg width="24" height="24" viewBox="0 0 24 24" fill="none" xmlns="http://www.w3.org/2000/svg"><path fill-rule="evenodd" clip-rule="evenodd" d="M12.0001 3.45679C7.28174 3.45679 3.45679 7.28174 3.45679 12.0001C3.45679 16.7184 7.28174 20.5433 12.0001 20.5433C16.7184 20.5433 20.5433 16.7184 20.5433 12.0001C20.5433 7.28174 16.7184 3.45679 12.0001 3.45679ZM1.95679 12.0001C1.95679 6.45331 6.45331 1.95679 12.0001 1.95679C17.5468 1.95679 22.0433 6.45331 22.0433 12.0001C22.0433 17.5468 17.5468 22.0433 12.0001 22.0433C6.45331 22.0433 1.95679 17.5468 1.95679 12.0001Z" fill="currentColor"/><path fill-rule="evenodd" clip-rule="evenodd" d="M12 6.01733C12.4142 6.01733 12.75 6.35312 12.75 6.76733V11.5754L16.0392 13.5489C16.3944 13.762 16.5095 14.2227 16.2964 14.5779C16.0833 14.933 15.6226 15.0482 15.2674 14.8351L11.6141 12.6431C11.3882 12.5076 11.25 12.2634 11.25 12V6.76733C11.25 6.35312 11.5858 6.01733 12 6.01733Z" fill="currentColor"/></svg>
