<svg width="24" height="24" viewBox="0 0 24 24" fill="none" xmlns="http://www.w3.org/2000/svg"><path fill-rule="evenodd" clip-rule="evenodd" d="M12.0001 2.80786C10.0622 2.80786 8.49121 4.37883 8.49121 6.31672V7.98535H6.99121V6.31672C6.99121 3.5504 9.23375 1.30786 12.0001 1.30786C14.7664 1.30786 17.0089 3.5504 17.0089 6.31672V7.98535H15.5089V6.31672C15.5089 4.37883 13.938 2.80786 12.0001 2.80786Z" fill="currentColor"/><path fill-rule="evenodd" clip-rule="evenodd" d="M13.5615 8.54956H10.4386C9.26693 8.54956 8.46243 8.55035 7.83521 8.59266C7.22125 8.63408 6.88616 8.71033 6.64248 8.80998C5.77317 9.16548 5.0832 9.85544 4.7277 10.7248C4.62805 10.9684 4.5518 11.3035 4.51039 11.9175C4.46808 12.5447 4.46729 13.3492 4.46729 14.5209C4.46729 15.6925 4.46808 16.497 4.51039 17.1243C4.5518 17.7382 4.62805 18.0733 4.7277 18.317C5.0832 19.1863 5.77317 19.8763 6.64248 20.2318C6.88616 20.3314 7.22125 20.4077 7.83521 20.4491C8.46243 20.4914 9.26693 20.4922 10.4386 20.4922H13.5615C14.7332 20.4922 15.5377 20.4914 16.1649 20.4491C16.7789 20.4077 17.114 20.3314 17.3576 20.2318C18.227 19.8763 18.9169 19.1863 19.2724 18.317C19.3721 18.0733 19.4483 17.7382 19.4897 17.1243C19.532 16.497 19.5328 15.6925 19.5328 14.5209C19.5328 13.3492 19.532 12.5447 19.4897 11.9175C19.4483 11.3035 19.3721 10.9684 19.2724 10.7248C18.9169 9.85544 18.227 9.16548 17.3576 8.80998C17.114 8.71033 16.7789 8.63408 16.1649 8.59266C15.5377 8.55035 14.7332 8.54956 13.5615 8.54956ZM3.33931 10.157C2.96729 11.0667 2.96729 12.2181 2.96729 14.5209C2.96729 16.8237 2.96729 17.975 3.33931 18.8848C3.84717 20.1266 4.83283 21.1123 6.0747 21.6202C6.98443 21.9922 8.13582 21.9922 10.4386 21.9922H13.5615C15.8643 21.9922 17.0157 21.9922 17.9254 21.6202C19.1673 21.1123 20.153 20.1266 20.6608 18.8848C21.0328 17.975 21.0328 16.8237 21.0328 14.5209C21.0328 12.2181 21.0328 11.0667 20.6608 10.157C20.153 8.9151 19.1673 7.92944 17.9254 7.42159C17.0157 7.04956 15.8643 7.04956 13.5615 7.04956H10.4386C8.13582 7.04956 6.98443 7.04956 6.0747 7.42159C4.83283 7.92944 3.84717 8.9151 3.33931 10.157Z" fill="currentColor"/><path d="M11.25 12.7432C11.25 12.329 11.5858 11.9932 12 11.9932V11.9932C12.4142 11.9932 12.75 12.329 12.75 12.7432V16.2986C12.75 16.7128 12.4142 17.0486 12 17.0486V17.0486C11.5858 17.0486 11.25 16.7128 11.25 16.2986V12.7432Z" fill="currentColor"/></svg>
