<svg width="24" height="24" viewBox="0 0 24 24" fill="none" xmlns="http://www.w3.org/2000/svg"><path fill-rule="evenodd" clip-rule="evenodd" d="M10.9111 7.9018C11.204 7.60891 11.6788 7.60891 11.9717 7.9018L15.5396 11.4697C15.8325 11.7626 15.8325 12.2375 15.5396 12.5304L11.9717 16.0983C11.6788 16.3912 11.204 16.3912 10.9111 16.0983C10.6182 15.8054 10.6182 15.3305 10.9111 15.0376L13.1986 12.75H2.87842C2.4642 12.75 2.12842 12.4143 2.12842 12C2.12842 11.5858 2.4642 11.25 2.87842 11.25H13.1986L10.9111 8.96246C10.6182 8.66957 10.6182 8.19469 10.9111 7.9018Z" fill="currentColor"/><path fill-rule="evenodd" clip-rule="evenodd" d="M8.77026 2.79932C7.52762 2.79932 6.52026 3.80667 6.52026 5.04932V8.98112H5.02026V5.04932C5.02026 2.97825 6.6992 1.29932 8.77026 1.29932H17.2474C19.3185 1.29932 20.9974 2.97825 20.9974 5.04932V18.9507C20.9974 21.0218 19.3185 22.7007 17.2474 22.7007H8.77026C6.6992 22.7007 5.02026 21.0218 5.02026 18.9507V15.0201H6.52026V18.9507C6.52026 20.1934 7.52762 21.2007 8.77026 21.2007H17.2474C18.4901 21.2007 19.4974 20.1934 19.4974 18.9507V5.04932C19.4974 3.80668 18.4901 2.79932 17.2474 2.79932H8.77026Z" fill="currentColor"/></svg>
