<svg xmlns="http://www.w3.org/2000/svg" width="16" height="16" viewBox="0 0 16 16" fill="currentColor"><path d="M15,2 L15,13 L1,13 L1,2 L15,2 Z M4.46464466,8.65769197 L2.6,10.522 L2.6,11.4 L7.206,11.399 L4.46464466,8.65769197 Z M11.5358155,5.82946381 L7.29317485,10.0721045 L8.62,11.399 L13.4,11.4 L13.399,7.693 L11.5358155,5.82946381 Z M13.4,3.6 L2.6,3.6 L2.6,9.107 L4.46446609,7.24264069 L6.58482541,9.36321356 L11.5355339,4.41421356 L13.399,6.278 L13.4,3.6 Z M6.5,4 C7.32842712,4 8,4.67157288 8,5.5 C8,6.32842712 7.32842712,7 6.5,7 C5.67157288,7 5,6.32842712 5,5.5 C5,4.67157288 5.67157288,4 6.5,4 Z M6.5,4.8 C6.11340068,4.8 5.8,5.11340068 5.8,5.5 C5.8,5.88659932 6.11340068,6.2 6.5,6.2 C6.88659932,6.2 7.2,5.88659932 7.2,5.5 C7.2,5.11340068 6.88659932,4.8 6.5,4.8 Z"/></svg>
