<svg width="24" height="24" viewBox="0 0 24 24" fill="none" xmlns="http://www.w3.org/2000/svg">
<g clip-path="url(#clip0_3843_29084)">
<path fill-rule="evenodd" clip-rule="evenodd" d="M6.54225 5.48317C9.68729 2.84525 14.3057 2.84282 17.4562 5.48235L15.3221 7.61648C13.3633 6.13017 10.635 6.1305 8.67656 7.61748L6.54225 5.48317ZM18.5175 17.4585C21.1674 14.3094 21.1657 9.69249 18.5177 6.54221L16.3836 8.67635C17.8744 10.6351 17.8742 13.3655 16.3832 15.3241L18.5175 17.4585ZM5.48163 6.54387L7.61543 8.67767C6.12597 10.6359 6.12609 13.3647 7.61579 15.3228L5.48178 17.4568C2.83992 14.3102 2.84336 9.6898 5.48163 6.54387ZM6.543 18.5169C9.69041 21.1543 14.3044 21.155 17.4555 18.5177L15.3216 16.3839C13.363 17.8697 10.6353 17.8694 8.67704 16.3829L6.543 18.5169ZM19.0734 4.93118C15.168 1.02835 8.83048 1.02988 4.93005 4.92777C1.02963 8.82566 1.02127 15.1659 4.92664 19.0687C8.83201 22.9716 15.1695 22.97 19.0768 19.0653C22.984 15.1606 22.9787 8.83402 19.0734 4.93118ZM9.17065 9.17249C10.733 7.61118 13.267 7.61118 14.8293 9.17249C16.3917 10.7338 16.3917 13.2662 14.8293 14.8275C13.267 16.3888 10.733 16.3888 9.17065 14.8275C7.60833 13.2662 7.60833 10.7338 9.17065 9.17249Z" fill="currentColor"/>
</g>
<defs>
<clipPath id="clip0_3843_29084">
<rect width="24" height="24" fill="white"/>
</clipPath>
</defs>
</svg>
