<svg width="25" height="24" viewBox="0 0 25 24" fill="none" xmlns="http://www.w3.org/2000/svg">
<path fill-rule="evenodd" clip-rule="evenodd" d="M17.9302 0.928892C18.2035 0.617681 18.6774 0.58699 18.9886 0.860341C21.0125 2.63799 22.3339 5.18078 22.4429 8.05551C22.4586 8.46943 22.1358 8.8177 21.7219 8.83339C21.308 8.84908 20.9597 8.52626 20.944 8.11234C20.8516 5.67464 19.733 3.51061 17.9987 1.98733C17.6875 1.71398 17.6568 1.2401 17.9302 0.928892Z" fill="currentColor"/>
<path fill-rule="evenodd" clip-rule="evenodd" d="M6.11378 0.928892C5.84043 0.617681 5.36655 0.58699 5.05534 0.860341C3.03148 2.63799 1.71001 5.18078 1.60103 8.05551C1.58533 8.46943 1.90816 8.8177 2.32207 8.83339C2.73599 8.84908 3.08426 8.52626 3.09995 8.11234C3.19236 5.67464 4.31098 3.51061 6.04523 1.98733C6.35644 1.71398 6.38713 1.2401 6.11378 0.928892Z" fill="currentColor"/>
<path fill-rule="evenodd" clip-rule="evenodd" d="M6.41242 8.33355C6.41242 5.46454 8.84449 3.04272 11.9653 3.04272C15.0862 3.04272 17.5182 5.46454 17.5182 8.33355V9.42605C17.5182 10.465 17.7725 11.4881 18.2588 12.4061L19.7737 15.2658C20.3175 16.2923 19.5734 17.5287 18.4117 17.5287H5.57372C4.41941 17.5287 3.6747 16.3065 4.2039 15.2807L5.70398 12.3728C6.16951 11.4703 6.41242 10.4696 6.41242 9.45417V8.33355ZM4.91242 8.33355C4.91242 4.58308 8.07011 1.54272 11.9653 1.54272C15.8606 1.54272 19.0182 4.58308 19.0182 8.33355V9.42605C19.0182 10.2202 19.2126 11.0022 19.5843 11.704L21.0992 14.5636C22.1722 16.5892 20.7039 19.0287 18.4117 19.0287H10.0299C10.0645 20.0035 10.8408 20.8073 11.8349 20.8578C12.4554 20.8894 13.0214 20.6211 13.3929 20.1771C13.6587 19.8594 14.1317 19.8173 14.4494 20.0831C14.767 20.3489 14.8091 20.8219 14.5433 21.1396C13.8824 21.9294 12.8691 22.4124 11.7586 22.3559C9.96348 22.2646 8.56362 20.7984 8.52931 19.0287H5.57372C3.29606 19.0287 1.82662 16.6172 2.87082 14.593L4.37091 11.6851C4.72675 10.9953 4.91242 10.2304 4.91242 9.45417V8.33355Z" fill="currentColor"/>
</svg>
