<svg width="25" height="24" viewBox="0 0 25 24" fill="none" xmlns="http://www.w3.org/2000/svg">
<path fill-rule="evenodd" clip-rule="evenodd" d="M3.63015 3.12236C5.99481 2.98536 8.28244 3.36499 9.99782 4.64684C10.1736 4.7782 10.3431 4.91885 10.5056 5.06908C10.8097 5.35025 10.8284 5.82476 10.5472 6.12892C10.266 6.43308 9.7915 6.45171 9.48734 6.17054C9.36387 6.05639 9.23466 5.94909 9.09992 5.84841C7.78265 4.86405 5.90504 4.49308 3.71691 4.61984C3.63067 4.62484 3.53201 4.70358 3.53201 4.84177L3.53198 16.0211C4.48286 16.0109 6.0038 16.0381 7.56935 16.4285C8.83635 16.7445 10.1774 17.3098 11.2725 18.3209V10.9057L11.2727 10.8969C11.3427 7.9221 12.3832 5.85166 14.1247 4.5901C15.8313 3.35389 18.0854 2.98737 20.4153 3.12236C21.3463 3.1763 22.0134 3.96127 22.0134 4.84177L22.0134 16.2823C22.0134 16.9727 21.4521 17.5368 20.7518 17.5247C19.8496 17.509 18.3418 17.5058 16.8184 17.8891C15.2967 18.2721 13.8426 19.0191 12.9386 20.4438C12.8056 20.6536 12.536 20.921 12.0986 20.921C12.0857 20.921 12.0728 20.9207 12.0601 20.9201C12.0478 20.9207 12.0354 20.921 12.0229 20.921C11.6254 20.921 11.279 20.7095 11.0817 20.4047C10.1723 18.9993 8.72163 18.2618 7.20641 17.884C5.68989 17.5058 4.1916 17.5091 3.2936 17.5247C2.59328 17.5368 2.03198 16.9727 2.03198 16.2823L2.03201 4.84177C2.03201 3.96118 2.69932 3.17628 3.63015 3.12236ZM15.0047 5.80486C16.3187 4.85298 18.1735 4.49499 20.3286 4.61985C20.4147 4.62484 20.5134 4.7035 20.5134 4.84178L20.5134 16.0211C19.5578 16.0108 18.0263 16.0384 16.4523 16.4345C15.1922 16.7516 13.8608 17.3163 12.7725 18.3213V10.9235C12.8359 8.30912 13.727 6.73037 15.0047 5.80486ZM5.56533 7.72185C5.15207 7.69371 4.79425 8.00591 4.76611 8.41917C4.73797 8.83242 5.05017 9.19024 5.46343 9.21838C6.56872 9.29364 7.62715 9.57183 8.60227 10.0199C8.97866 10.1928 9.42397 10.0279 9.59692 9.65154C9.76986 9.27516 9.60494 8.82984 9.22856 8.65689C8.09269 8.13497 6.85695 7.8098 5.56533 7.72185ZM19.2578 8.41917C19.2297 8.00591 18.8719 7.69371 18.4586 7.72185C17.167 7.8098 15.9312 8.13497 14.7954 8.65689C14.419 8.82984 14.2541 9.27516 14.427 9.65154C14.6 10.0279 15.0453 10.1928 15.4217 10.0199C16.3968 9.57183 17.4552 9.29364 18.5605 9.21838C18.9738 9.19024 19.286 8.83242 19.2578 8.41917ZM18.4586 10.9842C18.8719 10.956 19.2297 11.2682 19.2578 11.6815C19.286 12.0948 18.9738 12.4526 18.5605 12.4807C17.4552 12.556 16.3968 12.8342 15.4217 13.2822C15.0453 13.4552 14.6 13.2902 14.427 12.9139C14.2541 12.5375 14.419 12.0922 14.7954 11.9192C15.9312 11.3973 17.167 11.0721 18.4586 10.9842Z" fill="currentColor"/>
</svg>
