<svg width="24" height="24" viewBox="0 0 24 24" fill="none" xmlns="http://www.w3.org/2000/svg">
<path fill-rule="evenodd" clip-rule="evenodd" d="M14.7232 2.35704C9.3991 0.894807 3.89364 4.02918 2.43305 9.34727C0.972706 14.6645 4.10142 20.1804 9.4264 21.6429C14.7509 23.1053 20.2561 19.9703 21.7189 14.6441C22.2287 12.7878 22.1801 10.9084 21.674 9.18691C21.5572 8.78951 21.1403 8.56206 20.7429 8.67888C20.3455 8.7957 20.1181 9.21256 20.2349 9.60996C20.6646 11.0717 20.7064 12.6669 20.2725 14.2468C19.0288 18.7749 14.3487 21.4392 9.82366 20.1965C5.29909 18.9538 2.63811 14.2644 3.87949 9.74453C5.12061 5.22553 9.80044 2.56058 14.3259 3.80348C14.7253 3.91318 15.1381 3.67831 15.2478 3.27889C15.3575 2.87947 15.1226 2.46674 14.7232 2.35704ZM22.0069 3.85765C22.3402 3.61161 22.4108 3.14202 22.1648 2.8088C21.9188 2.47558 21.4492 2.4049 21.116 2.65094C16.6153 5.97403 13.6432 10.9489 12.1589 14.1022C11.4041 12.6535 10.3153 10.9074 8.94918 9.55413C8.65491 9.26262 8.18004 9.26486 7.88853 9.55913C7.59702 9.85341 7.59926 10.3283 7.89353 10.6198C9.58364 12.294 10.8523 14.715 11.5043 16.2041C11.6257 16.4813 11.9017 16.6584 12.2043 16.6532C12.5069 16.648 12.7766 16.4614 12.8884 16.1802C13.9582 13.4868 17.0106 7.54672 22.0069 3.85765Z" fill="currentColor"/>
</svg>
