<svg width="24" height="24" viewBox="0 0 24 24" fill="none" xmlns="http://www.w3.org/2000/svg"><path fill-rule="evenodd" clip-rule="evenodd" d="M4.50293 1.99341L8.5 1.99341C9.88071 1.99341 11 3.1127 11 4.49341V19.4961C11 20.8768 9.88071 21.9961 8.5 21.9961H4.50293C3.12222 21.9961 2.00293 20.8768 2.00293 19.4961V4.49341C2.00293 3.1127 3.12222 1.99341 4.50293 1.99341ZM4.50293 3.49341C3.95064 3.49341 3.50293 3.94112 3.50293 4.49341V19.4961C3.50293 20.0484 3.95064 20.4961 4.50293 20.4961H8.5C9.05228 20.4961 9.5 20.0484 9.5 19.4961V4.49341C9.5 3.94112 9.05228 3.49341 8.5 3.49341H4.50293Z" fill="currentColor"/><path fill-rule="evenodd" clip-rule="evenodd" d="M15.4819 2L19.479 2C20.8597 2 21.979 3.11929 21.979 4.5V10.5C21.979 11.8807 20.8597 13 19.479 13H15.4819C14.1012 13 12.9819 11.8807 12.9819 10.5V4.5C12.9819 3.11929 14.1012 2 15.4819 2ZM15.4819 3.5C14.9296 3.5 14.4819 3.94772 14.4819 4.5V10.5C14.4819 11.0523 14.9296 11.5 15.4819 11.5H19.479C20.0313 11.5 20.479 11.0523 20.479 10.5V4.5C20.479 3.94772 20.0313 3.5 19.479 3.5H15.4819Z" fill="currentColor"/></svg>
