<svg width="24" height="24" viewBox="0 0 24 24" fill="none" xmlns="http://www.w3.org/2000/svg"><path d="M6.03564 12C6.03564 13.1046 5.14021 14 4.03564 14C2.93107 14 2.03564 13.1046 2.03564 12C2.03564 10.8954 2.93107 10 4.03564 10C5.14021 10 6.03564 10.8954 6.03564 12Z" fill="currentColor"/><path d="M14 12C14 13.1046 13.1046 14 12 14C10.8954 14 10 13.1046 10 12C10 10.8954 10.8954 10 12 10C13.1046 10 14 10.8954 14 12Z" fill="currentColor"/><path d="M21.9873 12C21.9873 13.1046 21.0919 14 19.9873 14C18.8827 14 17.9873 13.1046 17.9873 12C17.9873 10.8954 18.8827 10 19.9873 10C21.0919 10 21.9873 10.8954 21.9873 12Z" fill="currentColor"/></svg>
