<svg width="430" height="430" viewBox="0 0 430 430" fill="none" xmlns="http://www.w3.org/2000/svg"><path d="M221.559 368.28C311.935 368.28 385.199 295.016 385.199 204.64C385.199 114.264 311.935 41 221.559 41C131.184 41 57.9194 114.264 57.9194 204.64C57.9194 295.016 131.184 368.28 221.559 368.28Z" fill="url(#paint0_radial_536_3530)"/><path d="M376.699 371.31V280.59C376.699 237.59 345.819 201.48 302.949 201.48H231.109C192.144 201.482 159.869 231.727 157.339 270.61C157.129 273.89 158.289 367.94 158.529 371.31H376.699Z" fill="black"/><path fill-rule="evenodd" clip-rule="evenodd" d="M167.759 147.62L151.919 130.12V102.6C151.92 81.7215 136.584 64.0126 115.919 61.03V52.9C115.919 49.5863 113.233 46.9 109.919 46.9C106.606 46.9 103.919 49.5863 103.919 52.9V61.03C83.2551 64.0126 67.9191 81.7215 67.9195 102.6V130.12L52.1095 147.62C50.7792 149.086 50.4391 151.199 51.242 153.008C52.045 154.818 53.8399 155.983 55.8195 155.98H164.049C166.029 155.983 167.824 154.818 168.627 153.008C169.43 151.199 169.09 149.086 167.759 147.62Z" stroke="black"/><path fill-rule="evenodd" clip-rule="evenodd" d="M131.809 155.98C131.979 163.91 127.845 171.312 121.004 175.327C114.163 179.342 105.686 179.342 98.8447 175.327C92.0037 171.312 87.8699 163.91 88.0394 155.98H131.809Z" stroke="black"/><path d="M142.68 92.24C150.03 92.24 155.99 86.2809 155.99 78.93C155.99 71.5791 150.03 65.62 142.68 65.62C135.329 65.62 129.37 71.5791 129.37 78.93C129.37 86.2809 135.329 92.24 142.68 92.24Z" fill="black"/><path d="M262.599 141.55C262.599 141.55 277.989 136.84 281.819 122.33C283.151 116.93 286.112 112.07 290.299 108.41C294.929 104.49 300.659 103.54 305.919 100.78C312.709 97.21 318.259 91.44 320.249 83.9C324.719 66.9 339.469 64.68 339.469 64.68L369.669 94.88C369.669 94.88 354.919 97.12 350.449 114.1C348.449 121.64 342.909 127.41 336.119 130.98C330.859 133.74 325.119 134.69 320.499 138.61C316.312 142.27 313.351 147.13 312.019 152.53C308.189 167.04 292.799 171.75 292.799 171.75L262.599 141.55Z" fill="black"/><path d="M271.009 187.48C259.261 187.456 249.325 178.779 247.719 167.14L247.659 166.7H247.109C244.501 166.75 242.116 165.236 241.051 162.854C239.987 160.473 240.448 157.686 242.225 155.775C244.001 153.865 246.747 153.201 249.199 154.09L249.629 154.24L249.819 153.83C253.728 145.667 261.974 140.472 271.024 140.472C280.075 140.472 288.321 145.667 292.229 153.83L292.429 154.24L292.849 154.09C295.29 153.217 298.015 153.877 299.786 155.769C301.556 157.661 302.034 160.425 301 162.801C299.967 165.178 297.621 166.714 295.029 166.71H294.369L294.309 167.15C292.699 178.789 282.759 187.461 271.009 187.48Z" fill="white"/><path d="M271 140.98C279.851 141.013 287.909 146.09 291.759 154.06L292.149 154.87L293 154.57C295.253 153.765 297.77 154.375 299.403 156.124C301.037 157.873 301.475 160.425 300.518 162.619C299.561 164.812 297.393 166.228 295 166.22H294.82H293.91L293.789 167.11C292.222 178.493 282.495 186.973 271.005 186.973C259.514 186.973 249.787 178.493 248.22 167.11L248.1 166.22H247.19H246.999C244.606 166.228 242.438 164.812 241.481 162.619C240.524 160.425 240.962 157.873 242.596 156.124C244.229 154.375 246.746 153.765 248.999 154.57L249.85 154.87L250.24 154.06C254.086 146.091 262.141 141.014 270.99 140.98H271ZM270.99 139.98C261.746 139.981 253.326 145.291 249.339 153.63C246.712 152.689 243.776 153.399 241.869 155.436C239.961 157.474 239.447 160.45 240.559 163.01C241.671 165.57 244.198 167.224 246.99 167.22H247.22C248.857 179.096 259.007 187.941 270.994 187.941C282.982 187.941 293.132 179.096 294.77 167.22H294.99C297.782 167.228 300.312 165.576 301.427 163.016C302.543 160.456 302.03 157.478 300.123 155.439C298.215 153.399 295.278 152.688 292.649 153.63C288.662 145.287 280.236 139.978 270.99 139.98Z" fill="black"/><path d="M272.609 157.43V161.01C272.609 161.447 272.784 161.865 273.093 162.173C273.403 162.481 273.823 162.653 274.259 162.65C274.695 162.653 275.114 162.481 275.422 162.173C275.73 161.864 275.902 161.446 275.899 161.01V157.42C275.894 156.513 275.157 155.78 274.249 155.78C273.813 155.78 273.394 155.954 273.086 156.264C272.778 156.574 272.607 156.993 272.609 157.43Z" fill="black"/><path d="M258.109 157.43V161.01C258.109 161.447 258.284 161.865 258.593 162.173C258.903 162.481 259.323 162.653 259.759 162.65C260.195 162.653 260.614 162.481 260.922 162.173C261.23 161.864 261.402 161.446 261.399 161.01V157.42C261.394 156.513 260.657 155.78 259.749 155.78C259.313 155.78 258.894 155.954 258.586 156.264C258.278 156.574 258.107 156.993 258.109 157.43Z" fill="black"/><path d="M46.6695 244.08C43.9054 248.793 44.6741 254.778 48.5395 258.64L70.9095 281.01C73.1533 283.268 76.2064 284.535 79.3895 284.53H187.959L188.069 236.69C188.069 230.063 182.697 224.69 176.069 224.69H166.069L137.649 196.31C134.613 193.273 130.187 192.087 126.038 193.199C121.89 194.31 118.65 197.55 117.538 201.699C116.427 205.847 117.613 210.273 120.649 213.31L132.109 224.69H89.9495C86.7936 224.671 83.7722 223.41 81.5395 221.18L65.5395 205.18C62.1064 201.751 56.9463 200.727 52.4641 202.585C47.9819 204.443 45.0597 208.818 45.0595 213.67C45.0599 215.519 45.4877 217.343 46.3095 219L46.6995 219.78C44.6563 223.271 44.5096 227.557 46.3095 231.18L46.7095 231.96C44.6667 235.447 44.5163 239.728 46.3095 243.35L46.6695 244.08Z" fill="white"/><path d="M150.489 224.69H176.109C182.737 224.69 188.109 230.063 188.109 236.69L187.989 284.53H79.3895C76.2045 284.53 73.1502 283.264 70.8995 281.01L48.5295 258.64C46.27 256.388 45 253.33 45 250.14C45 246.95 46.27 243.892 48.5295 241.64C50.7811 239.381 53.8396 238.111 57.0295 238.111C60.2193 238.111 63.2778 239.381 65.5295 241.64L81.5295 257.64C83.7581 259.872 86.7757 261.136 89.9295 261.16L129.169 261.29" stroke="black" stroke-linecap="round" stroke-linejoin="round"/><path d="M46.6195 243.97C43.9074 239.267 44.6906 233.329 48.5295 229.49C50.7811 227.231 53.8397 225.961 57.0295 225.961C60.2193 225.961 63.2779 227.231 65.5295 229.49L81.5295 245.49C83.7597 247.718 86.7771 248.979 89.9295 249L123.169 249.14" stroke="black" stroke-linecap="round" stroke-linejoin="round"/><path d="M46.6495 231.84C43.9036 227.132 44.6757 221.164 48.5295 217.31C50.7811 215.051 53.8396 213.781 57.0295 213.781C60.2193 213.781 63.2778 215.051 65.5295 217.31L81.5294 233.31C83.7581 235.542 86.7757 236.806 89.9295 236.83L117.169 237.01" stroke="black" stroke-linecap="round" stroke-linejoin="round"/><path d="M132.109 224.67L120.679 213.31C118.42 211.058 117.15 208 117.15 204.81C117.15 201.62 118.42 198.562 120.679 196.31C122.931 194.051 125.99 192.781 129.179 192.781C132.369 192.781 135.428 194.051 137.679 196.31L166.069 224.7" stroke="black" stroke-linecap="round" stroke-linejoin="round"/><path d="M46.6695 219.7C43.8923 214.984 44.6574 208.987 48.5295 205.12C50.7811 202.861 53.8396 201.591 57.0295 201.591C60.2193 201.591 63.2778 202.861 65.5295 205.12L81.5295 221.12C83.7597 223.348 86.7771 224.609 89.9295 224.63L158.599 224.69" stroke="black" stroke-linecap="round" stroke-linejoin="round"/><path d="M229.109 377.62C229.109 384.247 234.482 389.62 241.109 389.62H376.27V341.62H265.609C252.382 341.62 241.648 352.322 241.609 365.55L241.009 365.63C234.425 365.685 229.115 371.035 229.109 377.62Z" fill="white"/><path d="M277.109 389.62H241.109C234.482 389.62 229.109 384.247 229.109 377.62C229.109 370.993 234.482 365.62 241.109 365.62" stroke="black" stroke-linecap="round" stroke-linejoin="round"/><path d="M376.219 341.62H315.779C302.525 341.62 291.779 352.365 291.779 365.62C291.779 378.875 302.525 389.62 315.779 389.62H339.049C345.677 389.62 351.049 384.247 351.049 377.62C351.049 370.993 345.677 365.62 339.049 365.62H315.779" stroke="black" stroke-linecap="round" stroke-linejoin="round"/><path d="M298.039 341.62C284.785 341.62 274.039 352.365 274.039 365.62C274.039 378.875 284.785 389.62 298.039 389.62H321.309" stroke="black" stroke-linecap="round" stroke-linejoin="round"/><path d="M304.569 389.58H281.299C268.045 389.58 257.299 378.835 257.299 365.58C257.299 352.325 268.045 341.58 281.299 341.58H376.219V389.58H339.049" stroke="black" stroke-linecap="round" stroke-linejoin="round"/><path d="M366.349 341.62H265.609C252.355 341.62 241.609 352.365 241.609 365.62C241.609 378.875 252.355 389.62 265.609 389.62H288.88" stroke="black" stroke-linecap="round" stroke-linejoin="round"/><defs><radialGradient id="paint0_radial_536_3530" cx="0" cy="0" r="1" gradientUnits="userSpaceOnUse" gradientTransform="translate(221.559 204.64) scale(163.64)"><stop stop-color="#008EFF"/><stop offset="0.28" stop-color="#008EFF" stop-opacity="0.99"/><stop offset="0.42" stop-color="#008EFF" stop-opacity="0.96"/><stop offset="0.52" stop-color="#008EFF" stop-opacity="0.91"/><stop offset="0.61" stop-color="#008EFF" stop-opacity="0.84"/><stop offset="0.7" stop-color="#008EFF" stop-opacity="0.74"/><stop offset="0.77" stop-color="#008EFF" stop-opacity="0.62"/><stop offset="0.84" stop-color="#008EFF" stop-opacity="0.48"/><stop offset="0.9" stop-color="#008EFF" stop-opacity="0.32"/><stop offset="0.96" stop-color="#008EFF" stop-opacity="0.15"/><stop offset="1" stop-color="#008EFF" stop-opacity="0"/></radialGradient></defs></svg>
