<svg width="430" height="430" viewBox="0 0 430 430" fill="none" xmlns="http://www.w3.org/2000/svg"><path d="M294.5 154.21C293.818 154.215 293.142 154.333 292.5 154.56L291.66 154.86L291.27 154.05C287.419 146.08 279.361 141.003 270.51 140.97C267.905 140.969 265.321 141.419 262.87 142.3C257.118 144.33 252.405 148.555 249.76 154.05L249.37 154.86L248.52 154.56C247.877 154.332 247.201 154.214 246.52 154.21C243.206 154.21 240.52 156.896 240.52 160.21C240.52 163.524 243.206 166.21 246.52 166.21H246.71H247.62L247.74 167.1C249.185 177.607 257.628 185.763 268.178 186.845C278.729 187.927 288.652 181.655 292.2 171.66C292.73 170.184 293.102 168.655 293.31 167.1L293.43 166.21H294.33H294.52C297.833 166.21 300.52 163.524 300.52 160.21C300.52 156.896 297.833 154.21 294.52 154.21H294.5ZM260.9 161C260.833 161.859 260.116 162.522 259.255 162.522C258.393 162.522 257.677 161.859 257.61 161V157.42C257.677 156.561 258.393 155.899 259.255 155.899C260.116 155.899 260.833 156.561 260.9 157.42V161ZM275.4 161C275.333 161.859 274.616 162.522 273.755 162.522C272.893 162.522 272.177 161.859 272.11 161V157.4C272.177 156.541 272.893 155.879 273.755 155.879C274.616 155.879 275.333 156.541 275.4 157.4V161ZM136.79 196.65C133.906 193.645 129.623 192.434 125.592 193.484C121.562 194.535 118.414 197.682 117.364 201.713C116.313 205.743 117.525 210.026 120.53 212.91L131.8 224.18H164.32L136.79 196.65ZM176.32 225.2H175.57H158.21H158.08L89.4198 225.14C86.1303 225.128 82.9799 223.812 80.6598 221.48L64.6598 205.48C62.7323 203.551 60.1788 202.373 57.4598 202.16C57.4598 202.99 57.4598 203.82 57.4598 204.65C57.4598 207.57 57.5398 210.48 57.6898 213.36C60.5991 213.613 63.3259 214.884 65.3898 216.95L81.3898 232.95C83.5232 235.083 86.4129 236.287 89.4298 236.3L116.66 236.48C116.936 236.48 117.16 236.704 117.16 236.98C117.16 237.256 116.936 237.48 116.66 237.48L89.4198 237.3C86.1303 237.288 82.9799 235.972 80.6598 233.64L64.6598 217.64C62.7971 215.771 60.3449 214.605 57.7198 214.34C57.9465 218.154 58.2998 221.93 58.7798 225.67C61.2799 226.112 63.5818 227.318 65.3698 229.12L81.3698 245.12C83.4905 247.249 86.3649 248.456 89.3698 248.48L122.61 248.62C122.886 248.62 123.11 248.844 123.11 249.12C123.11 249.396 122.886 249.62 122.61 249.62L89.3698 249.48C86.0803 249.468 82.9299 248.152 80.6098 245.82L64.6098 229.82C63.0413 228.245 61.0458 227.164 58.8698 226.71C59.4031 230.67 60.0698 234.58 60.8698 238.44C62.5514 239.06 64.0795 240.036 65.3498 241.3L81.3498 257.3C83.4695 259.432 86.3437 260.643 89.3498 260.67L128.59 260.8C128.868 260.806 129.09 261.032 129.09 261.31C129.09 261.442 129.037 261.568 128.943 261.66C128.849 261.752 128.721 261.803 128.59 261.8L89.3498 261.67C86.0603 261.658 82.9099 260.342 80.5898 258.01L64.5898 242.01C63.5976 241.005 62.4235 240.197 61.1298 239.63C64.51 255.147 70.1502 270.082 77.8698 283.96C78.1898 283.96 78.5098 283.96 78.8698 283.96H186.95L187.07 236.62C187.031 230.585 182.341 225.603 176.32 225.2ZM352.61 107.3C351.445 109.445 350.548 111.726 349.94 114.09C347.94 121.63 342.4 127.4 335.61 130.97C330.35 133.73 324.61 134.68 319.98 138.6C315.798 142.264 312.842 147.123 311.51 152.52C308.28 164.75 296.84 170.02 293.32 171.38C289.856 182.02 279.499 188.854 268.355 187.854C257.21 186.855 248.235 178.286 246.72 167.2H246.5C243.709 167.204 241.182 165.55 240.069 162.99C238.957 160.43 239.472 157.454 241.379 155.416C243.286 153.379 246.222 152.669 248.85 153.61C251.775 147.51 257.132 142.922 263.61 140.97C267.61 139.34 278.18 133.97 281.26 122.33C282.599 116.933 285.559 112.076 289.74 108.41C294.38 104.49 300.11 103.54 305.37 100.78C312.15 97.2102 317.71 91.4402 319.7 83.9002C320.365 81.2901 321.391 78.7859 322.75 76.4602C267.887 32.9363 191.417 29.1259 132.5 66.9802L131.58 67.5802C99.865 88.2984 76.3006 119.357 64.8898 155.48C64.7798 155.81 64.6798 156.14 64.5798 156.48C60.125 170.964 57.7117 185.999 57.4098 201.15C60.3912 201.362 63.1945 202.648 65.2998 204.77L81.2998 220.77C83.4205 222.899 86.2949 224.106 89.2998 224.13H130.3L119.74 213.57C116.582 210.412 115.348 205.809 116.504 201.495C117.66 197.18 121.03 193.811 125.344 192.655C129.658 191.499 134.262 192.732 137.42 195.89L165.66 224.13H175.61C176.151 224.133 176.692 224.166 177.23 224.23C191.159 209.661 210.454 201.442 230.61 201.49H302.43C339.05 201.49 366.93 227.84 374.28 262.33C393.79 210.32 385.633 151.968 352.61 107.3ZM156.84 285.02H78.4998C96.3655 316.641 124.212 341.445 157.68 355.55C157.39 336.18 157 303.73 156.84 285.02Z" fill="url(#paint0_radial_536_3556)"/><path d="M163.55 156.47H55.2998C53.1331 156.464 51.172 155.186 50.2912 153.206C49.4104 151.226 49.774 148.914 51.2198 147.3L66.9198 129.93V102.59C66.9995 81.6574 82.2455 63.8704 102.92 60.5902V52.8902C102.92 49.3003 105.83 46.3902 109.42 46.3902C113.01 46.3902 115.92 49.3003 115.92 52.8902V60.5902C136.596 63.8666 151.844 81.6558 151.92 102.59V129.91L167.61 147.3C169.06 148.916 169.426 151.232 168.545 153.216C167.664 155.2 165.701 156.482 163.53 156.49L163.55 156.47ZM109.42 47.3902C106.385 47.3957 103.925 49.8549 103.92 52.8902V61.4602L103.49 61.5202C83.1112 64.5357 67.9945 81.9898 67.9198 102.59V130.3L51.9198 147.95C50.7251 149.27 50.4207 151.17 51.1433 152.797C51.8659 154.424 53.4796 155.472 55.2598 155.47H163.55C165.328 155.468 166.938 154.418 167.658 152.792C168.378 151.166 168.073 149.269 166.88 147.95L150.88 130.3V102.59C150.805 81.9898 135.688 64.5357 115.31 61.5202L114.88 61.4602V52.8902C114.874 49.8704 112.439 47.4176 109.42 47.3902Z" fill="white"/><path d="M109.42 178.36C97.0626 178.344 87.0508 168.327 87.0398 155.97V155.47H131.81V155.97C131.793 168.329 121.779 178.344 109.42 178.36ZM88.0398 156.47C88.3932 168.023 97.8611 177.206 109.42 177.206C120.979 177.206 130.446 168.023 130.8 156.47H88.0398Z" fill="white"/><path d="M142.18 92.2302C149.531 92.2302 155.49 86.2711 155.49 78.9202C155.49 71.5693 149.531 65.6102 142.18 65.6102C134.829 65.6102 128.87 71.5693 128.87 78.9202C128.87 86.2711 134.829 92.2302 142.18 92.2302Z" fill="white"/><path d="M294.5 154.21C293.818 154.215 293.142 154.333 292.5 154.56L291.66 154.86L291.27 154.05C287.419 146.08 279.361 141.003 270.51 140.97C267.905 140.969 265.321 141.419 262.87 142.3C257.118 144.33 252.405 148.555 249.76 154.05L249.37 154.86L248.52 154.56C247.877 154.332 247.201 154.214 246.52 154.21C243.206 154.21 240.52 156.896 240.52 160.21C240.52 163.524 243.206 166.21 246.52 166.21H246.71H247.62L247.74 167.1C249.185 177.607 257.628 185.763 268.178 186.845C278.729 187.927 288.652 181.655 292.2 171.66C292.73 170.184 293.102 168.655 293.31 167.1L293.43 166.21H294.33H294.52C297.833 166.21 300.52 163.524 300.52 160.21C300.52 156.896 297.833 154.21 294.52 154.21H294.5ZM260.9 161C260.833 161.859 260.116 162.522 259.255 162.522C258.393 162.522 257.677 161.859 257.61 161V157.42C257.677 156.561 258.393 155.899 259.255 155.899C260.116 155.899 260.833 156.561 260.9 157.42V161ZM275.4 161C275.333 161.859 274.616 162.522 273.755 162.522C272.893 162.522 272.177 161.859 272.11 161V157.4C272.177 156.541 272.893 155.879 273.755 155.879C274.616 155.879 275.333 156.541 275.4 157.4V161Z" fill="white"/><path d="M136.79 196.64C133.906 193.635 129.623 192.424 125.592 193.474C121.562 194.525 118.414 197.672 117.364 201.703C116.313 205.733 117.525 210.016 120.53 212.9L131.8 224.17H164.32L136.79 196.64ZM176.32 225.19H175.57H158.21H158.08L89.4198 225.13C86.1303 225.118 82.9799 223.802 80.6598 221.47L64.6598 205.47C60.6813 201.472 54.3902 200.949 49.8064 204.236C45.2226 207.523 43.6993 213.649 46.2098 218.7C46.6369 218.063 47.126 217.471 47.6698 216.93C50.2838 214.311 53.9228 212.982 57.6098 213.3C60.5191 213.553 63.2459 214.824 65.3098 216.89L81.3098 232.89C83.4529 235.065 86.3765 236.293 89.4298 236.3L116.66 236.48C116.936 236.48 117.16 236.704 117.16 236.98C117.16 237.256 116.936 237.48 116.66 237.48L89.4198 237.3C86.1303 237.288 82.9799 235.972 80.6598 233.64L64.6598 217.64C62.1476 215.141 58.6244 213.939 55.1086 214.38C51.5928 214.821 48.4762 216.858 46.6598 219.9V219.95C44.6943 223.295 44.5514 227.407 46.2798 230.88C46.7127 230.251 47.2013 229.662 47.7398 229.12C50.6426 226.214 54.7905 224.923 58.8298 225.67C61.3299 226.112 63.6318 227.318 65.4198 229.12L81.4198 245.12C83.5405 247.249 86.4149 248.456 89.4198 248.48L122.66 248.62C122.936 248.62 123.16 248.844 123.16 249.12C123.16 249.396 122.936 249.62 122.66 249.62L89.4198 249.48C86.1303 249.468 82.9799 248.152 80.6598 245.82L64.6598 229.82C60.1669 225.337 52.8927 225.337 48.3998 229.82C44.916 233.314 44.0434 238.637 46.2298 243.06C46.6539 242.43 47.136 241.841 47.6698 241.3C50.0115 238.95 53.1924 237.63 56.5098 237.63C59.8272 237.63 63.0081 238.95 65.3498 241.3L81.3498 257.3C83.4695 259.432 86.3437 260.643 89.3498 260.67L128.59 260.8C128.868 260.806 129.09 261.032 129.09 261.31C129.09 261.442 129.037 261.568 128.943 261.66C128.849 261.752 128.721 261.803 128.59 261.8L89.3498 261.67C86.0603 261.658 82.9099 260.342 80.5898 258.01L64.5898 242.01C63.5976 241.005 62.4235 240.197 61.1298 239.63C56.062 237.401 50.1256 239.1 47.0034 243.672C43.8813 248.243 44.4597 254.391 48.3798 258.3L70.7498 280.67C72.6686 282.595 75.2109 283.772 77.9198 283.99C78.2398 283.99 78.5598 283.99 78.9198 283.99H186.95L187.07 236.65C187.052 230.6 182.357 225.595 176.32 225.19Z" fill="white"/><path d="M241.2 371.3C240.862 369.922 240.651 368.516 240.57 367.1C240.57 366.76 240.57 366.42 240.57 366.1H240.51C234.168 366.122 229.032 371.258 229.01 377.6C229.015 383.949 234.161 389.095 240.51 389.1H258.13C249.71 386.62 243.255 379.833 241.2 371.3ZM256.89 371.3C256.434 369.431 256.206 367.514 256.21 365.59C256.21 365.21 256.21 364.83 256.21 364.45C256.704 354.024 263.741 345.053 273.75 342.09H264.99C252.016 342.101 241.501 352.616 241.49 365.59C241.49 366.06 241.49 366.52 241.49 366.98C242.216 379.402 252.507 389.101 264.95 389.09H273.66C265.308 386.558 258.925 379.787 256.89 371.3ZM291.37 371.3C290.914 369.431 290.686 367.514 290.69 365.59C290.703 354.733 297.849 345.174 308.26 342.09H297.45C286.933 342.1 277.701 349.09 274.84 359.21C273.708 363.151 273.629 367.319 274.61 371.3C277.134 381.313 285.888 388.514 296.2 389.06H296.32C296.68 389.06 297.05 389.06 297.41 389.06H308.16C299.807 386.541 293.416 379.781 291.37 371.3ZM315.19 342.09C312.798 342.089 310.421 342.453 308.14 343.17C304.78 344.234 301.704 346.042 299.14 348.46C292.271 354.904 289.916 364.828 293.156 373.671C296.395 382.515 304.604 388.568 314.01 389.05H314.12C314.48 389.05 314.86 389.05 315.22 389.05H320.91H338.49C344.839 389.045 349.984 383.899 349.99 377.55C349.973 371.206 344.834 366.067 338.49 366.05H315.19C314.914 366.05 314.69 365.826 314.69 365.55C314.69 365.274 314.914 365.05 315.19 365.05H338.46C344.4 365.05 349.52 369.23 350.708 375.05C351.896 380.87 348.825 386.722 343.36 389.05H375.13V342.05L315.19 342.09ZM273.61 371.3C273.154 369.431 272.926 367.514 272.93 365.59C272.923 354.726 280.077 345.157 290.5 342.09H280.71C268.238 342.103 257.944 351.848 257.25 364.3C257.25 364.75 257.25 365.2 257.25 365.66C257.239 378.245 267.156 388.599 279.73 389.13C280.07 389.13 280.403 389.13 280.73 389.13H290.47C282.069 386.623 275.643 379.827 273.61 371.3Z" fill="white"/><defs><radialGradient id="paint0_radial_536_3556" cx="0" cy="0" r="1" gradientUnits="userSpaceOnUse" gradientTransform="translate(214.198 198.26) scale(160.49 160.49)"><stop stop-color="#008EFF"/><stop offset="0.28" stop-color="#008EFF" stop-opacity="0.99"/><stop offset="0.42" stop-color="#008EFF" stop-opacity="0.96"/><stop offset="0.52" stop-color="#008EFF" stop-opacity="0.91"/><stop offset="0.61" stop-color="#008EFF" stop-opacity="0.84"/><stop offset="0.7" stop-color="#008EFF" stop-opacity="0.74"/><stop offset="0.77" stop-color="#008EFF" stop-opacity="0.62"/><stop offset="0.84" stop-color="#008EFF" stop-opacity="0.48"/><stop offset="0.9" stop-color="#008EFF" stop-opacity="0.32"/><stop offset="0.96" stop-color="#008EFF" stop-opacity="0.15"/><stop offset="1" stop-color="#008EFF" stop-opacity="0"/></radialGradient></defs></svg>
