<svg xmlns="http://www.w3.org/2000/svg" width="16" height="16" fill="currentColor" viewBox="0 0 16 16">
  <path fill="#DB5860" d="M8.00159,0.00133960655 C4.76593572,0.000328773298 1.84832255,1.94866169 0.609390511,4.93772627 C-0.629541527,7.92679085 0.0542299709,11.3678553 2.34182556,13.656166 C4.62942115,15.9444768 8.07027167,16.6293238 11.0597234,15.3913261 C14.049175,14.1533285 15.99842,11.2363244 15.99842,8.00067 C15.9990994,3.58345694 12.4188031,0.00204134692 8.00159,0.00133960655 Z M11.80469,10.53125 L10.53125,11.80469 L8.00146,9.2749 L5.47168,11.80469 L4.19824,10.53125 L6.728,8.00146 L4.19824,5.47168 L5.47168,4.19821 L8.00146,6.728 L10.53125,4.19821 L11.80469,5.47165 L9.2749,8.00146 L11.80469,10.53125 Z"/>
</svg>
