<svg width="24" height="24" viewBox="0 0 24 24" fill="none" xmlns="http://www.w3.org/2000/svg"><path fill-rule="evenodd" clip-rule="evenodd" d="M5.76204 21.9507C6.17626 21.9507 6.51204 21.6149 6.51204 21.2007L6.51205 9.48765C8.02653 9.18841 9.22159 8.00039 9.53116 6.48964C11.551 6.64886 13.457 7.52229 14.9 8.96525C16.3429 10.4082 17.2164 12.3143 17.3756 14.3341C15.6229 14.6932 14.3045 16.2443 14.3045 18.1032C14.3045 20.2281 16.0271 21.9507 18.152 21.9507C20.2769 21.9507 21.9995 20.2281 21.9995 18.1032C21.9995 16.2268 20.6563 14.6641 18.8789 14.3243C18.7148 11.9097 17.6827 9.62666 15.9606 7.90459C14.2386 6.18253 11.9555 5.15046 9.54097 4.98634C9.20114 3.20897 7.63846 1.86572 5.76205 1.86572C3.63713 1.86572 1.91455 3.5883 1.91455 5.71321C1.91455 7.58148 3.24616 9.13874 5.01204 9.48765L5.01204 21.2007C5.01204 21.6149 5.34783 21.9507 5.76204 21.9507ZM18.152 20.4507C16.8555 20.4507 15.8045 19.3997 15.8045 18.1032C15.8045 16.8067 16.8555 15.7557 18.152 15.7557C19.4485 15.7557 20.4995 16.8067 20.4995 18.1032C20.4995 19.3997 19.4485 20.4507 18.152 20.4507ZM5.76204 8.06071C4.46556 8.06071 3.41455 7.0097 3.41455 5.71322C3.41455 4.41673 4.46556 3.36572 5.76205 3.36572C7.05853 3.36572 8.10954 4.41673 8.10954 5.71322C8.10954 7.0097 7.05853 8.06071 5.76204 8.06071Z" fill="currentColor"/></svg>
