<svg xmlns="http://www.w3.org/2000/svg" width="16" height="16" fill="currentColor" viewBox="0 0 16 16">
  <path fill="#59A869" d="M8.00322639,-8.41104963e-13 C10.1245161,0.000409604576 12.1587606,0.843482356 13.6584473,2.34375224 C15.1581341,3.84402212 16.0004158,5.87859421 16,7.99988382 C16,11.2358173 14.0505536,14.1530613 11.0608204,15.3911087 C8.07108716,16.6291561 4.629951,15.9441499 2.34224532,13.6555546 C0.0545396365,11.3669593 -0.629128536,7.92555722 0.610081293,4.93630576 C1.84929112,1.94705429 4.76729307,-0.00125675208 8.00322639,-8.41104963e-13 Z M4.94358008,3.5 C4.14672388,3.5 3.5,4.11961538 3.5,4.88461538 C3.5,5.49038462 3.90925495,5.99992308 4.47441655,6.18753846 L4.47441655,9.81176923 C3.90925495,9.99938462 3.5,10.5089231 3.5,11.1153846 C3.5,11.8796923 4.14672388,12.5 4.94358008,12.5 C5.74115807,12.5 6.38716016,11.8796923 6.38716016,11.1153846 C6.38716016,10.5089231 5.97862699,9.99938462 5.41346539,9.81176923 L5.41346539,6.18753846 C5.80828455,6.05669231 6.12587216,5.77076923 6.28177881,5.40038462 C8.57851472,5.74792308 10.3692758,7.56661538 10.5648809,9.818 C10.0112679,10.0118462 9.61283984,10.5165385 9.61283984,11.1153846 C9.61283984,11.8796923 10.2595637,12.5 11.0564199,12.5 C11.8532761,12.5 12.5,11.8796923 12.5,11.1153846 C12.5,10.5013077 12.08064,9.98623077 11.503208,9.80553846 C11.296776,7.07646154 9.11408293,4.87076923 6.32292084,4.49692308 C6.14680407,3.92230769 5.59968722,3.5 4.94358008,3.5 Z M11.0564199,10.6307692 C11.3350309,10.6307692 11.5616729,10.8481538 11.5616729,11.1153846 C11.5616729,11.3826154 11.3350309,11.6 11.0564199,11.6 C10.777809,11.6 10.5511669,11.3826154 10.5511669,11.1153846 C10.5511669,10.8481538 10.777809,10.6307692 11.0564199,10.6307692 Z M4.94358008,10.6307692 C5.22219103,10.6307692 5.44883311,10.8481538 5.44883311,11.1153846 C5.44883311,11.3826154 5.22219103,11.6 4.94358008,11.6 C4.66569091,11.6 4.43832705,11.3826154 4.43832705,11.1153846 C4.43832705,10.8481538 4.66569091,10.6307692 4.94358008,10.6307692 Z M4.94358008,4.4 C5.22219103,4.4 5.44883311,4.61738462 5.44883311,4.88461538 C5.44883311,5.15184615 5.22219103,5.36923077 4.94358008,5.36923077 C4.66569091,5.36923077 4.43832705,5.15184615 4.43832705,4.88461538 C4.43832705,4.61738462 4.66569091,4.4 4.94358008,4.4 Z"/>
</svg>
