<svg width="24" height="24" viewBox="0 0 24 24" fill="none" xmlns="http://www.w3.org/2000/svg"><path fill-rule="evenodd" clip-rule="evenodd" d="M10.9734 18.4676C15.0924 18.4676 18.4315 15.1285 18.4315 11.0096C18.4315 6.8906 15.0924 3.55151 10.9734 3.55151C6.85447 3.55151 3.51538 6.8906 3.51538 11.0096C3.51538 15.1285 6.85447 18.4676 10.9734 18.4676ZM10.9734 19.9676C15.9208 19.9676 19.9315 15.957 19.9315 11.0096C19.9315 6.06217 15.9208 2.05151 10.9734 2.05151C6.02604 2.05151 2.01538 6.06217 2.01538 11.0096C2.01538 15.957 6.02604 19.9676 10.9734 19.9676Z" fill="currentColor"/><path fill-rule="evenodd" clip-rule="evenodd" d="M16.2961 16.332C16.589 16.0391 17.0639 16.0391 17.3567 16.332L22.0641 21.0394C22.357 21.3323 22.357 21.8071 22.0641 22.1C21.7712 22.3929 21.2964 22.3929 21.0035 22.1L16.2961 17.3926C16.0032 17.0997 16.0032 16.6249 16.2961 16.332Z" fill="currentColor"/><path d="M7 11.0095C7 10.5953 7.33579 10.2595 7.75 10.2595H14.1965C14.6107 10.2595 14.9465 10.5953 14.9465 11.0095V11.0095C14.9465 11.4237 14.6107 11.7595 14.1965 11.7595H7.75C7.33579 11.7595 7 11.4237 7 11.0095V11.0095Z" fill="currentColor"/><path d="M10.9734 14.9827C10.5592 14.9827 10.2234 14.6469 10.2234 14.2327V7.78619C10.2234 7.37198 10.5592 7.03619 10.9734 7.03619V7.03619C11.3876 7.03619 11.7234 7.37198 11.7234 7.78619V14.2327C11.7234 14.6469 11.3876 14.9827 10.9734 14.9827V14.9827Z" fill="currentColor"/></svg>
