<svg width="24" height="24" viewBox="0 0 24 24" fill="none" xmlns="http://www.w3.org/2000/svg">
<path fill-rule="evenodd" clip-rule="evenodd" d="M2.21298 9.27002L3.58085 11.4367C3.80013 11.784 3.80013 12.2158 3.58085 12.5632L2.21298 14.7299C2.03852 15.0062 1.99735 15.3413 2.12269 15.6402C2.513 16.5709 3.04853 17.433 3.70313 18.2021C3.91663 18.453 4.2465 18.587 4.58874 18.5835L7.27024 18.5559C7.70063 18.5515 8.09938 18.7674 8.31049 19.1192L9.62654 21.312C9.79473 21.5922 10.0842 21.7933 10.4233 21.8407C10.9378 21.9126 11.4642 21.9498 12 21.9498C12.5356 21.9498 13.062 21.9126 13.5764 21.8408C13.9156 21.7934 14.205 21.5922 14.3732 21.312L15.6893 19.1192C15.9004 18.7674 16.2991 18.5515 16.7295 18.5559L19.4112 18.5835C19.7534 18.587 20.0833 18.453 20.2968 18.2021C20.9514 17.4331 21.4869 16.571 21.8772 15.6404C22.0025 15.3415 21.9614 15.0064 21.7869 14.73L20.4189 12.5632C20.1996 12.2158 20.1996 11.784 20.4189 11.4367L21.7869 9.26985C21.9614 8.99349 22.0025 8.65834 21.8772 8.35947C21.4869 7.4289 20.9514 6.56682 20.2968 5.79776C20.0833 5.5469 19.7535 5.41289 19.4112 5.41641L16.7295 5.44396C16.2991 5.44838 15.9004 5.23248 15.6893 4.88073L14.3732 2.68788C14.205 2.40763 13.9156 2.2065 13.5764 2.15912C13.062 2.08728 12.5356 2.05005 12 2.05005C11.4642 2.05005 10.9378 2.08729 10.4233 2.15916C10.0842 2.20654 9.79473 2.40766 9.62654 2.68791L8.31049 4.88073C8.09938 5.23248 7.70063 5.44838 7.27024 5.44396L4.58874 5.41641C4.2465 5.41289 3.91663 5.5469 3.70312 5.79776C3.04853 6.56688 2.513 7.42903 2.12269 8.35967C1.99735 8.65853 2.03851 8.99368 2.21298 9.27002ZM10.8162 3.62065L9.59663 5.65263C9.09548 6.48765 8.18546 6.95344 7.25483 6.94388L4.72235 6.91786C4.27984 7.46197 3.90816 8.05516 3.61784 8.68546L4.84923 10.636C5.37733 11.4725 5.37733 12.5274 4.84923 13.3639L3.61784 15.3144C3.90816 15.9447 4.27984 16.5379 4.72236 17.082L7.25484 17.056C8.18546 17.0464 9.09548 17.5122 9.59663 18.3472L10.8162 20.3792C11.2031 20.4258 11.5982 20.4498 12 20.4498C12.4017 20.4498 12.7968 20.4258 13.1836 20.3793L14.4031 18.3473C14.9043 17.5122 15.8143 17.0464 16.7449 17.056L19.2776 17.082C19.7201 16.538 20.0917 15.9448 20.382 15.3146L19.1505 13.3639C18.6224 12.5274 18.6224 11.4725 19.1505 10.636L20.382 8.68528C20.0917 8.05505 19.7201 7.46192 19.2776 6.91786L16.7449 6.94388C15.8143 6.95344 14.9043 6.48765 14.4031 5.65263L13.1836 3.62063C12.7968 3.57411 12.4017 3.55005 12 3.55005C11.5982 3.55005 11.2031 3.57412 10.8162 3.62065Z" fill="currentColor"/>
<path fill-rule="evenodd" clip-rule="evenodd" d="M7.90112 12C7.90112 9.73624 9.73624 7.90112 12 7.90112C14.2637 7.90112 16.0988 9.73624 16.0988 12C16.0988 14.2637 14.2637 16.0988 12 16.0988C9.73624 16.0988 7.90112 14.2637 7.90112 12ZM12 9.40112C10.5647 9.40112 9.40112 10.5647 9.40112 12C9.40112 13.4353 10.5647 14.5988 12 14.5988C13.4353 14.5988 14.5988 13.4353 14.5988 12C14.5988 10.5647 13.4353 9.40112 12 9.40112Z" fill="currentColor"/>
</svg>
