<svg width="24" height="24" viewBox="0 0 24 24" fill="none" xmlns="http://www.w3.org/2000/svg">
<path fill-rule="evenodd" clip-rule="evenodd" d="M10.8458 2.55512C11.2728 1.5285 12.7272 1.5285 13.1541 2.55512L15.3601 7.85885L21.0859 8.31788C22.1942 8.40674 22.6436 9.78987 21.7992 10.5132L17.4367 14.2501L18.7696 19.8376C19.0275 20.9191 17.851 21.7739 16.9021 21.1943L12 18.2002L7.0979 21.1943C6.14902 21.7739 4.97246 20.9191 5.23044 19.8376L6.56325 14.2501L2.20078 10.5132C1.35636 9.78987 1.80577 8.40674 2.91408 8.31788L8.6399 7.85885L10.8458 2.55512ZM12 3.68615L9.89587 8.74507C9.75907 9.07399 9.44974 9.29873 9.09464 9.3272L3.6331 9.76505L7.79422 13.3295C8.06477 13.5612 8.18292 13.9249 8.10026 14.2714L6.82897 19.6009L11.5048 16.7449C11.8088 16.5593 12.1912 16.5593 12.4952 16.7449L17.171 19.6009L15.8997 14.2714C15.8171 13.9249 15.9352 13.5612 16.2058 13.3295L20.3669 9.76505L14.9054 9.3272C14.5503 9.29873 14.2409 9.07399 14.1041 8.74507L12 3.68615Z" fill="currentColor"/>
</svg>
