<svg width="24" height="25" viewBox="0 0 24 25" fill="none" xmlns="http://www.w3.org/2000/svg"><path fill-rule="evenodd" clip-rule="evenodd" d="M16.9882 4.49487H7.00537C6.72923 4.49487 6.50537 4.71873 6.50537 4.99487V5.60249C6.50537 6.76877 6.95818 7.8895 7.76835 8.72845L10.3558 11.4078C11.2155 12.2981 11.2166 13.7091 10.3582 14.6007L8.22323 16.8184C7.12109 17.9632 6.50537 19.4905 6.50537 21.0797C6.50537 21.3067 6.68941 21.4907 6.91642 21.4907H17.076C17.3036 21.4907 17.4882 21.3062 17.4882 21.0785C17.4882 19.4896 16.8731 17.9624 15.772 16.817L13.6401 14.5995C12.7832 13.7082 12.7843 12.2989 13.6426 11.409L16.2274 8.72863C17.0362 7.88989 17.4882 6.77011 17.4882 5.60491V4.99487C17.4882 4.71873 17.2643 4.49487 16.9882 4.49487ZM7.00537 2.99487H16.9882C18.0928 2.99487 18.9882 3.8903 18.9882 4.99487V5.60491C18.9882 7.15851 18.3856 8.65155 17.3071 9.76987L14.7223 12.4502C14.4238 12.7598 14.4234 13.2499 14.7215 13.56L16.8533 15.7774C18.2231 17.2023 18.9882 19.102 18.9882 21.0785C18.9882 22.1346 18.1321 22.9907 17.076 22.9907H6.91642C5.86098 22.9907 5.00537 22.1351 5.00537 21.0797C5.00537 19.1026 5.7714 17.2024 7.14262 15.7781L9.27763 13.5604C9.57619 13.2502 9.57581 12.7595 9.27677 12.4498L6.68934 9.77044C5.60911 8.65184 5.00537 7.15753 5.00537 5.60249V4.99487C5.00537 3.8903 5.9008 2.99487 7.00537 2.99487Z" fill="currentColor"/><path d="M8.39697 19.1848C8.39697 18.7364 8.76052 18.3728 9.20898 18.3728H14.8136C15.2621 18.3728 15.6256 18.7364 15.6256 19.1848V19.1848C15.6256 19.6333 15.2621 19.9968 14.8136 19.9968H9.20898C8.76052 19.9968 8.39697 19.6333 8.39697 19.1848V19.1848Z" fill="currentColor"/></svg>
