<svg width="24" height="24" viewBox="0 0 24 24" fill="none" xmlns="http://www.w3.org/2000/svg"><path fill-rule="evenodd" clip-rule="evenodd" d="M10.5343 3.50439H13.4836C14.0359 3.50439 14.4836 3.95211 14.4836 4.50439V5.49438H9.5343V4.50439C9.5343 3.95211 9.98202 3.50439 10.5343 3.50439ZM8.0343 4.50439C8.0343 3.12368 9.15359 2.00439 10.5343 2.00439H13.4836C14.8644 2.00439 15.9836 3.12368 15.9836 4.50439V5.49438V5.50391H19.254C19.9443 5.50391 20.504 6.06355 20.504 6.75391V9.5V11H19.0082V19.4257C19.0082 20.8064 17.8889 21.9257 16.5082 21.9257H7.53217C6.15145 21.9257 5.03217 20.8064 5.03217 19.4257V11H4.99902H3.49902V9.5V6.75391C3.49902 6.06355 4.05867 5.50391 4.74902 5.50391H8.0343V5.49438V4.50439ZM4.99902 7.00391V9.5H5.03217V9.49964H6.53217H17.5082H19.004V7.00391H4.99902ZM6.53217 19.4257V11H17.5082V19.4257C17.5082 19.978 17.0605 20.4257 16.5082 20.4257H7.53217C6.97988 20.4257 6.53217 19.978 6.53217 19.4257Z" fill="currentColor"/><path d="M9.00879 12.75C9.00879 12.3358 9.34458 12 9.75879 12V12C10.173 12 10.5088 12.3358 10.5088 12.75V17.251C10.5088 17.6652 10.173 18.001 9.75879 18.001V18.001C9.34458 18.001 9.00879 17.6652 9.00879 17.251V12.75Z" fill="currentColor"/><path d="M13.5083 12.75C13.5083 12.3358 13.8441 12 14.2583 12V12C14.6725 12 15.0083 12.3358 15.0083 12.75V17.251C15.0083 17.6652 14.6725 18.001 14.2583 18.001V18.001C13.8441 18.001 13.5083 17.6652 13.5083 17.251V12.75Z" fill="currentColor"/></svg>
