<svg width="24" height="24" viewBox="0 0 24 24" fill="none" xmlns="http://www.w3.org/2000/svg"><path fill-rule="evenodd" clip-rule="evenodd" d="M7.74512 8.6936C8.15933 8.6936 8.49512 9.02939 8.49512 9.4436L8.49512 21.2556C8.49512 21.6698 8.15933 22.0056 7.74512 22.0056C7.3309 22.0056 6.99512 21.6698 6.99512 21.2556L6.99512 9.4436C6.99512 9.02939 7.3309 8.6936 7.74512 8.6936Z" fill="currentColor"/><path fill-rule="evenodd" clip-rule="evenodd" d="M17.2008 11.697C17.615 11.697 17.9508 12.0328 17.9508 12.447V13.251C17.9508 15.8744 15.8241 18.001 13.2008 18.001H8.35596C7.94174 18.001 7.60596 17.6652 7.60596 17.251C7.60596 16.8368 7.94174 16.501 8.35596 16.501H13.2008C14.9957 16.501 16.4508 15.0459 16.4508 13.251V12.447C16.4508 12.0328 16.7865 11.697 17.2008 11.697Z" fill="currentColor"/><path fill-rule="evenodd" clip-rule="evenodd" d="M7.74506 7.94373C8.96339 7.94373 9.95105 6.95607 9.95105 5.73773C9.95105 4.5194 8.96339 3.53174 7.74506 3.53174C6.52672 3.53174 5.53906 4.5194 5.53906 5.73773C5.53906 6.95607 6.52672 7.94373 7.74506 7.94373ZM7.74506 9.44373C9.79182 9.44373 11.451 7.7845 11.451 5.73773C11.451 3.69097 9.79182 2.03174 7.74506 2.03174C5.69829 2.03174 4.03906 3.69097 4.03906 5.73773C4.03906 7.7845 5.69829 9.44373 7.74506 9.44373Z" fill="currentColor"/><path fill-rule="evenodd" clip-rule="evenodd" d="M17.2009 11.5031C18.4192 11.5031 19.4069 10.5154 19.4069 9.29706C19.4069 8.07872 18.4192 7.09106 17.2009 7.09106C15.9825 7.09106 14.9949 8.07872 14.9949 9.29706C14.9949 10.5154 15.9825 11.5031 17.2009 11.5031ZM17.2009 13.0031C19.2476 13.0031 20.9069 11.3438 20.9069 9.29706C20.9069 7.25029 19.2476 5.59106 17.2009 5.59106C15.1541 5.59106 13.4949 7.25029 13.4949 9.29706C13.4949 11.3438 15.1541 13.0031 17.2009 13.0031Z" fill="currentColor"/></svg>
