<svg width="24" height="25" viewBox="0 0 24 25" fill="none" xmlns="http://www.w3.org/2000/svg">
<path fill-rule="evenodd" clip-rule="evenodd" d="M12.8999 3.59352C12.9967 3.4846 13.1366 3.4498 13.2561 3.48926C13.3555 3.52207 13.6151 3.67162 13.7543 4.29204C14.0275 5.50985 13.8593 7.08318 13.365 8.65026C13.1164 9.43834 13.6816 10.3071 14.5662 10.3071H18.4221C18.4377 10.3071 18.453 10.3066 18.4683 10.3057H20.6409C21.0841 10.3057 21.4456 10.6609 21.4533 11.104C21.4612 11.5583 21.0952 11.9308 20.6409 11.9308H16.7177C16.3035 11.9308 15.9677 12.2666 15.9677 12.6808C15.9677 13.095 16.3035 13.4308 16.7177 13.4308H18.5645C18.5781 13.4315 18.5918 13.4319 18.6056 13.4319H19.6318C20.075 13.4319 20.4365 13.7871 20.4442 14.2303C20.4521 14.6845 20.0861 15.057 19.6318 15.057H18.9115L18.888 15.0569H18.656L18.6426 15.057H16.7064C16.2921 15.057 15.9564 15.3928 15.9564 15.807C15.9564 16.2212 16.2921 16.557 16.7064 16.557H18.9019C19.3388 16.5644 19.6927 16.9168 19.7004 17.3553C19.7083 17.8095 19.3423 18.182 18.888 18.182H18.153L18.1296 18.1819H16.9663L16.9529 18.182H16.6951C16.2809 18.182 15.9451 18.5178 15.9451 18.932C15.9451 19.3462 16.2809 19.682 16.6951 19.682H18.1436C18.5804 19.6894 18.9344 20.0418 18.942 20.4803C18.9499 20.9345 18.5839 21.307 18.1296 21.307H13.2087C11.5935 21.307 9.99721 20.9592 8.52842 20.2872L8.00128 20.0461V11.4945L8.00198 11.4938C8.02794 11.4677 8.06581 11.4295 8.11402 11.3806C8.21042 11.2827 8.34827 11.142 8.51502 10.9694C8.84818 10.6246 9.29834 10.1509 9.76453 9.63714C10.2294 9.12483 10.7168 8.56545 11.1216 8.05057C11.5072 7.55991 11.8793 7.03441 12.0438 6.60916C12.2702 6.0239 12.3922 5.40541 12.4912 4.90369L12.4912 4.90368C12.509 4.8132 12.5261 4.72653 12.543 4.64453C12.6685 4.03274 12.7721 3.7372 12.8999 3.59352ZM7.53268 9.82715C7.8463 9.5011 8.24437 9.08022 8.6537 8.62914C9.10754 8.129 9.56861 7.59896 9.94226 7.1236C10.335 6.62402 10.5711 6.25846 10.6448 6.06797C10.8198 5.61573 10.9133 5.14554 11.0134 4.6422L11.0134 4.64218L11.0134 4.64217L11.0134 4.64216L11.0135 4.64215C11.033 4.54374 11.0529 4.44406 11.0736 4.34299C11.185 3.80009 11.3407 3.08969 11.7788 2.59688C12.2479 2.06932 13.0031 1.82609 13.7264 2.06489C14.4698 2.31033 15.0007 2.99534 15.2179 3.96364C15.55 5.44378 15.3594 7.18137 14.8849 8.80706H17.4382C17.4535 8.80613 17.4689 8.80566 17.4844 8.80566H20.6409C21.9023 8.80566 22.9311 9.8166 22.9531 11.0779C22.9691 11.9943 22.4502 12.7938 21.6862 13.1817C21.8452 13.4884 21.9376 13.8356 21.944 14.2041C21.9585 15.0373 21.5309 15.7739 20.8789 16.1923C21.0766 16.526 21.1929 16.914 21.2002 17.3291C21.2148 18.1668 20.7825 18.9068 20.1245 19.324C20.3198 19.6563 20.4346 20.0418 20.4418 20.4541C20.4644 21.7469 19.4226 22.807 18.1296 22.807H13.2087C11.4136 22.807 9.63911 22.4279 8.00128 21.6951V21.8621C8.00128 22.4143 7.55357 22.8621 7.00128 22.8621H4.03516C2.93059 22.8621 2.03516 21.9666 2.03516 20.8621V11.8271C2.03516 10.7226 2.93059 9.82715 4.03516 9.82715H7.53268ZM4.03516 11.3271H6.50128V21.3621H4.03516C3.75901 21.3621 3.53516 21.1382 3.53516 20.8621V11.8271C3.53516 11.551 3.75901 11.3271 4.03516 11.3271Z" fill="currentColor"/>
</svg>
