<svg xmlns="http://www.w3.org/2000/svg" width="99.903" height="77.807" viewBox="-346 271.454 99.903 77.806999"><path d="M-275.523 271.454c-10.806 0-20.926 6.548-25.785 14.897h4.518c8.182 0 15.035 4.733 16.77 11.048h10.257c3.906.233 11.032 2.89 11.032 11.312 0 5.62-2.755 8.438-5.066 9.812a2.273 2.273 0 0 1-3.118-.792 2.275 2.275 0 0 1 .79-3.117c1.914-1.137 2.845-3.067 2.845-5.903 0-6.293-6.352-6.75-6.62-6.77l-9.74.004c-.444 6.12-3.962 12.743-17.15 12.743h-14.536l-1.734 3.65a2.286 2.286 0 0 0-.184.923 2.374 2.374 0 0 0 2.377 2.377h5.814v6.936c0 8.887 5.206 11.65 11.638 11.65h3.948v9.038h32.18v-22.82c6.868-5.4 11.29-16.04 11.29-25.456-.003-16.312-13.214-29.53-29.526-29.53zm-41.154 43.217v-28.363h15.395s-.686 1.035-1.19 2.25c-.508 1.214-.875 2.302-.875 2.302h-8.777v19.362h2.896l-2.092 4.45h-5.357zM-297 290.817h-6.328c-.193.59-.374 1.18-.512 1.776-.57 2.463-1.215 8.9-1.215 8.9l-4.15 8.73H-297c11.29 0 12.74-5.185 12.74-9.703 0-5.35-5.715-9.704-12.74-9.704zm1.244 14.013a2.967 2.967 0 1 1 0-5.935 2.967 2.967 0 0 1 0 5.934zM-345.9 325.722l20.905-13.265.046 7.502 6.722-15.22-27.673 17.57zM-345.9 339.283l20.905-13.266.046 7.504 6.722-15.22-27.673 17.57zM-337.185 286.86l5.692 10.058.14-5.435 7.406 5.87-21.954 13.938v3.415l26.92-17.094-10.253-8.18 5.226-2.57z"/></svg>