<svg xmlns="http://www.w3.org/2000/svg" xmlns:xlink="http://www.w3.org/1999/xlink" width="300" height="300" viewBox="0 0 430 430"><defs/><style>.st206{fill:none;stroke:#fff;stroke-miterlimit:10}</style><g id="Layer_1"><defs><path id="SVGID_1_" d="M153.3 225.9h80.8l.1 20.5h30.6l-15.4 47.1h93.8l25.7 32.8 79.8-3.3L383 72.7l-251 41z"/></defs><clipPath id="SVGID_2_"><use overflow="visible" xlink:href="#SVGID_1_"/></clipPath><g clip-path="url(#SVGID_2_)"><defs><path id="SVGID_3_" d="M292.1 389.5H176.3c-6.6 0-12-5.4-12-12s5.4-12 12-12h-13.9c-6.6 0-12-5.4-12-12s5.4-12 12-12h-11.6c-6.6 0-12-5.4-12-12s5.4-12 12-12h11.6c-6.6 0-12-5.4-12-12s5.4-12 12-12h53l-20.3-20.3a12 12 0 1117-17l37.2 37.2h93.8a48 48 0 0148 48h37.2V84.8H112.1v320.7h181.1l-1.1-16z"/></defs><clipPath id="SVGID_4_"><use overflow="visible" xlink:href="#SVGID_3_"/></clipPath><g fill="#63c2ff" clip-path="url(#SVGID_4_)"><circle cx="281.8" cy="233.4" r="123.9" opacity=".1"/><circle cx="281.8" cy="233.3" r="123.8" opacity=".1"/><circle cx="281.7" cy="233.3" r="123.8" opacity=".1"/><circle cx="281.7" cy="233.3" r="123.7" opacity=".1"/><circle cx="281.6" cy="233.2" r="123.7" opacity=".1"/><circle cx="281.6" cy="233.2" r="123.6" opacity=".1"/><circle cx="281.5" cy="233.2" r="123.5" opacity=".1"/><circle cx="281.5" cy="233.1" r="123.5" opacity=".1"/><circle cx="281.4" cy="233.1" r="123.4" opacity=".1"/><circle cx="281.4" cy="233.1" r="123.4" opacity=".1"/><circle cx="281.3" cy="233.1" r="123.3" opacity=".1"/><circle cx="281.3" cy="233" r="123.3" opacity=".1"/><circle cx="281.2" cy="233" r="123.2" opacity=".1"/><circle cx="281.1" cy="233" r="123.2" opacity=".1"/><circle cx="281.1" cy="232.9" r="123.1" opacity=".1"/><circle cx="281" cy="232.9" r="123" opacity=".1"/><circle cx="281" cy="232.9" r="123" opacity=".1"/><circle cx="280.9" cy="232.8" r="122.9" opacity=".1"/><circle cx="280.9" cy="232.8" r="122.9" opacity=".1"/><circle cx="280.8" cy="232.8" r="122.8" opacity=".1"/><circle cx="280.8" cy="232.7" r="122.8" opacity=".2"/><circle cx="280.7" cy="232.7" r="122.7" opacity=".2"/><circle cx="280.7" cy="232.7" r="122.7" opacity=".2"/><circle cx="280.6" cy="232.7" r="122.6" opacity=".2"/><circle cx="280.6" cy="232.6" r="122.5" opacity=".2"/><circle cx="280.5" cy="232.6" r="122.5" opacity=".2"/><circle cx="280.5" cy="232.6" r="122.4" opacity=".2"/><circle cx="280.4" cy="232.5" r="122.4" opacity=".2"/><circle cx="280.4" cy="232.5" r="122.3" opacity=".2"/><circle cx="280.3" cy="232.5" r="122.3" opacity=".2"/><circle cx="280.3" cy="232.4" r="122.2" opacity=".2"/><circle cx="280.2" cy="232.4" r="122.2" opacity=".2"/><circle cx="280.2" cy="232.4" r="122.1" opacity=".2"/><circle cx="280.1" cy="232.4" r="122" opacity=".2"/><circle cx="280.1" cy="232.3" r="122" opacity=".2"/><circle cx="280" cy="232.3" r="121.9" opacity=".2"/><circle cx="280" cy="232.3" r="121.9" opacity=".2"/><circle cx="279.9" cy="232.2" r="121.8" opacity=".2"/><circle cx="279.8" cy="232.2" r="121.8" opacity=".2"/><circle cx="279.8" cy="232.2" r="121.7" opacity=".2"/><circle cx="279.7" cy="232.1" r="121.7" opacity=".3"/><circle cx="279.7" cy="232.1" r="121.6" opacity=".3"/><circle cx="279.6" cy="232.1" r="121.5" opacity=".3"/><circle cx="279.6" cy="232.1" r="121.5" opacity=".3"/><circle cx="279.5" cy="232" r="121.4" opacity=".3"/><circle cx="279.5" cy="232" r="121.4" opacity=".3"/><circle cx="279.4" cy="232" r="121.3" opacity=".3"/><circle cx="279.4" cy="231.9" r="121.3" opacity=".3"/><circle cx="279.3" cy="231.9" r="121.2" opacity=".3"/><circle cx="279.3" cy="231.9" r="121.2" opacity=".3"/><circle cx="279.2" cy="231.8" r="121.1" opacity=".3"/><circle cx="279.2" cy="231.8" r="121" opacity=".3"/><circle cx="279.1" cy="231.8" r="121" opacity=".3"/><circle cx="279.1" cy="231.8" r="120.9" opacity=".3"/><circle cx="279" cy="231.7" r="120.9" opacity=".3"/><circle cx="279" cy="231.7" r="120.8" opacity=".3"/><circle cx="278.9" cy="231.7" r="120.8" opacity=".3"/><circle cx="278.9" cy="231.6" r="120.7" opacity=".3"/><circle cx="278.8" cy="231.6" r="120.7" opacity=".3"/><circle cx="278.8" cy="231.6" r="120.6" opacity=".3"/><circle cx="278.7" cy="231.5" r="120.5" opacity=".4"/><circle cx="278.7" cy="231.5" r="120.5" opacity=".4"/><circle cx="278.6" cy="231.5" r="120.4" opacity=".4"/><circle cx="278.5" cy="231.4" r="120.4" opacity=".4"/><circle cx="278.5" cy="231.4" r="120.3" opacity=".4"/><circle cx="278.4" cy="231.4" r="120.3" opacity=".4"/><circle cx="278.4" cy="231.4" r="120.2" opacity=".4"/><circle cx="278.3" cy="231.3" r="120.2" opacity=".4"/><circle cx="278.3" cy="231.3" r="120.1" opacity=".4"/><circle cx="278.2" cy="231.3" r="120" opacity=".4"/><circle cx="278.2" cy="231.2" r="120" opacity=".4"/><circle cx="278.1" cy="231.2" r="119.9" opacity=".4"/><circle cx="278.1" cy="231.2" r="119.9" opacity=".4"/><circle cx="278" cy="231.1" r="119.8" opacity=".4"/><circle cx="278" cy="231.1" r="119.8" opacity=".4"/><circle cx="277.9" cy="231.1" r="119.7" opacity=".4"/><circle cx="277.9" cy="231.1" r="119.7" opacity=".4"/><circle cx="277.8" cy="231" r="119.6" opacity=".4"/><circle cx="277.8" cy="231" r="119.5" opacity=".4"/><circle cx="277.7" cy="231" r="119.5" opacity=".4"/><circle cx="277.7" cy="230.9" r="119.4" opacity=".5"/><circle cx="277.6" cy="230.9" r="119.4" opacity=".5"/><circle cx="277.6" cy="230.9" r="119.3" opacity=".5"/><circle cx="277.5" cy="230.8" r="119.3" opacity=".5"/><circle cx="277.5" cy="230.8" r="119.2" opacity=".5"/><circle cx="277.4" cy="230.8" r="119.2" opacity=".5"/><circle cx="277.4" cy="230.8" r="119.1" opacity=".5"/><circle cx="277.3" cy="230.7" r="119" opacity=".5"/><circle cx="277.2" cy="230.7" r="119" opacity=".5"/><circle cx="277.2" cy="230.7" r="118.9" opacity=".5"/><circle cx="277.1" cy="230.6" r="118.9" opacity=".5"/><circle cx="277.1" cy="230.6" r="118.8" opacity=".5"/><circle cx="277" cy="230.6" r="118.8" opacity=".5"/><circle cx="277" cy="230.5" r="118.7" opacity=".5"/><circle cx="276.9" cy="230.5" r="118.7" opacity=".5"/><circle cx="276.9" cy="230.5" r="118.6" opacity=".5"/><circle cx="276.8" cy="230.4" r="118.5" opacity=".5"/><circle cx="276.8" cy="230.4" r="118.5" opacity=".5"/><circle cx="276.7" cy="230.4" r="118.4" opacity=".5"/><circle cx="276.7" cy="230.4" r="118.4" opacity=".5"/><circle cx="276.6" cy="230.3" r="118.3" opacity=".6"/><circle cx="276.6" cy="230.3" r="118.3" opacity=".6"/><circle cx="276.5" cy="230.3" r="118.2" opacity=".6"/><circle cx="276.5" cy="230.2" r="118.2" opacity=".6"/><circle cx="276.4" cy="230.2" r="118.1" opacity=".6"/><circle cx="276.4" cy="230.2" r="118" opacity=".6"/><circle cx="276.3" cy="230.1" r="118" opacity=".6"/><circle cx="276.3" cy="230.1" r="117.9" opacity=".6"/><circle cx="276.2" cy="230.1" r="117.9" opacity=".6"/><circle cx="276.2" cy="230.1" r="117.8" opacity=".6"/><circle cx="276.1" cy="230" r="117.8" opacity=".6"/><circle cx="276" cy="230" r="117.7" opacity=".6"/><circle cx="276" cy="230" r="117.7" opacity=".6"/><circle cx="275.9" cy="229.9" r="117.6" opacity=".6"/><circle cx="275.9" cy="229.9" r="117.5" opacity=".6"/><circle cx="275.8" cy="229.9" r="117.5" opacity=".6"/><circle cx="275.8" cy="229.8" r="117.4" opacity=".6"/><circle cx="275.7" cy="229.8" r="117.4" opacity=".6"/><circle cx="275.7" cy="229.8" r="117.3" opacity=".6"/><circle cx="275.6" cy="229.8" r="117.3" opacity=".6"/><circle cx="275.6" cy="229.7" r="117.2" opacity=".7"/><circle cx="275.5" cy="229.7" r="117.2" opacity=".7"/><circle cx="275.5" cy="229.7" r="117.1" opacity=".7"/><circle cx="275.4" cy="229.6" r="117" opacity=".7"/><circle cx="275.4" cy="229.6" r="117" opacity=".7"/><circle cx="275.3" cy="229.6" r="116.9" opacity=".7"/><circle cx="275.3" cy="229.5" r="116.9" opacity=".7"/><circle cx="275.2" cy="229.5" r="116.8" opacity=".7"/><circle cx="275.2" cy="229.5" r="116.8" opacity=".7"/><circle cx="275.1" cy="229.4" r="116.7" opacity=".7"/><circle cx="275.1" cy="229.4" r="116.7" opacity=".7"/><circle cx="275" cy="229.4" r="116.6" opacity=".7"/><circle cx="275" cy="229.4" r="116.5" opacity=".7"/><circle cx="274.9" cy="229.3" r="116.5" opacity=".7"/><circle cx="274.9" cy="229.3" r="116.4" opacity=".7"/><circle cx="274.8" cy="229.3" r="116.4" opacity=".7"/><circle cx="274.7" cy="229.2" r="116.3" opacity=".7"/><circle cx="274.7" cy="229.2" r="116.3" opacity=".7"/><circle cx="274.6" cy="229.2" r="116.2" opacity=".7"/><circle cx="274.6" cy="229.1" r="116.2" opacity=".7"/><circle cx="274.5" cy="229.1" r="116.1" opacity=".8"/><circle cx="274.5" cy="229.1" r="116" opacity=".8"/><circle cx="274.4" cy="229.1" r="116" opacity=".8"/><circle cx="274.4" cy="229" r="115.9" opacity=".8"/><circle cx="274.3" cy="229" r="115.9" opacity=".8"/><circle cx="274.3" cy="229" r="115.8" opacity=".8"/><circle cx="274.2" cy="228.9" r="115.8" opacity=".8"/><circle cx="274.2" cy="228.9" r="115.7" opacity=".8"/><circle cx="274.1" cy="228.9" r="115.7" opacity=".8"/><circle cx="274.1" cy="228.8" r="115.6" opacity=".8"/><circle cx="274" cy="228.8" r="115.5" opacity=".8"/><circle cx="274" cy="228.8" r="115.5" opacity=".8"/><circle cx="273.9" cy="228.8" r="115.4" opacity=".8"/><circle cx="273.9" cy="228.7" r="115.4" opacity=".8"/><circle cx="273.8" cy="228.7" r="115.3" opacity=".8"/><circle cx="273.8" cy="228.7" r="115.3" opacity=".8"/><circle cx="273.7" cy="228.6" r="115.2" opacity=".8"/><circle cx="273.7" cy="228.6" r="115.2" opacity=".8"/><circle cx="273.6" cy="228.6" r="115.1" opacity=".8"/><circle cx="273.6" cy="228.5" r="115" opacity=".8"/><circle cx="273.5" cy="228.5" r="115" opacity=".9"/><circle cx="273.4" cy="228.5" r="114.9" opacity=".9"/><circle cx="273.4" cy="228.5" r="114.9" opacity=".9"/><circle cx="273.3" cy="228.4" r="114.8" opacity=".9"/><circle cx="273.3" cy="228.4" r="114.8" opacity=".9"/><circle cx="273.2" cy="228.4" r="114.7" opacity=".9"/><circle cx="273.2" cy="228.3" r="114.7" opacity=".9"/><circle cx="273.1" cy="228.3" r="114.6" opacity=".9"/><circle cx="273.1" cy="228.3" r="114.5" opacity=".9"/><circle cx="273" cy="228.2" r="114.5" opacity=".9"/><circle cx="273" cy="228.2" r="114.4" opacity=".9"/><circle cx="272.9" cy="228.2" r="114.4" opacity=".9"/><circle cx="272.9" cy="228.1" r="114.3" opacity=".9"/><circle cx="272.8" cy="228.1" r="114.3" opacity=".9"/><circle cx="272.8" cy="228.1" r="114.2" opacity=".9"/><circle cx="272.7" cy="228.1" r="114.2" opacity=".9"/><circle cx="272.7" cy="228" r="114.1" opacity=".9"/><circle cx="272.6" cy="228" r="114" opacity=".9"/><circle cx="272.6" cy="228" r="114" opacity=".9"/><circle cx="272.5" cy="227.9" r="113.9" opacity=".9"/><circle cx="272.5" cy="227.9" r="113.9"/><circle cx="272.4" cy="227.9" r="113.8"/><circle cx="272.4" cy="227.8" r="113.8"/><circle cx="272.3" cy="227.8" r="113.7"/><circle cx="272.3" cy="227.8" r="113.7"/><circle cx="272.2" cy="227.8" r="113.6"/><circle cx="272.1" cy="227.7" r="113.5"/><circle cx="272.1" cy="227.7" r="113.5"/><circle cx="272" cy="227.7" r="113.4"/><circle cx="272" cy="227.6" r="113.4"/><circle cx="271.9" cy="227.6" r="113.3"/></g></g><defs><path id="SVGID_5_" d="M62.8 199.1h53.4l21.6 26.8h96.3l.1 20.5h30.6l-31.2 95.2h139.1V195.3z"/></defs><clipPath id="SVGID_6_"><use overflow="visible" xlink:href="#SVGID_5_"/></clipPath><g clip-path="url(#SVGID_6_)"><linearGradient id="SVGID_7_" x1="143" x2="268.8" y1="179.1" y2="360.6" gradientUnits="userSpaceOnUse"><stop offset="0" stop-color="#63c2ff"/><stop offset=".1" stop-color="#6cb3fe"/><stop offset=".3" stop-color="#838dfa"/><stop offset=".5" stop-color="#a456f4"/><stop offset=".7" stop-color="#7448ee"/><stop offset="1" stop-color="#2e34e6"/></linearGradient><path fill="url(#SVGID_7_)" d="M269.4 225.6h-71.8a74 74 0 00-73.8 69.1c-.2 3.3-.2 43.5 0 46.9h38.6-11.6c-6.6 0-12-5.4-12-12s5.4-12 12-12h11.6c-6.6 0-12-5.4-12-12s5.4-12 12-12h53l-20.3-20.3a12 12 0 1117-17l37.2 37.2h93.1c-4.7-37.9-33.9-67.9-73-67.9z"/></g><path d="M150.9 341.5c-6.6 0-12-5.4-12-12s5.4-12 12-12h11.6c-6.6 0-12-5.4-12-12s5.4-12 12-12h53l-20.3-20.3a12 12 0 1117-17l37.2 37.2 15.5-47.1H92.8l-29.2 95.1h98.9-11.6z" class="st206"/><path fill="#9150f2" d="M260.7 180.1s-7.6-14.3 0-27.3a27.7 27.7 0 003.9-15.9c-.5-6.1-3.9-10.8-5.7-16.5a27.7 27.7 0 011.8-22.2c8.9-15.2 0-27.3 0-27.3h-42.9s8.9 12.1 0 27.3a27.7 27.7 0 00-1.8 22.2c1.8 5.7 5.2 10.4 5.7 16.5a27 27 0 01-3.9 15.9c-7.6 13 0 27.3 0 27.3h42.9z"/><path fill="#fff" d="M263 178.7c-.8 0-1.6.1-2.3.4a24 24 0 00-43.2 0 7 7 0 00-9.3 6.6 7 7 0 007 7h.2a23.9 23.9 0 0047.4 0h.2a7 7 0 007-7 7 7 0 00-7-7z"/><path d="M239.7 196.9v3.6c0 .9.7 1.6 1.6 1.6.9 0 1.6-.7 1.6-1.6v-3.6c0-.9-.7-1.6-1.6-1.6-.9 0-1.6.7-1.6 1.6zM225.2 196.9v3.6c0 .9.7 1.6 1.6 1.6.9 0 1.6-.7 1.6-1.6v-3.6c0-.9-.7-1.6-1.6-1.6-.9 0-1.6.7-1.6 1.6z"/><g><path d="M365.8 144l-37.2 37.2M305.9 109.2v52.5M400.5 203.8H348" class="st206"/></g><path d="M249.4 293.5l15.4-47.1h-172l-29.2 95.2h107.9" class="st206"/><g><path d="M108 166.9a48 48 0 0148 48M108 142.9a72 72 0 0172 72" class="st206"/><path d="M51.4 118.9h46l11-.1c53 0 95.6 43 95.6 96" class="st206"/><path d="M180 213.9c0 6.6 5.4 12 12 12s12-5.4 12-12M155.9 213.9c0 6.6 5.4 12 12 12s12-5.4 12-12M143.6 225.9c6.6 0 12.4-4.4 12.4-11.1" class="st206"/></g><g><path fill="none" stroke="#fff" stroke-linejoin="round" stroke-miterlimit="10" d="M63.6 341.6l-.8-142.5h53.4l21.6 26.8h96.3l.1 20.5H92.8z"/></g><path d="M292.1 389.5H176.3c-6.6 0-12-5.4-12-12s5.4-12 12-12h-13.9c-6.6 0-12-5.4-12-12s5.4-12 12-12h-11.6c-6.6 0-12-5.4-12-12s5.4-12 12-12h11.6c-6.6 0-12-5.4-12-12s5.4-12 12-12h53l-20.3-20.3a12 12 0 1117-17l37.2 37.2h93.8a48 48 0 0148 48" class="st206"/><g><path d="M162.4 317.5h34.5M162.4 341.5h34.5M176.3 365.5h40" class="st206"/></g></g></svg>
