<svg xmlns="http://www.w3.org/2000/svg" width="300" height="300" viewBox="0 0 430 430"><defs/><style>.st206{fill:#fff}.st208,.st213{fill:none;stroke:#000;stroke-linecap:round;stroke-linejoin:round;stroke-miterlimit:10}.st213{fill:#fff}</style><g id="Layer_1"><circle cx="281.8" cy="233.4" r="123.9" fill="#f6fcff" opacity=".1"/><circle cx="281.8" cy="233.3" r="123.8" fill="#f6fbff" opacity=".1"/><circle cx="281.7" cy="233.3" r="123.8" fill="#f5fbff" opacity=".1"/><circle cx="281.7" cy="233.3" r="123.7" fill="#f4fbff" opacity=".1"/><circle cx="281.6" cy="233.2" r="123.7" fill="#f3faff" opacity=".1"/><circle cx="281.6" cy="233.2" r="123.6" fill="#f3faff" opacity=".1"/><circle cx="281.5" cy="233.2" r="123.5" fill="#f2faff" opacity=".1"/><circle cx="281.5" cy="233.1" r="123.5" fill="#f1faff" opacity=".1"/><circle cx="281.4" cy="233.1" r="123.4" fill="#f0f9ff" opacity=".1"/><circle cx="281.4" cy="233.1" r="123.4" fill="#eff9ff" opacity=".1"/><circle cx="281.3" cy="233.1" r="123.3" fill="#eff9ff" opacity=".1"/><circle cx="281.3" cy="233" r="123.3" fill="#eef8ff" opacity=".1"/><circle cx="281.2" cy="233" r="123.2" fill="#edf8ff" opacity=".1"/><circle cx="281.1" cy="233" r="123.2" fill="#ecf8ff" opacity=".1"/><circle cx="281.1" cy="232.9" r="123.1" fill="#ecf7ff" opacity=".1"/><circle cx="281" cy="232.9" r="123" fill="#ebf7ff" opacity=".1"/><circle cx="281" cy="232.9" r="123" fill="#eaf7ff" opacity=".1"/><circle cx="280.9" cy="232.8" r="122.9" fill="#e9f7ff" opacity=".1"/><circle cx="280.9" cy="232.8" r="122.9" fill="#e8f6ff" opacity=".1"/><circle cx="280.8" cy="232.8" r="122.8" fill="#e8f6ff" opacity=".1"/><circle cx="280.8" cy="232.7" r="122.8" fill="#e7f6ff" opacity=".2"/><circle cx="280.7" cy="232.7" r="122.7" fill="#e6f5ff" opacity=".2"/><circle cx="280.7" cy="232.7" r="122.7" fill="#e5f5ff" opacity=".2"/><circle cx="280.6" cy="232.7" r="122.6" fill="#e5f5ff" opacity=".2"/><circle cx="280.6" cy="232.6" r="122.5" fill="#e4f4ff" opacity=".2"/><circle cx="280.5" cy="232.6" r="122.5" fill="#e3f4ff" opacity=".2"/><circle cx="280.5" cy="232.6" r="122.4" fill="#e2f4ff" opacity=".2"/><circle cx="280.4" cy="232.5" r="122.4" fill="#e2f3ff" opacity=".2"/><circle cx="280.4" cy="232.5" r="122.3" fill="#e1f3ff" opacity=".2"/><circle cx="280.3" cy="232.5" r="122.3" fill="#e0f3ff" opacity=".2"/><circle cx="280.3" cy="232.4" r="122.2" fill="#dff3ff" opacity=".2"/><circle cx="280.2" cy="232.4" r="122.2" fill="#def2ff" opacity=".2"/><circle cx="280.2" cy="232.4" r="122.1" fill="#def2ff" opacity=".2"/><circle cx="280.1" cy="232.4" r="122" fill="#ddf2ff" opacity=".2"/><circle cx="280.1" cy="232.3" r="122" fill="#dcf1ff" opacity=".2"/><circle cx="280" cy="232.3" r="121.9" fill="#dbf1ff" opacity=".2"/><circle cx="280" cy="232.3" r="121.9" fill="#dbf1ff" opacity=".2"/><circle cx="279.9" cy="232.2" r="121.8" fill="#daf0ff" opacity=".2"/><circle cx="279.8" cy="232.2" r="121.8" fill="#d9f0ff" opacity=".2"/><circle cx="279.8" cy="232.2" r="121.7" fill="#d8f0ff" opacity=".2"/><circle cx="279.7" cy="232.1" r="121.7" fill="#d7f0ff" opacity=".3"/><circle cx="279.7" cy="232.1" r="121.6" fill="#d7efff" opacity=".3"/><circle cx="279.6" cy="232.1" r="121.5" fill="#d6efff" opacity=".3"/><circle cx="279.6" cy="232.1" r="121.5" fill="#d5efff" opacity=".3"/><circle cx="279.5" cy="232" r="121.4" fill="#d4eeff" opacity=".3"/><circle cx="279.5" cy="232" r="121.4" fill="#d4eeff" opacity=".3"/><circle cx="279.4" cy="232" r="121.3" fill="#d3eeff" opacity=".3"/><circle cx="279.4" cy="231.9" r="121.3" fill="#d2edff" opacity=".3"/><circle cx="279.3" cy="231.9" r="121.2" fill="#d1edff" opacity=".3"/><circle cx="279.3" cy="231.9" r="121.2" fill="#d0edff" opacity=".3"/><circle cx="279.2" cy="231.8" r="121.1" fill="#d0ecff" opacity=".3"/><circle cx="279.2" cy="231.8" r="121" fill="#cfecff" opacity=".3"/><circle cx="279.1" cy="231.8" r="121" fill="#ceecff" opacity=".3"/><circle cx="279.1" cy="231.8" r="120.9" fill="#cdecff" opacity=".3"/><circle cx="279" cy="231.7" r="120.9" fill="#cdebff" opacity=".3"/><circle cx="279" cy="231.7" r="120.8" fill="#ccebff" opacity=".3"/><circle cx="278.9" cy="231.7" r="120.8" fill="#cbebff" opacity=".3"/><circle cx="278.9" cy="231.6" r="120.7" fill="#caeaff" opacity=".3"/><circle cx="278.8" cy="231.6" r="120.7" fill="#c9eaff" opacity=".3"/><circle cx="278.8" cy="231.6" r="120.6" fill="#c9eaff" opacity=".3"/><circle cx="278.7" cy="231.5" r="120.5" fill="#c8e9ff" opacity=".4"/><circle cx="278.7" cy="231.5" r="120.5" fill="#c7e9ff" opacity=".4"/><circle cx="278.6" cy="231.5" r="120.4" fill="#c6e9ff" opacity=".4"/><circle cx="278.5" cy="231.4" r="120.4" fill="#c6e9ff" opacity=".4"/><circle cx="278.5" cy="231.4" r="120.3" fill="#c5e8ff" opacity=".4"/><circle cx="278.4" cy="231.4" r="120.3" fill="#c4e8ff" opacity=".4"/><circle cx="278.4" cy="231.4" r="120.2" fill="#c3e8ff" opacity=".4"/><circle cx="278.3" cy="231.3" r="120.2" fill="#c2e7ff" opacity=".4"/><circle cx="278.3" cy="231.3" r="120.1" fill="#c2e7ff" opacity=".4"/><circle cx="278.2" cy="231.3" r="120" fill="#c1e7ff" opacity=".4"/><circle cx="278.2" cy="231.2" r="120" fill="#c0e6ff" opacity=".4"/><circle cx="278.1" cy="231.2" r="119.9" fill="#bfe6ff" opacity=".4"/><circle cx="278.1" cy="231.2" r="119.9" fill="#bfe6ff" opacity=".4"/><circle cx="278" cy="231.1" r="119.8" fill="#bee6ff" opacity=".4"/><circle cx="278" cy="231.1" r="119.8" fill="#bde5ff" opacity=".4"/><circle cx="277.9" cy="231.1" r="119.7" fill="#bce5ff" opacity=".4"/><circle cx="277.9" cy="231.1" r="119.7" fill="#bbe5ff" opacity=".4"/><circle cx="277.8" cy="231" r="119.6" fill="#bbe4ff" opacity=".4"/><circle cx="277.8" cy="231" r="119.5" fill="#bae4ff" opacity=".4"/><circle cx="277.7" cy="231" r="119.5" fill="#b9e4ff" opacity=".4"/><circle cx="277.7" cy="230.9" r="119.4" fill="#b8e3ff" opacity=".5"/><circle cx="277.6" cy="230.9" r="119.4" fill="#b8e3ff" opacity=".5"/><circle cx="277.6" cy="230.9" r="119.3" fill="#b7e3ff" opacity=".5"/><circle cx="277.5" cy="230.8" r="119.3" fill="#b6e2ff" opacity=".5"/><circle cx="277.5" cy="230.8" r="119.2" fill="#b5e2ff" opacity=".5"/><circle cx="277.4" cy="230.8" r="119.2" fill="#b4e2ff" opacity=".5"/><circle cx="277.4" cy="230.8" r="119.1" fill="#b4e2ff" opacity=".5"/><circle cx="277.3" cy="230.7" r="119" fill="#b3e1ff" opacity=".5"/><circle cx="277.2" cy="230.7" r="119" fill="#b2e1ff" opacity=".5"/><circle cx="277.2" cy="230.7" r="118.9" fill="#b1e1ff" opacity=".5"/><circle cx="277.1" cy="230.6" r="118.9" fill="#b1e0ff" opacity=".5"/><circle cx="277.1" cy="230.6" r="118.8" fill="#b0e0ff" opacity=".5"/><circle cx="277" cy="230.6" r="118.8" fill="#afe0ff" opacity=".5"/><circle cx="277" cy="230.5" r="118.7" fill="#aedfff" opacity=".5"/><circle cx="276.9" cy="230.5" r="118.7" fill="#aedfff" opacity=".5"/><circle cx="276.9" cy="230.5" r="118.6" fill="#addfff" opacity=".5"/><circle cx="276.8" cy="230.4" r="118.5" fill="#acdfff" opacity=".5"/><circle cx="276.8" cy="230.4" r="118.5" fill="#abdeff" opacity=".5"/><circle cx="276.7" cy="230.4" r="118.4" fill="#aadeff" opacity=".5"/><circle cx="276.7" cy="230.4" r="118.4" fill="#aadeff" opacity=".5"/><circle cx="276.6" cy="230.3" r="118.3" fill="#a9ddff" opacity=".6"/><circle cx="276.6" cy="230.3" r="118.3" fill="#a8ddff" opacity=".6"/><circle cx="276.5" cy="230.3" r="118.2" fill="#a7ddff" opacity=".6"/><circle cx="276.5" cy="230.2" r="118.2" fill="#a7dcff" opacity=".6"/><circle cx="276.4" cy="230.2" r="118.1" fill="#a6dcff" opacity=".6"/><circle cx="276.4" cy="230.2" r="118" fill="#a5dcff" opacity=".6"/><circle cx="276.3" cy="230.1" r="118" fill="#a4dbff" opacity=".6"/><circle cx="276.3" cy="230.1" r="117.9" fill="#a3dbff" opacity=".6"/><circle cx="276.2" cy="230.1" r="117.9" fill="#a3dbff" opacity=".6"/><circle cx="276.2" cy="230.1" r="117.8" fill="#a2dbff" opacity=".6"/><circle cx="276.1" cy="230" r="117.8" fill="#a1daff" opacity=".6"/><circle cx="276" cy="230" r="117.7" fill="#a0daff" opacity=".6"/><circle cx="276" cy="230" r="117.7" fill="#a0daff" opacity=".6"/><circle cx="275.9" cy="229.9" r="117.6" fill="#9fd9ff" opacity=".6"/><circle cx="275.9" cy="229.9" r="117.5" fill="#9ed9ff" opacity=".6"/><circle cx="275.8" cy="229.9" r="117.5" fill="#9dd9ff" opacity=".6"/><circle cx="275.8" cy="229.8" r="117.4" fill="#9cd8ff" opacity=".6"/><circle cx="275.7" cy="229.8" r="117.4" fill="#9cd8ff" opacity=".6"/><circle cx="275.7" cy="229.8" r="117.3" fill="#9bd8ff" opacity=".6"/><circle cx="275.6" cy="229.8" r="117.3" fill="#9ad8ff" opacity=".6"/><circle cx="275.6" cy="229.7" r="117.2" fill="#99d7ff" opacity=".7"/><circle cx="275.5" cy="229.7" r="117.2" fill="#99d7ff" opacity=".7"/><circle cx="275.5" cy="229.7" r="117.1" fill="#98d7ff" opacity=".7"/><circle cx="275.4" cy="229.6" r="117" fill="#97d6ff" opacity=".7"/><circle cx="275.4" cy="229.6" r="117" fill="#96d6ff" opacity=".7"/><circle cx="275.3" cy="229.6" r="116.9" fill="#95d6ff" opacity=".7"/><circle cx="275.3" cy="229.5" r="116.9" fill="#95d5ff" opacity=".7"/><circle cx="275.2" cy="229.5" r="116.8" fill="#94d5ff" opacity=".7"/><circle cx="275.2" cy="229.5" r="116.8" fill="#93d5ff" opacity=".7"/><circle cx="275.1" cy="229.4" r="116.7" fill="#92d5ff" opacity=".7"/><circle cx="275.1" cy="229.4" r="116.7" fill="#92d4ff" opacity=".7"/><circle cx="275" cy="229.4" r="116.6" fill="#91d4ff" opacity=".7"/><circle cx="275" cy="229.4" r="116.5" fill="#90d4ff" opacity=".7"/><circle cx="274.9" cy="229.3" r="116.5" fill="#8fd3ff" opacity=".7"/><circle cx="274.9" cy="229.3" r="116.4" fill="#8ed3ff" opacity=".7"/><circle cx="274.8" cy="229.3" r="116.4" fill="#8ed3ff" opacity=".7"/><circle cx="274.7" cy="229.2" r="116.3" fill="#8dd2ff" opacity=".7"/><circle cx="274.7" cy="229.2" r="116.3" fill="#8cd2ff" opacity=".7"/><circle cx="274.6" cy="229.2" r="116.2" fill="#8bd2ff" opacity=".7"/><circle cx="274.6" cy="229.1" r="116.2" fill="#8bd1ff" opacity=".7"/><circle cx="274.5" cy="229.1" r="116.1" fill="#8ad1ff" opacity=".8"/><circle cx="274.5" cy="229.1" r="116" fill="#89d1ff" opacity=".8"/><circle cx="274.4" cy="229.1" r="116" fill="#88d1ff" opacity=".8"/><circle cx="274.4" cy="229" r="115.9" fill="#87d0ff" opacity=".8"/><circle cx="274.3" cy="229" r="115.9" fill="#87d0ff" opacity=".8"/><circle cx="274.3" cy="229" r="115.8" fill="#86d0ff" opacity=".8"/><circle cx="274.2" cy="228.9" r="115.8" fill="#85cfff" opacity=".8"/><circle cx="274.2" cy="228.9" r="115.7" fill="#84cfff" opacity=".8"/><circle cx="274.1" cy="228.9" r="115.7" fill="#84cfff" opacity=".8"/><circle cx="274.1" cy="228.8" r="115.6" fill="#83ceff" opacity=".8"/><circle cx="274" cy="228.8" r="115.5" fill="#82ceff" opacity=".8"/><circle cx="274" cy="228.8" r="115.5" fill="#81ceff" opacity=".8"/><circle cx="273.9" cy="228.8" r="115.4" fill="#80ceff" opacity=".8"/><circle cx="273.9" cy="228.7" r="115.4" fill="#80cdff" opacity=".8"/><circle cx="273.8" cy="228.7" r="115.3" fill="#7fcdff" opacity=".8"/><circle cx="273.8" cy="228.7" r="115.3" fill="#7ecdff" opacity=".8"/><circle cx="273.7" cy="228.6" r="115.2" fill="#7dccff" opacity=".8"/><circle cx="273.7" cy="228.6" r="115.2" fill="#7dccff" opacity=".8"/><circle cx="273.6" cy="228.6" r="115.1" fill="#7cccff" opacity=".8"/><circle cx="273.6" cy="228.5" r="115" fill="#7bcbff" opacity=".8"/><circle cx="273.5" cy="228.5" r="115" fill="#7acbff" opacity=".9"/><circle cx="273.4" cy="228.5" r="114.9" fill="#7acbff" opacity=".9"/><circle cx="273.4" cy="228.5" r="114.9" fill="#79caff" opacity=".9"/><circle cx="273.3" cy="228.4" r="114.8" fill="#78caff" opacity=".9"/><circle cx="273.3" cy="228.4" r="114.8" fill="#77caff" opacity=".9"/><circle cx="273.2" cy="228.4" r="114.7" fill="#76caff" opacity=".9"/><circle cx="273.2" cy="228.3" r="114.7" fill="#76c9ff" opacity=".9"/><circle cx="273.1" cy="228.3" r="114.6" fill="#75c9ff" opacity=".9"/><circle cx="273.1" cy="228.3" r="114.5" fill="#74c9ff" opacity=".9"/><circle cx="273" cy="228.2" r="114.5" fill="#73c8ff" opacity=".9"/><circle cx="273" cy="228.2" r="114.4" fill="#73c8ff" opacity=".9"/><circle cx="272.9" cy="228.2" r="114.4" fill="#72c8ff" opacity=".9"/><circle cx="272.9" cy="228.1" r="114.3" fill="#71c7ff" opacity=".9"/><circle cx="272.8" cy="228.1" r="114.3" fill="#70c7ff" opacity=".9"/><circle cx="272.8" cy="228.1" r="114.2" fill="#6fc7ff" opacity=".9"/><circle cx="272.7" cy="228.1" r="114.2" fill="#6fc7ff" opacity=".9"/><circle cx="272.7" cy="228" r="114.1" fill="#6ec6ff" opacity=".9"/><circle cx="272.6" cy="228" r="114" fill="#6dc6ff" opacity=".9"/><circle cx="272.6" cy="228" r="114" fill="#6cc6ff" opacity=".9"/><circle cx="272.5" cy="227.9" r="113.9" fill="#6cc5ff" opacity=".9"/><circle cx="272.5" cy="227.9" r="113.9" fill="#6bc5ff"/><circle cx="272.4" cy="227.9" r="113.8" fill="#6ac5ff"/><circle cx="272.4" cy="227.8" r="113.8" fill="#69c4ff"/><circle cx="272.3" cy="227.8" r="113.7" fill="#68c4ff"/><circle cx="272.3" cy="227.8" r="113.7" fill="#68c4ff"/><circle cx="272.2" cy="227.8" r="113.6" fill="#67c4ff"/><circle cx="272.1" cy="227.7" r="113.5" fill="#66c3ff"/><circle cx="272.1" cy="227.7" r="113.5" fill="#65c3ff"/><circle cx="272" cy="227.7" r="113.4" fill="#65c3ff"/><circle cx="272" cy="227.6" r="113.4" fill="#64c2ff"/><circle cx="271.9" cy="227.6" r="113.3" fill="#63c2ff"/><linearGradient id="SVGID_1_" x1="1335" x2="1335" y1="-2354" y2="-2093.2" gradientTransform="rotate(24.3 -5219 -3522.4)" gradientUnits="userSpaceOnUse"><stop offset="0" stop-color="#63c2ff"/><stop offset=".1" stop-color="#6cb3fe"/><stop offset=".3" stop-color="#838dfa"/><stop offset=".5" stop-color="#a456f4"/><stop offset=".7" stop-color="#7448ee"/><stop offset="1" stop-color="#2e34e6"/></linearGradient><path fill="url(#SVGID_1_)" d="M374.9 291.2a113 113 0 01-43.9 50c-31.1 19.2-160.4-34.7-169.3-65.8a113.8 113.8 0 11213.2 15.8z"/><linearGradient id="SVGID_2_" x1="143" x2="268.8" y1="179.1" y2="360.6" gradientUnits="userSpaceOnUse"><stop offset="0" stop-color="#63c2ff"/><stop offset=".1" stop-color="#6cb3fe"/><stop offset=".3" stop-color="#838dfa"/><stop offset=".5" stop-color="#a456f4"/><stop offset=".7" stop-color="#7448ee"/><stop offset="1" stop-color="#2e34e6"/></linearGradient><path fill="url(#SVGID_2_)" d="M343.2 341.6v-36.9c0-43-30.9-79.1-73.8-79.1h-71.8a74 74 0 00-73.8 69.1c-.2 3.3-.2 43.5 0 46.9h219.4z"/><g><path d="M150.9 341.5c-6.6 0-12-5.4-12-12s5.4-12 12-12h11.6c-6.6 0-12-5.4-12-12s5.4-12 12-12h53l-20.3-20.3a12 12 0 1117-17l37.2 37.2 15.5-47.1H92.8l-29.2 95.1h98.9-11.6z" class="st206"/></g><g><path d="M260.7 180.1s-7.6-14.3 0-27.3a27.7 27.7 0 003.9-15.9c-.5-6.1-3.9-10.8-5.7-16.5a27.7 27.7 0 011.8-22.2c8.9-15.2 0-27.3 0-27.3h-42.9s8.9 12.1 0 27.3a27.7 27.7 0 00-1.8 22.2c1.8 5.7 5.2 10.4 5.7 16.5a27 27 0 01-3.9 15.9c-7.6 13 0 27.3 0 27.3h42.9z"/><path d="M239.1 213a23.4 23.4 0 01-23.2-20.3l-.1-.4h-.6a6.5 6.5 0 11-.1-13c.7 0 1.5.1 2.2.4l.4.2.2-.4a23.5 23.5 0 0142.4 0l.2.4.4-.2a6.5 6.5 0 112.2 12.6H262.5l-.1.4a23.7 23.7 0 01-23.3 20.3z" class="st206"/><path d="M239.1 166.5a23 23 0 0120.7 13.1l.4.8.8-.3c.7-.2 1.3-.4 2-.4 3.3 0 6 2.7 6 6s-2.7 6-6 6h-1.1l-.1.9a23 23 0 01-22.7 19.9 23 23 0 01-22.7-19.9l-.1-.9h-1.1c-3.3 0-6-2.7-6-6s2.7-6 6-6c.7 0 1.3.1 2 .4l.8.3.4-.8c3.7-8 11.9-13.1 20.7-13.1m0-1a24 24 0 00-21.6 13.6 7 7 0 00-9.3 6.6 7 7 0 007 7h.2a23.9 23.9 0 0047.4 0h.2a7 7 0 007-7 7 7 0 00-9.3-6.6 24 24 0 00-21.6-13.6z"/><g><path d="M239.7 196.9v3.6c0 .9.7 1.6 1.6 1.6.9 0 1.6-.7 1.6-1.6v-3.6c0-.9-.7-1.6-1.6-1.6-.9 0-1.6.7-1.6 1.6zM225.2 196.9v3.6c0 .9.7 1.6 1.6 1.6.9 0 1.6-.7 1.6-1.6v-3.6c0-.9-.7-1.6-1.6-1.6-.9 0-1.6.7-1.6 1.6z"/></g></g><g><path d="M365.8 144l-37.2 37.2M305.9 109.2v52.5M400.5 203.8H348" class="st208"/></g><path d="M249.4 293.5l15.4-47.1h-172l-29.2 95.2h107.9" class="st208"/><g><path d="M51.4 118.9h56.2M108 166.9a48 48 0 0148 48M108 142.9a72 72 0 0172 72M108 118.9c53 0 96 43 96 96" class="st208"/><path d="M180 213.9c0 6.6 5.4 12 12 12s12-5.4 12-12M155.9 213.9c0 6.6 5.4 12 12 12s12-5.4 12-12M143.6 225.9c6.6 0 12.4-4.4 12.4-11.1" class="st208"/></g><g><path d="M63.6 341.6l-.8-142.5h53.4l21.6 26.8h96.3l.1 20.5H92.8z" class="st213"/></g><path d="M292.1 389.5H176.3c-6.6 0-12-5.4-12-12s5.4-12 12-12h-13.9c-6.6 0-12-5.4-12-12s5.4-12 12-12h-11.6c-6.6 0-12-5.4-12-12s5.4-12 12-12h11.6c-6.6 0-12-5.4-12-12s5.4-12 12-12h53l-20.3-20.3a12 12 0 1117-17l37.2 37.2h93.8a48 48 0 0148 48" class="st213"/><g><path d="M162.4 317.5h34.5M162.4 341.5h34.5M176.3 365.5h40" class="st213"/></g></g></svg>
