<svg width="430" height="430" viewBox="0 0 430 430" fill="none" xmlns="http://www.w3.org/2000/svg">
<path d="M214.79 351.28C305.166 351.28 378.43 278.016 378.43 187.64C378.43 97.2641 305.166 24 214.79 24C124.414 24 51.15 97.2641 51.15 187.64C51.15 278.016 124.414 351.28 214.79 351.28Z" fill="url(#paint0_radial_536_3567)"/>
<path d="M248.52 353.3V303.02C248.52 260.02 217.64 223.91 174.77 223.91H102.94C63.9746 223.912 31.6999 254.157 29.17 293.04C28.96 296.32 28.97 349.93 29.17 353.3H248.52Z" fill="black"/>
<path d="M401.6 157.79H85.9399V221.26H401.6V157.79Z" fill="white"/>
<path d="M376.42 200.4C382.771 200.4 387.92 195.251 387.92 188.9C387.92 182.549 382.771 177.4 376.42 177.4C370.069 177.4 364.92 182.549 364.92 188.9C364.92 195.251 370.069 200.4 376.42 200.4Z" stroke="black" stroke-linecap="round" stroke-linejoin="round"/>
<path d="M386.525 194.926L382.657 198.794L389.198 205.335L393.066 201.467L386.525 194.926Z" fill="black"/>
<path d="M307.58 182.18H335.6L321.59 201.57L307.58 182.18Z" fill="black"/>
<path d="M255.66 181.28L274.84 200.47" stroke="black" stroke-linecap="round" stroke-linejoin="round"/>
<path d="M274.84 181.28L255.66 200.47" stroke="black" stroke-linecap="round" stroke-linejoin="round"/>
<path d="M116.14 254.35C164.818 254.35 204.28 214.888 204.28 166.21C204.28 117.532 164.818 78.07 116.14 78.07C67.4616 78.07 28 117.532 28 166.21C28 214.888 67.4616 254.35 116.14 254.35Z" fill="white" stroke="black" stroke-width="8"/>
<path d="M47.09 160.91C46.7953 134.968 62.4343 111.497 86.49 101.78" stroke="black"/>
<path d="M160.85 163.39C159.883 163.393 158.925 163.569 158.02 163.91C153.474 154.78 144.172 148.99 133.973 148.943C123.774 148.897 114.419 154.601 109.79 163.69C109.044 163.465 108.269 163.351 107.49 163.35C102.983 163.251 99.2494 166.823 99.15 171.33C99.0506 175.837 102.623 179.571 107.13 179.67C108.962 193.04 120.385 203.004 133.88 203.004C147.375 203.004 158.798 193.04 160.63 179.67H160.89C165.402 179.67 169.06 176.012 169.06 171.5C169.06 166.988 165.402 163.33 160.89 163.33L160.85 163.39Z" fill="white" stroke="black" stroke-linecap="round" stroke-linejoin="round"/>
<path d="M200.27 50.18C192.64 56.36 196.7 64.26 188.13 73.62C178.36 84.27 174.03 80.3 164.26 90.96C154.49 101.62 158.82 105.57 149.05 116.23C139.28 126.89 132.1 124.23 122.33 134.9C113.61 144.42 109.86 151.35 110.23 162.65L110.43 162.45C116.507 151.833 128.976 146.646 140.79 149.82C144.657 150.808 148.244 152.677 151.27 155.28C154.085 157.652 156.386 160.576 158.03 163.87C158.935 163.529 159.893 163.353 160.86 163.35C164.075 163.353 166.99 165.239 168.31 168.17C176.36 160.69 180.74 163.08 189.62 153.4C199.39 142.75 195.06 138.78 204.83 128.13C214.6 117.48 218.92 121.45 228.69 110.8C237.84 100.8 238.01 99.93 242.4 88.8L200.27 50.18Z" fill="black"/>
<path d="M126.79 177.25V181.25C126.79 182.272 125.962 183.1 124.94 183.1C123.918 183.1 123.09 182.272 123.09 181.25V177.25C123.09 176.76 123.285 176.291 123.632 175.945C123.98 175.6 124.45 175.407 124.94 175.41C125.958 175.41 126.784 176.232 126.79 177.25Z" fill="black"/>
<path d="M143.09 177.25V181.25C143.09 182.272 142.262 183.1 141.24 183.1C140.218 183.1 139.39 182.272 139.39 181.25V177.25C139.39 176.76 139.585 176.291 139.932 175.945C140.28 175.6 140.75 175.407 141.24 175.41C142.258 175.41 143.085 176.232 143.09 177.25Z" fill="black"/>
<path d="M162.79 232.9C159.86 234.143 157.543 236.499 156.35 239.45L147.79 260.39L136.39 265.23C133.46 266.475 131.146 268.833 129.955 271.785C128.764 274.737 128.794 278.041 130.04 280.97C131.233 284.05 133.702 286.461 136.81 287.58L134.87 292.48L86.79 312.94L124.32 401.39L217.48 361.84C223.579 359.252 226.426 352.21 223.84 346.11L186.1 257.2C184.594 253.699 181.532 251.107 177.83 250.2L178.56 248.41C180.344 243.924 179.266 238.805 175.824 235.42C172.382 232.034 167.246 231.041 162.79 232.9Z" fill="white"/>
<path d="M136.83 287.64L134.91 292.51" stroke="black" stroke-linecap="round" stroke-linejoin="round"/>
<path d="M177.86 250.16L178.56 248.44C181.042 242.296 178.074 235.303 171.93 232.82C165.786 230.338 158.793 233.306 156.31 239.45L147.79 260.39" stroke="black" stroke-linecap="round" stroke-linejoin="round"/>
<path d="M153.7 336.78C155.279 335.46 156.766 334.033 158.15 332.51" stroke="black" stroke-linecap="round" stroke-linejoin="round"/>
<path d="M207.2 339.61L173.98 353.71C167.888 356.307 160.844 353.479 158.24 347.39C156.995 344.459 156.966 341.154 158.159 338.202C159.351 335.25 161.669 332.893 164.6 331.65L198.53 317.25C201.461 316.005 204.766 315.976 207.718 317.169C210.67 318.361 213.027 320.679 214.27 323.61L216.09 327.89L223.84 346.15C225.085 349.081 225.114 352.386 223.921 355.338C222.729 358.29 220.411 360.647 217.48 361.89L124.32 401.39L86.79 312.95L134.93 292.51" stroke="black" stroke-linecap="round" stroke-linejoin="round"/>
<path d="M219.15 335.07L206.71 305.76L204.89 301.48C202.298 295.385 195.257 292.543 189.16 295.13L155.22 309.53C149.125 312.122 146.283 319.163 148.87 325.26C151.458 331.359 158.5 334.206 164.6 331.62L197.79 317.52" stroke="black" stroke-linecap="round" stroke-linejoin="round"/>
<path d="M209.79 313.07L197.35 283.76L195.53 279.48C194.287 276.549 191.93 274.231 188.978 273.039C186.026 271.846 182.721 271.875 179.79 273.12L145.86 287.52C142.93 288.765 140.615 291.123 139.425 294.075C138.234 297.027 138.264 300.331 139.51 303.26C140.751 306.179 143.105 308.482 146.051 309.659C148.996 310.836 152.289 310.79 155.2 309.53L188.4 295.44" stroke="black" stroke-linecap="round" stroke-linejoin="round"/>
<path d="M200.36 290.81L187.92 261.5L186.1 257.22C183.511 251.121 176.47 248.274 170.37 250.86L136.43 265.26C133.5 266.505 131.185 268.863 129.995 271.815C128.804 274.767 128.834 278.071 130.08 281C132.669 287.137 139.716 290.045 145.88 287.52" stroke="black" stroke-linecap="round" stroke-linejoin="round"/>
<path d="M119.64 258.12L177.93 395.39C180.486 401.595 186.179 405.949 192.838 406.79C199.496 407.631 206.093 404.829 210.112 399.454C214.13 394.078 214.951 386.958 212.26 380.81L196.66 344.07L173.79 353.81C167.706 356.329 160.729 353.474 158.155 347.413C155.581 341.351 158.373 334.349 164.41 331.72C158.326 334.239 151.349 331.384 148.775 325.323C146.201 319.261 148.993 312.259 155.03 309.63C152.11 310.882 148.812 310.926 145.86 309.75C142.917 308.581 140.568 306.278 139.34 303.36C138.094 300.431 138.064 297.127 139.255 294.175C140.445 291.223 142.76 288.865 145.69 287.62C142.744 288.87 139.416 288.87 136.47 287.62C133.509 286.401 131.145 284.066 129.89 281.12C129.105 279.28 128.792 277.272 128.98 275.28C129.007 274.971 129.054 274.663 129.12 274.36C129.12 274.21 129.17 274.06 129.2 273.9C129.23 273.74 129.33 273.31 129.42 273.01C129.51 272.71 129.67 272.28 129.81 271.93C130.46 270.308 131.457 268.847 132.73 267.65C132.98 267.42 133.25 267.2 133.51 266.99C134.347 266.335 135.264 265.791 136.24 265.37L147.64 260.54L154.25 244.17" fill="black"/>
<defs>
<radialGradient id="paint0_radial_536_3567" cx="0" cy="0" r="1" gradientUnits="userSpaceOnUse" gradientTransform="translate(214.79 187.64) scale(163.64)">
<stop stop-color="#008EFF"/>
<stop offset="0.28" stop-color="#008EFF" stop-opacity="0.99"/>
<stop offset="0.42" stop-color="#008EFF" stop-opacity="0.96"/>
<stop offset="0.52" stop-color="#008EFF" stop-opacity="0.91"/>
<stop offset="0.61" stop-color="#008EFF" stop-opacity="0.84"/>
<stop offset="0.7" stop-color="#008EFF" stop-opacity="0.74"/>
<stop offset="0.77" stop-color="#008EFF" stop-opacity="0.62"/>
<stop offset="0.84" stop-color="#008EFF" stop-opacity="0.48"/>
<stop offset="0.9" stop-color="#008EFF" stop-opacity="0.32"/>
<stop offset="0.96" stop-color="#008EFF" stop-opacity="0.15"/>
<stop offset="1" stop-color="#008EFF" stop-opacity="0"/>
</radialGradient>
</defs>
</svg>
