<svg xmlns="http://www.w3.org/2000/svg" width="300" height="300" viewBox="0 0 430 430"><defs/><style>.st206{fill:#fff}.st208,.st211{fill:none;stroke:#000;stroke-linecap:round;stroke-linejoin:round;stroke-miterlimit:10}.st211{stroke-width:8}</style><g id="Layer_1"><path fill="#f6fcff" d="M262 110.9a124 124 0 0187.6 225.3c-14.5 9.8-83.4-23.7-99.6-27.4-31.8-7.2-19.5-5.1-37.2-32.3-8.8-13.6-51.7-7.1-54.4-24.4A123.9 123.9 0 01262 110.9z" opacity=".1"/><path fill="#f6fbff" d="M261.9 110.9A123.8 123.8 0 01349.5 336c-14.6 9.8-83.1-23.4-99.4-27-31.8-7.1-19.6-5.3-37.3-32.4-8.9-13.6-51.8-7-54.5-24.4a124 124 0 01103.6-141.3z" opacity=".1"/><path fill="#f5fbff" d="M261.9 111a123.8 123.8 0 0187.8 224.9c-14.6 9.8-82.9-23.1-99.3-26.7-31.7-7-19.6-5.6-37.4-32.6-9-13.7-51.8-7-54.5-24.5A123.6 123.6 0 01261.9 111z" opacity=".1"/><path fill="#f4fbff" d="M261.8 111a123.7 123.7 0 01141.1 103.4 123.8 123.8 0 01-53.3 121.3c-14.6 9.9-82.7-22.8-99.1-26.4-31.7-6.9-19.7-5.8-37.6-32.7-9.1-13.7-51.9-6.9-54.6-24.5A123.9 123.9 0 01261.8 111z" opacity=".1"/><path fill="#f3faff" d="M261.8 111a123.6 123.6 0 01141 103.4 123.7 123.7 0 01-53.2 121.1c-14.6 9.9-82.5-22.5-98.9-26-31.7-6.8-19.8-6.1-37.7-32.8-9.2-13.7-52-6.9-54.7-24.6A123.9 123.9 0 01261.8 111z" opacity=".1"/><path fill="#f3faff" d="M261.8 111a123.6 123.6 0 0188 224.4c-14.6 10-82.2-22.2-98.7-25.7-31.6-6.8-19.8-6.3-37.8-33-9.3-13.8-52-6.9-54.8-24.7a123.5 123.5 0 01103.3-141z" opacity=".1"/><path fill="#f2faff" d="M261.7 111.1a123.5 123.5 0 0188 224.1c-14.6 10-82-21.9-98.5-25.4-31.6-6.7-19.9-6.6-37.9-33.1-9.4-13.8-52.1-6.8-54.8-24.7a123.4 123.4 0 01103.2-140.9z" opacity=".1"/><path fill="#f1faff" d="M261.7 111.1a123.4 123.4 0 0188 224c-14.7 10-81.8-21.6-98.4-25.1-31.6-6.6-20-6.9-38.1-33.3-9.5-13.8-52.1-6.8-54.9-24.8a123.6 123.6 0 01103.4-140.8z" opacity=".1"/><path fill="#f0f9ff" d="M261.6 111.1a123.5 123.5 0 01140.8 103.2 123.6 123.6 0 01-52.6 120.6c-14.7 10.1-81.5-21.3-98.2-24.7-31.5-6.5-20-7.1-38.2-33.4-9.6-13.9-52.2-6.7-55-24.9a123.4 123.4 0 01103.2-140.8z" opacity=".1"/><path fill="#eff9ff" d="M261.6 111.1a123.3 123.3 0 0188.2 223.6c-14.7 10.1-81.3-21-98-24.4-31.5-6.4-20.1-7.4-38.3-33.5-9.7-13.9-52.2-6.7-55-24.9a123.3 123.3 0 01103.1-140.8z" opacity=".1"/><path fill="#eff9ff" d="M261.5 111.2a123.4 123.4 0 01140.7 103.1 123.4 123.4 0 01-52.4 120.3c-14.7 10.2-81.1-20.7-97.8-24.1-31.5-6.4-20.2-7.6-38.4-33.7-9.7-13.9-52.3-6.7-55.1-25a123.1 123.1 0 01103-140.6z" opacity=".1"/><path fill="#eef8ff" d="M261.5 111.2a123.3 123.3 0 01140.6 103.1 123.3 123.3 0 01-52.2 120.1c-14.7 10.2-80.9-20.4-97.7-23.7-31.4-6.3-20.3-7.9-38.6-33.8-9.8-14-52.3-6.6-55.2-25.1a123.3 123.3 0 01103.1-140.6z" opacity=".1"/><path fill="#edf8ff" d="M261.5 111.2a123.1 123.1 0 01140.5 103 123.4 123.4 0 01-52.1 120c-14.7 10.2-80.6-20.1-97.5-23.4-31.4-6.2-20.3-8.1-38.7-33.9-9.9-14-52.4-6.6-55.3-25.1a123.3 123.3 0 01103.1-140.6z" opacity=".1"/><path fill="#ecf8ff" d="M261.4 111.2a123.2 123.2 0 01140.5 103 123.2 123.2 0 01-52 119.8c-14.8 10.3-80.4-19.8-97.3-23.1-31.4-6.1-20.4-8.4-38.8-34.1-10-14-52.5-6.5-55.3-25.2a123.1 123.1 0 01102.9-140.4z" opacity=".1"/><path fill="#ecf7ff" d="M261.4 111.3a123 123 0 01140.4 102.9 123.1 123.1 0 01-51.9 119.7c-14.8 10.3-80.2-19.5-97.1-22.7-31.3-6.1-20.5-8.6-38.9-34.2-10.1-14.1-52.5-6.5-55.4-25.3a123 123 0 01102.9-140.4z" opacity=".1"/><path fill="#ebf7ff" d="M261.3 111.3a123 123 0 01140.3 102.9 123 123 0 01-51.7 119.5c-14.8 10.4-80-19.2-97-22.4-31.3-6-20.6-8.9-39.1-34.4-10.2-14.1-52.6-6.4-55.5-25.3a123.3 123.3 0 01103-140.3z" opacity=".1"/><path fill="#eaf7ff" d="M261.3 111.3a123 123 0 01140.3 102.9A123 123 0 01350 333.6c-14.8 10.4-79.7-18.9-96.8-22.1-31.3-5.9-20.6-9.1-39.2-34.5-10.3-14.1-52.6-6.4-55.5-25.4a122.9 122.9 0 01102.8-140.3z" opacity=".1"/><path fill="#e9f7ff" d="M261.2 111.3a123 123 0 01140.2 102.8 122.8 122.8 0 01-51.5 119.2c-14.8 10.4-79.5-18.6-96.6-21.8-31.2-5.8-20.7-9.4-39.3-34.6-10.4-14.1-52.7-6.4-55.6-25.4a123 123 0 01102.8-140.2z" opacity=".1"/><path fill="#e8f6ff" d="M261.2 111.4a122.7 122.7 0 01140.1 102.7A123 123 0 01350 333.2c-14.8 10.5-79.3-18.3-96.4-21.4-31.2-5.7-20.8-9.6-39.4-34.8-10.5-14.2-52.7-6.3-55.7-25.5a122.7 122.7 0 01102.7-140.1z" opacity=".1"/><path fill="#e8f6ff" d="M261.1 111.4a122.9 122.9 0 01140.1 102.7A122.7 122.7 0 01350 333c-14.9 10.5-79-18-96.3-21.1-31.1-5.7-20.9-9.9-39.6-34.9-10.6-14.2-52.8-6.3-55.8-25.6a123 123 0 01102.8-140z" opacity=".1"/><path fill="#e7f6ff" d="M261.1 111.4a122.7 122.7 0 01140 102.7A122.8 122.8 0 01350 332.9c-14.9 10.6-78.8-17.7-96.1-20.8-31.1-5.6-21-10.1-39.7-35-10.7-14.2-52.8-6.2-55.8-25.6a122.8 122.8 0 01102.7-140.1z" opacity=".2"/><path fill="#e6f5ff" d="M261.1 111.4a122.8 122.8 0 01140 102.6 123.1 123.1 0 01-50.9 118.7c-14.9 10.6-78.6-17.4-95.9-20.4-31.1-5.5-21.1-10.4-39.8-35.2-10.8-14.3-52.9-6.2-55.9-25.7a122.5 122.5 0 01102.5-140z" opacity=".2"/><path fill="#e5f5ff" d="M261 111.5a122.6 122.6 0 01139.9 102.6 122.7 122.7 0 01-50.8 118.5c-14.9 10.6-78.4-17.1-95.7-20.1-31-5.4-21.1-10.6-40-35.3-10.9-14.3-53-6.2-56-25.8A122.7 122.7 0 01261 111.5z" opacity=".2"/><path fill="#e5f5ff" d="M261 111.5A122.6 122.6 0 01400.8 214a122.8 122.8 0 01-50.7 118.4c-14.9 10.7-78.1-16.8-95.6-19.8-31-5.4-21.2-10.9-40.1-35.4-11-14.3-53-6.1-56-25.8A122.7 122.7 0 01261 111.5z" opacity=".2"/><path fill="#e4f4ff" d="M260.9 111.5A122.6 122.6 0 01400.7 214a122.5 122.5 0 01-50.5 118.2c-14.9 10.7-77.9-16.5-95.4-19.4-31-5.3-21.3-11.1-40.2-35.6-11.1-14.4-53.1-6.1-56.1-25.9a122.5 122.5 0 01102.4-139.8z" opacity=".2"/><path fill="#e3f4ff" d="M260.9 111.5a122.5 122.5 0 01139.7 102.4c7.3 47.3-14.1 92-50.4 118.1-14.9 10.8-77.7-16.2-95.2-19.1-30.9-5.2-21.4-11.4-40.3-35.7-11.2-14.4-53.1-6-56.2-26a122.5 122.5 0 01102.4-139.7z" opacity=".2"/><path fill="#e2f4ff" d="M260.8 111.6A122.3 122.3 0 01400.4 214a122.5 122.5 0 01-50.3 117.9c-15 10.8-77.4-15.9-95-18.8-30.9-5.1-21.5-11.6-40.5-35.9-11.3-14.4-53.2-6-56.3-26a122.6 122.6 0 01102.5-139.6z" opacity=".2"/><path fill="#e2f3ff" d="M260.8 111.6a122.4 122.4 0 01139.6 102.3c7.3 47.2-14 91.7-50.1 117.8-15 10.8-77.2-15.6-94.9-18.5-30.9-5.1-21.6-11.9-40.6-36-11.4-14.5-53.2-6-56.3-26.1a122.3 122.3 0 01102.3-139.5z" opacity=".2"/><path fill="#e1f3ff" d="M260.8 111.6a122.3 122.3 0 01139.5 102.3c7.3 47.1-14 91.5-50 117.6-15 10.9-77-15.3-94.7-18.1-30.8-5-21.7-12.1-40.7-36.1-11.5-14.5-53.3-5.9-56.4-26.1a122.4 122.4 0 01102.3-139.6z" opacity=".2"/><path fill="#e0f3ff" d="M260.7 111.6a122.3 122.3 0 01139.5 102.2c7.2 47-13.9 91.4-49.9 117.5-15 10.9-76.7-15-94.5-17.8-30.8-4.9-21.8-12.3-40.8-36.3-11.6-14.5-53.3-5.9-56.5-26.2a122.2 122.2 0 01102.2-139.4z" opacity=".2"/><path fill="#dff3ff" d="M260.7 111.7a122.2 122.2 0 01139.4 102.2 122.3 122.3 0 01-49.7 117.3c-15 11-76.5-14.7-94.3-17.5-30.8-4.8-21.8-12.6-41-36.4-11.7-14.6-53.4-5.8-56.5-26.3a122 122 0 01102.1-139.3z" opacity=".2"/><path fill="#def2ff" d="M260.6 111.7a122 122 0 01139.3 102.1A122.3 122.3 0 01350.3 331c-15 11-76.3-14.4-94.2-17.1-30.7-4.8-21.9-12.8-41.1-36.5-11.8-14.6-53.5-5.8-56.6-26.3a122.2 122.2 0 01102.2-139.4z" opacity=".2"/><path fill="#def2ff" d="M260.6 111.7a122.1 122.1 0 01139.3 102.1 122 122 0 01-49.5 117c-15.1 11-76.1-14.1-94-16.8-30.7-4.7-22-13.1-41.2-36.7-11.9-14.6-53.5-5.8-56.7-26.4a122 122 0 01102.1-139.2z" opacity=".2"/><path fill="#ddf2ff" d="M260.5 111.7a122 122 0 01139.2 102.1 122.2 122.2 0 01-49.3 116.9c-15.1 11.1-75.8-13.8-93.8-16.5-30.6-4.6-22.1-13.3-41.3-36.8-12-14.7-53.6-5.7-56.8-26.5a122 122 0 01102-139.2z" opacity=".2"/><path fill="#dcf1ff" d="M260.5 111.8a121.9 121.9 0 01139.1 102 122 122 0 01-49.2 116.8c-15.1 11.1-75.6-13.5-93.6-16.1-30.6-4.6-22.2-13.6-41.5-36.9-12.1-14.7-53.6-5.7-56.8-26.5a122 122 0 01102-139.3z" opacity=".2"/><path fill="#dbf1ff" d="M260.4 111.8a122 122 0 01139.1 102 121.8 121.8 0 01-49.1 116.6c-15.1 11.2-75.4-13.2-93.5-15.8-30.6-4.5-22.3-13.8-41.6-37.1-12.2-14.7-53.7-5.6-56.9-26.6a122 122 0 01102-139.1z" opacity=".2"/><path fill="#dbf1ff" d="M260.4 111.8a122 122 0 01139 101.9 122.1 122.1 0 01-48.9 116.5c-15.1 11.2-75.1-12.9-93.3-15.5-30.5-4.4-22.4-14-41.7-37.2-12.3-14.8-53.7-5.6-57-26.7a121.8 121.8 0 01101.9-139z" opacity=".2"/><path fill="#daf0ff" d="M260.4 111.8a121.8 121.8 0 01138.9 101.9A121.7 121.7 0 01350.5 330c-15.1 11.2-74.9-12.6-93.1-15.2-30.5-4.3-22.5-14.3-41.9-37.4-12.4-14.8-53.8-5.6-57.1-26.7a122 122 0 01102-138.9z" opacity=".2"/><path fill="#d9f0ff" d="M260.3 111.9a121.9 121.9 0 01138.9 101.8 122 122 0 01-48.7 116.2c-15.2 11.3-74.7-12.3-92.9-14.8-30.5-4.3-22.6-14.5-42-37.5-12.5-14.8-53.8-5.5-57.1-26.8a121.7 121.7 0 01101.8-138.9z" opacity=".2"/><path fill="#d8f0ff" d="M260.3 111.9a121.7 121.7 0 01138.8 101.8 121.7 121.7 0 01-48.5 116c-15.2 11.3-74.5-12-92.7-14.5-30.4-4.2-22.7-14.8-42.1-37.6-12.6-14.9-53.9-5.5-57.2-26.9a121.6 121.6 0 01101.7-138.8z" opacity=".2"/><path fill="#d7f0ff" d="M260.2 111.9A121.8 121.8 0 01399 213.6a121.9 121.9 0 01-48.4 115.9c-15.2 11.4-74.2-11.7-92.6-14.2-30.4-4.1-22.8-15-42.2-37.8-12.7-14.9-54-5.4-57.3-26.9a121.7 121.7 0 01101.7-138.7z" opacity=".3"/><path fill="#d7efff" d="M260.2 111.9a121.6 121.6 0 01138.7 101.7 121.6 121.6 0 01-48.3 115.7c-15.2 11.4-74-11.4-92.4-13.8-30.3-4.1-22.9-15.3-42.4-37.9-12.8-14.9-54-5.4-57.3-27a121.6 121.6 0 01101.7-138.7z" opacity=".3"/><path fill="#d6efff" d="M260.1 112a121.6 121.6 0 01138.6 101.6 121.6 121.6 0 01-48.1 115.6c-15.2 11.4-73.8-11.1-92.2-13.5-30.3-4-23-15.5-42.5-38-12.9-14.9-54.1-5.3-57.4-27A121.5 121.5 0 01260.1 112z" opacity=".3"/><path fill="#d5efff" d="M260.1 112a121.6 121.6 0 01138.6 101.6c7.1 46-13.4 89.3-48 115.4-15.2 11.5-73.5-10.8-92-13.2-30.3-3.9-23.1-15.7-42.6-38.2-13-15-54.1-5.3-57.5-27.1A121.3 121.3 0 01260.1 112z" opacity=".3"/><path fill="#d4eeff" d="M260.1 112a121.5 121.5 0 01138.5 101.5 121.3 121.3 0 01-47.9 115.3c-15.2 11.5-73.3-10.5-91.9-12.8-30.2-3.9-23.2-16-42.7-38.3-13.1-15-54.2-5.3-57.6-27.2A121.5 121.5 0 01260.1 112z" opacity=".3"/><path fill="#d4eeff" d="M260 112a121.3 121.3 0 01138.4 101.5c7.1 45.9-13.3 89-47.7 115.1-15.3 11.6-73.1-10.2-91.7-12.5-30.2-3.8-23.3-16.2-42.9-38.4-13.2-15-54.2-5.2-57.6-27.2A121.5 121.5 0 01260 112z" opacity=".3"/><path fill="#d3eeff" d="M260 112.1a121.3 121.3 0 01138.4 101.4 121.3 121.3 0 01-47.6 115c-15.3 11.6-72.8-9.9-91.5-12.2-30.2-3.7-23.4-16.5-43-38.6-13.3-15.1-54.3-5.2-57.7-27.3A121 121 0 01260 112.1z" opacity=".3"/><path fill="#d2edff" d="M259.9 112.1a121.2 121.2 0 01138.3 101.4c7 45.7-13.2 88.7-47.5 114.8-15.3 11.7-72.6-9.6-91.3-11.9-30.1-3.7-23.5-16.7-43.1-38.7-13.5-15.1-54.3-5.1-57.8-27.4a121.2 121.2 0 01101.4-138.2z" opacity=".3"/><path fill="#d1edff" d="M259.9 112.1a121.1 121.1 0 01138.2 101.4c7 45.6-13.2 88.6-47.3 114.7-15.3 11.7-72.4-9.3-91.2-11.5-30.1-3.6-23.6-16.9-43.2-38.9-13.6-15.1-54.4-5.1-57.8-27.4a121.1 121.1 0 01101.3-138.3z" opacity=".3"/><path fill="#d0edff" d="M259.8 112.1A121.2 121.2 0 01398 213.4c7 45.6-13.1 88.4-47.2 114.6-15.3 11.7-72.2-9-91-11.2-30-3.5-23.7-17.2-43.4-39-13.7-15.2-54.5-5.1-57.9-27.5a121.2 121.2 0 01101.3-138.2z" opacity=".3"/><path fill="#d0ecff" d="M259.8 112.2a121.1 121.1 0 01138.1 101.3c7 45.5-13.1 88.3-47.1 114.4-15.3 11.8-71.9-8.7-90.8-10.9-30-3.5-23.8-17.4-43.5-39.1-13.8-15.2-54.5-5-58-27.6a121.1 121.1 0 01101.3-138.1z" opacity=".3"/><path fill="#cfecff" d="M259.8 112.2a121 121 0 01138.1 101.2 121 121 0 01-47 114.3c-15.3 11.8-71.7-8.4-90.6-10.5-30-3.4-23.9-17.6-43.6-39.3-13.9-15.2-54.6-5-58.1-27.6a121 121 0 01101.2-138.1z" opacity=".3"/><path fill="#ceecff" d="M259.7 112.2a121 121 0 01138 101.2c7 45.4-13 88-46.8 114.1-15.4 11.9-71.5-8.1-90.5-10.2-29.9-3.3-24-17.9-43.7-39.4-14-15.2-54.6-4.9-58.1-27.7a121 121 0 01101.1-138z" opacity=".3"/><path fill="#cdecff" d="M259.7 112.2a120.8 120.8 0 01137.9 101.1 121 121 0 01-46.7 114c-15.4 11.9-71.2-7.8-90.3-9.9-29.9-3.3-24.1-18.1-43.9-39.5-14.1-15.3-54.7-4.9-58.2-27.7a121 121 0 01101.2-138z" opacity=".3"/><path fill="#cdebff" d="M259.6 112.2a120.9 120.9 0 01137.9 101.1c7 45.2-12.9 87.7-46.6 113.8-15.4 11.9-71-7.5-90.1-9.5-29.9-3.2-24.2-18.3-44-39.7-14.2-15.3-54.7-4.9-58.3-27.8a121 121 0 01101.1-137.9z" opacity=".3"/><path fill="#ccebff" d="M259.6 112.3a120.8 120.8 0 01137.8 101c7 45.1-12.9 87.6-46.4 113.7-15.4 12-70.8-7.2-89.9-9.2-29.8-3.1-24.3-18.6-44.1-39.8-14.3-15.3-54.8-4.8-58.3-27.9a120.5 120.5 0 01100.9-137.8z" opacity=".3"/><path fill="#cbebff" d="M259.5 112.3a120.7 120.7 0 01137.7 101 120.7 120.7 0 01-46.3 113.5c-15.4 12-70.5-6.9-89.8-8.9-29.8-3.1-24.4-18.8-44.3-39.9-14.4-15.4-54.9-4.8-58.4-27.9a121 121 0 01101.1-137.8z" opacity=".3"/><path fill="#caeaff" d="M259.5 112.3a120.8 120.8 0 01137.7 100.9c6.9 45-12.8 87.3-46.2 113.4-15.4 12.1-70.3-6.6-89.6-8.6-29.7-3-24.5-19.1-44.4-40.1-14.5-15.4-54.9-4.7-58.5-28a120.8 120.8 0 01101-137.6z" opacity=".3"/><path fill="#c9eaff" d="M259.4 112.3A120.6 120.6 0 01397 213.2a120.5 120.5 0 01-46 113.2c-15.5 12.1-70.1-6.3-89.4-8.2-29.7-2.9-24.6-19.3-44.5-40.2-14.6-15.4-55-4.7-58.6-28.1a120.8 120.8 0 01100.9-137.6z" opacity=".3"/><path fill="#c9eaff" d="M259.4 112.4a120.6 120.6 0 01137.5 100.8c6.9 44.9-12.7 87-45.9 113.1-15.5 12.2-69.8-6-89.2-7.9-29.7-2.9-24.8-19.5-44.6-40.4-14.7-15.4-55-4.7-58.6-28.1a120.5 120.5 0 01100.8-137.5z" opacity=".3"/><path fill="#c8e9ff" d="M259.4 112.4a120.6 120.6 0 01137.5 100.8 120.4 120.4 0 01-45.8 112.9c-15.5 12.2-69.6-5.7-89.1-7.6-29.6-2.8-24.9-19.8-44.8-40.5-14.8-15.5-55.1-4.6-58.7-28.2a120.6 120.6 0 01100.9-137.4z" opacity=".4"/><path fill="#c7e9ff" d="M259.3 112.4a120.5 120.5 0 01137.4 100.8A120.5 120.5 0 01351.1 326c-15.5 12.2-69.4-5.4-88.9-7.2-29.6-2.7-25-20-44.9-40.6-15-15.5-55.1-4.6-58.8-28.3a120.6 120.6 0 01100.8-137.5z" opacity=".4"/><path fill="#c6e9ff" d="M259.3 112.4a120.6 120.6 0 01137.4 100.7 120.5 120.5 0 01-45.5 112.7c-15.5 12.3-69.2-5.1-88.7-6.9-29.5-2.7-25.1-20.2-45-40.8-15.1-15.5-55.2-4.5-58.8-28.3a120.3 120.3 0 01100.6-137.4z" opacity=".4"/><path fill="#c6e9ff" d="M259.2 112.5a120.4 120.4 0 01137.3 100.7 120.1 120.1 0 01-45.4 112.5c-15.5 12.3-68.9-4.8-88.5-6.6-29.5-2.6-25.2-20.4-45.1-40.9-15.2-15.6-55.2-4.5-58.9-28.4a120.4 120.4 0 01100.6-137.3z" opacity=".4"/><path fill="#c5e8ff" d="M259.2 112.5a120.3 120.3 0 01137.2 100.6 120.4 120.4 0 01-45.2 112.4c-15.5 12.4-68.7-4.5-88.4-6.2-29.5-2.6-25.3-20.7-45.3-41-15.3-15.6-55.3-4.5-59-28.5-10-65.8 35-127.2 100.7-137.3z" opacity=".4"/><path fill="#c4e8ff" d="M259.1 112.5a120.3 120.3 0 01137.2 100.6 120.2 120.2 0 01-45.1 112.2c-15.6 12.4-68.5-4.2-88.2-5.9-29.4-2.5-25.4-20.9-45.4-41.2-15.4-15.6-55.4-4.4-59.1-28.5-10-65.7 35-127.1 100.6-137.2z" opacity=".4"/><path fill="#c3e8ff" d="M259.1 112.5A120.2 120.2 0 01396.2 213c6.8 44.3-12.4 86-45 112.1-15.6 12.5-68.2-3.9-88-5.6-29.4-2.4-25.5-21.1-45.5-41.3-15.5-15.6-55.4-4.4-59.1-28.6a120.2 120.2 0 01100.5-137.1z" opacity=".4"/><path fill="#c2e7ff" d="M259.1 112.6a120.1 120.1 0 01137 100.5A120.2 120.2 0 01351.3 325c-15.6 12.5-68-3.7-87.8-5.3-29.3-2.4-25.6-21.4-45.6-41.5-15.6-15.7-55.5-4.3-59.2-28.6a120 120 0 01100.4-137z" opacity=".4"/><path fill="#c2e7ff" d="M259 112.6A120.1 120.1 0 01396 213a120.1 120.1 0 01-44.7 111.8c-15.6 12.5-67.8-3.4-87.7-4.9-29.3-2.3-25.7-21.6-45.8-41.6-15.7-15.7-55.5-4.3-59.3-28.7-10-65.6 35-126.9 100.5-137z" opacity=".4"/><path fill="#c1e7ff" d="M259 112.6A120 120 0 01395.9 213a120 120 0 01-44.6 111.6c-15.6 12.6-67.5-3.1-87.5-4.6-29.3-2.2-25.9-21.8-45.9-41.7-15.8-15.7-55.6-4.2-59.4-28.8A120.1 120.1 0 01259 112.6z" opacity=".4"/><path fill="#c0e6ff" d="M258.9 112.6a120 120 0 01136.9 100.3 119.9 119.9 0 01-44.4 111.5c-15.6 12.6-67.3-2.8-87.3-4.3-29.2-2.2-26-22.1-46-41.9-16-15.7-55.6-4.2-59.4-28.8a119.8 119.8 0 01100.2-136.8z" opacity=".4"/><path fill="#bfe6ff" d="M258.9 112.7A120 120 0 01395.7 213c6.8 44-12.2 85.3-44.3 111.3-15.6 12.7-67.1-2.5-87.1-3.9-29.2-2.1-26.1-22.3-46.2-42-16.1-15.8-55.7-4.2-59.5-28.9a119.9 119.9 0 01100.3-136.8z" opacity=".4"/><path fill="#bfe6ff" d="M258.8 112.7a119.8 119.8 0 01136.7 100.2 119.6 119.6 0 01-44.2 111.2c-15.7 12.7-66.8-2.2-86.9-3.6-29.2-2.1-26.2-22.5-46.3-42.1-16.2-15.8-55.7-4.1-59.6-29a120 120 0 01100.3-136.7z" opacity=".4"/><path fill="#bee6ff" d="M258.8 112.7a119.9 119.9 0 01136.7 100.2c6.8 43.8-12.1 85-44 111-15.7 12.8-66.6-1.9-86.8-3.3-29.1-2-26.3-22.8-46.4-42.3-16.3-15.8-55.8-4.1-59.6-29a119.7 119.7 0 01100.1-136.6z" opacity=".4"/><path fill="#bde5ff" d="M258.7 112.7a119.8 119.8 0 01136.6 100.1c6.7 43.8-12 84.9-43.9 110.9-15.7 12.8-66.4-1.6-86.6-2.9-29.1-1.9-26.4-23-46.5-42.4-16.4-15.8-55.9-4-59.7-29.1a119.8 119.8 0 01100.1-136.6z" opacity=".4"/><path fill="#bce5ff" d="M258.7 112.8a119.7 119.7 0 01136.5 100.1c6.7 43.7-12 84.8-43.8 110.7-15.7 12.8-66.2-1.3-86.4-2.6-29-1.9-26.5-23.2-46.7-42.5-16.5-15.9-55.9-4-59.8-29.2a119.8 119.8 0 01100.2-136.5z" opacity=".4"/><path fill="#bbe5ff" d="M258.7 112.8a119.7 119.7 0 01136.5 100.1c6.7 43.6-12 84.6-43.6 110.6-15.7 12.9-65.9-1-86.2-2.3-29-1.8-26.7-23.4-46.8-42.7-16.6-15.9-56-4-59.9-29.2a119.5 119.5 0 01100-136.5z" opacity=".4"/><path fill="#bbe4ff" d="M258.6 112.8a119.5 119.5 0 01136.4 100 119.7 119.7 0 01-43.5 110.5c-15.7 12.9-65.7-.7-86.1-2-29-1.8-26.8-23.7-46.9-42.8-16.7-15.9-56-3.9-59.9-29.3a119.6 119.6 0 01100-136.4z" opacity=".4"/><path fill="#bae4ff" d="M258.6 112.8a119.5 119.5 0 01136.3 100 119.5 119.5 0 01-43.4 110.3c-15.7 13-65.5-.4-85.9-1.6-28.9-1.7-26.9-23.9-47-43-16.9-15.9-56.1-3.9-60-29.3a119.6 119.6 0 01100-136.4z" opacity=".4"/><path fill="#b9e4ff" d="M258.5 112.9a119.6 119.6 0 01136.3 99.9A119.5 119.5 0 01351.6 323c-15.8 13-65.2-.1-85.7-1.3-28.9-1.6-27-24.1-47.2-43.1-17-16-56.1-3.8-60.1-29.4a119.5 119.5 0 0199.9-136.3z" opacity=".4"/><path fill="#b8e3ff" d="M258.5 112.9a119.4 119.4 0 01136.2 99.9 119.3 119.3 0 01-43.1 110c-15.8 13.1-65 .2-85.5-1-28.8-1.6-27.1-24.3-47.3-43.2-17.1-16-56.2-3.8-60.1-29.5a119.3 119.3 0 0199.8-136.2z" opacity=".5"/><path fill="#b8e3ff" d="M258.4 112.9a119.5 119.5 0 01136.2 99.8 119.1 119.1 0 01-43 109.9c-15.8 13.1-64.8.5-85.4-.6-28.8-1.5-27.2-24.6-47.4-43.4-17.2-16-56.2-3.8-60.2-29.5a119.4 119.4 0 0199.8-136.2z" opacity=".5"/><path fill="#b7e3ff" d="M258.4 112.9a119.3 119.3 0 01136.1 99.8 119.4 119.4 0 01-42.8 109.7c-15.8 13.1-64.5.8-85.2-.3-28.8-1.5-27.3-24.8-47.5-43.5-17.3-16-56.3-3.7-60.3-29.6a119.3 119.3 0 0199.7-136.1z" opacity=".5"/><path fill="#b6e2ff" d="M258.4 113c65.1-10 126 34.6 136 99.7a119.3 119.3 0 01-42.7 109.6c-15.8 13.2-64.3 1-85 0-28.7-1.4-27.5-25-47.7-43.6-17.4-16.1-56.4-3.7-60.4-29.7-10-65.1 34.7-126 99.8-136z" opacity=".5"/><path fill="#b5e2ff" d="M258.3 113a119.3 119.3 0 01136 99.7c6.6 43-11.6 83.5-42.6 109.4-15.8 13.2-64.1 1.3-84.8.4-28.7-1.4-27.6-25.2-47.8-43.8-17.5-16.1-56.4-3.6-60.4-29.7a119 119 0 0199.6-136z" opacity=".5"/><path fill="#b4e2ff" d="M258.3 113c65-10 125.9 34.6 135.9 99.6a119 119 0 01-42.4 109.3c-15.8 13.3-63.8 1.6-84.7.7-28.6-1.3-27.7-25.5-47.9-43.9-17.7-16.1-56.5-3.6-60.5-29.8A119 119 0 01258.3 113z" opacity=".5"/><path fill="#b4e2ff" d="M258.2 113A119 119 0 01394 212.6a119 119 0 01-42.3 109.1c-15.8 13.3-63.6 1.9-84.5 1-28.6-1.2-27.8-25.7-48-44-17.8-16.1-56.5-3.6-60.6-29.9A119.1 119.1 0 01258.2 113z" opacity=".5"/><path fill="#b3e1ff" d="M258.2 113.1A119 119 0 01394 212.6a119 119 0 01-42.2 109c-15.9 13.4-63.4 2.2-84.3 1.3-28.6-1.2-27.9-25.9-48.2-44.2-17.9-16.1-56.6-3.5-60.6-29.9a118.9 118.9 0 0199.5-135.7z" opacity=".5"/><path fill="#b2e1ff" d="M258.1 113.1a119 119 0 01135.7 99.5c6.6 42.8-11.4 83-42.1 108.8-15.9 13.4-63.2 2.5-84.1 1.7-28.5-1.1-28.1-26.1-48.3-44.3-18-16.2-56.6-3.5-60.7-30a119 119 0 0199.5-135.7z" opacity=".5"/><path fill="#b1e1ff" d="M258.1 113.1a118.8 118.8 0 01135.6 99.4 118.9 118.9 0 01-41.9 108.7c-15.9 13.5-62.9 2.8-84 2-28.5-1.1-28.2-26.4-48.4-44.5-18.1-16.2-56.7-3.4-60.8-30.1a118.9 118.9 0 0199.5-135.5z" opacity=".5"/><path fill="#b1e0ff" d="M258.1 113.1a118.9 118.9 0 01135.6 99.4 118.7 118.7 0 01-41.8 108.6c-15.9 13.5-62.7 3.1-83.8 2.3-28.4-1-28.3-26.6-48.6-44.6-18.2-16.2-56.7-3.4-60.9-30.1a119 119 0 0199.5-135.6z" opacity=".5"/><path fill="#b0e0ff" d="M258 113.2a118.8 118.8 0 01135.5 99.4A118.9 118.9 0 01351.8 321c-15.9 13.5-62.5 3.4-83.6 2.7-28.4-1-28.4-26.8-48.7-44.7-18.4-16.2-56.8-3.4-60.9-30.2A118.8 118.8 0 01258 113.2z" opacity=".5"/><path fill="#afe0ff" d="M258 113.2a118.8 118.8 0 01135.5 99.3A118.8 118.8 0 01352 320.8c-15.9 13.6-62.2 3.7-83.4 3-28.4-.9-28.5-27-48.8-44.9-18.5-16.2-56.9-3.3-61-30.2A118.6 118.6 0 01258 113.2z" opacity=".5"/><path fill="#aedfff" d="M257.9 113.2a118.7 118.7 0 01135.4 99.3 118.6 118.6 0 01-41.4 108.1c-15.9 13.6-62 4-83.3 3.3-28.3-.8-28.6-27.3-48.9-45-18.6-16.3-56.9-3.3-61.1-30.3a118.8 118.8 0 0199.3-135.4z" opacity=".5"/><path fill="#aedfff" d="M257.9 113.2a118.5 118.5 0 01135.3 99.2 118.5 118.5 0 01-41.3 108c-16 13.7-61.8 4.3-83.1 3.7-28.3-.8-28.8-27.5-49.1-45.1-18.7-16.3-57-3.2-61.1-30.4a118.8 118.8 0 0199.3-135.4z" opacity=".5"/><path fill="#addfff" d="M257.8 113.3a118.6 118.6 0 01135.3 99.2c6.5 42.2-11.1 82-41.1 107.8-16 13.7-61.5 4.5-82.9 4-28.2-.7-28.9-27.7-49.2-45.3-18.8-16.3-57-3.2-61.2-30.4a118.5 118.5 0 0199.1-135.3z" opacity=".5"/><path fill="#acdfff" d="M257.8 113.3A118.5 118.5 0 01393 212.4c6.5 42.2-11 81.9-41 107.7-16 13.8-61.3 4.8-82.7 4.3-28.2-.7-29-27.9-49.3-45.4-18.9-16.3-57.1-3.2-61.3-30.5a118.5 118.5 0 0199.1-135.2z" opacity=".5"/><path fill="#abdeff" d="M257.7 113.3a118.4 118.4 0 01135.1 99.1c6.5 42.1-11 81.7-40.9 107.5-16 13.8-61.1 5.1-82.6 4.6-28.2-.6-29.1-28.1-49.4-45.5-19.1-16.3-57.1-3.1-61.4-30.6a118.8 118.8 0 0199.2-135.1z" opacity=".5"/><path fill="#aadeff" d="M257.7 113.3a118.5 118.5 0 01135.1 99c6.5 42-10.9 81.6-40.7 107.4-16 13.9-60.8 5.4-82.4 5-28.1-.6-29.2-28.4-49.6-45.7-19.2-16.3-57.2-3.1-61.4-30.6a118.5 118.5 0 0199-135.1z" opacity=".5"/><path fill="#aadeff" d="M257.7 113.4a118.4 118.4 0 01135 99 118 118 0 01-40.6 107.2c-16 13.9-60.6 5.7-82.2 5.3-28.1-.5-29.4-28.6-49.7-45.8-19.3-16.4-57.2-3-61.5-30.7a118.3 118.3 0 0199-135z" opacity=".5"/><path fill="#a9ddff" d="M257.6 113.4c64.6-9.9 125 34.4 135 98.9a118.1 118.1 0 01-40.5 107.1c-16 13.9-60.4 6-82 5.6-28-.5-29.5-28.8-49.8-46-19.4-16.4-57.3-3-61.6-30.8a118.1 118.1 0 0198.9-134.8z" opacity=".6"/><path fill="#a8ddff" d="M257.6 113.4a118.3 118.3 0 01134.9 98.9 118.1 118.1 0 01-40.3 106.9c-16 14-60.2 6.3-81.9 6-28-.4-29.6-29-49.9-46.1-19.5-16.4-57.4-2.9-61.7-30.8-10-64.6 34.3-125 98.9-134.9z" opacity=".6"/><path fill="#a7ddff" d="M257.5 113.4a118.2 118.2 0 01134.8 98.8A118 118 0 01352.1 319c-16.1 14-59.9 6.6-81.7 6.3-28-.3-29.7-29.2-50.1-46.2-19.7-16.4-57.4-2.9-61.7-30.9a118.3 118.3 0 0198.9-134.8z" opacity=".6"/><path fill="#a7dcff" d="M257.5 113.5a118.2 118.2 0 01134.8 98.8 117.8 117.8 0 01-40.1 106.6c-16.1 14.1-59.7 6.9-81.5 6.6-27.9-.3-29.9-29.5-50.2-46.4-19.8-16.4-57.5-2.9-61.8-30.9a118.1 118.1 0 0198.8-134.7z" opacity=".6"/><path fill="#a6dcff" d="M257.4 113.5a118.1 118.1 0 01134.7 98.8 118 118 0 01-39.9 106.5c-16.1 14.1-59.5 7.1-81.3 7-27.9-.2-30-29.7-50.3-46.5-19.9-16.4-57.5-2.8-61.9-31a118.1 118.1 0 0198.7-134.8z" opacity=".6"/><path fill="#a5dcff" d="M257.4 113.5A118 118 0 01392 212.2a118 118 0 01-39.8 106.4c-16.1 14.2-59.2 7.4-81.2 7.3-27.9-.2-30.1-29.9-50.5-46.6-20-16.5-57.6-2.8-61.9-31.1a118.2 118.2 0 0198.8-134.7z" opacity=".6"/><path fill="#a4dbff" d="M257.4 113.5A118 118 0 01392 212.2a117.7 117.7 0 01-39.7 106.2c-16.1 14.2-59 7.7-81 7.6-27.8-.1-30.2-30.1-50.6-46.8-20.1-16.5-57.6-2.7-62-31.1a118 118 0 0198.7-134.6z" opacity=".6"/><path fill="#a3dbff" d="M257.3 113.6a117.9 117.9 0 01134.5 98.6 117.8 117.8 0 01-39.5 106.1c-16.1 14.3-58.8 8-80.8 7.9-27.8-.1-30.3-30.3-50.7-46.9-20.3-16.5-57.7-2.7-62.1-31.2a117.9 117.9 0 0198.6-134.5z" opacity=".6"/><path fill="#a3dbff" d="M257.3 113.6a117.8 117.8 0 01134.4 98.6 117.7 117.7 0 01-39.4 105.9c-16.1 14.3-58.5 8.3-80.6 8.3-27.7 0-30.5-30.6-50.8-47-20.4-16.5-57.7-2.7-62.2-31.3a117.9 117.9 0 0198.6-134.5z" opacity=".6"/><path fill="#a2dbff" d="M257.2 113.6a117.8 117.8 0 01134.4 98.5 117.8 117.8 0 01-39.3 105.8c-16.1 14.4-58.3 8.6-80.4 8.6-27.7 0-30.6-30.8-51-47.2-20.5-16.5-57.8-2.6-62.2-31.3a117.8 117.8 0 0198.5-134.4z" opacity=".6"/><path fill="#a1daff" d="M257.2 113.6a117.7 117.7 0 01134.3 98.5c6.3 41.2-10.4 80-39.1 105.6-16.2 14.4-58.1 8.9-80.3 8.9-27.7.1-30.7-31-51.1-47.3-20.6-16.5-57.9-2.6-62.3-31.4a117.8 117.8 0 0198.5-134.3z" opacity=".6"/><path fill="#a0daff" d="M257.1 113.7a117.7 117.7 0 01134.3 98.4 117.6 117.6 0 01-39 105.5c-16.2 14.4-57.8 9.2-80.1 9.3-27.6.1-30.8-31.2-51.2-47.5-20.8-16.5-57.9-2.5-62.4-31.5a117.7 117.7 0 0198.4-134.2z" opacity=".6"/><path fill="#a0daff" d="M257.1 113.7a117.7 117.7 0 01134.2 98.4c6.3 41-10.3 79.7-38.9 105.3-16.2 14.5-57.6 9.5-79.9 9.6-27.6.2-31-31.4-51.3-47.6-20.9-16.6-58-2.5-62.4-31.5a117.5 117.5 0 0198.3-134.2z" opacity=".6"/><path fill="#9fd9ff" d="M257 113.7A117.5 117.5 0 01391.1 212a117.5 117.5 0 01-38.7 105.2c-16.2 14.5-57.4 9.7-79.7 9.9-27.5.2-31.1-31.6-51.5-47.7-21-16.6-58-2.5-62.5-31.6A117.6 117.6 0 01257 113.7z" opacity=".6"/><path fill="#9ed9ff" d="M257 113.7A117.5 117.5 0 01391.1 212a117.3 117.3 0 01-38.6 105c-16.2 14.6-57.1 10-79.6 10.3-27.5.3-31.2-31.9-51.6-47.9-21.1-16.6-58.1-2.4-62.6-31.7a117.5 117.5 0 0198.3-134z" opacity=".6"/><path fill="#9dd9ff" d="M257 113.8A117.5 117.5 0 01391 212a117.1 117.1 0 01-38.5 104.9c-16.2 14.6-56.9 10.3-79.4 10.6-27.5.3-31.3-32.1-51.7-48-21.2-16.6-58.1-2.4-62.7-31.7a117.4 117.4 0 0198.3-134z" opacity=".6"/><path fill="#9cd8ff" d="M256.9 113.8a117.5 117.5 0 01134 98.2 117.1 117.1 0 01-38.3 104.7c-16.2 14.7-56.7 10.6-79.2 10.9-27.4.4-31.4-32.3-51.8-48.1-21.4-16.6-58.2-2.3-62.7-31.8a117.1 117.1 0 0198-133.9z" opacity=".6"/><path fill="#9cd8ff" d="M256.9 113.8c64.1-9.9 124 34.1 133.9 98.1a117 117 0 01-38.2 104.6c-16.2 14.7-56.5 10.9-79 11.2-27.4.4-31.6-32.5-52-48.3-21.5-16.6-58.3-2.3-62.8-31.8-9.9-64 34-123.9 98.1-133.8z" opacity=".6"/><path fill="#9bd8ff" d="M256.8 113.8c64-9.9 124 34.1 133.8 98.1 6.2 40.6-10 78.9-38.1 104.5-16.2 14.8-56.2 11.2-78.9 11.6-27.3.5-31.7-32.7-52.1-48.4-21.6-16.6-58.3-2.3-62.9-31.9a117.6 117.6 0 0198.2-133.9z" opacity=".6"/><path fill="#9ad8ff" d="M256.8 113.9c64-9.9 123.9 34 133.7 98.1 6.2 40.5-9.9 78.8-37.9 104.3-16.3 14.8-56 11.5-78.7 11.9-27.3.5-31.8-32.9-52.2-48.6-21.7-16.6-58.4-2.2-62.9-32-9.9-64 34-123.9 98-133.7z" opacity=".6"/><path fill="#99d7ff" d="M256.7 113.9c64-9.9 123.8 34 133.7 98 6.2 40.4-9.9 78.6-37.8 104.2-16.3 14.9-55.8 11.7-78.5 12.2-27.3.6-31.9-33.2-52.4-48.7-21.9-16.6-58.4-2.2-63-32a117.3 117.3 0 0198-133.7z" opacity=".7"/><path fill="#99d7ff" d="M256.7 113.9c64-9.8 123.8 34 133.6 98 6.2 40.4-9.8 78.5-37.7 104-16.3 14.9-55.5 12-78.3 12.6-27.2.6-32.1-33.4-52.5-48.8-22-16.6-58.5-2.1-63.1-32.1-9.8-64 34-123.9 98-133.7z" opacity=".7"/><path fill="#98d7ff" d="M256.7 113.9c63.9-9.8 123.7 34 133.6 97.9a117 117 0 01-37.5 103.9c-16.3 15-55.3 12.3-78.2 12.9-27.2.7-32.2-33.6-52.6-49-22.1-16.7-58.5-2.1-63.2-32.2a117 117 0 0197.9-133.5z" opacity=".7"/><path fill="#97d6ff" d="M256.6 113.9a117 117 0 01133.5 97.9c6.2 40.2-9.7 78.2-37.4 103.7-16.3 15-55.1 12.6-78 13.2-27.1.7-32.3-33.8-52.7-49.1-22.2-16.7-58.6-2.1-63.2-32.2a117 117 0 0197.8-133.5z" opacity=".7"/><path fill="#96d6ff" d="M256.6 114A117 117 0 01390 211.8c6.2 40.1-9.7 78.1-37.3 103.6-16.3 15.1-54.8 12.9-77.8 13.6-27.1.8-32.4-34-52.9-49.2-22.4-16.7-58.6-2-63.3-32.3A117 117 0 01256.6 114z" opacity=".7"/><path fill="#95d6ff" d="M256.5 114a117 117 0 01133.4 97.8c6.2 40.1-9.6 78-37.2 103.4-16.3 15.1-54.6 13.2-77.6 13.9-27.1.8-32.6-34.2-53-49.4-22.5-16.7-58.7-2-63.4-32.4A117 117 0 01256.5 114z" opacity=".7"/><path fill="#95d5ff" d="M256.5 114a116.9 116.9 0 01133.3 97.7c6.2 40-9.6 77.8-37 103.3-16.3 15.1-54.4 13.5-77.5 14.2-27 .9-32.7-34.4-53.1-49.5-22.6-16.7-58.8-1.9-63.4-32.4A116.8 116.8 0 01256.5 114z" opacity=".7"/><path fill="#94d5ff" d="M256.4 114a116.8 116.8 0 01133.2 97.7c6.1 39.9-9.5 77.7-36.9 103.1-16.3 15.2-54.1 13.7-77.3 14.5-27 .9-32.8-34.6-53.2-49.6-22.7-16.7-58.8-1.9-63.5-32.5A117 117 0 01256.4 114z" opacity=".7"/><path fill="#93d5ff" d="M256.4 114.1a116.8 116.8 0 01133.2 97.6c6.1 39.9-9.5 77.6-36.8 103-16.4 15.2-53.9 14-77.1 14.9-27 1-32.9-34.9-53.4-49.8-22.9-16.7-58.9-1.8-63.6-32.5a116.8 116.8 0 0197.7-133.2z" opacity=".7"/><path fill="#92d5ff" d="M256.4 114.1a116.7 116.7 0 01133.1 97.6c6.1 39.8-9.4 77.4-36.6 102.8-16.4 15.3-53.7 14.3-76.9 15.2-26.9 1-33.1-35.1-53.5-49.9-23-16.7-58.9-1.8-63.7-32.6a116.6 116.6 0 0197.6-133.1z" opacity=".7"/><path fill="#92d4ff" d="M256.3 114.1a116.8 116.8 0 01133.1 97.5c6.1 39.7-9.4 77.3-36.5 102.7-16.4 15.3-53.5 14.6-76.8 15.5-26.9 1.1-33.2-35.3-53.6-50.1-23.1-16.7-59-1.8-63.7-32.7a116.6 116.6 0 0197.5-132.9z" opacity=".7"/><path fill="#91d4ff" d="M256.3 114.1a116.7 116.7 0 01133 97.5c6.1 39.6-9.3 77.2-36.4 102.6-16.4 15.4-53.2 14.9-76.6 15.9-26.8 1.1-33.3-35.5-53.7-50.2-23.2-16.7-59-1.7-63.8-32.7a116.6 116.6 0 0197.5-133.1z" opacity=".7"/><path fill="#90d4ff" d="M256.2 114.2a116.5 116.5 0 01132.9 97.5c6.1 39.6-9.3 77-36.2 102.4-16.4 15.4-53 15.2-76.4 16.2-26.8 1.2-33.4-35.7-53.9-50.3-23.4-16.7-59.1-1.7-63.9-32.8a116.7 116.7 0 0197.5-133z" opacity=".7"/><path fill="#8fd3ff" d="M256.2 114.2a116.5 116.5 0 01132.9 97.4c6.1 39.5-9.2 76.9-36.1 102.3-16.4 15.5-52.8 15.4-76.2 16.5-26.8 1.2-33.5-35.9-54-50.5-23.5-16.7-59.1-1.6-63.9-32.9a116.3 116.3 0 0197.3-132.8z" opacity=".7"/><path fill="#8ed3ff" d="M256.1 114.2c63.6-9.8 123 33.8 132.8 97.4a116 116 0 01-36 102.1c-16.4 15.5-52.5 15.7-76.1 16.9-26.7 1.3-33.7-36.1-54.1-50.6-23.6-16.7-59.2-1.6-64-32.9a116.7 116.7 0 0197.4-132.9z" opacity=".7"/><path fill="#8ed3ff" d="M256.1 114.2c63.5-9.8 123 33.8 132.7 97.3 6.1 39.4-9.1 76.6-35.8 102-16.4 15.6-52.3 16-75.9 17.2-26.7 1.3-33.8-36.3-54.2-50.7-23.7-16.7-59.3-1.6-64.1-33a116.5 116.5 0 0197.3-132.8z" opacity=".7"/><path fill="#8dd2ff" d="M256 114.3a116.4 116.4 0 01132.7 97.3c6 39.3-9 76.5-35.7 101.8-16.4 15.6-52.1 16.3-75.7 17.5-26.6 1.4-33.9-36.5-54.4-50.9-23.9-16.7-59.3-1.5-64.2-33.1A116.3 116.3 0 01256 114.3z" opacity=".7"/><path fill="#8cd2ff" d="M256 114.3a116.3 116.3 0 01132.6 97.2c6 39.2-9 76.4-35.6 101.7-16.4 15.7-51.8 16.6-75.5 17.8-26.6 1.4-34-36.8-54.5-51-24-16.7-59.4-1.5-64.2-33.1A116.2 116.2 0 01256 114.3z" opacity=".7"/><path fill="#8bd2ff" d="M256 114.3a116.1 116.1 0 01132.5 97.2A116 116 0 01353.1 313c-16.5 15.7-51.6 16.9-75.4 18.2-26.6 1.5-34.2-37-54.6-51.1-24.1-16.7-59.4-1.4-64.3-33.2A116.2 116.2 0 01256 114.3z" opacity=".7"/><path fill="#8bd1ff" d="M255.9 114.3a116.2 116.2 0 01132.5 97.1 116 116 0 01-35.3 101.4c-16.5 15.8-51.4 17.1-75.2 18.5-26.5 1.5-34.3-37.2-54.8-51.3-24.3-16.7-59.5-1.4-64.4-33.3a116.3 116.3 0 0197.2-132.4z" opacity=".7"/><path fill="#8ad1ff" d="M255.9 114.4a115.5 115.5 0 0197.2 198.3c-16.5 15.8-51.2 17.4-75 18.8-26.5 1.6-34.4-37.4-54.9-51.4-24.4-16.7-59.5-1.4-64.5-33.3a116.1 116.1 0 0197.2-132.4z" opacity=".8"/><path fill="#89d1ff" d="M255.8 114.4a116.1 116.1 0 01132.4 97 116 116 0 01-35 101.1c-16.5 15.9-50.9 17.7-74.8 19.2-26.5 1.6-34.5-37.6-55-51.6-24.5-16.7-59.6-1.3-64.5-33.4a115.8 115.8 0 0196.9-132.3z" opacity=".8"/><path fill="#88d1ff" d="M255.8 114.4a116 116 0 01132.3 97c6 38.8-8.7 75.7-34.9 100.9-16.5 15.9-50.7 18-74.6 19.5-26.4 1.7-34.7-37.8-55.1-51.7-24.6-16.7-59.6-1.3-64.6-33.4a115.9 115.9 0 0196.9-132.3z" opacity=".8"/><path fill="#87d0ff" d="M255.7 114.4a116 116 0 01132.2 96.9c6 38.8-8.7 75.6-34.8 100.8-16.5 16-50.5 18.3-74.5 19.8-26.4 1.7-34.8-38-55.3-51.8-24.8-16.7-59.7-1.2-64.7-33.5a116.3 116.3 0 0197.1-132.2z" opacity=".8"/><path fill="#87d0ff" d="M255.7 114.5A115.3 115.3 0 01353.3 312c-16.5 16-50.2 18.5-74.3 20.2-26.3 1.8-34.9-38.2-55.4-52-24.9-16.7-59.8-1.2-64.7-33.6a115.7 115.7 0 0196.8-132.1z" opacity=".8"/><path fill="#86d0ff" d="M255.7 114.5a115.8 115.8 0 01132.1 96.8c5.9 38.6-8.6 75.3-34.5 100.5-16.5 16.1-50 18.8-74.1 20.5-26.3 1.8-35-38.4-55.5-52.1-25-16.7-59.8-1.2-64.8-33.6a115.7 115.7 0 0196.8-132.1z" opacity=".8"/><path fill="#85cfff" d="M255.6 114.5a115.7 115.7 0 01132 96.8c5.9 38.6-8.5 75.2-34.4 100.4-16.5 16.1-49.8 19.1-73.9 20.8-26.3 1.9-35.2-38.6-55.6-52.2-25.2-16.7-59.9-1.1-64.9-33.7a115.8 115.8 0 0196.8-132.1z" opacity=".8"/><path fill="#84cfff" d="M255.6 114.5a115.8 115.8 0 01132 96.8c5.9 38.5-8.5 75-34.2 100.2-16.5 16.1-49.5 19.4-73.8 21.1-26.2 1.9-35.3-38.8-55.8-52.4-25.3-16.7-59.9-1.1-65-33.8a115.8 115.8 0 0196.8-131.9z" opacity=".8"/><path fill="#84cfff" d="M255.5 114.6a115.7 115.7 0 01131.9 96.7c5.9 38.4-8.4 74.9-34.1 100.1-16.5 16.2-49.3 19.7-73.6 21.5-26.2 1.9-35.4-39.1-55.9-52.5-25.4-16.7-60-1-65-33.8a115.7 115.7 0 0196.7-132z" opacity=".8"/><path fill="#83ceff" d="M255.5 114.6a115.6 115.6 0 01131.8 96.7c5.9 38.3-8.4 74.8-34 99.9-16.6 16.2-49.1 20-73.4 21.8-26.2 2-35.5-39.3-56-52.6-25.6-16.7-60-1-65.1-33.9a115.6 115.6 0 0196.7-131.9z" opacity=".8"/><path fill="#82ceff" d="M255.4 114.6a115.5 115.5 0 01131.8 96.6c5.9 38.3-8.3 74.6-33.8 99.8-16.6 16.3-48.9 20.2-73.2 22.1-26.1 2-35.7-39.5-56.1-52.8-25.7-16.7-60.1-1-65.2-34-9.8-63 33.5-122 96.5-131.7z" opacity=".8"/><path fill="#81ceff" d="M255.4 114.6c63-9.7 122 33.5 131.7 96.6 5.9 38.2-8.3 74.5-33.7 99.6-16.6 16.3-48.6 20.5-73.1 22.5-26.1 2.1-35.8-39.7-56.3-52.9-25.8-16.7-60.1-.9-65.2-34a115.6 115.6 0 0196.6-131.8z" opacity=".8"/><path fill="#80ceff" d="M255.3 114.7c63-9.7 122 33.5 131.7 96.5a115 115 0 01-33.6 99.5c-16.6 16.4-48.4 20.8-72.9 22.8-26 2.1-35.9-39.9-56.4-53.1-25.9-16.7-60.2-.9-65.3-34.1a115.4 115.4 0 0196.5-131.6z" opacity=".8"/><path fill="#80cdff" d="M255.3 114.7a115 115 0 0198.2 195.8c-16.6 16.4-48.2 21.1-72.7 23.1-26 2.2-36-40.1-56.5-53.2-26.1-16.7-60.3-.8-65.4-34.1a115.2 115.2 0 0196.4-131.6z" opacity=".8"/><path fill="#7fcdff" d="M255.3 114.7a115.3 115.3 0 01131.5 96.4c5.8 38-8.1 74.1-33.3 99.2-16.6 16.5-47.9 21.3-72.5 23.5-26 2.2-36.2-40.3-56.7-53.3-26.2-16.7-60.3-.8-65.5-34.2a115.4 115.4 0 0196.5-131.6z" opacity=".8"/><path fill="#7ecdff" d="M255.2 114.7a114.8 114.8 0 0198.3 195.4c-16.6 16.5-47.7 21.6-72.4 23.8-25.9 2.3-36.3-40.5-56.8-53.5-26.3-16.7-60.4-.7-65.5-34.3a115.3 115.3 0 0196.4-131.4z" opacity=".8"/><path fill="#7dccff" d="M255.2 114.8a115.2 115.2 0 01131.4 96.3c5.8 37.8-8 73.9-33 98.9-16.6 16.6-47.5 21.9-72.2 24.1-25.9 2.3-36.4-40.7-56.9-53.6-26.5-16.7-60.4-.7-65.6-34.3a115.1 115.1 0 0196.3-131.4z" opacity=".8"/><path fill="#7dccff" d="M255.1 114.8a114.7 114.7 0 0198.4 195c-16.6 16.6-47.3 22.2-72 24.4-25.9 2.4-36.5-40.9-57-53.7-26.6-16.7-60.5-.7-65.7-34.4a115.3 115.3 0 0196.3-131.3z" opacity=".8"/><path fill="#7cccff" d="M255.1 114.8A115.1 115.1 0 01386.4 211c5.8 37.7-7.9 73.6-32.8 98.6-16.6 16.7-47 22.5-71.8 24.8-25.8 2.4-36.7-41.1-57.2-53.9-26.7-16.6-60.5-.6-65.7-34.5a115 115 0 0196.2-131.2z" opacity=".8"/><path fill="#7bcbff" d="M255 114.8a114.6 114.6 0 0198.5 194.7c-16.6 16.7-46.8 22.7-71.7 25.1-25.8 2.5-36.8-41.3-57.3-54-26.9-16.6-60.6-.6-65.8-34.5A115.3 115.3 0 01255 114.8z" opacity=".8"/><path fill="#7acbff" d="M255 114.9a115 115 0 01131.2 96.2c5.8 37.5-7.8 73.3-32.5 98.3-16.6 16.8-46.6 23-71.5 25.4-25.7 2.5-36.9-41.5-57.4-54.1-27-16.6-60.6-.5-65.9-34.6A114.8 114.8 0 01255 114.9z" opacity=".9"/><path fill="#7acbff" d="M255 114.9a114.5 114.5 0 0198.7 194.3c-16.6 16.8-46.3 23.3-71.3 25.8-25.7 2.5-37-41.7-57.5-54.3-27.1-16.6-60.7-.5-66-34.7A114.8 114.8 0 01255 114.9z" opacity=".9"/><path fill="#79caff" d="M254.9 114.9A114.4 114.4 0 01353.6 309c-16.7 16.9-46.1 23.6-71.1 26.1-25.7 2.6-37.2-41.9-57.7-54.4-27.3-16.6-60.8-.5-66-34.7a115 115 0 0196.1-131.1z" opacity=".9"/><path fill="#78caff" d="M254.9 114.9a114.8 114.8 0 01131 96c5.7 37.3-7.6 72.9-32.1 97.9-16.7 16.9-45.9 23.9-71 26.4-25.6 2.6-37.3-42.1-57.8-54.6-27.4-16.6-60.8-.4-66.1-34.8a114.8 114.8 0 0196-130.9z" opacity=".9"/><path fill="#77caff" d="M254.8 115a114.8 114.8 0 01130.9 96c5.7 37.3-7.6 72.8-32 97.7-16.7 17-45.6 24.1-70.8 26.8-25.6 2.7-37.4-42.3-57.9-54.7-27.5-16.6-60.9-.4-66.2-34.9a114.8 114.8 0 0196-130.9z" opacity=".9"/><path fill="#76caff" d="M254.8 115a114.4 114.4 0 0198.9 193.5c-16.7 17-45.4 24.4-70.6 27.1-25.6 2.7-37.5-42.6-58-54.8-27.7-16.6-60.9-.3-66.2-34.9A114.7 114.7 0 01254.8 115z" opacity=".9"/><path fill="#76c9ff" d="M254.7 115a114.2 114.2 0 0199.1 193.3c-16.7 17.1-45.2 24.7-70.4 27.4-25.5 2.8-37.7-42.8-58.2-55-27.8-16.6-61-.3-66.3-35A114.6 114.6 0 01254.7 115z" opacity=".9"/><path fill="#75c9ff" d="M254.7 115a114.6 114.6 0 01130.7 95.8c5.7 37-7.4 72.4-31.6 97.3-16.7 17.1-45 25-70.3 27.7-25.5 2.8-37.8-43-58.3-55.1-27.9-16.5-61-.3-66.4-35A114.7 114.7 0 01254.7 115z" opacity=".9"/><path fill="#74c9ff" d="M254.7 115.1c62.5-9.6 121 33.3 130.6 95.8 5.7 37-7.3 72.3-31.5 97.1-16.7 17.2-44.7 25.2-70.1 28.1-25.4 2.9-37.9-43.2-58.4-55.2-28.1-16.5-61.1-.2-66.5-35.1a114.6 114.6 0 0195.9-130.7z" opacity=".9"/><path fill="#73c8ff" d="M254.6 115.1a114.2 114.2 0 0199.3 192.7c-16.7 17.2-44.5 25.5-69.9 28.4-25.4 2.9-38-43.4-58.5-55.4-28.2-16.5-61.1-.2-66.5-35.2a114.3 114.3 0 0195.6-130.5z" opacity=".9"/><path fill="#73c8ff" d="M254.6 115.1a114.4 114.4 0 01130.5 95.7c5.7 36.8-7.2 72-31.2 96.8-16.7 17.3-44.3 25.8-69.7 28.7-25.4 2.9-38.2-43.6-58.7-55.5-28.3-16.5-61.2-.1-66.6-35.2a114.4 114.4 0 0195.7-130.5z" opacity=".9"/><path fill="#72c8ff" d="M254.5 115.1a114 114 0 0199.4 192.3c-16.7 17.3-44.1 26.1-69.6 29.1-25.3 3-38.3-43.8-58.8-55.6-28.5-16.5-61.3-.1-66.7-35.3a114.6 114.6 0 0195.7-130.5z" opacity=".9"/><path fill="#71c7ff" d="M254.5 115.2A114 114 0 01354 307.3c-16.7 17.4-43.8 26.3-69.4 29.4-25.3 3-38.4-44-58.9-55.8-28.6-16.5-61.3-.1-66.8-35.4a114.2 114.2 0 0195.6-130.3z" opacity=".9"/><path fill="#70c7ff" d="M254.4 115.2a114.2 114.2 0 01130.3 95.5c5.6 36.6-7.1 71.6-30.8 96.4-16.7 17.4-43.6 26.6-69.2 29.7-25.3 3.1-38.5-44.2-59.1-55.9-28.7-16.4-61.4 0-66.8-35.4a114.4 114.4 0 0195.6-130.3z" opacity=".9"/><path fill="#6fc7ff" d="M254.4 115.2A114 114 0 01354 307c-16.7 17.5-43.4 26.9-69 30.1-25.2 3.1-38.7-44.4-59.2-56.1-28.9-16.4-61.4 0-66.9-35.5a114.2 114.2 0 0195.5-130.3z" opacity=".9"/><path fill="#6fc7ff" d="M254.3 115.2A114.1 114.1 0 01354 306.8c-16.7 17.5-43.1 27.2-68.8 30.4-25.2 3.2-38.8-44.6-59.3-56.2-29-16.4-61.5.1-67-35.6a114.1 114.1 0 0195.4-130.2z" opacity=".9"/><path fill="#6ec6ff" d="M254.3 115.3A114 114 0 01354 306.7c-16.7 17.6-42.9 27.4-68.7 30.7-25.2 3.2-38.9-44.8-59.4-56.3-29.1-16.4-61.5.1-67-35.6a114 114 0 0195.4-130.2z" opacity=".9"/><path fill="#6dc6ff" d="M254.3 115.3a114 114 0 0199.8 191.2c-16.7 17.6-42.7 27.7-68.5 31-25.1 3.2-39-45-59.6-56.5-29.3-16.4-61.6.1-67.1-35.7a114 114 0 0195.4-130z" opacity=".9"/><path fill="#6cc6ff" d="M254.2 115.3a114 114 0 0199.9 191c-16.8 17.7-42.5 28-68.3 31.4-25.1 3.3-39.1-45.2-59.7-56.6-29.4-16.4-61.7.2-67.2-35.7a114 114 0 0195.3-130.1z" opacity=".9"/><path fill="#6cc5ff" d="M254.2 115.3a113.8 113.8 0 0199.9 190.8c-16.8 17.7-42.2 28.3-68.1 31.7-25.1 3.3-39.3-45.4-59.8-56.7-29.5-16.3-61.7.2-67.3-35.8a114 114 0 0195.3-130z" opacity=".9"/><path fill="#6bc5ff" d="M254.1 115.4a113.9 113.9 0 01100 190.6c-16.8 17.8-42 28.5-68 32-25 3.4-39.4-45.6-59.9-56.9-29.7-16.3-61.8.3-67.3-35.9a113.8 113.8 0 0195.2-129.8z"/><path fill="#6ac5ff" d="M254.1 115.4a113.7 113.7 0 01100.1 190.4 114.7 114.7 0 01-67.8 32.4c-25 3.4-39.5-45.8-60.1-57-29.8-16.3-61.8.3-67.4-35.9a113.8 113.8 0 0195.2-129.9z"/><path fill="#69c4ff" d="M254 115.4a113.8 113.8 0 01100.2 190.2 114.2 114.2 0 01-67.6 32.7c-24.9 3.5-39.6-46-60.2-57.2-29.9-16.3-61.9.3-67.5-36-9.6-62 33-120.1 95.1-129.7z"/><path fill="#68c4ff" d="M254 115.4a113.7 113.7 0 01100.2 190 113.4 113.4 0 01-67.4 33c-24.9 3.5-39.8-46.2-60.3-57.3-30.1-16.2-61.9.4-67.5-36.1a113.6 113.6 0 0195-129.6z"/><path fill="#68c4ff" d="M254 115.5a113.6 113.6 0 01100.3 189.8 114.5 114.5 0 01-67.3 33.4c-24.9 3.5-39.9-46.4-60.4-57.4-30.2-16.2-62 .4-67.6-36.1a113.5 113.5 0 0195-129.7z"/><path fill="#67c4ff" d="M253.9 115.5a113.7 113.7 0 01100.4 189.6 113.7 113.7 0 01-67.1 33.7c-24.8 3.6-40-46.6-60.6-57.6-30.4-16.2-62 .5-67.7-36.2-9.5-62 33-120 95-129.5z"/><path fill="#66c3ff" d="M253.9 115.5a113.6 113.6 0 01100.4 189.4 113.2 113.2 0 01-66.9 34c-24.8 3.6-40.1-46.8-60.7-57.7-30.5-16.2-62.1.5-67.8-36.3a113.5 113.5 0 0195-129.4z"/><path fill="#65c3ff" d="M253.8 115.5a113.5 113.5 0 01100.5 189.3 113 113 0 01-66.7 34.3c-24.8 3.7-40.3-47-60.8-57.8-30.6-16.2-62.2.6-67.8-36.3a113.5 113.5 0 0194.8-129.5z"/><path fill="#65c3ff" d="M253.8 115.6a113.5 113.5 0 01100.6 189.1 113.5 113.5 0 01-66.6 34.7c-24.7 3.7-40.4-47.2-61-58-30.8-16.1-62.2.6-67.9-36.4-9.5-62 33-119.9 94.9-129.4z"/><path fill="#64c2ff" d="M253.7 115.6a113.4 113.4 0 1134.2 223.9c-24.7 3.7-40.5-47.4-61.1-58.1-30.9-16.1-62.3.6-68-36.5a113.5 113.5 0 0194.9-129.3z"/><path fill="#63c2ff" d="M158.9 244.8a113.4 113.4 0 11129.3 94.8c-24.7 3.8-40.6-47.6-61.2-58.2-31.1-16.1-62.3.6-68.1-36.6z"/><linearGradient id="SVGID_1_" x1="1126.4" x2="1126.4" y1="-2314.5" y2="-2066.8" gradientTransform="rotate(24.3 -5218.9 -3020.5)" gradientUnits="userSpaceOnUse"><stop offset="0" stop-color="#63c2ff"/><stop offset=".1" stop-color="#6cb3fe"/><stop offset=".3" stop-color="#838dfa"/><stop offset=".5" stop-color="#a456f4"/><stop offset=".7" stop-color="#7448ee"/><stop offset="1" stop-color="#2e34e6"/></linearGradient><path fill="url(#SVGID_1_)" d="M373.9 291.2a114.1 114.1 0 01-27.5 37.7c-2.7 2.5-99.7-8.2-106.1-11.1-20.3-9.2-44.8-24.1-56.3-41.5-2.5-3.8-11.5 2.5-13.4-1-10.6-18.6-18.1-50.1-6.2-78.5 24.3-57.9 95.4-82 152.6-56.1s82.7 93.3 56.9 150.5z"/><g><path d="M267.9 181.6s15.4-4.7 19.2-19.2a26.6 26.6 0 018.5-13.9c4.6-3.9 10.4-4.9 15.6-7.6a27.3 27.3 0 0014.3-16.9c4.5-17 19.2-19.2 19.2-19.2L375 135s-14.7 2.2-19.2 19.2c-2 7.5-7.5 13.3-14.3 16.9-5.3 2.8-11 3.7-15.6 7.6a27 27 0 00-8.5 13.9c-3.8 14.5-19.2 19.2-19.2 19.2l-30.3-30.2z"/><path d="M276.3 227.6a23.6 23.6 0 01-23.3-20.3l-.1-.5h-.6a6.5 6.5 0 11-.1-13c.7 0 1.5.1 2.2.4l.4.2.2-.4a23.5 23.5 0 0142.4 0l.2.4.4-.2a6.5 6.5 0 112.2 12.6h-.7l-.1.5a23.3 23.3 0 01-23.1 20.3z" class="st206"/><path d="M276.3 181.1c8.8 0 16.9 5.1 20.8 13.1l.4.8.8-.3c.7-.2 1.3-.4 2-.4 3.3 0 6 2.7 6 6s-2.7 6-6 6h-1.1l-.1.9a23 23 0 01-45.6 0l-.1-.9h-1.1c-3.3 0-6-2.7-6-6s2.7-6 6-6c.7 0 1.4.1 2 .4l.8.3.4-.8c3.8-8 12-13.1 20.8-13.1m0-1c-9.5 0-17.8 5.6-21.7 13.6a7 7 0 00-9.3 6.6 7 7 0 007 7h.2a24 24 0 0047.6 0h.2a7 7 0 007-7 7 7 0 00-9.3-6.6 24 24 0 00-21.7-13.6z"/><g><path d="M273.9 198.5v3.6c0 .9.7 1.6 1.6 1.6.9 0 1.6-.7 1.6-1.6v-3.6c0-.9-.7-1.6-1.6-1.6-.9 0-1.6.7-1.6 1.6zM259.4 198.5v3.6c0 .9.7 1.6 1.6 1.6.9 0 1.6-.7 1.6-1.6v-3.6c0-.9-.7-1.6-1.6-1.6-.9 0-1.6.7-1.6 1.6z"/></g></g><linearGradient id="SVGID_2_" x1="157.1" x2="275.2" y1="193.1" y2="363.5" gradientUnits="userSpaceOnUse"><stop offset="0" stop-color="#63c2ff"/><stop offset=".1" stop-color="#6cb3fe"/><stop offset=".3" stop-color="#838dfa"/><stop offset=".5" stop-color="#a456f4"/><stop offset=".7" stop-color="#7448ee"/><stop offset="1" stop-color="#2e34e6"/></linearGradient><path fill="url(#SVGID_2_)" d="M352 340.9v-22.7c0-43-30.9-79.1-73.8-79.1h-71.8a74 74 0 00-73.8 69.1c-.2 3.3-.2 29.3 0 32.7H352z"/><g><path d="M84.4 199.1v-39.9a77.5 77.5 0 01155 0v124.9" class="st208"/><path d="M72.9 298.5h176.7" class="st211"/><path d="M161.9 247.2v35.7M121.4 148.6c2.3-20.9 10.9-53.6 40.5-66.9v66.9M201 282.9V167.4s2.2-74.2-39.1-85.7" class="st208"/><path d="M181.5 167.4v79.5h-40.3v-79.5" class="st208"/><path d="M137.5 250.9H185" class="st211"/><path d="M181.5 168.8a20.2 20.2 0 00-40.4 0M100.9 246.9v-79.5M141.3 168.8a20.2 20.2 0 00-40.4 0" class="st208"/></g><g><path d="M100.9 199.1H42a12 12 0 000 23.8 12 12 0 000 23.8 12 12 0 000 23.8h71.6a12 12 0 000-23.8M125.6 282.7a12 12 0 00-11.9-11.9H42c-6.6 0-11.9 5.4-11.9 11.9s5.4 11.9 11.9 11.9h71.6a12 12 0 0012-11.9zM42 246.9h71.6M42 223h58.9" class="st208"/></g><g><path d="M269 125.1a20 20 0 01-18.6-5.3c-7.8-7.8-7.8-20.3 0-28.1s20.3-7.8 28.1 0a20 20 0 015 19.7M320 56.8a64.7 64.7 0 01-52.9 68.7M215.5 161.3a64.7 64.7 0 0068.7-52.9" class="st208"/></g><path fill="none" stroke="#000" stroke-linecap="round" stroke-miterlimit="10" d="M155.8 70.2c.5-.9 1.3-1.7 2.2-2.2a7.3 7.3 0 0110.1 10.1c-.5.9-1.3 1.7-2.2 2.2a7.3 7.3 0 01-10.1-10.1z"/><path d="M311.3 301c0-6.6-5.4-12-12-12s-12 5.4-12 12c0-6.6-5.4-12-12-12s-12 5.4-12 12a12 12 0 00-12-12c-6.6 0-12 6-12 12.6h-19.6a28.4 28.4 0 00-28.4 28.4v53.7h87.6a119.6 119.6 0 0032.4-82v-.7z" class="st206"/><g><path d="M191.3 384.1v-53.7a28.4 28.4 0 0128.4-28.4h19.6M287.3 301.4v.6c0 12-2.2 23.5-6.2 34.1M263.3 301.4v.6a71 71 0 01-8.7 34.3M263.3 301.4c0-6.6 5.4-12 12-12s12 5.4 12 12" class="st208"/><path d="M239.3 302c0-6.6 5.4-12.6 12-12.6a12 12 0 0112 12M287.3 301.4c0-6.6 5.4-12 12-12s12 5.4 12 12M311.3 301.4v.6c0 31.7-12.3 60.6-32.4 82" class="st208"/></g></g></svg>
