<svg width="430" height="430" viewBox="0 0 430 430" fill="none" xmlns="http://www.w3.org/2000/svg">
<path d="M253.92 384.53C344.296 384.53 417.56 311.266 417.56 220.89C417.56 130.514 344.296 57.25 253.92 57.25C163.544 57.25 90.28 130.514 90.28 220.89C90.28 311.266 163.544 384.53 253.92 384.53Z" fill="url(#paint0_radial_536_3310)"/>
<path d="M328.48 388.63V252.33C328.48 209.33 297.6 173.22 254.73 173.22H182.9C143.935 173.22 111.66 203.467 109.13 242.35C108.92 245.63 108.93 385.25 109.13 388.63H328.48Z" fill="black"/>
<path d="M394.72 247.55H178.95V388.62H394.72V247.55Z" fill="white" stroke="black" stroke-width="0.97"/>
<path d="M394.72 221.34H178.95V248.39H394.72V221.34Z" fill="white" stroke="black" stroke-width="0.97"/>
<path d="M209.24 279.69H364.03" stroke="black" stroke-width="8" stroke-linecap="round" stroke-linejoin="round"/>
<path d="M209.24 307.3H368.3" stroke="black" stroke-linecap="round" stroke-linejoin="round"/>
<path d="M256.08 330.99H368.3" stroke="black" stroke-linecap="round" stroke-linejoin="round"/>
<path d="M270.82 355.29H368.3" stroke="black" stroke-linecap="round" stroke-linejoin="round"/>
<path d="M205.51 113.85C205.51 113.85 220.91 109.15 224.73 94.64C226.065 89.2441 229.025 84.3885 233.21 80.73C237.85 76.8 243.58 75.86 248.83 73.09C255.62 69.52 261.18 63.76 263.16 56.21C267.64 39.21 282.38 37 282.38 37L312.58 67.2C312.58 67.2 297.84 69.43 293.37 86.41C291.37 93.96 285.82 99.72 279.03 103.29C273.78 106.06 268.03 107 263.41 110.93C259.223 114.591 256.263 119.45 254.93 124.85C251.11 139.36 235.72 144.06 235.72 144.06L205.51 113.85Z" fill="black"/>
<path d="M213.92 159.79C202.173 159.765 192.241 151.087 190.64 139.45C190.605 139.2 190.393 139.013 190.14 139.01H190C187.678 139.024 185.524 137.799 184.351 135.795C183.177 133.791 183.162 131.313 184.311 129.295C185.46 127.276 187.598 126.024 189.92 126.01C190.664 126.012 191.402 126.144 192.1 126.4C192.153 126.41 192.207 126.41 192.26 126.4C192.453 126.405 192.63 126.295 192.71 126.12C196.618 117.957 204.865 112.762 213.915 112.762C222.965 112.762 231.212 117.957 235.12 126.12C235.208 126.293 235.386 126.402 235.58 126.4C235.633 126.41 235.687 126.41 235.74 126.4C236.438 126.143 237.176 126.011 237.92 126.01C241.51 126.01 244.42 128.92 244.42 132.51C244.42 136.1 241.51 139.01 237.92 139.01H237.7C237.447 139.013 237.235 139.2 237.2 139.45C235.591 151.083 225.663 159.756 213.92 159.79Z" fill="white"/>
<path d="M213.92 113.29C222.77 113.319 230.827 118.398 234.67 126.37C234.84 126.717 235.194 126.935 235.58 126.93C235.689 126.948 235.801 126.948 235.91 126.93C236.551 126.694 237.227 126.572 237.91 126.57C241.224 126.57 243.91 129.256 243.91 132.57C243.91 135.884 241.224 138.57 237.91 138.57H237.69C237.185 138.566 236.756 138.939 236.69 139.44C235.139 150.839 225.404 159.339 213.9 159.339C202.396 159.339 192.661 150.839 191.11 139.44C191.044 138.939 190.615 138.566 190.11 138.57H189.89C186.576 138.57 183.89 135.884 183.89 132.57C183.89 129.256 186.576 126.57 189.89 126.57C190.573 126.573 191.249 126.695 191.89 126.93C191.999 126.948 192.111 126.948 192.22 126.93C192.602 126.931 192.952 126.713 193.12 126.37C196.968 118.398 205.028 113.32 213.88 113.29H213.92ZM213.88 112.29C204.657 112.309 196.261 117.611 192.28 125.93C189.651 124.988 186.714 125.699 184.807 127.739C182.9 129.778 182.387 132.756 183.502 135.316C184.618 137.876 187.148 139.528 189.94 139.52H190.16C191.781 151.412 201.938 160.278 213.94 160.278C225.942 160.278 236.099 151.412 237.72 139.52H237.94C240.732 139.528 243.262 137.876 244.378 135.316C245.493 132.756 244.98 129.778 243.073 127.739C241.166 125.699 238.229 124.988 235.6 125.93C231.61 117.591 223.184 112.286 213.94 112.29H213.88Z" fill="black"/>
<path d="M213.58 135.11V138.73C213.58 139.636 214.314 140.37 215.22 140.37C216.127 140.37 216.864 139.637 216.87 138.73V135.14C216.87 134.703 216.696 134.285 216.386 133.977C216.076 133.669 215.657 133.497 215.22 133.5C214.324 133.494 213.591 134.214 213.58 135.11Z" fill="black"/>
<path d="M199.08 135.11V138.73C199.08 139.167 199.254 139.585 199.564 139.893C199.874 140.201 200.293 140.373 200.73 140.37C201.633 140.365 202.364 139.634 202.37 138.73V135.14C202.37 134.703 202.196 134.285 201.886 133.977C201.576 133.669 201.157 133.497 200.72 133.5C199.824 133.494 199.091 134.214 199.08 135.11Z" fill="black"/>
<path d="M233.48 371.99L209.18 347.73C206.934 345.469 203.877 344.201 200.69 344.21H65.1V392.21H165.85C179.105 392.21 189.85 381.465 189.85 368.21C189.85 367.83 189.85 367.53 189.85 367.53H190.28C193.382 367.584 196.34 368.843 198.53 371.04L216.48 389.04C219.517 392.077 223.943 393.263 228.091 392.151C232.239 391.04 235.48 387.8 236.591 383.651C237.703 379.503 236.517 375.077 233.48 372.04V371.99Z" fill="white"/>
<path d="M69.92 344.17H130.36C143.615 344.17 154.36 354.915 154.36 368.17C154.36 381.425 143.615 392.17 130.36 392.17H107.09C100.463 392.17 95.09 386.797 95.09 380.17C95.09 373.543 100.463 368.17 107.09 368.17H130.36" stroke="black" stroke-linecap="round" stroke-linejoin="round"/>
<path d="M148.11 344.17C161.365 344.17 172.11 354.915 172.11 368.17C172.11 381.425 161.365 392.17 148.11 392.17H124.83" stroke="black" stroke-linecap="round" stroke-linejoin="round"/>
<path d="M142.57 392.14H165.85C179.105 392.14 189.85 381.395 189.85 368.14C189.85 354.885 179.105 344.14 165.85 344.14H65.1V392.14H107.1" stroke="black" stroke-linecap="round" stroke-linejoin="round"/>
<path d="M92.13 344.17H200.69C203.881 344.181 206.936 345.462 209.18 347.73L233.48 372.03C235.739 374.282 237.009 377.34 237.009 380.53C237.009 383.72 235.739 386.778 233.48 389.03C231.228 391.289 228.17 392.56 224.98 392.56C221.79 392.56 218.732 391.289 216.48 389.03L198.53 371.03C196.301 368.798 193.284 367.534 190.13 367.51" stroke="black" stroke-linecap="round" stroke-linejoin="round"/>
<path d="M384.32 227.49L368.3 243.5" stroke="black"/>
<path d="M384.32 243.5L368.3 227.49" stroke="black"/>
<path d="M88.05 157.73C85.7905 159.982 84.5205 163.04 84.5205 166.23C84.5205 169.42 85.7905 172.478 88.05 174.73L111.56 198.24H25C18.3726 198.24 13 203.613 13 210.24C13 216.867 18.3726 222.24 25 222.24H72.48C65.8526 222.24 60.48 227.613 60.48 234.24C60.48 240.867 65.8526 246.24 72.48 246.24C65.8526 246.24 60.48 251.613 60.48 258.24C60.48 264.867 65.8526 270.24 72.48 270.24C65.8526 270.24 60.48 275.613 60.48 282.24C60.48 288.867 65.8526 294.24 72.48 294.24H169.59L169.23 198.24H145.45L105.02 157.73C100.334 153.044 92.7362 153.044 88.05 157.73Z" fill="white"/>
<path d="M92.09 246.25H108.28C114.907 246.25 120.28 251.623 120.28 258.25C120.28 264.877 114.907 270.25 108.28 270.25H91.8" stroke="black" stroke-linecap="round" stroke-linejoin="round"/>
<path d="M92.09 222.25H108.28C114.907 222.25 120.28 227.623 120.28 234.25C120.28 240.877 114.907 246.25 108.28 246.25H91.8" stroke="black" stroke-linecap="round" stroke-linejoin="round"/>
<path d="M145.44 198.25H169.23L169.59 294.25H97.59" stroke="black" stroke-linecap="round" stroke-linejoin="round"/>
<path d="M97.17 222.25H25C18.3726 222.25 13 216.877 13 210.25C13 203.623 18.3726 198.25 25 198.25H111.56L88.05 174.73C85.7905 172.478 84.5205 169.42 84.5205 166.23C84.5205 163.04 85.7905 159.982 88.05 157.73C90.3016 155.471 93.3602 154.201 96.55 154.201C99.7398 154.201 102.798 155.471 105.05 157.73L145.47 198.22" stroke="black" stroke-linecap="round" stroke-linejoin="round"/>
<path d="M145.44 246.34C125.83 240.34 111.56 228.01 111.56 200.45C111.56 199.71 111.56 198.98 111.56 198.25" stroke="black" stroke-linecap="round" stroke-linejoin="round"/>
<path d="M108.36 246.25C114.987 246.25 120.36 251.623 120.36 258.25C120.36 264.877 114.987 270.25 108.36 270.25" stroke="black" stroke-linecap="round" stroke-linejoin="round"/>
<path d="M72.48 246.25C65.8526 246.25 60.48 240.877 60.48 234.25C60.48 227.623 65.8526 222.25 72.48 222.25H108.15C114.777 222.25 120.15 227.623 120.15 234.25C120.15 240.877 114.777 246.25 108.15 246.25H72.48ZM72.48 246.25C65.8526 246.25 60.48 251.623 60.48 258.25C60.48 264.877 65.8526 270.25 72.48 270.25" stroke="black" stroke-linecap="round" stroke-linejoin="round"/>
<path fill-rule="evenodd" clip-rule="evenodd" d="M72.48 294.25C65.8526 294.25 60.48 288.877 60.48 282.25C60.48 275.623 65.8526 270.25 72.48 270.25H108.15C114.777 270.25 120.15 275.623 120.15 282.25C120.15 288.877 114.777 294.25 108.15 294.25H72.48Z" stroke="black" stroke-linecap="round" stroke-linejoin="round"/>
<defs>
<radialGradient id="paint0_radial_536_3310" cx="0" cy="0" r="1" gradientUnits="userSpaceOnUse" gradientTransform="translate(253.92 220.89) scale(163.64)">
<stop stop-color="#008EFF"/>
<stop offset="0.28" stop-color="#008EFF" stop-opacity="0.99"/>
<stop offset="0.42" stop-color="#008EFF" stop-opacity="0.96"/>
<stop offset="0.52" stop-color="#008EFF" stop-opacity="0.91"/>
<stop offset="0.61" stop-color="#008EFF" stop-opacity="0.84"/>
<stop offset="0.7" stop-color="#008EFF" stop-opacity="0.74"/>
<stop offset="0.77" stop-color="#008EFF" stop-opacity="0.62"/>
<stop offset="0.84" stop-color="#008EFF" stop-opacity="0.48"/>
<stop offset="0.9" stop-color="#008EFF" stop-opacity="0.32"/>
<stop offset="0.96" stop-color="#008EFF" stop-opacity="0.15"/>
<stop offset="1" stop-color="#008EFF" stop-opacity="0"/>
</radialGradient>
</defs>
</svg>
