<svg width="430" height="430" viewBox="0 0 430 430" fill="none" xmlns="http://www.w3.org/2000/svg">
<path d="M237.3 117.27C236.618 117.274 235.942 117.392 235.3 117.62C235.191 117.66 235.076 117.68 234.96 117.68C234.575 117.679 234.225 117.457 234.06 117.11C230.214 109.142 222.158 104.067 213.31 104.04C210.706 104.039 208.121 104.489 205.67 105.37C199.919 107.399 195.203 111.619 192.55 117.11C192.385 117.457 192.035 117.679 191.65 117.68C191.534 117.679 191.419 117.658 191.31 117.62C189.056 116.815 186.54 117.425 184.906 119.174C183.273 120.923 182.834 123.475 183.791 125.669C184.748 127.863 186.917 129.278 189.31 129.27H189.53C190.035 129.266 190.464 129.639 190.53 130.14C191.967 140.656 200.414 148.823 210.972 149.906C221.53 150.988 231.458 144.705 235 134.7C235.527 133.223 235.896 131.695 236.1 130.14C236.166 129.639 236.595 129.266 237.1 129.27H237.33C240.644 129.27 243.33 126.584 243.33 123.27C243.33 119.956 240.644 117.27 237.33 117.27H237.3ZM200.1 131.09C199.206 131.09 198.476 130.374 198.46 129.48V125.89C198.527 125.031 199.243 124.368 200.105 124.368C200.966 124.368 201.683 125.031 201.75 125.89V129.48C201.728 130.376 200.996 131.09 200.1 131.09ZM214.6 131.09C213.706 131.09 212.976 130.374 212.96 129.48V125.89C213.027 125.031 213.743 124.368 214.605 124.368C215.466 124.368 216.183 125.031 216.25 125.89V129.48C216.228 130.376 215.496 131.09 214.6 131.09Z" fill="url(#paint0_radial_536_3919)"/>
<path d="M113.49 210.79C111.364 204.483 110.348 197.854 110.49 191.2C110.49 190.96 110.49 190.71 110.49 190.47V189.47H91.14C90.1495 196.815 89.6551 204.218 89.6599 211.63V212.48H107.54H108.18H108.75L109.27 212.54C109.58 212.54 109.9 212.64 110.2 212.7C110.99 212.85 111.761 213.084 112.5 213.4C113.523 213.834 114.482 214.406 115.35 215.1C114.64 213.704 114.018 212.264 113.49 210.79ZM112.15 214.48C111.041 213.984 109.859 213.67 108.65 213.55H108.12H89.66C89.7439 221.251 90.3688 228.937 91.53 236.55H108.12H108.46C113.727 236.147 118.041 232.204 118.915 226.994C119.789 221.784 116.998 216.65 112.15 214.55V214.48ZM108.45 237.48H108.22H91.66C92.8877 245.268 94.6859 252.955 97.04 260.48H108.35C114.701 260.499 119.866 255.366 119.885 249.015C119.904 242.664 114.771 237.499 108.42 237.48H108.45ZM112.45 284.48H168.45L168.09 189.48H144.82C144.758 189.495 144.692 189.495 144.63 189.48C144.586 189.46 144.545 189.433 144.51 189.4L144.44 189.32L135.66 180.48L104.04 148.82C103.601 148.385 103.13 147.984 102.63 147.62C99.2921 155.46 96.5803 163.552 94.52 171.82L111.3 188.59C111.342 188.637 111.376 188.691 111.4 188.75C111.414 188.809 111.414 188.871 111.4 188.93C111.4 189.4 111.4 189.93 111.4 190.36C111.4 190.61 111.4 190.86 111.4 191.11C111.296 197.269 112.184 203.404 114.03 209.28C118.45 222.67 128.56 231.49 144.93 236.52C145.191 236.602 145.338 236.878 145.26 237.14C145.195 237.351 145.001 237.497 144.78 237.5H144.63C133.63 234.12 125.4 229.06 119.77 222.1C121.254 228.535 117.479 235.015 111.15 236.9C116.527 238.426 120.237 243.336 120.237 248.925C120.237 254.514 116.527 259.424 111.15 260.95C116.229 262.444 119.816 266.976 120.103 272.263C120.391 277.549 117.317 282.444 112.43 284.48H112.45ZM108.45 261.48H107.81H97.39C99.9126 269.373 103.035 277.063 106.73 284.48H107.53H108.37C114.383 284.045 119.04 279.039 119.04 273.01C119.04 266.981 114.383 261.975 108.37 261.54L108.45 261.48ZM107.3 285.48C107.67 286.22 108.05 286.95 108.43 287.68C108.43 286.94 108.43 286.21 108.43 285.48H107.3ZM94.3 172.99C93.0667 178.07 92.0667 183.233 91.3 188.48H109.75L94.3 172.99Z" fill="url(#paint1_radial_536_3919)"/>
<path d="M170.11 352.59C161.662 347.593 153.679 341.847 146.26 335.42H147.48C158.016 335.434 167.259 342.447 170.11 352.59Z" fill="url(#paint2_radial_536_3919)"/>
<path d="M188.72 358.92C188.718 359.923 188.651 360.925 188.52 361.92C185.23 360.51 181.99 358.98 178.81 357.36L178.33 357.11L177.84 356.85C175.64 355.71 173.46 354.51 171.32 353.27C169.291 344.712 162.842 337.892 154.41 335.39H165.22C169.693 335.388 174.073 336.669 177.84 339.08L178.33 339.4L178.81 339.74C185.038 344.14 188.734 351.295 188.72 358.92Z" fill="url(#paint3_radial_536_3919)"/>
<path d="M202.81 367.34C198.27 365.88 193.81 364.21 189.47 362.34C189.639 361.198 189.723 360.045 189.72 358.89V358.72C192.677 358.775 195.497 359.98 197.58 362.08L202.81 367.34Z" fill="url(#paint4_radial_536_3919)"/>
<path d="M235.45 374.31C225.084 373.197 214.849 371.084 204.89 368L198.29 361.4C196.008 359.109 192.923 357.796 189.69 357.74C189.316 349.979 185.278 342.856 178.81 338.55C178.65 338.44 178.49 338.33 178.33 338.24L177.84 337.92C176.057 336.849 174.145 336.009 172.15 335.42H200.07C203.121 335.413 206.048 336.627 208.2 338.79L232.51 363.09C235.439 366.028 236.562 370.313 235.45 374.31Z" fill="url(#paint5_radial_536_3919)"/>
<path d="M178.81 239.62V334.42H200.07C203.387 334.411 206.57 335.728 208.91 338.08L233.21 362.38C236.345 365.52 237.578 370.088 236.45 374.38C275.103 378.43 313.931 368.543 345.94 346.5H270.2C269.924 346.5 269.7 346.276 269.7 346C269.7 345.724 269.924 345.5 270.2 345.5H347.38C366.088 332.356 381.849 315.457 393.66 295.88V239.62H178.81ZM204.66 270.48C204.66 268.271 206.451 266.48 208.66 266.48H363.41C365.619 266.48 367.41 268.271 367.41 270.48C367.41 272.689 365.619 274.48 363.41 274.48H208.66C206.451 274.48 204.66 272.689 204.66 270.48ZM367.66 322.24H255.46C255.184 322.24 254.96 322.016 254.96 321.74C254.96 321.464 255.184 321.24 255.46 321.24H367.66C367.936 321.24 368.16 321.464 368.16 321.74C368.16 322.016 367.936 322.24 367.66 322.24ZM367.66 298.55H208.66C208.384 298.55 208.16 298.326 208.16 298.05C208.16 297.774 208.384 297.55 208.66 297.55H367.66C367.936 297.55 368.16 297.774 368.16 298.05C368.16 298.326 367.936 298.55 367.66 298.55ZM178.79 212.55V238.63H393.66V212.57L178.79 212.55ZM367.31 218.55L368.01 217.84L375.67 225.5L383.32 217.84L384.03 218.55L376.37 226.2L384.03 233.86L383.32 234.56L375.66 226.95L368 234.6L367.3 233.9L374.95 226.24L367.31 218.55ZM416.92 211.55C416.889 143.258 374.466 82.1616 310.49 58.27C306.66 59.34 296.36 63.48 292.74 77.15C290.74 84.7 285.2 90.46 278.41 94.03C273.15 96.8 267.41 97.74 262.79 101.67C258.603 105.326 255.642 110.183 254.31 115.58C251.09 127.83 239.66 133.09 236.12 134.48C232.656 145.12 222.299 151.954 211.155 150.954C200.01 149.955 191.035 141.386 189.52 130.3H189.3C186.532 130.266 184.044 128.603 182.953 126.059C181.862 123.515 182.373 120.567 184.256 118.538C186.14 116.509 189.042 115.781 191.66 116.68C194.571 110.598 199.906 106.022 206.36 104.07C210.29 102.48 221 97.17 224.11 85.39C225.437 79.9908 228.399 75.133 232.59 71.48C237.23 67.55 242.95 66.6 248.21 63.84C254.61 60.48 259.91 55.17 262.16 48.24C259.22 48.08 256.27 48 253.29 48C187.992 47.9971 128.939 86.8026 103.03 146.74C103.648 147.16 104.224 147.639 104.75 148.17L136.44 179.91C149.475 169.562 165.637 163.945 182.28 163.98H254.1C285.88 163.98 311.1 183.82 321.99 211.61H394.58V294.26C409.267 269.203 416.987 240.674 416.94 211.63L416.92 211.55Z" fill="url(#paint6_radial_536_3919)"/>
<path d="M115.34 215.17C114.472 214.476 113.513 213.904 112.49 213.47C112.8 212.57 113.14 211.67 113.49 210.79C114.012 212.288 114.63 213.751 115.34 215.17Z" fill="#303033"/>
<path d="M119.03 224.99C119.044 230.991 114.442 235.995 108.46 236.48C108.46 234.56 108.46 233.4 108.46 233.13C108.876 226.78 110.116 220.51 112.15 214.48C116.327 216.307 119.027 220.431 119.03 224.99Z" fill="#303033"/>
<path d="M119.13 248.99C119.128 255.052 114.428 260.075 108.38 260.48C108.38 250.4 108.38 242.25 108.45 237.48C114.478 237.921 119.141 242.946 119.13 248.99Z" fill="#303033"/>
<path d="M119.03 272.99C119.036 279.021 114.385 284.035 108.37 284.48C108.37 276.28 108.37 268.48 108.37 261.54C114.367 261.989 119.01 266.976 119.03 272.99Z" fill="#303033"/>
<path d="M120.03 272.99C120.031 267.469 116.422 262.597 111.14 260.99C116.517 259.464 120.227 254.554 120.227 248.965C120.227 243.376 116.517 238.466 111.14 236.94C117.469 235.055 121.244 228.575 119.76 222.14C125.39 229.14 133.62 234.14 144.62 237.54H144.77C144.991 237.537 145.185 237.391 145.25 237.18C145.328 236.918 145.181 236.642 144.92 236.56C128.55 231.56 118.44 222.71 114.02 209.32C118.751 198.073 126.184 188.166 135.66 180.48L144.4 189.23L144.47 189.31C144.505 189.343 144.546 189.37 144.59 189.39C144.652 189.405 144.718 189.405 144.78 189.39H168.07L168.43 284.39H112.43C117.002 282.436 119.985 277.962 120.03 272.99Z" fill="#303033"/>
<path d="M153.24 358.92C153.226 367.403 148.639 375.22 141.24 379.37H108.54C108.54 378.61 108.45 370.9 108.41 359.37H129.74C130.016 359.37 130.24 359.146 130.24 358.87C130.24 358.594 130.016 358.37 129.74 358.37H108.41C108.41 351.72 108.41 343.87 108.41 335.37H129.78C142.758 335.403 153.257 345.942 153.24 358.92Z" fill="#303033"/>
<path d="M170.98 358.92C170.976 367.393 166.41 375.208 159.03 379.37H143.21C151.176 374.127 155.374 364.736 153.968 355.304C152.562 345.871 145.809 338.113 136.66 335.42H147.47C158.006 335.434 167.249 342.447 170.1 352.59C170.684 354.649 170.98 356.78 170.98 358.92Z" fill="#303033"/>
<path d="M188.72 358.92C188.71 366.531 185.017 373.666 178.81 378.07C178.656 378.191 178.496 378.305 178.33 378.41C178.17 378.52 178.01 378.63 177.84 378.73C177.49 378.96 177.14 379.17 176.78 379.37H160.95C167.822 374.837 171.955 367.153 171.95 358.92C171.95 357.027 171.729 355.141 171.29 353.3C169.261 344.742 162.812 337.922 154.38 335.42H165.19C169.663 335.418 174.043 336.699 177.81 339.11L178.3 339.43L178.78 339.77C185.01 344.157 188.718 351.3 188.72 358.92Z" fill="#303033"/>
<path d="M214.37 378.89H179.37C184.859 375.004 188.505 369.029 189.45 362.37C189.619 361.228 189.703 360.075 189.7 358.92V358.75C192.657 358.805 195.477 360.01 197.56 362.11L202.79 367.34L214.37 378.89Z" fill="#303033"/>
<path d="M235.45 374.31C234.982 376.009 234.126 377.577 232.95 378.89L232.51 379.35H216.26L215.8 378.89L204.91 368L198.31 361.4C196.028 359.109 192.943 357.796 189.71 357.74C189.336 349.979 185.298 342.856 178.83 338.55C178.67 338.44 178.51 338.33 178.35 338.24L177.86 337.92C176.077 336.849 174.165 336.009 172.17 335.42H200.09C203.141 335.413 206.068 336.627 208.22 338.79L232.53 363.09C235.451 366.032 236.567 370.317 235.45 374.31Z" fill="#303033"/>
<path d="M327.75 238.65H178.81V212.57H322.37C325.395 220.672 327.178 229.185 327.66 237.82V238.3C327.74 238.42 327.74 238.53 327.75 238.65Z" fill="#303033"/>
<path d="M204.66 270.48C204.66 272.689 206.451 274.48 208.66 274.48H327.86V297.59H208.66C208.384 297.59 208.16 297.814 208.16 298.09C208.16 298.366 208.384 298.59 208.66 298.59H327.86V321.28H255.46C255.184 321.28 254.96 321.504 254.96 321.78C254.96 322.056 255.184 322.28 255.46 322.28H327.86V345.58H270.2C269.924 345.58 269.7 345.804 269.7 346.08C269.7 346.356 269.924 346.58 270.2 346.58H327.86V378.93H234.24C235.278 377.609 236.03 376.087 236.45 374.46C237.578 370.168 236.345 365.6 233.21 362.46L208.91 338.16C206.57 335.808 203.387 334.49 200.07 334.5H178.81V239.7H327.81C327.86 240.85 327.88 242 327.88 243.16V266.48H208.66C206.451 266.48 204.66 268.271 204.66 270.48Z" fill="#303033"/>
<path d="M188.72 358.92C188.71 366.531 185.017 373.666 178.81 378.07C178.656 378.191 178.496 378.305 178.33 378.41V339.48L178.81 339.82C185.014 344.204 188.708 351.323 188.72 358.92Z" fill="white"/>
<path d="M214.37 378.89H179.37C184.859 375.004 188.505 369.029 189.45 362.37C189.619 361.228 189.703 360.075 189.7 358.92V358.75C192.657 358.805 195.477 360.01 197.56 362.11L202.79 367.34L214.37 378.89Z" fill="white"/>
<path d="M235.45 374.31C234.982 376.009 234.126 377.577 232.95 378.89L232.51 379.35H216.26L215.8 378.89L204.91 368L198.31 361.4C196.028 359.109 192.943 357.796 189.71 357.74C189.336 349.979 185.298 342.856 178.83 338.55C178.67 338.44 178.51 338.33 178.35 338.24V335.42H200.09C203.141 335.413 206.068 336.627 208.22 338.79L232.53 363.09C235.451 366.032 236.567 370.317 235.45 374.31Z" fill="white"/>
<path d="M178.81 239.62V334.42H200.07C203.387 334.411 206.57 335.728 208.91 338.08L233.21 362.38C236.345 365.52 237.578 370.088 236.45 374.38C236.03 376.007 235.278 377.529 234.24 378.85H393.66V239.62H178.81ZM204.66 270.48C204.66 268.271 206.451 266.48 208.66 266.48H363.41C365.619 266.48 367.41 268.271 367.41 270.48C367.41 272.689 365.619 274.48 363.41 274.48H208.66C206.451 274.48 204.66 272.689 204.66 270.48ZM208.66 298.59C208.384 298.59 208.16 298.366 208.16 298.09C208.16 297.814 208.384 297.59 208.66 297.59H367.66C367.936 297.59 368.16 297.814 368.16 298.09C368.16 298.366 367.936 298.59 367.66 298.59H208.66ZM255 321.78C255 321.504 255.224 321.28 255.5 321.28H367.66C367.936 321.28 368.16 321.504 368.16 321.78C368.16 322.056 367.936 322.28 367.66 322.28H255.46C255.32 322.28 255.187 322.222 255.092 322.12C254.997 322.017 254.949 321.879 254.96 321.74L255 321.78ZM367.66 346.54H270.2C269.924 346.54 269.7 346.316 269.7 346.04C269.7 345.764 269.924 345.54 270.2 345.54H367.66C367.936 345.54 368.16 345.764 368.16 346.04C368.16 346.316 367.936 346.54 367.66 346.54ZM178.81 238.3V238.65H393.66V238.3H178.81Z" fill="white"/>
<path d="M178.33 335.42V338.24C178.49 338.33 178.65 338.44 178.81 338.55V335.42H178.33ZM178.33 335.42V338.24C178.49 338.33 178.65 338.44 178.81 338.55V335.42H178.33ZM178.33 335.42V338.24C178.49 338.33 178.65 338.44 178.81 338.55V335.42H178.33ZM178.33 335.42V338.24C178.49 338.33 178.65 338.44 178.81 338.55V335.42H178.33ZM178.33 339.42L177.84 339.1V378.72C178.01 378.62 178.17 378.51 178.33 378.4C178.496 378.295 178.656 378.181 178.81 378.06V339.76L178.33 339.42ZM215.78 378.88L216.24 379.34C216.41 379.51 216.59 379.68 216.77 379.83H231.96C232.14 379.68 232.32 379.51 232.49 379.34L232.93 378.88H215.78ZM178.78 237.81V238.64H393.66V237.81H178.78ZM177.78 335.41V337.91L178.27 338.23C178.43 338.32 178.59 338.43 178.75 338.54V335.41H177.78ZM178.27 335.41V338.23C178.43 338.32 178.59 338.43 178.75 338.54V335.41H178.27ZM178.27 335.41V338.23C178.43 338.32 178.59 338.43 178.75 338.54V335.41H178.27ZM178.27 335.41V338.23C178.43 338.32 178.59 338.43 178.75 338.54V335.41H178.27ZM178.27 335.41V338.23C178.43 338.32 178.59 338.43 178.75 338.54V335.41H178.27Z" fill="#303033"/>
<path d="M178.81 212.57V238.65H393.66V212.57H178.81ZM367.33 218.57L368.03 217.86L375.69 225.52L383.34 217.86L384.05 218.57L376.39 226.22L384.05 233.88L383.34 234.58L375.66 226.95L368 234.6L367.3 233.9L374.95 226.24L367.33 218.57Z" fill="white"/>
<path d="M243.3 123.27C243.3 126.584 240.614 129.27 237.3 129.27H237.07C236.565 129.266 236.136 129.639 236.07 130.14C235.866 131.695 235.497 133.223 234.97 134.7L205.66 105.37C208.111 104.489 210.696 104.039 213.3 104.04C222.148 104.067 230.204 109.142 234.05 117.11C234.215 117.457 234.565 117.679 234.95 117.68C235.066 117.68 235.181 117.66 235.29 117.62C235.932 117.392 236.608 117.274 237.29 117.27C238.883 117.267 240.412 117.898 241.539 119.024C242.667 120.149 243.3 121.677 243.3 123.27Z" fill="#303033"/>
<path d="M237.3 117.27C236.618 117.274 235.942 117.392 235.3 117.62C235.191 117.66 235.076 117.68 234.96 117.68C234.575 117.679 234.225 117.457 234.06 117.11C230.214 109.142 222.158 104.067 213.31 104.04C210.706 104.039 208.121 104.489 205.67 105.37C199.919 107.399 195.203 111.619 192.55 117.11C192.385 117.457 192.035 117.679 191.65 117.68C191.534 117.679 191.419 117.658 191.31 117.62C189.056 116.815 186.54 117.425 184.906 119.174C183.273 120.923 182.834 123.475 183.791 125.669C184.748 127.863 186.917 129.278 189.31 129.27H189.53C190.035 129.266 190.464 129.639 190.53 130.14C191.967 140.656 200.414 148.823 210.972 149.906C221.53 150.988 231.458 144.705 235 134.7C235.527 133.223 235.896 131.695 236.1 130.14C236.166 129.639 236.595 129.266 237.1 129.27H237.33C240.644 129.27 243.33 126.584 243.33 123.27C243.33 119.956 240.644 117.27 237.33 117.27H237.3ZM200.1 131.09C199.206 131.09 198.476 130.374 198.46 129.48V125.89C198.527 125.031 199.243 124.368 200.105 124.368C200.966 124.368 201.683 125.031 201.75 125.89V129.48C201.728 130.376 200.996 131.09 200.1 131.09ZM214.6 131.09C213.706 131.09 212.976 130.374 212.96 129.48V125.89C213.027 125.031 213.743 124.368 214.605 124.368C215.466 124.368 216.183 125.031 216.25 125.89V129.48C216.228 130.376 215.496 131.09 214.6 131.09Z" fill="white"/>
<path d="M178.81 339.77L178.33 339.43L177.84 339.11C174.073 336.699 169.693 335.418 165.22 335.42H154.41C162.841 337.922 169.291 344.742 171.32 353.3C171.759 355.141 171.98 357.027 171.98 358.92C171.985 367.153 167.852 374.837 160.98 379.37C158.975 380.689 156.784 381.701 154.48 382.37H165.26C169.31 382.375 173.291 381.324 176.81 379.32C177.17 379.12 177.52 378.91 177.87 378.68C178.04 378.58 178.2 378.47 178.36 378.36C178.526 378.255 178.686 378.141 178.84 378.02C185.054 373.622 188.748 366.483 188.748 358.87C188.748 351.257 185.054 344.118 178.84 339.72L178.81 339.77ZM170.11 352.59C167.259 342.447 158.016 335.434 147.48 335.42H136.66C145.807 338.115 152.558 345.875 153.962 355.307C155.365 364.739 151.166 374.128 143.2 379.37C141.202 380.689 139.018 381.7 136.72 382.37H147.47C147.74 382.37 148.01 382.37 148.28 382.37H148.35C152.097 382.249 155.759 381.22 159.02 379.37C166.4 375.207 170.966 367.393 170.97 358.92C170.977 356.78 170.687 354.65 170.11 352.59ZM129.74 335.42H64.98V382.42H101.66C96.2069 380.097 93.1348 374.264 94.3042 368.454C95.4736 362.643 100.563 358.452 106.49 358.42H129.76C130.036 358.42 130.26 358.644 130.26 358.92C130.26 359.196 130.036 359.42 129.76 359.42H106.47C100.119 359.42 94.97 364.569 94.97 370.92C94.97 377.271 100.119 382.42 106.47 382.42H124.07H124.2H130.7C134.416 382.285 138.046 381.256 141.28 379.42C150.58 374.174 155.173 363.316 152.459 352.99C149.745 342.663 140.407 335.465 129.73 335.47L129.74 335.42ZM232.51 363.09L208.2 338.79C206.048 336.627 203.121 335.413 200.07 335.42H172.15C174.145 336.009 176.057 336.849 177.84 337.92L178.33 338.24C178.49 338.33 178.65 338.44 178.81 338.55C185.266 342.863 189.293 349.984 189.66 357.74C192.893 357.796 195.978 359.109 198.26 361.4L204.86 368L215.75 378.89L216.21 379.35C216.38 379.52 216.56 379.69 216.74 379.84C221.08 383.648 227.57 383.648 231.91 379.84C232.09 379.69 232.27 379.52 232.44 379.35L232.88 378.89C234.056 377.577 234.912 376.009 235.38 374.31C236.509 370.326 235.414 366.042 232.51 363.09Z" fill="white"/>
<path d="M112.15 214.48C111.041 213.984 109.859 213.67 108.65 213.55H108.12H71.85C65.4987 213.55 60.35 218.699 60.35 225.05C60.35 231.401 65.4987 236.55 71.85 236.55H108.12H108.46C113.727 236.147 118.041 232.204 118.915 226.994C119.789 221.784 116.998 216.65 112.15 214.55V214.48ZM112.43 284.48H168.43L168.07 189.48H144.82C144.758 189.495 144.692 189.495 144.63 189.48C144.586 189.46 144.545 189.433 144.51 189.4L144.44 189.32L135.66 180.48L104.04 148.82C103.601 148.385 103.13 147.984 102.63 147.62C97.7666 144.106 91.0186 144.921 87.1324 149.493C83.2463 154.065 83.5283 160.856 87.78 165.09L94.52 171.82L111.3 188.59C111.342 188.637 111.376 188.691 111.4 188.75C111.414 188.809 111.414 188.871 111.4 188.93C111.4 189.4 111.4 189.93 111.4 190.36C111.4 190.61 111.4 190.86 111.4 191.11C111.296 197.269 112.184 203.404 114.03 209.28C118.45 222.67 128.56 231.49 144.93 236.52C145.191 236.602 145.338 236.878 145.26 237.14C145.195 237.351 145.001 237.497 144.78 237.5H144.63C133.63 234.12 125.4 229.06 119.77 222.1C121.254 228.535 117.479 235.015 111.15 236.9C116.527 238.426 120.237 243.336 120.237 248.925C120.237 254.514 116.527 259.424 111.15 260.95C116.229 262.444 119.816 266.976 120.103 272.263C120.391 277.549 117.317 282.444 112.43 284.48ZM108.43 261.48H107.79H71.85C65.4987 261.48 60.35 266.629 60.35 272.98C60.35 279.331 65.4987 284.48 71.85 284.48H107.53H108.37C114.383 284.045 119.04 279.039 119.04 273.01C119.04 266.981 114.383 261.975 108.37 261.54L108.43 261.48ZM108.5 237.48H108.27H71.85C65.4987 237.48 60.35 242.629 60.35 248.98C60.35 255.331 65.4987 260.48 71.85 260.48H108.38C114.731 260.499 119.896 255.366 119.915 249.015C119.934 242.664 114.801 237.499 108.45 237.48H108.5ZM113.5 210.75C111.374 204.443 110.358 197.814 110.5 191.16C110.5 190.92 110.5 190.67 110.5 190.43V189.43H24.5C18.1487 189.43 13 194.579 13 200.93C13 207.281 18.1487 212.43 24.5 212.43H107.65H108.29H108.86L109.38 212.49C109.69 212.49 110.01 212.59 110.31 212.65C111.1 212.8 111.871 213.034 112.61 213.35C113.633 213.784 114.592 214.356 115.46 215.05C114.714 213.673 114.056 212.25 113.49 210.79L113.5 210.75Z" fill="white"/>
<defs>
<radialGradient id="paint0_radial_536_3919" cx="0" cy="0" r="1" gradientUnits="userSpaceOnUse" gradientTransform="translate(166.455 127.04) scale(26.73 26.73)">
<stop stop-color="#008EFF"/>
<stop offset="0.28" stop-color="#008EFF" stop-opacity="0.99"/>
<stop offset="0.42" stop-color="#008EFF" stop-opacity="0.96"/>
<stop offset="0.52" stop-color="#008EFF" stop-opacity="0.91"/>
<stop offset="0.61" stop-color="#008EFF" stop-opacity="0.84"/>
<stop offset="0.7" stop-color="#008EFF" stop-opacity="0.74"/>
<stop offset="0.77" stop-color="#008EFF" stop-opacity="0.62"/>
<stop offset="0.84" stop-color="#008EFF" stop-opacity="0.48"/>
<stop offset="0.9" stop-color="#008EFF" stop-opacity="0.32"/>
<stop offset="0.96" stop-color="#008EFF" stop-opacity="0.15"/>
<stop offset="1" stop-color="#008EFF" stop-opacity="0"/>
</radialGradient>
<radialGradient id="paint1_radial_536_3919" cx="0" cy="0" r="1" gradientUnits="userSpaceOnUse" gradientTransform="translate(129.06 143.444) scale(56.81 56.81)">
<stop stop-color="#008EFF"/>
<stop offset="0.28" stop-color="#008EFF" stop-opacity="0.99"/>
<stop offset="0.42" stop-color="#008EFF" stop-opacity="0.96"/>
<stop offset="0.52" stop-color="#008EFF" stop-opacity="0.91"/>
<stop offset="0.61" stop-color="#008EFF" stop-opacity="0.84"/>
<stop offset="0.7" stop-color="#008EFF" stop-opacity="0.74"/>
<stop offset="0.77" stop-color="#008EFF" stop-opacity="0.62"/>
<stop offset="0.84" stop-color="#008EFF" stop-opacity="0.48"/>
<stop offset="0.9" stop-color="#008EFF" stop-opacity="0.32"/>
<stop offset="0.96" stop-color="#008EFF" stop-opacity="0.15"/>
<stop offset="1" stop-color="#008EFF" stop-opacity="0"/>
</radialGradient>
<radialGradient id="paint2_radial_536_3919" cx="0" cy="0" r="1" gradientUnits="userSpaceOnUse" gradientTransform="translate(117.569 344.01) scale(10.39 10.39)">
<stop stop-color="#008EFF"/>
<stop offset="0.28" stop-color="#008EFF" stop-opacity="0.99"/>
<stop offset="0.42" stop-color="#008EFF" stop-opacity="0.96"/>
<stop offset="0.52" stop-color="#008EFF" stop-opacity="0.91"/>
<stop offset="0.61" stop-color="#008EFF" stop-opacity="0.84"/>
<stop offset="0.7" stop-color="#008EFF" stop-opacity="0.74"/>
<stop offset="0.77" stop-color="#008EFF" stop-opacity="0.62"/>
<stop offset="0.84" stop-color="#008EFF" stop-opacity="0.48"/>
<stop offset="0.9" stop-color="#008EFF" stop-opacity="0.32"/>
<stop offset="0.96" stop-color="#008EFF" stop-opacity="0.15"/>
<stop offset="1" stop-color="#008EFF" stop-opacity="0"/>
</radialGradient>
<radialGradient id="paint3_radial_536_3919" cx="0" cy="0" r="1" gradientUnits="userSpaceOnUse" gradientTransform="translate(135.65 348.69) scale(15.33 15.33)">
<stop stop-color="#008EFF"/>
<stop offset="0.28" stop-color="#008EFF" stop-opacity="0.99"/>
<stop offset="0.42" stop-color="#008EFF" stop-opacity="0.96"/>
<stop offset="0.52" stop-color="#008EFF" stop-opacity="0.91"/>
<stop offset="0.61" stop-color="#008EFF" stop-opacity="0.84"/>
<stop offset="0.7" stop-color="#008EFF" stop-opacity="0.74"/>
<stop offset="0.77" stop-color="#008EFF" stop-opacity="0.62"/>
<stop offset="0.84" stop-color="#008EFF" stop-opacity="0.48"/>
<stop offset="0.9" stop-color="#008EFF" stop-opacity="0.32"/>
<stop offset="0.96" stop-color="#008EFF" stop-opacity="0.15"/>
<stop offset="1" stop-color="#008EFF" stop-opacity="0"/>
</radialGradient>
<radialGradient id="paint4_radial_536_3919" cx="0" cy="0" r="1" gradientUnits="userSpaceOnUse" gradientTransform="translate(131.397 363.05) scale(5.61 5.61)">
<stop stop-color="#008EFF"/>
<stop offset="0.28" stop-color="#008EFF" stop-opacity="0.99"/>
<stop offset="0.42" stop-color="#008EFF" stop-opacity="0.96"/>
<stop offset="0.52" stop-color="#008EFF" stop-opacity="0.91"/>
<stop offset="0.61" stop-color="#008EFF" stop-opacity="0.84"/>
<stop offset="0.7" stop-color="#008EFF" stop-opacity="0.74"/>
<stop offset="0.77" stop-color="#008EFF" stop-opacity="0.62"/>
<stop offset="0.84" stop-color="#008EFF" stop-opacity="0.48"/>
<stop offset="0.9" stop-color="#008EFF" stop-opacity="0.32"/>
<stop offset="0.96" stop-color="#008EFF" stop-opacity="0.15"/>
<stop offset="1" stop-color="#008EFF" stop-opacity="0"/>
</radialGradient>
<radialGradient id="paint5_radial_536_3919" cx="0" cy="0" r="1" gradientUnits="userSpaceOnUse" gradientTransform="translate(129.638 354.87) scale(26.39 26.39)">
<stop stop-color="#008EFF"/>
<stop offset="0.28" stop-color="#008EFF" stop-opacity="0.99"/>
<stop offset="0.42" stop-color="#008EFF" stop-opacity="0.96"/>
<stop offset="0.52" stop-color="#008EFF" stop-opacity="0.91"/>
<stop offset="0.61" stop-color="#008EFF" stop-opacity="0.84"/>
<stop offset="0.7" stop-color="#008EFF" stop-opacity="0.74"/>
<stop offset="0.77" stop-color="#008EFF" stop-opacity="0.62"/>
<stop offset="0.84" stop-color="#008EFF" stop-opacity="0.48"/>
<stop offset="0.9" stop-color="#008EFF" stop-opacity="0.32"/>
<stop offset="0.96" stop-color="#008EFF" stop-opacity="0.15"/>
<stop offset="1" stop-color="#008EFF" stop-opacity="0"/>
</radialGradient>
<radialGradient id="paint6_radial_536_3919" cx="0" cy="0" r="1" gradientUnits="userSpaceOnUse" gradientTransform="translate(259.99 204.96) scale(160.33 160.33)">
<stop stop-color="#008EFF"/>
<stop offset="0.28" stop-color="#008EFF" stop-opacity="0.99"/>
<stop offset="0.42" stop-color="#008EFF" stop-opacity="0.96"/>
<stop offset="0.52" stop-color="#008EFF" stop-opacity="0.91"/>
<stop offset="0.61" stop-color="#008EFF" stop-opacity="0.84"/>
<stop offset="0.7" stop-color="#008EFF" stop-opacity="0.74"/>
<stop offset="0.77" stop-color="#008EFF" stop-opacity="0.62"/>
<stop offset="0.84" stop-color="#008EFF" stop-opacity="0.48"/>
<stop offset="0.9" stop-color="#008EFF" stop-opacity="0.32"/>
<stop offset="0.96" stop-color="#008EFF" stop-opacity="0.15"/>
<stop offset="1" stop-color="#008EFF" stop-opacity="0"/>
</radialGradient>
</defs>
</svg>
