<svg xmlns="http://www.w3.org/2000/svg" xmlns:xlink="http://www.w3.org/1999/xlink" width="300" height="300" viewBox="0 0 430 430"><defs/><style>.st205{fill:none;stroke:#fff;stroke-miterlimit:10}.st206{fill:#fff}</style><g id="Layer_1"><defs><path id="SVGID_1_" d="M415.4 324.8H375V215H163.9V92.8h251.5z"/></defs><clipPath id="SVGID_2_"><use overflow="visible" xlink:href="#SVGID_1_"/></clipPath><g fill="#63c2ff" clip-path="url(#SVGID_2_)"><path d="M262 110.9a124 124 0 0137.7 244.9c-16.9 2.6-36.3-44.2-51.8-48.7-30.7-8.7-18-3.8-35.1-30.6-8.7-13.7-51.7-7.1-54.4-24.4A123.9 123.9 0 01262 110.9z" opacity=".1"/><path d="M261.9 110.9a123.8 123.8 0 1137.7 244.7c-16.9 2.6-36.2-44.1-51.7-48.6-30.5-8.8-17.9-3.9-35-30.5-8.8-13.7-51.8-7-54.5-24.4a123.9 123.9 0 01103.5-141.2z" opacity=".1"/><path d="M261.9 111a123.8 123.8 0 1137.7 244.7c-16.8 2.6-36.2-44-51.6-48.5-30.4-8.9-17.8-4-35-30.5-8.9-13.7-51.8-7-54.5-24.5A123.6 123.6 0 01261.9 111z" opacity=".1"/><path d="M261.8 111a123.7 123.7 0 0137.7 244.5c-16.8 2.6-36.1-43.8-51.6-48.4-30.3-8.9-17.7-4.2-34.9-30.5-9-13.8-51.9-6.9-54.6-24.5A123.7 123.7 0 01261.8 111z" opacity=".1"/><path d="M261.8 111a123.6 123.6 0 1137.6 244.4c-16.8 2.6-36-43.7-51.5-48.3-30.1-9-17.7-4.3-34.9-30.5-9.1-13.8-52-6.9-54.7-24.6a123.8 123.8 0 01103.5-141z" opacity=".1"/><path d="M261.8 111a123.6 123.6 0 1137.6 244.4c-16.8 2.6-36-43.6-51.4-48.2-30-9-17.6-4.4-34.8-30.5-9.2-13.8-52-6.9-54.8-24.7a123.6 123.6 0 01103.4-141z" opacity=".1"/><path d="M261.7 111.1a123.6 123.6 0 0137.6 244.2c-16.8 2.6-35.9-43.4-51.3-48.1-29.9-9.1-17.5-4.6-34.7-30.4-9.2-13.9-52.1-6.8-54.8-24.7a123.4 123.4 0 01103.2-141z" opacity=".1"/><path d="M261.7 111.1a123.4 123.4 0 1137.5 244.1c-16.8 2.6-35.9-43.3-51.3-48-29.7-9.1-17.5-4.7-34.7-30.4-9.3-13.9-52.1-6.8-54.9-24.8a123.7 123.7 0 01103.4-140.9z" opacity=".1"/><path d="M261.6 111.1a123.5 123.5 0 0137.6 244c-16.8 2.6-35.8-43.2-51.2-48-29.6-9.2-17.4-4.8-34.6-30.4-9.4-14-52.2-6.7-55-24.9a123.4 123.4 0 01103.2-140.7z" opacity=".1"/><path d="M261.6 111.1A123.4 123.4 0 11299.1 355c-16.8 2.6-35.7-43.1-51.1-47.9-29.5-9.2-17.3-5-34.6-30.4-9.5-14-52.2-6.7-55-24.9a123.4 123.4 0 01103.2-140.7z" opacity=".1"/><path d="M261.5 111.2A123.4 123.4 0 01299.1 355c-16.8 2.6-35.7-42.9-51-47.8-29.3-9.3-17.3-5.1-34.5-30.3-9.6-14-52.3-6.7-55.1-25a123.2 123.2 0 01103-140.7z" opacity=".1"/><path d="M261.5 111.2A123.3 123.3 0 11299 354.9c-16.7 2.6-35.6-42.8-51-47.7-29.2-9.3-17.2-5.2-34.4-30.3-9.7-14.1-52.3-6.6-55.2-25.1a123.3 123.3 0 01103.1-140.6z" opacity=".1"/><path d="M261.5 111.2A123.1 123.1 0 11299 354.7c-16.7 2.6-35.6-42.7-50.9-47.6-29.1-9.4-17.1-5.4-34.4-30.3-9.8-14.1-52.4-6.6-55.3-25.1a123.3 123.3 0 01103.1-140.5z" opacity=".1"/><path d="M261.4 111.2a123.2 123.2 0 0137.5 243.5c-16.7 2.6-35.5-42.5-50.8-47.5-28.9-9.4-17.1-5.5-34.3-30.3-9.8-14.2-52.5-6.5-55.3-25.2a123.2 123.2 0 01102.9-140.5z" opacity=".1"/><path d="M261.4 111.3a123 123 0 1137.4 243.3c-16.7 2.6-35.4-42.4-50.7-47.4-28.8-9.5-17-5.6-34.3-30.3-9.9-14.2-52.5-6.5-55.4-25.3a123.1 123.1 0 01103-140.3z" opacity=".1"/><path d="M261.3 111.3a123 123 0 1137.4 243.2c-16.7 2.6-35.4-42.3-50.7-47.3-28.7-9.5-17-5.8-34.2-30.2-10-14.2-52.6-6.4-55.5-25.3a123.3 123.3 0 01103-140.4z" opacity=".1"/><path d="M261.3 111.3a123 123 0 0137.5 243.2c-16.7 2.6-35.3-42.1-50.6-47.2-28.5-9.6-16.9-5.9-34.1-30.2-10.1-14.3-52.6-6.4-55.5-25.4a122.8 122.8 0 01102.7-140.4z" opacity=".1"/><path d="M261.2 111.3a123 123 0 0137.4 243c-16.7 2.6-35.2-42-50.5-47.2-28.4-9.6-16.8-6-34.1-30.2-10.2-14.3-52.7-6.4-55.6-25.4a123 123 0 01102.8-140.2z" opacity=".1"/><path d="M261.2 111.4a122.8 122.8 0 0137.4 242.8c-16.7 2.6-35.2-41.9-50.5-47.1-28.3-9.7-16.8-6.1-34-30.2-10.3-14.4-52.7-6.3-55.7-25.5a122.8 122.8 0 01102.8-140z" opacity=".1"/><path d="M261.1 111.4a122.9 122.9 0 0137.4 242.8c-16.7 2.6-35.1-41.7-50.4-47-28.1-9.7-16.7-6.3-33.9-30.2-10.4-14.4-52.8-6.3-55.8-25.6a122.8 122.8 0 01102.7-140z" opacity=".1"/><path d="M261.1 111.4a122.7 122.7 0 1137.3 242.7c-16.6 2.6-35.1-41.6-50.3-46.9-28-9.7-16.7-6.4-33.9-30.1-10.5-14.4-52.8-6.2-55.8-25.6a122.8 122.8 0 01102.7-140.1z" opacity=".2"/><path d="M261.1 111.4A122.8 122.8 0 01298.5 354c-16.6 2.6-35-41.4-50.2-46.8-27.9-9.8-16.6-6.5-33.8-30.1-10.5-14.5-52.9-6.2-55.9-25.7a122.5 122.5 0 01102.5-140z" opacity=".2"/><path d="M261 111.5A122.6 122.6 0 11298.3 354c-16.6 2.6-34.9-41.3-50.2-46.7-27.7-9.8-16.6-6.6-33.8-30.1-10.6-14.5-53-6.2-56-25.8A122.8 122.8 0 01261 111.5z" opacity=".2"/><path d="M261 111.5a122.6 122.6 0 0137.3 242.3c-16.6 2.6-34.9-41.2-50.1-46.6-27.6-9.9-16.5-6.8-33.7-30.1-10.7-14.6-53-6.1-56-25.8A122.5 122.5 0 01261 111.5z" opacity=".2"/><path d="M260.9 111.5a122.6 122.6 0 0137.3 242.3c-16.6 2.6-34.8-41-50-46.5-27.5-9.9-16.5-6.9-33.6-30-10.8-14.6-53.1-6.1-56.1-25.9a122.6 122.6 0 01102.4-139.9z" opacity=".2"/><path d="M260.9 111.5a122.5 122.5 0 0137.3 242.2c-16.6 2.6-34.8-40.9-49.9-46.4-27.3-10-16.4-7-33.6-30-10.9-14.6-53.1-6-56.2-26a122.5 122.5 0 01102.4-139.8z" opacity=".2"/><path d="M260.8 111.6a122.3 122.3 0 1137.2 242c-16.6 2.6-34.7-40.8-49.9-46.4-27.2-10-16.4-7.1-33.5-30-11-14.7-53.2-6-56.3-26a122.6 122.6 0 01102.5-139.6z" opacity=".2"/><path d="M260.8 111.6A122.4 122.4 0 11298 353.5c-16.6 2.5-34.6-40.6-49.8-46.3-27-10-16.3-7.3-33.5-30-11.1-14.7-53.2-6-56.3-26.1a122.5 122.5 0 01102.4-139.5z" opacity=".2"/><path d="M260.8 111.6A122.3 122.3 0 11298 353.4c-16.5 2.5-34.6-40.5-49.7-46.2-26.9-10.1-16.3-7.4-33.4-30-11.2-14.8-53.3-5.9-56.4-26.1a122.3 122.3 0 01102.3-139.5z" opacity=".2"/><path d="M260.7 111.6a122.3 122.3 0 0137.2 241.7c-16.5 2.5-34.5-40.4-49.6-46.1-26.8-10.1-16.3-7.5-33.3-29.9-11.3-14.8-53.3-5.9-56.5-26.2a122.3 122.3 0 01102.2-139.5z" opacity=".2"/><path d="M260.7 111.7a122.2 122.2 0 0137.2 241.5c-16.5 2.5-34.4-40.2-49.6-46-26.6-10.2-16.2-7.6-33.3-29.9-11.4-14.8-53.4-5.8-56.5-26.3a122 122 0 01102.2-139.3z" opacity=".2"/><path d="M260.6 111.7a122 122 0 1137.2 241.4c-16.5 2.5-34.4-40.1-49.5-45.9-26.5-10.2-16.2-7.8-33.2-29.9-11.5-14.9-53.5-5.8-56.6-26.3a122 122 0 01102.1-139.3z" opacity=".2"/><path d="M260.6 111.7a122.1 122.1 0 1137.2 241.4c-16.5 2.5-34.3-40-49.4-45.8-26.4-10.2-16.1-7.9-33.2-29.9-11.5-14.9-53.5-5.8-56.7-26.4a122 122 0 01102.1-139.3z" opacity=".2"/><path d="M260.5 111.7A122 122 0 01297.7 353c-16.5 2.5-34.3-39.8-49.3-45.7-26.2-10.3-16.1-8-33.1-29.8-11.6-15-53.6-5.7-56.8-26.5a122 122 0 01102-139.3z" opacity=".2"/><path d="M260.5 111.8a121.9 121.9 0 1137.1 241.1c-16.5 2.5-34.2-39.7-49.3-45.6-26.1-10.3-16.1-8.1-33-29.8-11.7-15-53.6-5.7-56.8-26.5a122 122 0 01102-139.2z" opacity=".2"/><path d="M260.4 111.8a122 122 0 0137.1 241.1c-16.5 2.5-34.1-39.6-49.2-45.6-26-10.4-16-8.2-33-29.8-11.8-15-53.7-5.6-56.9-26.6a122 122 0 01102-139.1z" opacity=".2"/><path d="M260.4 111.8a122 122 0 0137.1 240.9c-16.5 2.5-34.1-39.4-49.1-45.5-25.8-10.4-16-8.4-32.9-29.8-11.9-15.1-53.7-5.6-57-26.7a121.8 121.8 0 01101.9-138.9z" opacity=".2"/><path d="M260.4 111.8a121.8 121.8 0 1137 240.8c-16.4 2.5-34-39.3-49-45.4-25.7-10.4-15.9-8.5-32.8-29.8-12-15.1-53.8-5.6-57.1-26.7a122 122 0 01101.9-138.9z" opacity=".2"/><path d="M260.3 111.9a121.9 121.9 0 0137.1 240.7c-16.4 2.5-33.9-39.1-49-45.3-25.6-10.5-15.9-8.6-32.8-29.7-12.1-15.2-53.8-5.5-57.1-26.8a121.7 121.7 0 01101.8-138.9z" opacity=".2"/><path d="M260.3 111.9a121.7 121.7 0 1137 240.6c-16.4 2.5-33.9-39-48.9-45.2-25.4-10.5-15.9-8.7-32.7-29.7-12.2-15.2-53.9-5.5-57.2-26.9a121.7 121.7 0 01101.8-138.8z" opacity=".2"/><path d="M260.2 111.9a121.8 121.8 0 0137.1 240.5c-16.4 2.5-33.8-38.9-48.8-45.1-25.3-10.5-15.8-8.8-32.7-29.7-12.3-15.2-54-5.4-57.3-26.9a121.7 121.7 0 01101.7-138.8z" opacity=".3"/><path d="M260.2 111.9a121.6 121.6 0 1137 240.4c-16.4 2.5-33.8-38.7-48.7-45-25.2-10.6-15.8-8.9-32.6-29.7-12.4-15.3-54-5.4-57.3-27a121.5 121.5 0 01101.6-138.7z" opacity=".3"/><path d="M260.1 112a121.6 121.6 0 0137 240.2c-16.4 2.5-33.7-38.6-48.7-44.9-25-10.6-15.8-9.1-32.5-29.7-12.5-15.3-54.1-5.3-57.4-27A121.5 121.5 0 01260.1 112z" opacity=".3"/><path d="M260.1 112a121.6 121.6 0 0137 240.2c-16.4 2.5-33.6-38.5-48.6-44.8-24.9-10.6-15.7-9.2-32.5-29.6-12.6-15.4-54.1-5.3-57.5-27.1A121.5 121.5 0 01260.1 112z" opacity=".3"/><path d="M260.1 112A121.5 121.5 0 11297 352c-16.4 2.5-33.6-38.3-48.5-44.8-24.8-10.7-15.7-9.3-32.4-29.6-12.7-15.4-54.2-5.3-57.6-27.2A121.4 121.4 0 01260.1 112z" opacity=".3"/><path d="M260 112a121.4 121.4 0 0137 240c-16.4 2.5-33.5-38.2-48.5-44.7-24.6-10.7-15.7-9.4-32.4-29.6-12.8-15.5-54.2-5.2-57.6-27.2A121.5 121.5 0 01260 112z" opacity=".3"/><path d="M260 112.1a121.3 121.3 0 0137 239.8c-16.3 2.5-33.4-38-48.4-44.6-24.5-10.7-15.7-9.5-32.3-29.6-12.9-15.5-54.3-5.2-57.7-27.3A121 121 0 01260 112.1z" opacity=".3"/><path d="M259.9 112.1a121.2 121.2 0 1136.9 239.7c-16.3 2.5-33.4-37.9-48.3-44.5-24.4-10.8-15.6-9.6-32.2-29.5-13-15.5-54.3-5.1-57.8-27.4a121.2 121.2 0 01101.4-138.3z" opacity=".3"/><path d="M259.9 112.1a121.1 121.1 0 1136.8 239.6c-16.3 2.5-33.3-37.8-48.2-44.4-24.2-10.8-15.6-9.7-32.2-29.5-13-15.6-54.4-5.1-57.8-27.4a121.2 121.2 0 01101.4-138.3z" opacity=".3"/><path d="M259.8 112.1a121.2 121.2 0 0136.9 239.5c-16.3 2.5-33.2-37.6-48.2-44.3-24.1-10.8-15.6-9.8-32.1-29.5-13.1-15.6-54.5-5.1-57.9-27.5a121.2 121.2 0 01101.3-138.2z" opacity=".3"/><path d="M259.8 112.2a121.1 121.1 0 0136.8 239.4c-16.3 2.5-33.2-37.5-48.1-44.2-24-10.8-15.5-10-32.1-29.5-13.2-15.7-54.5-5-58-27.6-10-66.1 35.3-128 101.4-138.1z" opacity=".3"/><path d="M259.8 112.2a121 121 0 1136.9 239.3c-16.3 2.5-33.1-37.3-48-44.1-23.8-10.9-15.5-10.1-32-29.5-13.3-15.7-54.6-5-58.1-27.6a121 121 0 01101.2-138.1z" opacity=".3"/><path d="M259.7 112.2a121 121 0 1136.8 239.2c-16.3 2.5-33.1-37.2-47.9-44-23.7-10.9-15.5-10.2-31.9-29.4-13.4-15.7-54.6-4.9-58.1-27.7a121 121 0 01101.1-138.1z" opacity=".3"/><path d="M259.7 112.2a120.8 120.8 0 1136.8 239c-16.3 2.5-33-37.1-47.9-44-23.6-10.9-15.5-10.3-31.9-29.4-13.5-15.8-54.7-4.9-58.2-27.7a121 121 0 01101.2-137.9z" opacity=".3"/><path d="M259.6 112.2a120.9 120.9 0 1136.8 239c-16.3 2.5-32.9-36.9-47.8-43.9-23.4-11-15.4-10.4-31.8-29.4-13.6-15.8-54.7-4.9-58.3-27.8a121 121 0 01101.1-137.9z" opacity=".3"/><path d="M259.6 112.3a120.8 120.8 0 1136.8 238.8c-16.2 2.5-32.9-36.8-47.7-43.8-23.3-11-15.4-10.5-31.7-29.4-13.7-15.9-54.8-4.8-58.3-27.9a120.5 120.5 0 01100.9-137.7z" opacity=".3"/><path d="M259.5 112.3A120.7 120.7 0 11296.2 351c-16.2 2.5-32.8-36.6-47.6-43.7-23.2-11-15.4-10.6-31.7-29.4-13.8-15.9-54.9-4.8-58.4-27.9a120.8 120.8 0 01101-137.7z" opacity=".3"/><path d="M259.5 112.3a120.8 120.8 0 0136.8 238.6c-16.2 2.5-32.7-36.5-47.6-43.6-23.1-11-15.4-10.7-31.6-29.3-13.9-15.9-54.9-4.7-58.5-28a120.7 120.7 0 01100.9-137.7z" opacity=".3"/><path d="M259.4 112.3a120.6 120.6 0 1136.7 238.5c-16.2 2.5-32.7-36.4-47.5-43.5-22.9-11.1-15.4-10.8-31.6-29.3-14-16-55-4.7-58.6-28.1a121 121 0 01101-137.6z" opacity=".3"/><path d="M259.4 112.4a120.6 120.6 0 0136.7 238.3c-16.2 2.5-32.6-36.2-47.4-43.4-22.8-11.1-15.3-10.9-31.5-29.3-14.1-16-55-4.7-58.6-28.1a120.5 120.5 0 01100.8-137.5z" opacity=".3"/><path d="M259.4 112.4A120.6 120.6 0 11296 350.7c-16.2 2.5-32.5-36.1-47.3-43.3-22.7-11.1-15.3-11-31.4-29.3-14.2-16.1-55.1-4.6-58.7-28.2a120.5 120.5 0 01100.8-137.5z" opacity=".4"/><path d="M259.3 112.4a120.5 120.5 0 1136.6 238.2c-16.2 2.5-32.5-35.9-47.3-43.2-22.5-11.1-15.3-11.2-31.4-29.2-14.3-16.1-55.1-4.6-58.8-28.3a120.7 120.7 0 01100.9-137.5z" opacity=".4"/><path d="M259.3 112.4A120.6 120.6 0 01296 350.5c-16.2 2.5-32.4-35.8-47.2-43.2-22.4-11.2-15.3-11.3-31.3-29.2-14.4-16.1-55.2-4.5-58.8-28.3a120.3 120.3 0 01100.6-137.4z" opacity=".4"/><path d="M259.2 112.5a120.4 120.4 0 1136.6 238c-16.2 2.5-32.4-35.7-47.1-43.1-22.3-11.2-15.3-11.4-31.3-29.2-14.5-16.2-55.2-4.5-58.9-28.4-10-65.7 35-127.2 100.7-137.3z" opacity=".4"/><path d="M259.2 112.5a120.3 120.3 0 1136.6 237.8c-16.1 2.5-32.3-35.5-47-43-22.1-11.2-15.2-11.5-31.2-29.2-14.6-16.2-55.3-4.5-59-28.5a120.2 120.2 0 01100.6-137.1z" opacity=".4"/><path d="M259.1 112.5a120.3 120.3 0 0136.6 237.8c-16.1 2.5-32.2-35.4-47-42.9-22-11.2-15.2-11.6-31.1-29.2-14.7-16.3-55.4-4.4-59.1-28.5-10-65.7 35-127.1 100.6-137.2z" opacity=".4"/><path d="M259.1 112.5a120.2 120.2 0 0136.6 237.6c-16.1 2.5-32.2-35.2-46.9-42.8-21.9-11.2-15.2-11.7-31.1-29.1-14.8-16.3-55.4-4.4-59.1-28.6a120.2 120.2 0 01100.5-137.1z" opacity=".4"/><path d="M259.1 112.6a120.1 120.1 0 1136.5 237.5c-16.1 2.5-32.1-35.1-46.8-42.7-21.7-11.3-15.2-11.8-31-29.1-14.9-16.3-55.5-4.3-59.2-28.6a120.2 120.2 0 01100.5-137.1z" opacity=".4"/><path d="M259 112.6A120.1 120.1 0 01295.6 350c-16.1 2.5-32-34.9-46.7-42.6-21.6-11.3-15.2-11.9-31-29.1-15-16.4-55.5-4.3-59.3-28.7a120.1 120.1 0 01100.4-137z" opacity=".4"/><path d="M259 112.6a120 120 0 0136.5 237.3c-16.1 2.5-32-34.8-46.7-42.5-21.5-11.3-15.2-12-30.9-29.1-15.1-16.4-55.6-4.2-59.4-28.8A120.1 120.1 0 01259 112.6z" opacity=".4"/><path d="M258.9 112.6a120 120 0 0136.6 237.2c-16.1 2.5-31.9-34.7-46.6-42.4-21.3-11.3-15.1-12.1-30.8-29-15.2-16.4-55.6-4.2-59.4-28.8a120 120 0 01100.2-137z" opacity=".4"/><path d="M258.9 112.7a120 120 0 1136.5 237.1c-16.1 2.5-31.8-34.5-46.5-42.4-21.2-11.3-15.1-12.2-30.8-29-15.3-16.5-55.7-4.2-59.5-28.9a119.9 119.9 0 01100.3-136.8z" opacity=".4"/><path d="M258.8 112.7a119.8 119.8 0 1136.5 236.9c-16.1 2.5-31.8-34.4-46.5-42.3-21.1-11.4-15.1-12.3-30.7-29-15.4-16.5-55.7-4.1-59.6-29a120 120 0 01100.3-136.6z" opacity=".4"/><path d="M258.8 112.7a119.9 119.9 0 0136.5 236.9c-16 2.5-31.7-34.2-46.4-42.2-21-11.4-15.1-12.4-30.6-29-15.5-16.6-55.8-4.1-59.6-29a119.7 119.7 0 01100.1-136.7z" opacity=".4"/><path d="M258.7 112.7a119.8 119.8 0 0136.5 236.7c-16 2.5-31.7-34.1-46.3-42.1-20.8-11.4-15.1-12.5-30.6-29-15.6-16.6-55.9-4-59.7-29.1a119.8 119.8 0 01100.1-136.5z" opacity=".4"/><path d="M258.7 112.8a119.7 119.7 0 1136.4 236.6c-16 2.5-31.6-33.9-46.2-42-20.7-11.4-15.1-12.6-30.5-28.9-15.7-16.6-55.9-4-59.8-29.2a119.7 119.7 0 01100.1-136.5z" opacity=".4"/><path d="M258.7 112.8a119.7 119.7 0 1136.4 236.6c-16 2.5-31.5-33.8-46.2-41.9-20.6-11.4-15.1-12.7-30.5-28.9-15.8-16.7-56-4-59.9-29.2a119.8 119.8 0 01100.2-136.6z" opacity=".4"/><path d="M258.6 112.8A119.5 119.5 0 11295 349.2c-16 2.5-31.5-33.6-46.1-41.8-20.4-11.4-15.1-12.8-30.4-28.9-15.9-16.7-56-3.9-59.9-29.3a119.6 119.6 0 01100-136.4z" opacity=".4"/><path d="M258.6 112.8a119.5 119.5 0 1136.3 236.3c-16 2.5-31.4-33.5-46-41.7-20.3-11.5-15-12.9-30.3-28.9-16.1-16.7-56.1-3.9-60-29.3a119.6 119.6 0 01100-136.4z" opacity=".4"/><path d="M258.5 112.9a119.6 119.6 0 0136.4 236.2c-16 2.5-31.3-33.3-45.9-41.6-20.2-11.5-15-13-30.3-28.9-16.2-16.8-56.1-3.8-60.1-29.4a119.5 119.5 0 0199.9-136.3z" opacity=".4"/><path d="M258.5 112.9A119.4 119.4 0 01294.8 349c-16 2.5-31.3-33.2-45.9-41.6-20.1-11.5-15-13.1-30.2-28.8-16.3-16.8-56.2-3.8-60.1-29.5a119.4 119.4 0 0199.9-136.2z" opacity=".5"/><path d="M258.4 112.9a119.5 119.5 0 0136.4 236c-16 2.5-31.2-33.1-45.8-41.5-19.9-11.5-15-13.2-30.2-28.8-16.4-16.9-56.2-3.8-60.2-29.5a119.4 119.4 0 0199.8-136.2z" opacity=".5"/><path d="M258.4 112.9a119.3 119.3 0 1136.3 235.9c-15.9 2.5-31.1-32.9-45.7-41.4-19.8-11.5-15-13.3-30.1-28.8-16.5-16.9-56.3-3.7-60.3-29.6-10-65.1 34.7-126 99.8-136.1z" opacity=".5"/><path d="M258.4 113a119.2 119.2 0 1136.3 235.7c-15.9 2.5-31.1-32.8-45.6-41.3-19.7-11.5-15-13.4-30-28.8-16.6-16.9-56.4-3.7-60.4-29.7A119.1 119.1 0 01258.4 113z" opacity=".5"/><path d="M258.3 113a119.3 119.3 0 0136.3 235.7c-15.9 2.5-31-32.6-45.6-41.2-19.5-11.5-15-13.5-30-28.7-16.7-17-56.4-3.6-60.4-29.7A119.3 119.3 0 01258.3 113z" opacity=".5"/><path d="M258.3 113a119.2 119.2 0 0136.3 235.5c-15.9 2.4-31-32.5-45.5-41.1-19.4-11.6-15-13.6-29.9-28.7-16.8-17-56.5-3.6-60.5-29.8A119 119 0 01258.3 113z" opacity=".5"/><path d="M258.2 113a119 119 0 0136.2 235.4c-15.9 2.4-30.9-32.3-45.4-41-19.3-11.6-15-13.7-29.9-28.7-16.9-17-56.5-3.6-60.6-29.9A119.3 119.3 0 01258.2 113z" opacity=".5"/><path d="M258.2 113.1a119 119 0 0136.3 235.3c-15.9 2.4-30.8-32.2-45.3-40.9-19.2-11.6-15-13.8-29.8-28.7-17-17.1-56.6-3.5-60.6-29.9a118.8 118.8 0 0199.4-135.8z" opacity=".5"/><path d="M258.1 113.1a119 119 0 1136.2 235.2c-15.9 2.4-30.8-32-45.3-40.8-19-11.6-15-13.9-29.7-28.7-17.1-17.1-56.6-3.5-60.7-30a119 119 0 0199.5-135.7z" opacity=".5"/><path d="M258.1 113.1a118.8 118.8 0 1136.2 235c-15.9 2.4-30.7-31.9-45.2-40.8-18.9-11.6-15-14-29.7-28.6-17.2-17.1-56.7-3.4-60.8-30.1a118.9 118.9 0 0199.5-135.5z" opacity=".5"/><path d="M258.1 113.1a118.9 118.9 0 1136.2 235c-15.9 2.4-30.6-31.7-45.1-40.7-18.8-11.6-14.9-14.1-29.6-28.6-17.3-17.2-56.7-3.4-60.9-30.1a118.9 118.9 0 0199.4-135.6z" opacity=".5"/><path d="M258 113.2A118.8 118.8 0 01294.2 348c-15.8 2.4-30.6-31.6-45-40.6-18.7-11.6-14.9-14.2-29.5-28.6-17.4-17.2-56.8-3.4-60.9-30.2A118.5 118.5 0 01258 113.2z" opacity=".5"/><path d="M258 113.2A118.8 118.8 0 11294.1 348c-15.8 2.4-30.5-31.4-45-40.5-18.5-11.6-14.9-14.3-29.5-28.6-17.5-17.2-56.9-3.3-61-30.2A118.9 118.9 0 01258 113.2z" opacity=".5"/><path d="M257.9 113.2A118.7 118.7 0 01294 347.9c-15.8 2.4-30.5-31.3-44.9-40.4-18.4-11.6-14.9-14.4-29.4-28.6-17.7-17.3-56.9-3.3-61.1-30.3a118.8 118.8 0 0199.3-135.4z" opacity=".5"/><path d="M257.9 113.2A118.5 118.5 0 11294 347.7c-15.8 2.4-30.4-31.1-44.8-40.3-18.3-11.6-14.9-14.5-29.4-28.5-17.8-17.3-57-3.2-61.1-30.4a118.6 118.6 0 0199.2-135.3z" opacity=".5"/><path d="M257.8 113.3a118.6 118.6 0 1136.1 234.5c-15.8 2.4-30.3-31-44.7-40.2-18.1-11.7-14.9-14.6-29.3-28.5-17.9-17.3-57-3.2-61.2-30.4a118.6 118.6 0 0199.1-135.4z" opacity=".5"/><path d="M257.8 113.3a118.5 118.5 0 1136.1 234.3c-15.8 2.4-30.3-30.8-44.7-40.1-18-11.7-14.9-14.7-29.2-28.5-18-17.4-57.1-3.2-61.3-30.5a118.5 118.5 0 0199.1-135.2z" opacity=".5"/><path d="M257.7 113.3a118.4 118.4 0 1136 234.2c-15.8 2.4-30.2-30.7-44.6-40.1-17.9-11.7-14.9-14.7-29.2-28.5-18.1-17.4-57.1-3.1-61.4-30.6a118.7 118.7 0 0199.2-135z" opacity=".5"/><path d="M257.7 113.3a118.5 118.5 0 0136.1 234.1c-15.8 2.4-30.2-30.5-44.5-40-17.8-11.7-14.9-14.8-29.1-28.4-18.2-17.4-57.2-3.1-61.4-30.6a118.3 118.3 0 0198.9-135.1z" opacity=".5"/><path d="M257.7 113.4a118.4 118.4 0 0136 234c-15.8 2.4-30.1-30.4-44.4-39.9-17.6-11.7-14.9-14.9-29.1-28.4-18.3-17.5-57.2-3-61.5-30.7a118.3 118.3 0 0199-135z" opacity=".5"/><path d="M257.6 113.4c64.6-9.9 125 34.4 135 98.9 9.9 64.6-34.4 125-98.9 135-15.7 2.4-30-30.2-44.4-39.8-17.5-11.7-14.9-15-29-28.4-18.4-17.5-57.3-3-61.6-30.8-10-64.6 34.3-125 98.9-134.9z" opacity=".6"/><path d="M257.6 113.4a118.3 118.3 0 0136 233.8c-15.7 2.4-30-30.1-44.3-39.7-17.4-11.7-14.9-15.1-28.9-28.4-18.5-17.5-57.4-2.9-61.7-30.8-10-64.6 34.3-125 98.9-134.9z" opacity=".6"/><path d="M257.5 113.4a118.2 118.2 0 0136 233.7c-15.7 2.4-29.9-29.9-44.2-39.6-17.3-11.7-14.9-15.2-28.9-28.4-18.7-17.5-57.4-2.9-61.7-30.9a118.2 118.2 0 0198.8-134.8z" opacity=".6"/><path d="M257.5 113.5A118.1 118.1 0 11293.4 347c-15.7 2.4-29.9-29.8-44.2-39.5-17.2-11.7-14.9-15.3-28.8-28.3-18.8-17.6-57.5-2.9-61.8-30.9a118.3 118.3 0 0198.9-134.8z" opacity=".6"/><path d="M257.4 113.5a118.1 118.1 0 0136 233.4c-15.7 2.4-29.8-29.6-44.1-39.4-17-11.7-14.9-15.4-28.8-28.3-18.9-17.6-57.5-2.8-61.9-31a118.2 118.2 0 0198.8-134.7z" opacity=".6"/><path d="M257.4 113.5a118 118 0 0135.9 233.3c-15.7 2.4-29.7-29.5-44-39.3-16.9-11.7-14.9-15.5-28.7-28.3-19-17.6-57.6-2.8-61.9-31.1a118 118 0 0198.7-134.6z" opacity=".6"/><path d="M257.4 113.5a118 118 0 0135.9 233.3c-15.7 2.4-29.7-29.3-43.9-39.3-16.8-11.7-14.9-15.6-28.6-28.3-19.1-17.7-57.6-2.7-62-31.1a117.8 117.8 0 0198.6-134.6z" opacity=".6"/><path d="M257.3 113.6a117.9 117.9 0 1135.9 233.1c-15.7 2.4-29.6-29.1-43.9-39.2-16.7-11.7-14.9-15.7-28.6-28.2-19.2-17.7-57.7-2.7-62.1-31.2a118 118 0 0198.7-134.5z" opacity=".6"/><path d="M257.3 113.6a117.8 117.8 0 1135.8 233c-15.6 2.4-29.6-29-43.8-39.1-16.5-11.7-14.9-15.8-28.5-28.2-19.3-17.7-57.7-2.7-62.2-31.3a118 118 0 0198.7-134.4z" opacity=".6"/><path d="M257.2 113.6a117.8 117.8 0 0135.9 232.9c-15.6 2.4-29.5-28.8-43.7-39-16.4-11.7-14.9-15.8-28.4-28.2-19.5-17.7-57.8-2.6-62.2-31.3a117.7 117.7 0 0198.4-134.4z" opacity=".6"/><path d="M257.2 113.6A117.7 117.7 0 11293 346.4c-15.6 2.4-29.4-28.7-43.6-38.9-16.3-11.7-14.9-15.9-28.4-28.2-19.6-17.8-57.9-2.6-62.3-31.4a117.8 117.8 0 0198.5-134.3z" opacity=".6"/><path d="M257.1 113.7A117.7 117.7 0 01293 346.3c-15.6 2.4-29.4-28.5-43.6-38.8-16.2-11.7-14.9-16-28.3-28.2-19.7-17.8-57.9-2.5-62.4-31.5a117.6 117.6 0 0198.4-134.1z" opacity=".6"/><path d="M257.1 113.7a117.7 117.7 0 0135.8 232.6c-15.6 2.4-29.3-28.4-43.5-38.7-16-11.7-14.9-16.1-28.3-28.1-19.8-17.8-58-2.5-62.4-31.5a117.7 117.7 0 0198.4-134.3z" opacity=".6"/><path d="M257 113.7a117.5 117.5 0 1135.8 232.5c-15.6 2.4-29.3-28.2-43.4-38.6-15.9-11.7-14.9-16.2-28.2-28.1-19.9-17.8-58-2.5-62.5-31.6A117.7 117.7 0 01257 113.7z" opacity=".6"/><path d="M257 113.7a117.5 117.5 0 1135.8 232.4c-15.6 2.4-29.2-28.1-43.3-38.5-15.8-11.7-14.9-16.3-28.1-28.1-20-17.9-58.1-2.4-62.6-31.7-10-64.2 34-124.2 98.2-134.1z" opacity=".6"/><path d="M257 113.8A117.5 117.5 0 01292.8 346c-15.6 2.4-29.2-27.9-43.3-38.5-15.7-11.7-14.9-16.4-28.1-28.1-20.2-17.9-58.1-2.4-62.7-31.7A117.3 117.3 0 01257 113.8z" opacity=".6"/><path d="M256.9 113.8a117.5 117.5 0 0135.8 232.1c-15.6 2.4-29.1-27.7-43.2-38.4-15.6-11.7-14.9-16.5-28-28.1-20.3-17.9-58.2-2.3-62.7-31.8-9.9-64 34-124 98.1-133.8z" opacity=".6"/><path d="M256.9 113.8a117.4 117.4 0 0135.8 232c-15.5 2.4-29-27.6-43.1-38.3-15.4-11.7-14.9-16.6-28-28-20.4-17.9-58.3-2.3-62.8-31.8-9.9-64.1 34-124 98.1-133.9z" opacity=".6"/><path d="M256.8 113.8a117.3 117.3 0 1135.7 231.9c-15.5 2.4-29-27.4-43-38.2-15.3-11.7-14.9-16.6-27.9-28-20.5-18-58.3-2.3-62.9-31.9a117.4 117.4 0 0198.1-133.8z" opacity=".6"/><path d="M256.8 113.9a117.2 117.2 0 1135.6 231.8c-15.5 2.4-28.9-27.3-43-38.1-15.2-11.7-14.9-16.7-27.8-28-20.6-18-58.4-2.2-62.9-32a117.3 117.3 0 0198.1-133.7z" opacity=".6"/><path d="M256.7 113.9a117.2 117.2 0 1135.7 231.7c-15.5 2.4-28.9-27.1-42.9-38-15.1-11.7-14.9-16.8-27.8-28-20.8-18-58.4-2.2-63-32a117.3 117.3 0 0198-133.7z" opacity=".7"/><path d="M256.7 113.9a117.1 117.1 0 1135.6 231.6c-15.5 2.4-28.8-27-42.8-37.9-15-11.7-14.9-16.9-27.7-27.9-20.9-18-58.5-2.1-63.1-32.1-9.8-64 34-123.9 98-133.7z" opacity=".7"/><path d="M256.7 113.9a117.2 117.2 0 0135.7 231.5c-15.5 2.4-28.8-26.8-42.7-37.8-14.9-11.7-14.9-17-27.7-27.9-21-18-58.5-2.1-63.2-32.2a117 117 0 0197.9-133.6z" opacity=".7"/><path d="M256.6 113.9a117 117 0 0135.6 231.4c-15.5 2.4-28.7-26.6-42.7-37.7-14.7-11.7-14.9-17.1-27.6-27.9-21.1-18-58.6-2.1-63.2-32.2a117.2 117.2 0 0197.9-133.6z" opacity=".7"/><path d="M256.6 114a117 117 0 0135.6 231.2c-15.5 2.4-28.7-26.5-42.6-37.7-14.6-11.7-14.9-17.2-27.5-27.9-21.2-18.1-58.6-2-63.3-32.3A116.8 116.8 0 01256.6 114z" opacity=".7"/><path d="M256.5 114a117 117 0 0135.6 231.2c-15.5 2.4-28.6-26.3-42.5-37.6-14.5-11.7-14.9-17.2-27.5-27.9-21.4-18.1-58.7-2-63.4-32.4A117 117 0 01256.5 114z" opacity=".7"/><path d="M256.5 114a116.9 116.9 0 1135.6 231c-15.4 2.4-28.5-26.2-42.4-37.5-14.4-11.7-14.9-17.3-27.4-27.8-21.5-18.1-58.8-1.9-63.4-32.4A116.6 116.6 0 01256.5 114z" opacity=".7"/><path d="M256.4 114a116.8 116.8 0 1135.5 230.9c-15.4 2.4-28.5-26-42.4-37.4-14.3-11.7-14.9-17.4-27.4-27.8-21.6-18.1-58.8-1.9-63.5-32.5A117 117 0 01256.4 114z" opacity=".7"/><path d="M256.4 114.1A116.8 116.8 0 01292 344.9c-15.4 2.4-28.4-25.8-42.3-37.3-14.1-11.7-14.9-17.5-27.3-27.8-21.7-18.1-58.9-1.8-63.6-32.5a116.7 116.7 0 0197.6-133.2z" opacity=".7"/><path d="M256.4 114.1a116.7 116.7 0 0135.5 230.7c-15.4 2.4-28.4-25.7-42.2-37.2-14-11.7-14.9-17.6-27.2-27.8-21.9-18.1-58.9-1.8-63.7-32.6a116.6 116.6 0 0197.6-133.1z" opacity=".7"/><path d="M256.3 114.1a116.8 116.8 0 0135.6 230.6c-15.4 2.4-28.3-25.5-42.2-37.1-13.9-11.7-14.9-17.7-27.2-27.7-22-18.1-59-1.8-63.7-32.7a116.6 116.6 0 0197.5-133.1z" opacity=".7"/><path d="M256.3 114.1a116.7 116.7 0 0135.5 230.5c-15.4 2.4-28.3-25.4-42.1-37-13.8-11.7-14.9-17.7-27.1-27.7-22.1-18.2-59-1.7-63.8-32.7a116.6 116.6 0 0197.5-133.1z" opacity=".7"/><path d="M256.2 114.2a116.5 116.5 0 1135.4 230.4c-15.4 2.4-28.2-25.2-42-36.9-13.7-11.7-14.9-17.8-27-27.7-22.3-18.2-59.1-1.7-63.9-32.8a116.7 116.7 0 0197.5-133z" opacity=".7"/><path d="M256.2 114.2a116.5 116.5 0 1135.5 230.3c-15.4 2.4-28.2-25-41.9-36.9-13.6-11.7-15-17.9-27-27.7-22.4-18.2-59.1-1.6-63.9-32.9a116.3 116.3 0 0197.3-132.8z" opacity=".7"/><path d="M256.1 114.2a116.4 116.4 0 1135.4 230.2c-15.4 2.4-28.1-24.9-41.9-36.8-13.5-11.7-15-18-26.9-27.7-22.5-18.2-59.2-1.6-64-32.9a116.6 116.6 0 0197.4-132.8z" opacity=".7"/><path d="M256.1 114.2a116.3 116.3 0 1135.4 230c-15.3 2.4-28.1-24.7-41.8-36.7-13.3-11.7-15-18.1-26.9-27.6-22.6-18.2-59.3-1.6-64.1-33a116.6 116.6 0 0197.4-132.7z" opacity=".7"/><path d="M256 114.3a116.4 116.4 0 0135.4 230c-15.3 2.4-28-24.5-41.7-36.6-13.2-11.7-15-18.2-26.8-27.6-22.8-18.2-59.3-1.5-64.2-33.1A116.3 116.3 0 01256 114.3z" opacity=".7"/><path d="M256 114.3a116.3 116.3 0 0135.4 229.8c-15.3 2.4-28-24.4-41.6-36.5-13.1-11.7-15-18.2-26.7-27.6-22.9-18.2-59.4-1.5-64.2-33.1A116 116 0 01256 114.3z" opacity=".7"/><path d="M256 114.3A116.1 116.1 0 11291.3 344c-15.3 2.4-27.9-24.2-41.6-36.4-13-11.6-15-18.3-26.7-27.6-23-18.2-59.4-1.4-64.3-33.2A116.3 116.3 0 01256 114.3z" opacity=".7"/><path d="M255.9 114.3A116.2 116.2 0 11291.3 344c-15.3 2.4-27.9-24-41.5-36.3-12.9-11.6-15-18.4-26.6-27.6-23.2-18.2-59.5-1.4-64.4-33.3a116.2 116.2 0 0197.1-132.5z" opacity=".7"/><path d="M255.9 114.4a116 116 0 1135.3 229.5c-15.3 2.4-27.8-23.9-41.4-36.2-12.8-11.6-15-18.5-26.6-27.5-23.3-18.2-59.5-1.4-64.5-33.3a116.2 116.2 0 0197.2-132.5z" opacity=".8"/><path d="M255.8 114.4a116.1 116.1 0 0135.4 229.4c-15.3 2.4-27.8-23.7-41.3-36.1-12.7-11.6-15-18.6-26.5-27.5-23.4-18.2-59.6-1.3-64.5-33.4a115.9 115.9 0 0196.9-132.4z" opacity=".8"/><path d="M255.8 114.4a116 116 0 0135.3 229.3c-15.3 2.4-27.7-23.5-41.3-36.1-12.6-11.6-15-18.6-26.4-27.5-23.6-18.2-59.6-1.3-64.6-33.4a116 116 0 0197-132.3z" opacity=".8"/><path d="M255.7 114.4A116 116 0 01291 343.5c-15.3 2.3-27.7-23.4-41.2-36-12.4-11.6-15-18.7-26.4-27.5-23.7-18.2-59.7-1.2-64.7-33.5a116.1 116.1 0 0197-132.1z" opacity=".8"/><path d="M255.7 114.5A116 116 0 01291 343.6c-15.2 2.3-27.7-23.2-41.1-35.9-12.3-11.6-15-18.8-26.3-27.4-23.8-18.2-59.8-1.2-64.7-33.6a115.7 115.7 0 0196.8-132.2z" opacity=".8"/><path d="M255.7 114.5A115.8 115.8 0 01291 343.4c-15.2 2.3-27.6-23-41-35.8-12.2-11.6-15-18.9-26.3-27.4-24-18.2-59.8-1.2-64.8-33.6a115.7 115.7 0 0196.8-132.1z" opacity=".8"/><path d="M255.6 114.5a115.7 115.7 0 1135.2 228.8c-15.2 2.3-27.6-22.9-41-35.7-12.1-11.6-15-19-26.2-27.4-24.1-18.2-59.9-1.1-64.9-33.7a116 116 0 0196.9-132z" opacity=".8"/><path d="M255.6 114.5a115.8 115.8 0 0135.2 228.8c-15.2 2.3-27.5-22.7-40.9-35.6-12-11.6-15-19-26.1-27.4-24.2-18.2-59.9-1.1-65-33.8a115.8 115.8 0 0196.8-132z" opacity=".8"/><path d="M255.5 114.6a115.7 115.7 0 0135.2 228.6c-15.2 2.3-27.5-22.5-40.8-35.5-11.9-11.6-15-19.1-26.1-27.4-24.4-18.2-60-1-65-33.8a115.6 115.6 0 0196.7-131.9z" opacity=".8"/><path d="M255.5 114.6a115.6 115.6 0 1135.1 228.5c-15.2 2.3-27.4-22.4-40.7-35.4-11.8-11.6-15-19.2-26-27.3-24.5-18.2-60-1-65.1-33.9a115.6 115.6 0 0196.7-131.9z" opacity=".8"/><path d="M255.4 114.6A115.5 115.5 0 11290.6 343c-15.2 2.3-27.4-22.2-40.7-35.3-11.7-11.6-15-19.3-25.9-27.3-24.7-18.2-60.1-1-65.2-34a115.6 115.6 0 0196.6-131.8z" opacity=".8"/><path d="M255.4 114.6a115.5 115.5 0 1135.1 228.3c-15.2 2.3-27.4-22-40.6-35.3-11.6-11.6-15.1-19.4-25.9-27.3-24.8-18.2-60.1-.9-65.2-34-9.7-63 33.6-122 96.6-131.7z" opacity=".8"/><path d="M255.3 114.7a115.5 115.5 0 0135.2 228.2c-15.2 2.3-27.3-21.9-40.5-35.2-11.5-11.5-15.1-19.4-25.8-27.3-24.9-18.2-60.2-.9-65.3-34.1a115.2 115.2 0 0196.4-131.6z" opacity=".8"/><path d="M255.3 114.7a115.4 115.4 0 1135.1 228.1c-15.1 2.3-27.3-21.7-40.4-35.1-11.3-11.5-15.1-19.5-25.8-27.3-25.1-18.1-60.3-.8-65.4-34.1a115.4 115.4 0 0196.5-131.6z" opacity=".8"/><path d="M255.3 114.7a115.3 115.3 0 0135.1 227.9c-15.1 2.3-27.2-21.5-40.4-35-11.2-11.5-15.1-19.6-25.7-27.2-25.2-18.1-60.3-.8-65.5-34.2a115.3 115.3 0 0196.5-131.5z" opacity=".8"/><path d="M255.2 114.7a115.3 115.3 0 0135.1 227.9c-15.1 2.3-27.2-21.3-40.3-34.9-11.1-11.5-15.1-19.7-25.6-27.2-25.4-18.1-60.4-.7-65.5-34.3a115.2 115.2 0 0196.3-131.5z" opacity=".8"/><path d="M255.2 114.8a115.2 115.2 0 1135.1 227.7c-15.1 2.3-27.2-21.2-40.2-34.8-11-11.5-15.1-19.7-25.6-27.2-25.5-18.1-60.4-.7-65.6-34.3a115.1 115.1 0 0196.3-131.4z" opacity=".8"/><path d="M255.1 114.8a115 115 0 1135 227.6c-15.1 2.3-27.1-21-40.1-34.7-10.9-11.5-15.1-19.8-25.5-27.2-25.7-18.1-60.5-.7-65.7-34.4a115.3 115.3 0 0196.3-131.3z" opacity=".8"/><path d="M255.1 114.8a115.1 115.1 0 0135.1 227.5c-15.1 2.3-27.1-20.8-40.1-34.6-10.8-11.5-15.1-19.9-25.5-27.1-25.8-18-60.5-.6-65.7-34.5a115.1 115.1 0 0196.2-131.3z" opacity=".8"/><path d="M255 114.8a115 115 0 1135 227.4c-15.1 2.3-27-20.7-40-34.5-10.7-11.5-15.1-20-25.4-27.1-26-18-60.6-.6-65.8-34.5A115.2 115.2 0 01255 114.8z" opacity=".8"/><path d="M255 114.9a115 115 0 1135 227.4c-15.1 2.3-27-20.5-39.9-34.5-10.6-11.5-15.1-20-25.3-27.1-26.1-18-60.6-.5-65.9-34.6A114.8 114.8 0 01255 114.9z" opacity=".9"/><path d="M255 114.9a115 115 0 0135 227.2c-15.1 2.3-27-20.3-39.9-34.4-10.5-11.5-15.1-20.1-25.3-27.1-26.3-18-60.7-.5-66-34.7a114.9 114.9 0 0196.2-131z" opacity=".9"/><path d="M254.9 114.9A114.8 114.8 0 11289.8 342c-15 2.3-26.9-20.1-39.8-34.3-10.4-11.5-15.1-20.2-25.2-27.1-26.4-17.9-60.8-.5-66-34.7a115 115 0 0196.1-131z" opacity=".9"/><path d="M254.9 114.9a114.8 114.8 0 1135 227c-15 2.3-26.9-20-39.7-34.2-10.3-11.4-15.1-20.3-25.2-27-26.6-17.9-60.8-.4-66.1-34.8a114.8 114.8 0 0196-131z" opacity=".9"/><path d="M254.8 115a114.8 114.8 0 0134.9 226.9c-15 2.3-26.9-19.8-39.6-34.1-10.2-11.4-15.1-20.3-25.1-27-26.7-17.9-60.9-.4-66.2-34.9a114.8 114.8 0 0196-130.9z" opacity=".9"/><path d="M254.8 115a114.7 114.7 0 0134.9 226.7c-15 2.3-26.8-19.6-39.6-34-10.1-11.4-15.1-20.4-25-27-26.9-17.8-60.9-.3-66.2-34.9A114.6 114.6 0 01254.8 115z" opacity=".9"/><path d="M254.7 115a114.7 114.7 0 0134.9 226.7c-15 2.3-26.8-19.4-39.5-33.9-10-11.4-15.1-20.5-25-27-27-17.8-61-.3-66.3-35A114.8 114.8 0 01254.7 115z" opacity=".9"/><path d="M254.7 115a114.6 114.6 0 0134.9 226.5c-15 2.3-26.8-19.3-39.4-33.8-9.9-11.4-15.1-20.6-24.9-26.9-27.2-17.8-61-.3-66.4-35A114.6 114.6 0 01254.7 115z" opacity=".9"/><path d="M254.7 115.1a114.6 114.6 0 0134.8 226.4c-15 2.3-26.8-19.1-39.3-33.7-9.8-11.4-15.1-20.6-24.8-26.9-27.3-17.7-61.1-.2-66.5-35.1a114.5 114.5 0 0195.8-130.7z" opacity=".9"/><path d="M254.6 115.1a114.5 114.5 0 1134.9 226.3c-15 2.3-26.7-18.9-39.3-33.7-9.7-11.4-15.2-20.7-24.8-26.9-27.5-17.7-61.1-.2-66.5-35.2a114.4 114.4 0 0195.7-130.5z" opacity=".9"/><path d="M254.6 115.1a114.4 114.4 0 1134.8 226.2c-15 2.3-26.7-18.7-39.2-33.6-9.6-11.4-15.2-20.8-24.7-26.9-27.6-17.6-61.2-.1-66.6-35.2a114.4 114.4 0 0195.7-130.5z" opacity=".9"/><path d="M254.5 115.1a114.5 114.5 0 0134.9 226.1c-14.9 2.3-26.7-18.6-39.1-33.5-9.5-11.4-15.2-20.9-24.7-26.9-27.8-17.6-61.3-.1-66.7-35.3a114.4 114.4 0 0195.6-130.4z" opacity=".9"/><path d="M254.5 115.2a114.3 114.3 0 0134.8 226c-14.9 2.3-26.6-18.4-39-33.4-9.4-11.4-15.2-20.9-24.6-26.8-28-17.5-61.3-.1-66.8-35.4a114.3 114.3 0 0195.6-130.4z" opacity=".9"/><path d="M254.4 115.2A114.2 114.2 0 01289.2 341c-14.9 2.3-26.6-18.2-39-33.3-9.3-11.4-15.2-21-24.5-26.8-28.1-17.5-61.4 0-66.8-35.4a114.2 114.2 0 0195.5-130.3z" opacity=".9"/><path d="M254.4 115.2A114.3 114.3 0 01289.2 341c-14.9 2.3-26.6-18-38.9-33.2-9.2-11.4-15.2-21.1-24.5-26.8-28.3-17.4-61.4 0-66.9-35.5a114.2 114.2 0 0195.5-130.3z" opacity=".9"/><path d="M254.3 115.2A114.1 114.1 0 11289 340.9c-14.9 2.3-26.6-17.8-38.8-33.1-9.1-11.3-15.2-21.1-24.4-26.8-28.4-17.4-61.5.1-67-35.6a114.3 114.3 0 0195.5-130.2z" opacity=".9"/><path d="M254.3 115.3A114 114 0 11289 340.8c-14.9 2.3-26.6-17.7-38.7-33-9-11.3-15.2-21.2-24.4-26.8-28.6-17.3-61.5.1-67-35.6a114 114 0 0195.4-130.1z" opacity=".9"/><path d="M254.3 115.3A114 114 0 11289 340.7c-14.9 2.3-26.5-17.5-38.7-32.9-8.9-11.3-15.2-21.3-24.3-26.7-28.8-17.2-61.6.1-67.1-35.7a114 114 0 0195.4-130.1z" opacity=".9"/><path d="M254.2 115.3a114 114 0 0134.7 225.3c-14.9 2.3-26.5-17.3-38.6-32.9-8.8-11.3-15.2-21.3-24.2-26.7-28.9-17.2-61.7.2-67.2-35.7a114 114 0 0195.3-130z" opacity=".9"/><path d="M254.2 115.3a113.8 113.8 0 1134.6 225.2c-14.9 2.3-26.5-17.1-38.5-32.8-8.7-11.3-15.2-21.4-24.2-26.7-29.1-17.1-61.7.2-67.3-35.8a114 114 0 0195.4-129.9z" opacity=".9"/><path d="M254.1 115.4a113.9 113.9 0 0134.7 225.1c-14.8 2.3-26.5-16.9-38.4-32.7-8.6-11.3-15.2-21.5-24.1-26.7-29.3-17-61.8.3-67.3-35.9a113.7 113.7 0 0195.1-129.8z"/><path d="M254.1 115.4a113.7 113.7 0 1134.6 225c-14.8 2.3-26.5-16.8-38.4-32.6-8.5-11.3-15.2-21.6-24.1-26.6-29.4-16.9-61.8.3-67.4-35.9a114 114 0 0195.3-129.9z"/><path d="M254 115.4a113.8 113.8 0 0134.7 224.9c-14.8 2.3-26.4-16.6-38.3-32.5-8.4-11.3-15.2-21.6-24-26.6-29.6-16.9-61.9.3-67.5-36A113.8 113.8 0 01254 115.4z"/><path d="M254 115.4a113.7 113.7 0 1134.6 224.8c-14.8 2.3-26.4-16.4-38.2-32.4-8.3-11.3-15.2-21.7-23.9-26.6-29.8-16.8-61.9.4-67.5-36.1a113.7 113.7 0 0195-129.7z"/><path d="M254 115.5a113.6 113.6 0 1134.6 224.6c-14.8 2.3-26.4-16.2-38.1-32.3-8.2-11.3-15.2-21.8-23.9-26.6-30-16.7-62 .4-67.6-36.1a113.5 113.5 0 0195-129.6z"/><path d="M253.9 115.5a113.7 113.7 0 0134.6 224.6c-14.8 2.3-26.4-16-38.1-32.2-8.1-11.3-15.2-21.8-23.8-26.6-30.1-16.6-62 .5-67.7-36.2a113.6 113.6 0 0195-129.6z"/><path d="M253.9 115.5a113.6 113.6 0 0134.6 224.4c-14.8 2.3-26.4-15.9-38-32.1-8-11.3-15.2-21.9-23.7-26.5-30.3-16.5-62.1.5-67.8-36.3-9.6-62 32.9-120 94.9-129.5z"/><path d="M253.8 115.5a113.5 113.5 0 1134.5 224.3c-14.8 2.3-26.4-15.7-37.9-32.1-7.9-11.3-15.2-22-23.7-26.5-30.5-16.4-62.2.6-67.8-36.3a113.6 113.6 0 0194.9-129.4z"/><path d="M253.8 115.6a113.5 113.5 0 0134.5 224.3c-14.7 2.3-26.4-15.5-37.9-32-7.8-11.3-15.2-22-23.6-26.5-30.7-16.3-62.2.6-67.9-36.4-9.5-62 33-119.9 94.9-129.4z"/><path d="M253.7 115.6a113.4 113.4 0 1134.5 224.1c-14.7 2.3-26.4-15.3-37.8-31.9-7.8-11.3-15.2-22.1-23.6-26.5-30.9-16.2-62.3.6-68-36.5a113.5 113.5 0 0194.9-129.2z"/><path d="M158.9 244.8a113.4 113.4 0 11129.3 94.8c-24.7 3.8-40.6-47.6-61.2-58.2-31.1-16.1-62.3.6-68.1-36.6z"/></g><linearGradient id="SVGID_3_" x1="884.3" x2="884.3" y1="-2461.6" y2="-2177.6" gradientTransform="rotate(24.3 -5717.1 -2536.9)" gradientUnits="userSpaceOnUse"><stop offset="0" stop-color="#63c2ff"/><stop offset=".1" stop-color="#6cb3fe"/><stop offset=".3" stop-color="#838dfa"/><stop offset=".5" stop-color="#a456f4"/><stop offset=".7" stop-color="#7448ee"/><stop offset="1" stop-color="#2e34e6"/></linearGradient><path fill="url(#SVGID_3_)" d="M373.9 291.2a113 113 0 01-36.1 44.7c-26.8 19.7-93.3 14.8-93.3 14.8 0-6.8 2.1-30-4.2-32.9-20.3-9.2-44.8-24.1-56.3-41.5-20.7-31.5-34.1-41.9-17.5-78.8a113.8 113.8 0 11207.4 93.7z" clip-path="url(#SVGID_2_)"/><linearGradient id="SVGID_4_" x1="125.8" x2="221" y1="132.9" y2="270.3" gradientUnits="userSpaceOnUse"><stop offset="0" stop-color="#63c2ff"/><stop offset=".1" stop-color="#6cb3fe"/><stop offset=".3" stop-color="#838dfa"/><stop offset=".5" stop-color="#a456f4"/><stop offset=".7" stop-color="#7448ee"/><stop offset="1" stop-color="#2e34e6"/></linearGradient><path fill="url(#SVGID_4_)" d="M159 227c0-6.4 160.2 6.5 158.9.5-7.5-34.3-35.3-60.5-71.8-60.5h-71.8a74 74 0 00-73.8 69.1c-.2 3.3-.2 50.6 0 54h59.1L159 227z"/><path d="M159.7 290.2v-48.8h214.8v141.1H258" class="st205"/><path d="M159.2 215.2H375v27H159.2z" class="st206"/><path fill="none" stroke="#fff" stroke-linecap="round" stroke-miterlimit="10" stroke-width="8" d="M189.5 273.5h154.8"/><path d="M207.1 301.1h141.4M236.3 324.8h112.2M251.1 349.1h97.4" class="st205"/><g><path fill="#9150f2" d="M196.9 107.7s15.4-4.7 19.2-19.2a26.6 26.6 0 018.5-13.9c4.6-3.9 10.4-4.9 15.6-7.6a27.3 27.3 0 0014.3-16.9c4.5-17 19.2-19.2 19.2-19.2L304 61s-14.7 2.2-19.2 19.2c-2 7.5-7.5 13.3-14.3 16.9-5.3 2.8-11 3.7-15.6 7.6a27 27 0 00-8.5 13.9c-3.8 14.5-19.2 19.2-19.2 19.2l-30.3-30.1z"/><path d="M229.3 119.4c-.8 0-1.6.1-2.3.4a24 24 0 00-21.7-13.6c-9.5 0-17.8 5.6-21.7 13.6a7 7 0 00-9.3 6.6 7 7 0 007 7h.2a24 24 0 0047.6 0h.2a7 7 0 007-7 7 7 0 00-7-7z" class="st206"/><path d="M209.9 125.6v3.6c0 .9.7 1.6 1.6 1.6.9 0 1.6-.7 1.6-1.6v-3.6c0-.9-.7-1.6-1.6-1.6-.9-.1-1.6.7-1.6 1.6zM195.4 125.6v3.6c0 .9.7 1.6 1.6 1.6.9 0 1.6-.7 1.6-1.6v-3.6c0-.9-.7-1.6-1.6-1.6-.9-.1-1.6.7-1.6 1.6z"/></g><g><path d="M68 142.9H31.9a12 12 0 01-12-12 12 12 0 0112-12H68M112 221a48 48 0 00-44.5-30M129.9 203.1a72 72 0 00-62.5-36.2M147 185.3A96 96 0 0067.4 143" class="st205"/><path d="M68.4 166.9c-6.6 0-12-5.4-12-12s5.4-12 12-12M68.4 191c-6.6 0-12-5.4-12-12s5.4-12 12-12M68.4 191.1c-6.6 0-12 5.4-12 12s5.4 12 12 12V264M163.9 167.6a120 120 0 00-96.5-48.7" class="st205"/></g><g><path d="M95.3 290.2h66.8M186.1 385.3h-85.7M162.5 338.2a48 48 0 0148 48M162.5 314.2a72 72 0 0172 72M162.5 290.2c53 0 96 43 96 96" class="st205"/><path d="M234.5 385.2c0 6.6 5.4 12 12 12s12-5.4 12-12M210.4 385.2c0 6.6 5.4 12 12 12s12-5.4 12-12M186.1 385.2c0 6.6 5.4 12 12 12s12-5.4 12-12" class="st205"/></g><path d="M95.3 290.2a27 27 0 01-27-27" class="st205"/></g></svg>
